<?xml version="1.0" encoding="utf-8" standalone="no"?>
<!DOCTYPE svg PUBLIC "-//W3C//DTD SVG 1.1//EN"
  "http://www.w3.org/Graphics/SVG/1.1/DTD/svg11.dtd">
<svg xmlns:xlink="http://www.w3.org/1999/xlink" width="1440pt" height="720pt" viewBox="0 0 1440 720" xmlns="http://www.w3.org/2000/svg" version="1.1">
 <metadata>
  <rdf:RDF xmlns:dc="http://purl.org/dc/elements/1.1/" xmlns:cc="http://creativecommons.org/ns#" xmlns:rdf="http://www.w3.org/1999/02/22-rdf-syntax-ns#">
   <cc:Work>
    <dc:type rdf:resource="http://purl.org/dc/dcmitype/StillImage"/>
    <dc:date>2022-10-16T16:34:41.770348</dc:date>
    <dc:format>image/svg+xml</dc:format>
    <dc:creator>
     <cc:Agent>
      <dc:title>Matplotlib v3.6.0, https://matplotlib.org/</dc:title>
     </cc:Agent>
    </dc:creator>
   </cc:Work>
  </rdf:RDF>
 </metadata>
 <defs>
  <style type="text/css">*{stroke-linejoin: round; stroke-linecap: butt}</style>
 </defs>
 <g id="figure_1">
  <g id="patch_1">
   <path d="M 0 720 
L 1440 720 
L 1440 0 
L 0 0 
z
" style="fill: #ffffff"/>
  </g>
  <g id="axes_1">
   <g id="patch_2">
    <path d="M 180 640.8 
L 687.272727 640.8 
L 687.272727 86.4 
L 180 86.4 
z
" style="fill: #ffffff"/>
   </g>
   <g id="matplotlib.axis_1">
    <g id="xtick_1">
     <g id="line2d_1">
      <path d="M 180 640.8 
L 180 86.4 
" clip-path="url(#p2795f83894)" style="fill: none; stroke-dasharray: 2.96,1.28; stroke-dashoffset: 0; stroke: #000000; stroke-opacity: 0.8; stroke-width: 0.8"/>
     </g>
     <g id="line2d_2">
      <defs>
       <path id="m67ab13ed95" d="M 0 0 
L 0 3.5 
" style="stroke: #000000; stroke-width: 0.8"/>
      </defs>
      <g>
       <use xlink:href="#m67ab13ed95" x="180" y="640.8" style="stroke: #000000; stroke-width: 0.8"/>
      </g>
     </g>
     <g id="text_1">
      <!-- 0 -->
      <g transform="translate(177 655.995625) scale(0.12 -0.12)">
       <defs>
        <path id="STIXGeneral-Regular-30" d="M 3046 2112 
Q 3046 1683 2963 1302 
Q 2880 922 2717 602 
Q 2554 282 2266 96 
Q 1978 -90 1600 -90 
Q 1210 -90 915 108 
Q 621 307 461 640 
Q 301 973 227 1350 
Q 154 1728 154 2150 
Q 154 2746 301 3222 
Q 448 3699 790 4012 
Q 1133 4326 1626 4326 
Q 2253 4326 2649 3712 
Q 3046 3098 3046 2112 
z
M 2432 2080 
Q 2432 3091 2217 3625 
Q 2003 4160 1587 4160 
Q 1190 4160 979 3622 
Q 768 3085 768 2106 
Q 768 1120 979 598 
Q 1190 77 1600 77 
Q 2003 77 2217 598 
Q 2432 1120 2432 2080 
z
" transform="scale(0.015625)"/>
       </defs>
       <use xlink:href="#STIXGeneral-Regular-30"/>
      </g>
     </g>
    </g>
    <g id="xtick_2">
     <g id="line2d_3">
      <path d="M 230.727273 640.8 
L 230.727273 86.4 
" clip-path="url(#p2795f83894)" style="fill: none; stroke-dasharray: 2.96,1.28; stroke-dashoffset: 0; stroke: #000000; stroke-opacity: 0.8; stroke-width: 0.8"/>
     </g>
     <g id="line2d_4">
      <g>
       <use xlink:href="#m67ab13ed95" x="230.727273" y="640.8" style="stroke: #000000; stroke-width: 0.8"/>
      </g>
     </g>
     <g id="text_2">
      <!-- 120 -->
      <g transform="translate(221.727273 655.995625) scale(0.12 -0.12)">
       <defs>
        <path id="STIXGeneral-Regular-31" d="M 2522 0 
L 755 0 
L 755 96 
Q 1107 115 1235 227 
Q 1363 339 1363 608 
L 1363 3482 
Q 1363 3795 1171 3795 
Q 1082 3795 883 3718 
L 710 3654 
L 710 3744 
L 1856 4326 
L 1914 4307 
L 1914 486 
Q 1914 275 2042 185 
Q 2170 96 2522 96 
L 2522 0 
z
" transform="scale(0.015625)"/>
        <path id="STIXGeneral-Regular-32" d="M 3034 877 
L 2688 0 
L 186 0 
L 186 77 
L 1325 1286 
Q 1773 1754 1965 2144 
Q 2157 2534 2157 2950 
Q 2157 3379 1920 3616 
Q 1683 3853 1267 3853 
Q 922 3853 720 3673 
Q 518 3494 326 3021 
L 192 3053 
Q 301 3648 630 3987 
Q 960 4326 1523 4326 
Q 2054 4326 2380 4006 
Q 2707 3686 2707 3200 
Q 2707 2477 1888 1613 
L 832 486 
L 2330 486 
Q 2541 486 2665 569 
Q 2790 653 2944 915 
L 3034 877 
z
" transform="scale(0.015625)"/>
       </defs>
       <use xlink:href="#STIXGeneral-Regular-31"/>
       <use xlink:href="#STIXGeneral-Regular-32" x="49.999985"/>
       <use xlink:href="#STIXGeneral-Regular-30" x="99.999969"/>
      </g>
     </g>
    </g>
    <g id="xtick_3">
     <g id="line2d_5">
      <path d="M 281.454545 640.8 
L 281.454545 86.4 
" clip-path="url(#p2795f83894)" style="fill: none; stroke-dasharray: 2.96,1.28; stroke-dashoffset: 0; stroke: #000000; stroke-opacity: 0.8; stroke-width: 0.8"/>
     </g>
     <g id="line2d_6">
      <g>
       <use xlink:href="#m67ab13ed95" x="281.454545" y="640.8" style="stroke: #000000; stroke-width: 0.8"/>
      </g>
     </g>
     <g id="text_3">
      <!-- 240 -->
      <g transform="translate(272.454545 655.995625) scale(0.12 -0.12)">
       <defs>
        <path id="STIXGeneral-Regular-34" d="M 3027 1069 
L 2368 1069 
L 2368 0 
L 1869 0 
L 1869 1069 
L 77 1069 
L 77 1478 
L 2086 4326 
L 2368 4326 
L 2368 1478 
L 3027 1478 
L 3027 1069 
z
M 1869 1478 
L 1869 3674 
L 333 1478 
L 1869 1478 
z
" transform="scale(0.015625)"/>
       </defs>
       <use xlink:href="#STIXGeneral-Regular-32"/>
       <use xlink:href="#STIXGeneral-Regular-34" x="49.999985"/>
       <use xlink:href="#STIXGeneral-Regular-30" x="99.999969"/>
      </g>
     </g>
    </g>
    <g id="xtick_4">
     <g id="line2d_7">
      <path d="M 332.181818 640.8 
L 332.181818 86.4 
" clip-path="url(#p2795f83894)" style="fill: none; stroke-dasharray: 2.96,1.28; stroke-dashoffset: 0; stroke: #000000; stroke-opacity: 0.8; stroke-width: 0.8"/>
     </g>
     <g id="line2d_8">
      <g>
       <use xlink:href="#m67ab13ed95" x="332.181818" y="640.8" style="stroke: #000000; stroke-width: 0.8"/>
      </g>
     </g>
     <g id="text_4">
      <!-- 360 -->
      <g transform="translate(323.181818 655.995625) scale(0.12 -0.12)">
       <defs>
        <path id="STIXGeneral-Regular-33" d="M 390 3264 
L 288 3290 
Q 435 3770 748 4048 
Q 1062 4326 1542 4326 
Q 1990 4326 2265 4083 
Q 2541 3840 2541 3450 
Q 2541 2925 1946 2566 
Q 2298 2413 2477 2227 
Q 2758 1914 2758 1402 
Q 2758 890 2464 506 
Q 2246 211 1840 60 
Q 1434 -90 979 -90 
Q 262 -90 262 275 
Q 262 378 339 442 
Q 416 506 525 506 
Q 685 506 915 339 
Q 1197 141 1466 141 
Q 1818 141 2058 425 
Q 2298 710 2298 1120 
Q 2298 1856 1632 2048 
Q 1434 2112 979 2112 
L 979 2202 
Q 1338 2323 1517 2432 
Q 2035 2726 2035 3290 
Q 2035 3610 1852 3776 
Q 1670 3942 1344 3942 
Q 768 3942 390 3264 
z
" transform="scale(0.015625)"/>
        <path id="STIXGeneral-Regular-36" d="M 2854 4378 
L 2867 4275 
Q 2112 4154 1606 3664 
Q 1101 3174 973 2451 
Q 1344 2739 1786 2739 
Q 2349 2739 2672 2380 
Q 2995 2022 2995 1402 
Q 2995 774 2669 378 
Q 2291 -90 1651 -90 
Q 870 -90 518 557 
Q 218 1107 218 1786 
Q 218 2835 915 3552 
Q 1312 3962 1731 4131 
Q 2150 4301 2854 4378 
z
M 2419 1203 
Q 2419 2445 1555 2445 
Q 1235 2445 1024 2275 
Q 813 2106 813 1702 
Q 813 954 1046 522 
Q 1280 90 1722 90 
Q 2061 90 2240 394 
Q 2419 698 2419 1203 
z
" transform="scale(0.015625)"/>
       </defs>
       <use xlink:href="#STIXGeneral-Regular-33"/>
       <use xlink:href="#STIXGeneral-Regular-36" x="49.999985"/>
       <use xlink:href="#STIXGeneral-Regular-30" x="99.999969"/>
      </g>
     </g>
    </g>
    <g id="xtick_5">
     <g id="line2d_9">
      <path d="M 382.909091 640.8 
L 382.909091 86.4 
" clip-path="url(#p2795f83894)" style="fill: none; stroke-dasharray: 2.96,1.28; stroke-dashoffset: 0; stroke: #000000; stroke-opacity: 0.8; stroke-width: 0.8"/>
     </g>
     <g id="line2d_10">
      <g>
       <use xlink:href="#m67ab13ed95" x="382.909091" y="640.8" style="stroke: #000000; stroke-width: 0.8"/>
      </g>
     </g>
     <g id="text_5">
      <!-- 480 -->
      <g transform="translate(373.909091 655.995625) scale(0.12 -0.12)">
       <defs>
        <path id="STIXGeneral-Regular-38" d="M 2848 992 
Q 2848 499 2505 204 
Q 2163 -90 1587 -90 
Q 1050 -90 704 204 
Q 358 499 358 954 
Q 358 1293 524 1533 
Q 691 1773 1190 2125 
Q 710 2522 553 2765 
Q 397 3008 397 3328 
Q 397 3782 745 4054 
Q 1094 4326 1638 4326 
Q 2106 4326 2410 4060 
Q 2714 3795 2714 3411 
Q 2714 3059 2531 2848 
Q 2349 2637 1856 2374 
Q 2432 1990 2640 1689 
Q 2848 1389 2848 992 
z
M 2272 3411 
Q 2272 3744 2086 3945 
Q 1901 4147 1574 4147 
Q 1248 4147 1059 3977 
Q 870 3808 870 3513 
Q 870 3219 1059 2979 
Q 1248 2739 1670 2490 
Q 1997 2682 2134 2896 
Q 2272 3110 2272 3411 
z
M 1734 1741 
L 1357 1997 
Q 1075 1766 960 1545 
Q 845 1325 845 1011 
Q 845 576 1065 333 
Q 1286 90 1658 90 
Q 1971 90 2166 285 
Q 2362 480 2362 794 
Q 2362 1082 2214 1299 
Q 2067 1517 1734 1741 
z
" transform="scale(0.015625)"/>
       </defs>
       <use xlink:href="#STIXGeneral-Regular-34"/>
       <use xlink:href="#STIXGeneral-Regular-38" x="49.999985"/>
       <use xlink:href="#STIXGeneral-Regular-30" x="99.999969"/>
      </g>
     </g>
    </g>
    <g id="xtick_6">
     <g id="line2d_11">
      <path d="M 433.636364 640.8 
L 433.636364 86.4 
" clip-path="url(#p2795f83894)" style="fill: none; stroke-dasharray: 2.96,1.28; stroke-dashoffset: 0; stroke: #000000; stroke-opacity: 0.8; stroke-width: 0.8"/>
     </g>
     <g id="line2d_12">
      <g>
       <use xlink:href="#m67ab13ed95" x="433.636364" y="640.8" style="stroke: #000000; stroke-width: 0.8"/>
      </g>
     </g>
     <g id="text_6">
      <!-- 600 -->
      <g transform="translate(424.636364 655.995625) scale(0.12 -0.12)">
       <use xlink:href="#STIXGeneral-Regular-36"/>
       <use xlink:href="#STIXGeneral-Regular-30" x="49.999985"/>
       <use xlink:href="#STIXGeneral-Regular-30" x="99.999969"/>
      </g>
     </g>
    </g>
    <g id="xtick_7">
     <g id="line2d_13">
      <path d="M 484.363636 640.8 
L 484.363636 86.4 
" clip-path="url(#p2795f83894)" style="fill: none; stroke-dasharray: 2.96,1.28; stroke-dashoffset: 0; stroke: #000000; stroke-opacity: 0.8; stroke-width: 0.8"/>
     </g>
     <g id="line2d_14">
      <g>
       <use xlink:href="#m67ab13ed95" x="484.363636" y="640.8" style="stroke: #000000; stroke-width: 0.8"/>
      </g>
     </g>
     <g id="text_7">
      <!-- 720 -->
      <g transform="translate(475.363636 655.995625) scale(0.12 -0.12)">
       <defs>
        <path id="STIXGeneral-Regular-37" d="M 2874 4134 
L 1517 -51 
L 1101 -51 
L 2368 3763 
L 992 3763 
Q 717 3763 582 3667 
Q 448 3571 243 3238 
L 128 3296 
L 512 4237 
L 2874 4237 
L 2874 4134 
z
" transform="scale(0.015625)"/>
       </defs>
       <use xlink:href="#STIXGeneral-Regular-37"/>
       <use xlink:href="#STIXGeneral-Regular-32" x="49.999985"/>
       <use xlink:href="#STIXGeneral-Regular-30" x="99.999969"/>
      </g>
     </g>
    </g>
    <g id="xtick_8">
     <g id="line2d_15">
      <path d="M 535.090909 640.8 
L 535.090909 86.4 
" clip-path="url(#p2795f83894)" style="fill: none; stroke-dasharray: 2.96,1.28; stroke-dashoffset: 0; stroke: #000000; stroke-opacity: 0.8; stroke-width: 0.8"/>
     </g>
     <g id="line2d_16">
      <g>
       <use xlink:href="#m67ab13ed95" x="535.090909" y="640.8" style="stroke: #000000; stroke-width: 0.8"/>
      </g>
     </g>
     <g id="text_8">
      <!-- 840 -->
      <g transform="translate(526.090909 655.995625) scale(0.12 -0.12)">
       <use xlink:href="#STIXGeneral-Regular-38"/>
       <use xlink:href="#STIXGeneral-Regular-34" x="49.999985"/>
       <use xlink:href="#STIXGeneral-Regular-30" x="99.999969"/>
      </g>
     </g>
    </g>
    <g id="xtick_9">
     <g id="line2d_17">
      <path d="M 585.818182 640.8 
L 585.818182 86.4 
" clip-path="url(#p2795f83894)" style="fill: none; stroke-dasharray: 2.96,1.28; stroke-dashoffset: 0; stroke: #000000; stroke-opacity: 0.8; stroke-width: 0.8"/>
     </g>
     <g id="line2d_18">
      <g>
       <use xlink:href="#m67ab13ed95" x="585.818182" y="640.8" style="stroke: #000000; stroke-width: 0.8"/>
      </g>
     </g>
     <g id="text_9">
      <!-- 960 -->
      <g transform="translate(576.818182 655.995625) scale(0.12 -0.12)">
       <defs>
        <path id="STIXGeneral-Regular-39" d="M 378 -141 
L 358 -13 
Q 1094 115 1603 608 
Q 2112 1101 2304 1882 
Q 1933 1517 1344 1517 
Q 826 1517 509 1875 
Q 192 2234 192 2816 
Q 192 3462 573 3894 
Q 954 4326 1523 4326 
Q 2131 4326 2528 3840 
Q 2938 3328 2938 2522 
Q 2938 1958 2742 1462 
Q 2547 966 2170 621 
Q 1773 262 1395 105 
Q 1018 -51 378 -141 
z
M 2317 2272 
L 2317 2522 
Q 2317 4147 1472 4147 
Q 1171 4147 1005 3930 
Q 909 3802 845 3546 
Q 781 3290 781 3034 
Q 781 2464 995 2128 
Q 1210 1792 1568 1792 
Q 1824 1792 2070 1917 
Q 2317 2042 2317 2272 
z
" transform="scale(0.015625)"/>
       </defs>
       <use xlink:href="#STIXGeneral-Regular-39"/>
       <use xlink:href="#STIXGeneral-Regular-36" x="49.999985"/>
       <use xlink:href="#STIXGeneral-Regular-30" x="99.999969"/>
      </g>
     </g>
    </g>
    <g id="xtick_10">
     <g id="line2d_19">
      <path d="M 636.545455 640.8 
L 636.545455 86.4 
" clip-path="url(#p2795f83894)" style="fill: none; stroke-dasharray: 2.96,1.28; stroke-dashoffset: 0; stroke: #000000; stroke-opacity: 0.8; stroke-width: 0.8"/>
     </g>
     <g id="line2d_20">
      <g>
       <use xlink:href="#m67ab13ed95" x="636.545455" y="640.8" style="stroke: #000000; stroke-width: 0.8"/>
      </g>
     </g>
     <g id="text_10">
      <!-- 1080 -->
      <g transform="translate(624.545455 655.995625) scale(0.12 -0.12)">
       <use xlink:href="#STIXGeneral-Regular-31"/>
       <use xlink:href="#STIXGeneral-Regular-30" x="49.999985"/>
       <use xlink:href="#STIXGeneral-Regular-38" x="99.999969"/>
       <use xlink:href="#STIXGeneral-Regular-30" x="149.999954"/>
      </g>
     </g>
    </g>
    <g id="xtick_11">
     <g id="line2d_21">
      <path d="M 687.272727 640.8 
L 687.272727 86.4 
" clip-path="url(#p2795f83894)" style="fill: none; stroke-dasharray: 2.96,1.28; stroke-dashoffset: 0; stroke: #000000; stroke-opacity: 0.8; stroke-width: 0.8"/>
     </g>
     <g id="line2d_22">
      <g>
       <use xlink:href="#m67ab13ed95" x="687.272727" y="640.8" style="stroke: #000000; stroke-width: 0.8"/>
      </g>
     </g>
     <g id="text_11">
      <!-- 1200 -->
      <g transform="translate(675.272727 655.995625) scale(0.12 -0.12)">
       <use xlink:href="#STIXGeneral-Regular-31"/>
       <use xlink:href="#STIXGeneral-Regular-32" x="49.999985"/>
       <use xlink:href="#STIXGeneral-Regular-30" x="99.999969"/>
       <use xlink:href="#STIXGeneral-Regular-30" x="149.999954"/>
      </g>
     </g>
    </g>
    <g id="text_12">
     <!-- $\rho_{CO_2}\,[\mathrm{kg}/\mathrm{m}^{3}]$ -->
     <g transform="translate(395.761364 675.05) scale(0.15 -0.15)">
      <defs>
       <path id="STIXGeneral-Italic-3c1" d="M -58 -864 
L 422 966 
Q 640 1811 1081 2316 
Q 1523 2822 2042 2822 
Q 2189 2822 2278 2816 
Q 2368 2810 2525 2765 
Q 2682 2720 2774 2633 
Q 2867 2547 2940 2371 
Q 3014 2195 3014 1946 
Q 3014 1210 2403 570 
Q 1792 -70 1107 -70 
Q 864 -70 672 38 
L 442 -864 
Q 378 -1126 243 -1312 
L -256 -1312 
Q -128 -1114 -58 -864 
z
M 2445 1997 
Q 2445 2291 2333 2489 
Q 2221 2688 2022 2688 
Q 1747 2688 1472 2361 
Q 1197 2035 1056 1530 
Q 762 467 762 288 
Q 762 186 851 118 
Q 941 51 1075 51 
Q 1472 58 1798 390 
Q 2125 723 2285 1161 
Q 2445 1600 2445 1997 
z
" transform="scale(0.015625)"/>
       <path id="STIXGeneral-Italic-43" d="M 4410 4250 
L 4173 2970 
L 4058 2989 
Q 3942 4032 3104 4032 
Q 2406 4032 1830 3411 
Q 1491 3053 1315 2541 
Q 1139 2029 1139 1485 
Q 1139 173 2259 173 
Q 2656 173 2985 339 
Q 3315 506 3725 934 
L 3840 838 
Q 3411 333 2998 109 
Q 2586 -115 2093 -115 
Q 1344 -115 883 329 
Q 422 774 422 1555 
Q 422 2214 748 2812 
Q 1075 3411 1619 3795 
Q 2272 4262 3021 4262 
Q 3462 4262 3770 4154 
Q 3898 4109 4032 4109 
Q 4205 4109 4275 4250 
L 4410 4250 
z
" transform="scale(0.015625)"/>
       <path id="STIXGeneral-Italic-4f" d="M 4474 2675 
Q 4474 1990 4106 1363 
Q 3738 736 3149 339 
Q 2477 -115 1779 -115 
Q 1146 -115 765 281 
Q 384 678 384 1382 
Q 384 1965 697 2582 
Q 1011 3200 1517 3642 
Q 2234 4262 3034 4262 
Q 3718 4269 4096 3840 
Q 4474 3411 4474 2675 
z
M 3802 3078 
Q 3802 3533 3581 3792 
Q 3360 4051 2976 4051 
Q 2342 4051 1786 3302 
Q 1446 2842 1251 2259 
Q 1056 1677 1056 1178 
Q 1056 653 1270 374 
Q 1485 96 1888 96 
Q 2477 96 2976 704 
Q 3354 1178 3578 1862 
Q 3802 2547 3802 3078 
z
" transform="scale(0.015625)"/>
       <path id="STIXGeneral-Regular-5b" d="M 1914 -998 
L 563 -998 
L 563 4237 
L 1914 4237 
L 1914 4077 
L 1382 4077 
Q 1216 4077 1133 4006 
Q 1050 3936 1050 3770 
L 1050 -493 
Q 1050 -838 1382 -838 
L 1914 -838 
L 1914 -998 
z
" transform="scale(0.015625)"/>
       <path id="STIXGeneral-Regular-6b" d="M 3232 0 
L 1837 0 
L 1837 96 
L 1958 96 
Q 2093 96 2093 192 
Q 2093 250 2022 339 
L 1062 1606 
L 1062 429 
Q 1062 262 1142 185 
Q 1222 109 1414 102 
L 1542 96 
L 1542 0 
L 45 0 
L 45 96 
Q 390 154 457 214 
Q 525 275 525 525 
L 525 3610 
Q 525 3840 467 3920 
Q 410 4000 250 4000 
Q 211 4000 45 3987 
L 45 4090 
L 237 4141 
Q 621 4243 1037 4371 
L 1062 4358 
L 1062 1670 
L 1939 2451 
Q 2086 2586 2086 2675 
Q 2086 2739 2019 2761 
Q 1952 2784 1766 2790 
L 1766 2880 
L 3072 2880 
L 3072 2784 
Q 2752 2784 2505 2646 
Q 2259 2509 1690 1978 
L 1504 1805 
L 2483 563 
Q 2829 122 3232 96 
L 3232 0 
z
" transform="scale(0.015625)"/>
       <path id="STIXGeneral-Regular-67" d="M 3008 2483 
L 2477 2483 
Q 2598 2208 2598 1946 
Q 2598 1453 2265 1203 
Q 1933 954 1600 954 
Q 1530 954 1357 973 
L 1235 986 
Q 1107 947 979 812 
Q 851 678 851 582 
Q 851 435 1350 410 
L 2176 371 
Q 2528 358 2739 172 
Q 2950 -13 2950 -314 
Q 2950 -685 2566 -986 
Q 2035 -1395 1286 -1395 
Q 826 -1395 502 -1212 
Q 179 -1030 179 -774 
Q 179 -595 320 -419 
Q 461 -243 806 6 
Q 602 102 534 172 
Q 467 243 467 346 
Q 467 531 762 787 
Q 909 915 1037 1043 
Q 717 1203 579 1401 
Q 442 1600 442 1901 
Q 442 2336 752 2640 
Q 1062 2944 1510 2944 
Q 1766 2944 2022 2848 
L 2163 2797 
Q 2349 2733 2515 2733 
L 3008 2733 
L 3008 2483 
z
M 973 2163 
L 973 2144 
Q 973 1683 1155 1398 
Q 1338 1114 1632 1114 
Q 1850 1114 1978 1270 
Q 2106 1427 2106 1690 
Q 2106 2112 1914 2464 
Q 1754 2765 1446 2765 
Q 1222 2765 1097 2605 
Q 973 2445 973 2163 
z
M 2771 -410 
Q 2771 -230 2595 -163 
Q 2419 -96 1978 -96 
Q 1344 -96 941 -13 
Q 749 -243 688 -348 
Q 627 -454 627 -563 
Q 627 -774 880 -902 
Q 1133 -1030 1555 -1030 
Q 2099 -1030 2435 -860 
Q 2771 -691 2771 -410 
z
" transform="scale(0.015625)"/>
       <path id="STIXGeneral-Regular-2f" d="M 1837 4326 
L 378 -90 
L -58 -90 
L 1408 4326 
L 1837 4326 
z
" transform="scale(0.015625)"/>
       <path id="STIXGeneral-Regular-6d" d="M 4960 0 
L 3565 0 
L 3565 96 
Q 3834 122 3907 208 
Q 3981 294 3981 576 
L 3981 1894 
Q 3981 2278 3869 2444 
Q 3757 2611 3488 2611 
Q 3264 2611 3107 2521 
Q 2950 2432 2803 2221 
L 2803 608 
Q 2803 301 2896 201 
Q 2989 102 3264 96 
L 3264 0 
L 1830 0 
L 1830 96 
Q 2112 115 2189 188 
Q 2266 262 2266 550 
L 2266 1901 
Q 2266 2611 1850 2611 
Q 1670 2611 1468 2531 
Q 1267 2451 1171 2336 
Q 1088 2240 1088 2227 
L 1088 448 
Q 1088 243 1177 176 
Q 1267 109 1523 96 
L 1523 0 
L 102 0 
L 102 96 
Q 371 102 460 195 
Q 550 288 550 563 
L 550 2150 
Q 550 2387 499 2480 
Q 448 2573 326 2573 
Q 230 2573 122 2547 
L 122 2656 
Q 557 2778 1011 2944 
L 1062 2925 
L 1062 2451 
L 1075 2451 
Q 1363 2752 1584 2848 
Q 1805 2944 2054 2944 
Q 2560 2944 2733 2406 
Q 3232 2944 3776 2944 
Q 4518 2944 4518 1792 
L 4518 493 
Q 4518 282 4582 202 
Q 4646 122 4794 109 
L 4960 96 
L 4960 0 
z
" transform="scale(0.015625)"/>
       <path id="STIXGeneral-Regular-5d" d="M 1568 -998 
L 218 -998 
L 218 -838 
L 781 -838 
Q 947 -838 1014 -768 
Q 1082 -698 1082 -544 
L 1082 3731 
Q 1082 4077 755 4077 
L 218 4077 
L 218 4237 
L 1568 4237 
L 1568 -998 
z
" transform="scale(0.015625)"/>
      </defs>
      <use xlink:href="#STIXGeneral-Italic-3c1" transform="translate(0 0.409375)"/>
      <use xlink:href="#STIXGeneral-Italic-43" transform="translate(50.399994 -12.81875) scale(0.7)"/>
      <use xlink:href="#STIXGeneral-Italic-4f" transform="translate(97.089992 -12.81875) scale(0.7)"/>
      <use xlink:href="#STIXGeneral-Regular-32" transform="translate(147.629979 -22.078437) scale(0.49)"/>
      <use xlink:href="#STIXGeneral-Regular-5b" transform="translate(191.65948 0.409375)"/>
      <use xlink:href="#STIXGeneral-Regular-6b" transform="translate(224.959468 0.409375)"/>
      <use xlink:href="#STIXGeneral-Regular-67" transform="translate(274.959452 0.409375)"/>
      <use xlink:href="#STIXGeneral-Regular-2f" transform="translate(324.959437 0.409375)"/>
      <use xlink:href="#STIXGeneral-Regular-6d" transform="translate(352.759425 0.409375)"/>
      <use xlink:href="#STIXGeneral-Regular-33" transform="translate(432.102694 35.684375) scale(0.7)"/>
      <use xlink:href="#STIXGeneral-Regular-5d" transform="translate(471.512058 0.409375)"/>
     </g>
    </g>
   </g>
   <g id="matplotlib.axis_2">
    <g id="ytick_1">
     <g id="line2d_23">
      <path d="M 180 640.8 
L 687.272727 640.8 
" clip-path="url(#p2795f83894)" style="fill: none; stroke-dasharray: 2.96,1.28; stroke-dashoffset: 0; stroke: #000000; stroke-opacity: 0.8; stroke-width: 0.8"/>
     </g>
     <g id="line2d_24">
      <defs>
       <path id="md176bf63ad" d="M 0 0 
L -3.5 0 
" style="stroke: #000000; stroke-width: 0.8"/>
      </defs>
      <g>
       <use xlink:href="#md176bf63ad" x="180" y="640.8" style="stroke: #000000; stroke-width: 0.8"/>
      </g>
     </g>
     <g id="text_13">
      <!-- 0 -->
      <g transform="translate(167 644.897812) scale(0.12 -0.12)">
       <use xlink:href="#STIXGeneral-Regular-30"/>
      </g>
     </g>
    </g>
    <g id="ytick_2">
     <g id="line2d_25">
      <path d="M 180 585.36 
L 687.272727 585.36 
" clip-path="url(#p2795f83894)" style="fill: none; stroke-dasharray: 2.96,1.28; stroke-dashoffset: 0; stroke: #000000; stroke-opacity: 0.8; stroke-width: 0.8"/>
     </g>
     <g id="line2d_26">
      <g>
       <use xlink:href="#md176bf63ad" x="180" y="585.36" style="stroke: #000000; stroke-width: 0.8"/>
      </g>
     </g>
     <g id="text_14">
      <!-- 5 -->
      <g transform="translate(167 589.457813) scale(0.12 -0.12)">
       <defs>
        <path id="STIXGeneral-Regular-35" d="M 2803 4358 
L 2573 3814 
Q 2534 3731 2400 3731 
L 1158 3731 
L 902 3187 
Q 1606 3053 1920 2896 
Q 2234 2739 2502 2368 
Q 2726 2061 2726 1555 
Q 2726 1094 2576 780 
Q 2426 467 2099 224 
Q 1664 -90 1011 -90 
Q 646 -90 422 19 
Q 198 128 198 307 
Q 198 550 486 550 
Q 717 550 960 352 
Q 1210 147 1414 147 
Q 1747 147 2012 480 
Q 2278 813 2278 1229 
Q 2278 1843 1850 2189 
Q 1293 2637 486 2637 
Q 410 2637 410 2688 
L 416 2720 
L 1114 4237 
L 2438 4237 
Q 2547 4237 2608 4269 
Q 2669 4301 2746 4403 
L 2803 4358 
z
" transform="scale(0.015625)"/>
       </defs>
       <use xlink:href="#STIXGeneral-Regular-35"/>
      </g>
     </g>
    </g>
    <g id="ytick_3">
     <g id="line2d_27">
      <path d="M 180 529.92 
L 687.272727 529.92 
" clip-path="url(#p2795f83894)" style="fill: none; stroke-dasharray: 2.96,1.28; stroke-dashoffset: 0; stroke: #000000; stroke-opacity: 0.8; stroke-width: 0.8"/>
     </g>
     <g id="line2d_28">
      <g>
       <use xlink:href="#md176bf63ad" x="180" y="529.92" style="stroke: #000000; stroke-width: 0.8"/>
      </g>
     </g>
     <g id="text_15">
      <!-- 10 -->
      <g transform="translate(161 534.017812) scale(0.12 -0.12)">
       <use xlink:href="#STIXGeneral-Regular-31"/>
       <use xlink:href="#STIXGeneral-Regular-30" x="49.999985"/>
      </g>
     </g>
    </g>
    <g id="ytick_4">
     <g id="line2d_29">
      <path d="M 180 474.48 
L 687.272727 474.48 
" clip-path="url(#p2795f83894)" style="fill: none; stroke-dasharray: 2.96,1.28; stroke-dashoffset: 0; stroke: #000000; stroke-opacity: 0.8; stroke-width: 0.8"/>
     </g>
     <g id="line2d_30">
      <g>
       <use xlink:href="#md176bf63ad" x="180" y="474.48" style="stroke: #000000; stroke-width: 0.8"/>
      </g>
     </g>
     <g id="text_16">
      <!-- 15 -->
      <g transform="translate(161 478.577812) scale(0.12 -0.12)">
       <use xlink:href="#STIXGeneral-Regular-31"/>
       <use xlink:href="#STIXGeneral-Regular-35" x="49.999985"/>
      </g>
     </g>
    </g>
    <g id="ytick_5">
     <g id="line2d_31">
      <path d="M 180 419.04 
L 687.272727 419.04 
" clip-path="url(#p2795f83894)" style="fill: none; stroke-dasharray: 2.96,1.28; stroke-dashoffset: 0; stroke: #000000; stroke-opacity: 0.8; stroke-width: 0.8"/>
     </g>
     <g id="line2d_32">
      <g>
       <use xlink:href="#md176bf63ad" x="180" y="419.04" style="stroke: #000000; stroke-width: 0.8"/>
      </g>
     </g>
     <g id="text_17">
      <!-- 20 -->
      <g transform="translate(161 423.137812) scale(0.12 -0.12)">
       <use xlink:href="#STIXGeneral-Regular-32"/>
       <use xlink:href="#STIXGeneral-Regular-30" x="49.999985"/>
      </g>
     </g>
    </g>
    <g id="ytick_6">
     <g id="line2d_33">
      <path d="M 180 363.6 
L 687.272727 363.6 
" clip-path="url(#p2795f83894)" style="fill: none; stroke-dasharray: 2.96,1.28; stroke-dashoffset: 0; stroke: #000000; stroke-opacity: 0.8; stroke-width: 0.8"/>
     </g>
     <g id="line2d_34">
      <g>
       <use xlink:href="#md176bf63ad" x="180" y="363.6" style="stroke: #000000; stroke-width: 0.8"/>
      </g>
     </g>
     <g id="text_18">
      <!-- 25 -->
      <g transform="translate(161 367.697812) scale(0.12 -0.12)">
       <use xlink:href="#STIXGeneral-Regular-32"/>
       <use xlink:href="#STIXGeneral-Regular-35" x="49.999985"/>
      </g>
     </g>
    </g>
    <g id="ytick_7">
     <g id="line2d_35">
      <path d="M 180 308.16 
L 687.272727 308.16 
" clip-path="url(#p2795f83894)" style="fill: none; stroke-dasharray: 2.96,1.28; stroke-dashoffset: 0; stroke: #000000; stroke-opacity: 0.8; stroke-width: 0.8"/>
     </g>
     <g id="line2d_36">
      <g>
       <use xlink:href="#md176bf63ad" x="180" y="308.16" style="stroke: #000000; stroke-width: 0.8"/>
      </g>
     </g>
     <g id="text_19">
      <!-- 30 -->
      <g transform="translate(161 312.257812) scale(0.12 -0.12)">
       <use xlink:href="#STIXGeneral-Regular-33"/>
       <use xlink:href="#STIXGeneral-Regular-30" x="49.999985"/>
      </g>
     </g>
    </g>
    <g id="ytick_8">
     <g id="line2d_37">
      <path d="M 180 252.72 
L 687.272727 252.72 
" clip-path="url(#p2795f83894)" style="fill: none; stroke-dasharray: 2.96,1.28; stroke-dashoffset: 0; stroke: #000000; stroke-opacity: 0.8; stroke-width: 0.8"/>
     </g>
     <g id="line2d_38">
      <g>
       <use xlink:href="#md176bf63ad" x="180" y="252.72" style="stroke: #000000; stroke-width: 0.8"/>
      </g>
     </g>
     <g id="text_20">
      <!-- 35 -->
      <g transform="translate(161 256.817812) scale(0.12 -0.12)">
       <use xlink:href="#STIXGeneral-Regular-33"/>
       <use xlink:href="#STIXGeneral-Regular-35" x="49.999985"/>
      </g>
     </g>
    </g>
    <g id="ytick_9">
     <g id="line2d_39">
      <path d="M 180 197.28 
L 687.272727 197.28 
" clip-path="url(#p2795f83894)" style="fill: none; stroke-dasharray: 2.96,1.28; stroke-dashoffset: 0; stroke: #000000; stroke-opacity: 0.8; stroke-width: 0.8"/>
     </g>
     <g id="line2d_40">
      <g>
       <use xlink:href="#md176bf63ad" x="180" y="197.28" style="stroke: #000000; stroke-width: 0.8"/>
      </g>
     </g>
     <g id="text_21">
      <!-- 40 -->
      <g transform="translate(161 201.377813) scale(0.12 -0.12)">
       <use xlink:href="#STIXGeneral-Regular-34"/>
       <use xlink:href="#STIXGeneral-Regular-30" x="49.999985"/>
      </g>
     </g>
    </g>
    <g id="ytick_10">
     <g id="line2d_41">
      <path d="M 180 141.84 
L 687.272727 141.84 
" clip-path="url(#p2795f83894)" style="fill: none; stroke-dasharray: 2.96,1.28; stroke-dashoffset: 0; stroke: #000000; stroke-opacity: 0.8; stroke-width: 0.8"/>
     </g>
     <g id="line2d_42">
      <g>
       <use xlink:href="#md176bf63ad" x="180" y="141.84" style="stroke: #000000; stroke-width: 0.8"/>
      </g>
     </g>
     <g id="text_22">
      <!-- 45 -->
      <g transform="translate(161 145.937812) scale(0.12 -0.12)">
       <use xlink:href="#STIXGeneral-Regular-34"/>
       <use xlink:href="#STIXGeneral-Regular-35" x="49.999985"/>
      </g>
     </g>
    </g>
    <g id="ytick_11">
     <g id="line2d_43">
      <path d="M 180 86.4 
L 687.272727 86.4 
" clip-path="url(#p2795f83894)" style="fill: none; stroke-dasharray: 2.96,1.28; stroke-dashoffset: 0; stroke: #000000; stroke-opacity: 0.8; stroke-width: 0.8"/>
     </g>
     <g id="line2d_44">
      <g>
       <use xlink:href="#md176bf63ad" x="180" y="86.4" style="stroke: #000000; stroke-width: 0.8"/>
      </g>
     </g>
     <g id="text_23">
      <!-- 50 -->
      <g transform="translate(161 90.497812) scale(0.12 -0.12)">
       <use xlink:href="#STIXGeneral-Regular-35"/>
       <use xlink:href="#STIXGeneral-Regular-30" x="49.999985"/>
      </g>
     </g>
    </g>
    <g id="text_24">
     <!-- $P\,[\mathrm{MPa}]$ -->
     <g transform="translate(153.744531 388.275) rotate(-90) scale(0.15 -0.15)">
      <defs>
       <path id="STIXGeneral-Italic-50" d="M 934 4179 
L 2477 4179 
Q 3872 4179 3872 3232 
Q 3872 2976 3753 2729 
Q 3635 2483 3437 2317 
Q 2995 1952 2125 1952 
Q 1773 1952 1549 2003 
L 1210 768 
Q 1120 422 1120 365 
Q 1120 250 1216 189 
Q 1312 128 1562 102 
L 1562 0 
L 0 0 
L 0 102 
Q 275 141 361 227 
Q 448 314 538 627 
L 1280 3277 
Q 1389 3667 1389 3808 
Q 1389 3936 1299 3990 
Q 1210 4045 934 4077 
L 934 4179 
z
M 2048 3789 
L 1606 2221 
Q 1792 2189 1939 2189 
Q 2496 2189 2758 2342 
Q 3213 2598 3213 3200 
Q 3213 3987 2381 3987 
Q 2099 3987 2048 3789 
z
" transform="scale(0.015625)"/>
       <path id="STIXGeneral-Regular-4d" d="M 5530 0 
L 3738 0 
L 3738 122 
Q 4115 147 4214 265 
Q 4314 384 4314 787 
L 4314 3661 
L 2682 0 
L 2592 0 
L 979 3514 
L 979 966 
Q 979 448 1088 294 
Q 1197 141 1574 122 
L 1574 0 
L 77 0 
L 77 122 
Q 358 141 480 205 
Q 602 269 650 432 
Q 698 595 698 966 
L 698 3514 
Q 698 3878 589 3984 
Q 480 4090 90 4115 
L 90 4237 
L 1357 4237 
L 2835 1024 
L 4250 4237 
L 5523 4237 
L 5523 4115 
Q 5178 4109 5072 3993 
Q 4966 3878 4966 3520 
L 4966 717 
Q 4966 378 5072 262 
Q 5178 147 5530 122 
L 5530 0 
z
" transform="scale(0.015625)"/>
       <path id="STIXGeneral-Regular-50" d="M 102 4237 
L 1760 4237 
Q 2669 4237 3149 3834 
Q 3469 3565 3469 3072 
Q 3469 2560 3104 2234 
Q 2835 1990 2553 1916 
Q 2272 1843 1734 1843 
Q 1549 1843 1293 1862 
L 1293 717 
Q 1293 352 1398 246 
Q 1504 141 1894 122 
L 1894 0 
L 102 0 
L 102 122 
Q 474 147 557 256 
Q 640 365 640 781 
L 640 3526 
Q 640 3885 547 3987 
Q 454 4090 102 4115 
L 102 4237 
z
M 1293 3770 
L 1293 2118 
Q 1510 2099 1683 2099 
Q 2202 2099 2486 2352 
Q 2771 2605 2771 3040 
Q 2771 3558 2476 3779 
Q 2182 4000 1517 4000 
Q 1382 4000 1337 3952 
Q 1293 3904 1293 3770 
z
" transform="scale(0.015625)"/>
       <path id="STIXGeneral-Regular-61" d="M 2829 422 
L 2829 243 
Q 2586 -64 2253 -64 
Q 1888 -64 1843 403 
L 1837 403 
Q 1427 -64 909 -64 
Q 608 -64 422 112 
Q 237 288 237 602 
Q 237 1050 685 1350 
Q 992 1555 1837 1869 
L 1837 2214 
Q 1837 2502 1699 2646 
Q 1562 2790 1338 2790 
Q 1146 2790 1018 2697 
Q 890 2605 890 2477 
Q 890 2419 909 2348 
Q 928 2278 928 2208 
Q 928 2112 841 2029 
Q 755 1946 634 1946 
Q 525 1946 441 2029 
Q 358 2112 358 2240 
Q 358 2547 685 2752 
Q 986 2944 1421 2944 
Q 1939 2944 2176 2656 
Q 2291 2522 2323 2384 
Q 2355 2246 2355 1946 
L 2355 723 
Q 2355 301 2554 301 
Q 2682 301 2829 422 
z
M 1837 813 
L 1837 1715 
Q 1248 1510 1018 1293 
Q 800 1094 800 800 
Q 800 557 921 432 
Q 1043 307 1242 307 
Q 1453 307 1613 410 
Q 1747 506 1792 589 
Q 1837 672 1837 813 
z
" transform="scale(0.015625)"/>
      </defs>
      <use xlink:href="#STIXGeneral-Italic-50" transform="translate(0 0.796875)"/>
      <use xlink:href="#STIXGeneral-Regular-5b" transform="translate(73.133562 0.796875)"/>
      <use xlink:href="#STIXGeneral-Regular-4d" transform="translate(106.43355 0.796875)"/>
      <use xlink:href="#STIXGeneral-Regular-50" transform="translate(195.333543 0.796875)"/>
      <use xlink:href="#STIXGeneral-Regular-61" transform="translate(251.03354 0.796875)"/>
      <use xlink:href="#STIXGeneral-Regular-5d" transform="translate(295.433534 0.796875)"/>
     </g>
    </g>
   </g>
   <g id="line2d_45">
    <path d="M 180.422727 640.177497 
L 185.072727 633.557924 
L 189.722727 627.347732 
L 194.372727 621.534606 
L 199.022727 616.106122 
L 203.672727 611.049718 
L 207.9 606.765183 
L 212.127273 602.768022 
L 216.354545 599.048523 
L 221.004545 595.266115 
L 225.654545 591.794813 
L 230.304545 588.621571 
L 234.954545 585.733381 
L 239.604545 583.11732 
L 244.254545 580.760588 
L 248.904545 578.650542 
L 253.554545 576.774707 
L 258.627273 574.981012 
L 263.7 573.435664 
L 268.772727 572.123094 
L 273.845455 571.027867 
L 279.340909 570.068881 
L 284.836364 569.327837 
L 290.754545 568.752412 
L 297.095455 568.369026 
L 303.436364 568.20698 
L 310.2 568.26493 
L 316.540909 568.535668 
L 322.881818 569.027034 
L 329.222727 569.747152 
L 335.986364 570.748722 
L 355.431818 573.836018 
L 359.659091 574.151377 
L 363.463636 574.197447 
L 366.845455 574.018135 
L 370.227273 573.617453 
L 373.609091 572.997057 
L 377.413636 572.059797 
L 381.640909 570.784251 
L 396.859091 565.937713 
L 400.240909 565.211005 
L 403.622727 564.723768 
L 406.581818 564.512608 
L 409.540909 564.506296 
L 412.922727 564.739541 
L 416.304545 565.202463 
L 420.109091 565.946237 
L 425.181818 567.183992 
L 438.286364 570.521674 
L 442.936364 571.431792 
L 447.586364 572.113425 
L 452.236364 572.554694 
L 456.886364 572.754 
L 461.536364 572.712899 
L 465.763636 572.465056 
L 469.990909 572.008046 
L 474.218182 571.324987 
L 478.022727 570.496394 
L 481.827273 569.441354 
L 485.209091 568.292003 
L 488.590909 566.922499 
L 491.972727 565.311672 
L 495.354545 563.437856 
L 498.736364 561.279142 
L 501.695455 559.139249 
L 504.654545 556.749543 
L 507.613636 554.095093 
L 510.572727 551.160795 
L 513.531818 547.931305 
L 516.490909 544.390955 
L 519.45 540.523687 
L 522.409091 536.312989 
L 525.368182 531.741848 
L 528.327273 526.792713 
L 531.286364 521.447469 
L 534.245455 515.68742 
L 537.204545 509.493275 
L 540.586364 501.85716 
L 543.968182 493.597391 
L 547.35 484.682241 
L 550.731818 475.078902 
L 554.113636 464.75346 
L 557.495455 453.670856 
L 560.877273 441.794843 
L 564.259091 429.087939 
L 567.640909 415.511376 
L 571.022727 401.025047 
L 574.404545 385.587453 
L 577.786364 369.155649 
L 581.168182 351.685201 
L 584.55 333.130136 
L 587.931818 313.442906 
L 591.736364 289.880208 
L 595.540909 264.74987 
L 599.345455 237.97674 
L 603.15 209.482961 
L 606.954545 179.187948 
L 610.759091 147.008377 
L 614.563636 112.858176 
L 618.368182 76.648535 
L 622.172727 38.287916 
L 625.85683 -1 
L 625.85683 -1 
" clip-path="url(#p2795f83894)" style="fill: none; stroke: #000000; stroke-width: 2; stroke-linecap: square"/>
   </g>
   <g id="line2d_46">
    <path d="M 180.422727 640.166986 
L 185.072727 633.426852 
L 189.722727 627.087084 
L 194.372727 621.135431 
L 199.022727 615.559545 
L 203.672727 610.346954 
L 208.322727 605.485054 
L 212.972727 600.961114 
L 217.622727 596.762294 
L 222.272727 592.875676 
L 226.922727 589.288296 
L 231.572727 585.987194 
L 236.222727 582.959453 
L 240.872727 580.192249 
L 245.522727 577.672892 
L 250.172727 575.388862 
L 255.245455 573.151109 
L 260.318182 571.163036 
L 265.390909 569.409202 
L 270.886364 567.755893 
L 276.381818 566.340425 
L 282.3 565.06003 
L 288.218182 564.008959 
L 294.559091 563.109274 
L 301.322727 562.373901 
L 308.931818 561.777954 
L 317.386364 561.343911 
L 327.531818 561.057158 
L 340.213636 560.938497 
L 358.390909 561.018335 
L 411.654545 561.310177 
L 421.8 561.18148 
L 430.254545 560.861343 
L 437.863636 560.360713 
L 445.05 559.674434 
L 451.813636 558.807899 
L 457.731818 557.833687 
L 463.227273 556.698774 
L 467.877273 555.519616 
L 472.104545 554.233781 
L 476.331818 552.705087 
L 480.136364 551.08797 
L 483.940909 549.210307 
L 487.322727 547.297256 
L 490.704545 545.13163 
L 494.086364 542.691544 
L 497.468182 539.955264 
L 500.85 536.901159 
L 504.231818 533.507599 
L 507.613636 529.752806 
L 510.572727 526.153692 
L 513.531818 522.246038 
L 516.913636 517.382538 
L 520.295455 512.072196 
L 523.677273 506.290503 
L 527.059091 500.012047 
L 530.440909 493.210448 
L 533.822727 485.858305 
L 537.204545 477.927165 
L 540.586364 469.387485 
L 543.968182 460.208614 
L 547.35 450.358762 
L 550.731818 439.804974 
L 554.113636 428.513102 
L 557.495455 416.447768 
L 560.877273 403.572335 
L 564.259091 389.848859 
L 567.640909 375.238058 
L 571.022727 359.699268 
L 574.404545 343.190403 
L 577.786364 325.667921 
L 581.168182 307.086783 
L 584.972727 284.85954 
L 588.777273 261.164799 
L 592.581818 235.93136 
L 596.386364 209.085445 
L 600.190909 180.550663 
L 603.995455 150.247989 
L 607.8 118.095748 
L 611.604545 84.009605 
L 615.409091 47.902569 
L 619.213636 9.684997 
L 620.239827 -1 
L 620.239827 -1 
" clip-path="url(#p2795f83894)" style="fill: none; stroke: #0000ff; stroke-width: 2; stroke-linecap: square"/>
   </g>
   <g id="line2d_47">
    <path d="M 180.422727 640.156476 
L 185.072727 633.295953 
L 189.722727 626.82708 
L 194.372727 620.737684 
L 199.022727 615.015514 
L 203.672727 609.648215 
L 208.322727 604.623312 
L 212.972727 599.928217 
L 217.622727 595.550236 
L 222.272727 591.476605 
L 226.922727 587.694518 
L 231.572727 584.191169 
L 236.222727 580.953798 
L 240.872727 577.969738 
L 245.945455 574.988579 
L 251.018182 572.277948 
L 256.090909 569.822126 
L 261.163636 567.605726 
L 266.659091 565.457354 
L 272.154545 563.553553 
L 277.65 561.875878 
L 283.568182 560.301065 
L 289.909091 558.855328 
L 296.672727 557.557562 
L 303.859091 556.4175 
L 311.468182 555.434558 
L 320.345455 554.520396 
L 330.490909 553.70738 
L 342.75 552.960758 
L 357.545455 552.294817 
L 380.795455 551.510728 
L 398.127273 550.832179 
L 408.695455 550.208008 
L 417.572727 549.469814 
L 425.604545 548.579529 
L 432.790909 547.568611 
L 439.554545 546.402576 
L 445.895455 545.089215 
L 451.813636 543.634839 
L 457.309091 542.04551 
L 461.959091 540.484001 
L 466.609091 538.685208 
L 470.836364 536.808373 
L 474.640909 534.892368 
L 478.445455 532.732897 
L 482.25 530.301232 
L 485.631818 527.88744 
L 489.013636 525.214363 
L 492.395455 522.260928 
L 495.777273 519.006003 
L 499.159091 515.428381 
L 502.540909 511.506732 
L 505.922727 507.219506 
L 509.304545 502.544818 
L 512.686364 497.46033 
L 516.068182 491.943121 
L 519.45 485.969582 
L 522.831818 479.515305 
L 526.213636 472.555005 
L 529.595455 465.062445 
L 532.977273 457.010376 
L 536.359091 448.370489 
L 539.740909 439.113372 
L 543.122727 429.208478 
L 546.504545 418.624089 
L 549.886364 407.327284 
L 553.268182 395.283913 
L 556.65 382.458559 
L 560.031818 368.814511 
L 563.413636 354.313733 
L 566.795455 338.916827 
L 570.177273 322.583007 
L 573.981818 303.034941 
L 577.786364 282.185334 
L 581.590909 259.969513 
L 585.395455 236.320386 
L 589.2 211.168394 
L 593.004545 184.441481 
L 596.809091 156.065063 
L 600.613636 125.962001 
L 604.418182 94.052584 
L 608.222727 60.25452 
L 612.027273 24.482929 
L 614.612879 -1 
L 614.612879 -1 
" clip-path="url(#p2795f83894)" style="fill: none; stroke: #00bfbf; stroke-width: 2; stroke-linecap: square"/>
   </g>
   <g id="line2d_48">
    <path d="M 180.422727 640.145966 
L 185.072727 633.165215 
L 189.722727 626.567673 
L 194.372727 620.341255 
L 199.022727 614.473822 
L 203.672727 608.953153 
L 208.322727 603.766927 
L 212.972727 598.90272 
L 217.622727 594.348023 
L 222.272727 590.090261 
L 226.922727 586.116826 
L 231.572727 582.415116 
L 236.645455 578.67204 
L 241.718182 575.221232 
L 246.790909 572.046722 
L 251.863636 569.132803 
L 256.936364 566.46408 
L 262.431818 563.832216 
L 267.927273 561.451796 
L 273.422727 559.304604 
L 279.340909 557.232613 
L 285.259091 555.388473 
L 291.6 553.640742 
L 298.363636 552.007284 
L 305.55 550.497725 
L 313.581818 549.04124 
L 322.459091 547.658944 
L 332.604545 546.303685 
L 344.440909 544.947784 
L 358.390909 543.576336 
L 377.836364 541.910852 
L 393.9 540.469886 
L 404.045455 539.335201 
L 412.5 538.165105 
L 420.109091 536.881667 
L 426.872727 535.519231 
L 433.213636 534.022421 
L 439.131818 532.407076 
L 444.627273 530.692393 
L 450.122727 528.740804 
L 455.195455 526.696889 
L 459.845455 524.587085 
L 464.072727 522.444212 
L 468.3 520.057583 
L 472.104545 517.674923 
L 475.909091 515.043947 
L 479.713636 512.138143 
L 483.518182 508.929922 
L 486.9 505.801366 
L 490.281818 502.391145 
L 493.663636 498.678678 
L 497.045455 494.643134 
L 500.427273 490.263423 
L 503.809091 485.51814 
L 507.190909 480.385501 
L 510.572727 474.843248 
L 513.954545 468.868555 
L 517.336364 462.437933 
L 520.718182 455.527144 
L 524.1 448.111112 
L 527.481818 440.163854 
L 530.863636 431.658416 
L 534.245455 422.566818 
L 537.627273 412.860003 
L 541.009091 402.507801 
L 544.390909 391.478884 
L 547.772727 379.740733 
L 551.154545 367.259608 
L 554.536364 354.000514 
L 557.918182 339.927171 
L 561.722727 323.074514 
L 565.527273 305.088137 
L 569.331818 285.91027 
L 573.136364 265.480891 
L 576.940909 243.737677 
L 580.745455 220.615962 
L 584.55 196.048698 
L 588.354545 169.966417 
L 592.159091 142.297202 
L 595.963636 112.966659 
L 599.768182 81.897896 
L 603.572727 49.011506 
L 607.377273 14.225562 
L 608.977957 -1 
L 608.977957 -1 
" clip-path="url(#p2795f83894)" style="fill: none; stroke: #bf00bf; stroke-width: 2; stroke-linecap: square"/>
   </g>
   <g id="line2d_49">
    <path d="M 180.422727 640.135458 
L 185.072727 633.034627 
L 189.722727 626.308821 
L 194.372727 619.946046 
L 199.022727 613.934286 
L 203.672727 608.261462 
L 208.322727 602.91542 
L 212.972727 597.883919 
L 217.622727 593.15465 
L 222.695455 588.325612 
L 227.768182 583.825463 
L 232.840909 579.638148 
L 237.913636 575.747698 
L 242.986364 572.138292 
L 248.059091 568.794323 
L 253.131818 565.700447 
L 258.627273 562.613549 
L 264.122727 559.783877 
L 269.618182 557.193258 
L 275.536364 554.65039 
L 281.454545 552.342604 
L 287.795455 550.106757 
L 294.559091 547.963531 
L 301.745455 545.926052 
L 309.354545 543.998724 
L 317.809091 542.086389 
L 327.531818 540.123099 
L 338.522727 538.134065 
L 351.627273 535.996663 
L 367.690909 533.614442 
L 393.054545 529.888363 
L 402.354545 528.254437 
L 409.963636 526.702272 
L 417.15 525.006408 
L 423.490909 523.287137 
L 429.409091 521.463905 
L 435.327273 519.400808 
L 440.822727 517.242962 
L 445.895455 515.0185 
L 450.968182 512.543072 
L 455.618182 510.026249 
L 460.268182 507.242895 
L 464.495455 504.45349 
L 468.722727 501.388535 
L 472.527273 498.369183 
L 476.331818 495.077783 
L 480.136364 491.488936 
L 483.940909 487.576113 
L 487.745455 483.311854 
L 491.127273 479.203552 
L 494.509091 474.77497 
L 497.890909 470.005391 
L 501.272727 464.873667 
L 504.654545 459.358181 
L 508.036364 453.43679 
L 511.418182 447.086764 
L 514.8 440.284713 
L 518.181818 433.006517 
L 521.563636 425.227256 
L 524.945455 416.921149 
L 528.327273 408.061492 
L 531.709091 398.620602 
L 535.090909 388.569774 
L 538.472727 377.879231 
L 541.854545 366.518086 
L 545.236364 354.454301 
L 549.040909 340.001258 
L 552.845455 324.56771 
L 556.65 308.102498 
L 560.454545 290.5524 
L 564.259091 271.862074 
L 568.063636 251.974011 
L 571.868182 230.828484 
L 575.672727 208.363507 
L 579.477273 184.51479 
L 583.281818 159.215705 
L 587.086364 132.397248 
L 590.890909 103.988012 
L 594.695455 73.914162 
L 598.5 42.099416 
L 602.304545 8.465025 
L 603.338099 -1 
L 603.338099 -1 
" clip-path="url(#p2795f83894)" style="fill: none; stroke: #ff0000; stroke-width: 2; stroke-linecap: square"/>
   </g>
   <g id="line2d_50">
    <path d="M 180.422727 640.124951 
L 185.495455 632.266126 
L 190.568182 624.842865 
L 195.640909 617.839725 
L 200.713636 611.241258 
L 205.786364 605.031956 
L 210.859091 599.196225 
L 215.931818 593.718385 
L 221.004545 588.582688 
L 226.077273 583.773359 
L 231.15 579.274638 
L 236.222727 575.070841 
L 241.295455 571.146413 
L 246.368182 567.485987 
L 251.863636 563.800909 
L 257.359091 560.389069 
L 262.854545 557.232059 
L 268.772727 554.096614 
L 274.690909 551.214087 
L 281.031818 548.382199 
L 287.372727 545.790764 
L 294.136364 543.2635 
L 301.322727 540.81383 
L 309.354545 538.321609 
L 318.231818 535.815785 
L 327.954545 533.307428 
L 339.368182 530.598161 
L 353.318182 527.52744 
L 374.454545 523.13922 
L 389.25 519.977204 
L 398.55 517.759155 
L 406.159091 515.724169 
L 412.922727 513.697764 
L 419.263636 511.572638 
L 425.181818 509.359394 
L 430.677273 507.077336 
L 436.172727 504.548865 
L 441.245455 501.970392 
L 446.318182 499.130329 
L 450.968182 496.271965 
L 455.618182 493.143226 
L 459.845455 490.039891 
L 464.072727 486.664704 
L 468.3 482.990763 
L 472.104545 479.404582 
L 475.909091 475.529705 
L 479.713636 471.341801 
L 483.518182 466.815316 
L 487.322727 461.923603 
L 491.127273 456.63903 
L 494.931818 450.933039 
L 498.736364 444.77617 
L 502.118182 438.900348 
L 505.5 432.62232 
L 508.881818 425.919477 
L 512.263636 418.768527 
L 515.645455 411.145447 
L 519.027273 403.025431 
L 522.409091 394.382838 
L 525.790909 385.191147 
L 529.595455 374.159933 
L 533.4 362.358432 
L 537.204545 349.744443 
L 541.009091 336.274052 
L 544.813636 321.901566 
L 548.618182 306.579443 
L 552.422727 290.25823 
L 556.227273 272.886503 
L 560.031818 254.410807 
L 563.836364 234.775605 
L 567.640909 213.923221 
L 571.445455 191.793798 
L 575.25 168.325247 
L 579.054545 143.453212 
L 582.859091 117.111031 
L 586.663636 89.229704 
L 590.468182 59.737863 
L 594.272727 28.561751 
L 597.696737 -1 
L 597.696737 -1 
" clip-path="url(#p2795f83894)" style="fill: none; stroke: #ffa500; stroke-width: 2; stroke-linecap: square"/>
   </g>
   <g id="line2d_51">
    <path d="M 180.422727 640.114502 
L 185.495455 632.134023 
L 190.568182 624.595851 
L 195.640909 617.484303 
L 200.713636 610.783692 
L 205.786364 604.478271 
L 210.859091 598.552204 
L 215.931818 592.989567 
L 221.004545 587.774371 
L 226.077273 582.890593 
L 231.15 578.322233 
L 236.222727 574.053362 
L 241.295455 570.068184 
L 246.368182 566.351095 
L 251.863636 562.608973 
L 257.359091 559.144318 
L 262.854545 555.938437 
L 268.772727 552.754456 
L 274.690909 549.827308 
L 281.031818 546.951583 
L 287.372727 544.320033 
L 294.136364 541.753647 
L 301.322727 539.266056 
L 308.931818 536.862615 
L 317.386364 534.423082 
L 327.109091 531.856592 
L 338.522727 529.088883 
L 352.05 526.049092 
L 371.495455 521.936342 
L 388.404545 518.300106 
L 397.704545 516.070336 
L 405.313636 514.029619 
L 412.077273 512.000388 
L 418.418182 509.874112 
L 424.336364 507.660814 
L 429.831818 505.379414 
L 435.327273 502.852197 
L 440.4 500.275415 
L 445.472727 497.437644 
L 450.122727 494.582049 
L 454.772727 491.456891 
L 459 488.357673 
L 463.227273 484.987556 
L 467.454545 481.319724 
L 471.259091 477.739958 
L 475.063636 473.872335 
L 478.868182 469.692442 
L 482.672727 465.174593 
L 486.477273 460.291967 
L 490.281818 455.016717 
L 494.086364 449.320048 
L 497.890909 443.17225 
L 501.272727 437.304069 
L 504.654545 431.033092 
L 508.036364 424.336527 
L 511.418182 417.1909 
L 514.8 409.572005 
L 518.181818 401.454856 
L 521.563636 392.813633 
L 524.945455 383.621631 
L 528.327273 373.851214 
L 532.131818 362.132443 
L 535.936364 349.60308 
L 539.740909 336.21912 
L 543.545455 321.934773 
L 547.35 306.702394 
L 551.154545 290.472418 
L 554.959091 273.193299 
L 558.763636 254.811449 
L 562.568182 235.27118 
L 566.372727 214.514656 
L 570.177273 192.481833 
L 573.981818 169.110425 
L 577.786364 144.335849 
L 581.590909 118.091197 
L 585.395455 90.307194 
L 589.2 60.912173 
L 593.004545 29.832045 
L 596.581845 -1 
L 596.581845 -1 
" clip-path="url(#p2795f83894)" style="fill: none; stroke: #00ff00; stroke-width: 2; stroke-linecap: square"/>
   </g>
   <g id="patch_3">
    <path d="M 180 640.8 
L 180 86.4 
" style="fill: none; stroke: #000000; stroke-width: 0.8; stroke-linejoin: miter; stroke-linecap: square"/>
   </g>
   <g id="patch_4">
    <path d="M 687.272727 640.8 
L 687.272727 86.4 
" style="fill: none; stroke: #000000; stroke-width: 0.8; stroke-linejoin: miter; stroke-linecap: square"/>
   </g>
   <g id="patch_5">
    <path d="M 180 640.8 
L 687.272727 640.8 
" style="fill: none; stroke: #000000; stroke-width: 0.8; stroke-linejoin: miter; stroke-linecap: square"/>
   </g>
   <g id="patch_6">
    <path d="M 180 86.4 
L 687.272727 86.4 
" style="fill: none; stroke: #000000; stroke-width: 0.8; stroke-linejoin: miter; stroke-linecap: square"/>
   </g>
   <g id="legend_1">
    <g id="patch_7">
     <path d="M 188.4 215.030625 
L 278.015625 215.030625 
Q 280.415625 215.030625 280.415625 212.630625 
L 280.415625 94.8 
Q 280.415625 92.4 278.015625 92.4 
L 188.4 92.4 
Q 186 92.4 186 94.8 
L 186 212.630625 
Q 186 215.030625 188.4 215.030625 
z
" style="fill: #ffffff; opacity: 0.8; stroke: #cccccc; stroke-linejoin: miter"/>
    </g>
    <g id="line2d_52">
     <path d="M 190.8 101.4 
L 202.8 101.4 
L 214.8 101.4 
" style="fill: none; stroke: #000000; stroke-width: 2; stroke-linecap: square"/>
    </g>
    <g id="text_25">
     <!-- T = 298 K -->
     <g transform="translate(224.4 105.6) scale(0.12 -0.12)">
      <defs>
       <path id="STIXGeneral-Regular-54" d="M 3795 3149 
L 3642 3149 
Q 3539 3674 3353 3821 
Q 3168 3968 2656 3968 
L 2278 3968 
L 2278 710 
Q 2278 346 2387 243 
Q 2496 141 2893 122 
L 2893 0 
L 1024 0 
L 1024 122 
Q 1427 147 1526 256 
Q 1626 365 1626 787 
L 1626 3968 
L 1242 3968 
Q 723 3968 540 3817 
Q 358 3667 262 3149 
L 109 3149 
L 154 4237 
L 3750 4237 
L 3795 3149 
z
" transform="scale(0.015625)"/>
       <path id="STIXGeneral-Regular-20" transform="scale(0.015625)"/>
       <path id="STIXGeneral-Regular-3d" d="M 4077 2048 
L 307 2048 
L 307 2470 
L 4077 2470 
L 4077 2048 
z
M 4077 768 
L 307 768 
L 307 1190 
L 4077 1190 
L 4077 768 
z
" transform="scale(0.015625)"/>
       <path id="STIXGeneral-Regular-4b" d="M 4627 0 
L 2688 0 
L 2688 122 
L 2861 128 
Q 3130 134 3130 282 
Q 3130 397 2922 643 
Q 2714 890 2253 1370 
L 1613 2029 
L 1446 1894 
L 1446 710 
Q 1446 352 1548 253 
Q 1651 154 2016 122 
L 2016 0 
L 211 0 
L 211 122 
Q 589 141 691 262 
Q 794 384 794 800 
L 794 3514 
Q 794 3872 691 3981 
Q 589 4090 218 4115 
L 218 4237 
L 2022 4237 
L 2022 4115 
Q 1632 4090 1539 3987 
Q 1446 3885 1446 3507 
L 1446 2227 
L 2586 3277 
Q 2861 3533 2973 3667 
Q 3085 3802 3085 3910 
Q 3085 4013 3030 4057 
Q 2976 4102 2822 4109 
L 2662 4115 
L 2662 4237 
L 4320 4237 
L 4320 4115 
Q 3994 4090 3824 4003 
Q 3654 3917 3322 3597 
L 2131 2458 
L 3629 819 
Q 4026 384 4214 253 
Q 4403 122 4627 122 
L 4627 0 
z
" transform="scale(0.015625)"/>
      </defs>
      <use xlink:href="#STIXGeneral-Regular-54"/>
      <use xlink:href="#STIXGeneral-Regular-20" x="61.099991"/>
      <use xlink:href="#STIXGeneral-Regular-3d" x="86.099976"/>
      <use xlink:href="#STIXGeneral-Regular-20" x="154.59996"/>
      <use xlink:href="#STIXGeneral-Regular-32" x="179.599945"/>
      <use xlink:href="#STIXGeneral-Regular-39" x="229.59993"/>
      <use xlink:href="#STIXGeneral-Regular-38" x="279.599915"/>
      <use xlink:href="#STIXGeneral-Regular-20" x="329.599899"/>
      <use xlink:href="#STIXGeneral-Regular-4b" x="354.599884"/>
     </g>
    </g>
    <g id="line2d_53">
     <path d="M 190.8 118.404375 
L 202.8 118.404375 
L 214.8 118.404375 
" style="fill: none; stroke: #0000ff; stroke-width: 2; stroke-linecap: square"/>
    </g>
    <g id="text_26">
     <!-- T = 303 K -->
     <g transform="translate(224.4 122.604375) scale(0.12 -0.12)">
      <use xlink:href="#STIXGeneral-Regular-54"/>
      <use xlink:href="#STIXGeneral-Regular-20" x="61.099991"/>
      <use xlink:href="#STIXGeneral-Regular-3d" x="86.099976"/>
      <use xlink:href="#STIXGeneral-Regular-20" x="154.59996"/>
      <use xlink:href="#STIXGeneral-Regular-33" x="179.599945"/>
      <use xlink:href="#STIXGeneral-Regular-30" x="229.59993"/>
      <use xlink:href="#STIXGeneral-Regular-33" x="279.599915"/>
      <use xlink:href="#STIXGeneral-Regular-20" x="329.599899"/>
      <use xlink:href="#STIXGeneral-Regular-4b" x="354.599884"/>
     </g>
    </g>
    <g id="line2d_54">
     <path d="M 190.8 135.40875 
L 202.8 135.40875 
L 214.8 135.40875 
" style="fill: none; stroke: #00bfbf; stroke-width: 2; stroke-linecap: square"/>
    </g>
    <g id="text_27">
     <!-- T = 308 K -->
     <g transform="translate(224.4 139.60875) scale(0.12 -0.12)">
      <use xlink:href="#STIXGeneral-Regular-54"/>
      <use xlink:href="#STIXGeneral-Regular-20" x="61.099991"/>
      <use xlink:href="#STIXGeneral-Regular-3d" x="86.099976"/>
      <use xlink:href="#STIXGeneral-Regular-20" x="154.59996"/>
      <use xlink:href="#STIXGeneral-Regular-33" x="179.599945"/>
      <use xlink:href="#STIXGeneral-Regular-30" x="229.59993"/>
      <use xlink:href="#STIXGeneral-Regular-38" x="279.599915"/>
      <use xlink:href="#STIXGeneral-Regular-20" x="329.599899"/>
      <use xlink:href="#STIXGeneral-Regular-4b" x="354.599884"/>
     </g>
    </g>
    <g id="line2d_55">
     <path d="M 190.8 152.413125 
L 202.8 152.413125 
L 214.8 152.413125 
" style="fill: none; stroke: #bf00bf; stroke-width: 2; stroke-linecap: square"/>
    </g>
    <g id="text_28">
     <!-- T = 313 K -->
     <g transform="translate(224.4 156.613125) scale(0.12 -0.12)">
      <use xlink:href="#STIXGeneral-Regular-54"/>
      <use xlink:href="#STIXGeneral-Regular-20" x="61.099991"/>
      <use xlink:href="#STIXGeneral-Regular-3d" x="86.099976"/>
      <use xlink:href="#STIXGeneral-Regular-20" x="154.59996"/>
      <use xlink:href="#STIXGeneral-Regular-33" x="179.599945"/>
      <use xlink:href="#STIXGeneral-Regular-31" x="229.59993"/>
      <use xlink:href="#STIXGeneral-Regular-33" x="279.599915"/>
      <use xlink:href="#STIXGeneral-Regular-20" x="329.599899"/>
      <use xlink:href="#STIXGeneral-Regular-4b" x="354.599884"/>
     </g>
    </g>
    <g id="line2d_56">
     <path d="M 190.8 169.4175 
L 202.8 169.4175 
L 214.8 169.4175 
" style="fill: none; stroke: #ff0000; stroke-width: 2; stroke-linecap: square"/>
    </g>
    <g id="text_29">
     <!-- T = 318 K -->
     <g transform="translate(224.4 173.6175) scale(0.12 -0.12)">
      <use xlink:href="#STIXGeneral-Regular-54"/>
      <use xlink:href="#STIXGeneral-Regular-20" x="61.099991"/>
      <use xlink:href="#STIXGeneral-Regular-3d" x="86.099976"/>
      <use xlink:href="#STIXGeneral-Regular-20" x="154.59996"/>
      <use xlink:href="#STIXGeneral-Regular-33" x="179.599945"/>
      <use xlink:href="#STIXGeneral-Regular-31" x="229.59993"/>
      <use xlink:href="#STIXGeneral-Regular-38" x="279.599915"/>
      <use xlink:href="#STIXGeneral-Regular-20" x="329.599899"/>
      <use xlink:href="#STIXGeneral-Regular-4b" x="354.599884"/>
     </g>
    </g>
    <g id="line2d_57">
     <path d="M 190.8 186.421875 
L 202.8 186.421875 
L 214.8 186.421875 
" style="fill: none; stroke: #ffa500; stroke-width: 2; stroke-linecap: square"/>
    </g>
    <g id="text_30">
     <!-- T = 323 K -->
     <g transform="translate(224.4 190.621875) scale(0.12 -0.12)">
      <use xlink:href="#STIXGeneral-Regular-54"/>
      <use xlink:href="#STIXGeneral-Regular-20" x="61.099991"/>
      <use xlink:href="#STIXGeneral-Regular-3d" x="86.099976"/>
      <use xlink:href="#STIXGeneral-Regular-20" x="154.59996"/>
      <use xlink:href="#STIXGeneral-Regular-33" x="179.599945"/>
      <use xlink:href="#STIXGeneral-Regular-32" x="229.59993"/>
      <use xlink:href="#STIXGeneral-Regular-33" x="279.599915"/>
      <use xlink:href="#STIXGeneral-Regular-20" x="329.599899"/>
      <use xlink:href="#STIXGeneral-Regular-4b" x="354.599884"/>
     </g>
    </g>
    <g id="line2d_58">
     <path d="M 190.8 203.42625 
L 202.8 203.42625 
L 214.8 203.42625 
" style="fill: none; stroke: #00ff00; stroke-width: 2; stroke-linecap: square"/>
    </g>
    <g id="text_31">
     <!-- T = 328 K -->
     <g transform="translate(224.4 207.62625) scale(0.12 -0.12)">
      <use xlink:href="#STIXGeneral-Regular-54"/>
      <use xlink:href="#STIXGeneral-Regular-20" x="61.099991"/>
      <use xlink:href="#STIXGeneral-Regular-3d" x="86.099976"/>
      <use xlink:href="#STIXGeneral-Regular-20" x="154.59996"/>
      <use xlink:href="#STIXGeneral-Regular-33" x="179.599945"/>
      <use xlink:href="#STIXGeneral-Regular-32" x="229.59993"/>
      <use xlink:href="#STIXGeneral-Regular-38" x="279.599915"/>
      <use xlink:href="#STIXGeneral-Regular-20" x="329.599899"/>
      <use xlink:href="#STIXGeneral-Regular-4b" x="354.599884"/>
     </g>
    </g>
   </g>
  </g>
  <g id="axes_2">
   <g id="patch_8">
    <path d="M 788.727273 640.8 
L 1296 640.8 
L 1296 86.4 
L 788.727273 86.4 
z
" style="fill: #ffffff"/>
   </g>
   <g id="matplotlib.axis_3">
    <g id="xtick_12">
     <g id="line2d_59">
      <path d="M 788.727273 640.8 
L 788.727273 86.4 
" clip-path="url(#p89b0b01d40)" style="fill: none; stroke-dasharray: 2.96,1.28; stroke-dashoffset: 0; stroke: #000000; stroke-opacity: 0.8; stroke-width: 0.8"/>
     </g>
     <g id="line2d_60">
      <g>
       <use xlink:href="#m67ab13ed95" x="788.727273" y="640.8" style="stroke: #000000; stroke-width: 0.8"/>
      </g>
     </g>
     <g id="text_32">
      <!-- 0 -->
      <g transform="translate(785.727273 655.995625) scale(0.12 -0.12)">
       <use xlink:href="#STIXGeneral-Regular-30"/>
      </g>
     </g>
    </g>
    <g id="xtick_13">
     <g id="line2d_61">
      <path d="M 839.454545 640.8 
L 839.454545 86.4 
" clip-path="url(#p89b0b01d40)" style="fill: none; stroke-dasharray: 2.96,1.28; stroke-dashoffset: 0; stroke: #000000; stroke-opacity: 0.8; stroke-width: 0.8"/>
     </g>
     <g id="line2d_62">
      <g>
       <use xlink:href="#m67ab13ed95" x="839.454545" y="640.8" style="stroke: #000000; stroke-width: 0.8"/>
      </g>
     </g>
     <g id="text_33">
      <!-- 36 -->
      <g transform="translate(833.454545 655.995625) scale(0.12 -0.12)">
       <use xlink:href="#STIXGeneral-Regular-33"/>
       <use xlink:href="#STIXGeneral-Regular-36" x="49.999985"/>
      </g>
     </g>
    </g>
    <g id="xtick_14">
     <g id="line2d_63">
      <path d="M 890.181818 640.8 
L 890.181818 86.4 
" clip-path="url(#p89b0b01d40)" style="fill: none; stroke-dasharray: 2.96,1.28; stroke-dashoffset: 0; stroke: #000000; stroke-opacity: 0.8; stroke-width: 0.8"/>
     </g>
     <g id="line2d_64">
      <g>
       <use xlink:href="#m67ab13ed95" x="890.181818" y="640.8" style="stroke: #000000; stroke-width: 0.8"/>
      </g>
     </g>
     <g id="text_34">
      <!-- 72 -->
      <g transform="translate(884.181818 655.995625) scale(0.12 -0.12)">
       <use xlink:href="#STIXGeneral-Regular-37"/>
       <use xlink:href="#STIXGeneral-Regular-32" x="49.999985"/>
      </g>
     </g>
    </g>
    <g id="xtick_15">
     <g id="line2d_65">
      <path d="M 940.909091 640.8 
L 940.909091 86.4 
" clip-path="url(#p89b0b01d40)" style="fill: none; stroke-dasharray: 2.96,1.28; stroke-dashoffset: 0; stroke: #000000; stroke-opacity: 0.8; stroke-width: 0.8"/>
     </g>
     <g id="line2d_66">
      <g>
       <use xlink:href="#m67ab13ed95" x="940.909091" y="640.8" style="stroke: #000000; stroke-width: 0.8"/>
      </g>
     </g>
     <g id="text_35">
      <!-- 108 -->
      <g transform="translate(931.909091 655.995625) scale(0.12 -0.12)">
       <use xlink:href="#STIXGeneral-Regular-31"/>
       <use xlink:href="#STIXGeneral-Regular-30" x="49.999985"/>
       <use xlink:href="#STIXGeneral-Regular-38" x="99.999969"/>
      </g>
     </g>
    </g>
    <g id="xtick_16">
     <g id="line2d_67">
      <path d="M 991.636364 640.8 
L 991.636364 86.4 
" clip-path="url(#p89b0b01d40)" style="fill: none; stroke-dasharray: 2.96,1.28; stroke-dashoffset: 0; stroke: #000000; stroke-opacity: 0.8; stroke-width: 0.8"/>
     </g>
     <g id="line2d_68">
      <g>
       <use xlink:href="#m67ab13ed95" x="991.636364" y="640.8" style="stroke: #000000; stroke-width: 0.8"/>
      </g>
     </g>
     <g id="text_36">
      <!-- 144 -->
      <g transform="translate(982.636364 655.995625) scale(0.12 -0.12)">
       <use xlink:href="#STIXGeneral-Regular-31"/>
       <use xlink:href="#STIXGeneral-Regular-34" x="49.999985"/>
       <use xlink:href="#STIXGeneral-Regular-34" x="99.999969"/>
      </g>
     </g>
    </g>
    <g id="xtick_17">
     <g id="line2d_69">
      <path d="M 1042.363636 640.8 
L 1042.363636 86.4 
" clip-path="url(#p89b0b01d40)" style="fill: none; stroke-dasharray: 2.96,1.28; stroke-dashoffset: 0; stroke: #000000; stroke-opacity: 0.8; stroke-width: 0.8"/>
     </g>
     <g id="line2d_70">
      <g>
       <use xlink:href="#m67ab13ed95" x="1042.363636" y="640.8" style="stroke: #000000; stroke-width: 0.8"/>
      </g>
     </g>
     <g id="text_37">
      <!-- 180 -->
      <g transform="translate(1033.363636 655.995625) scale(0.12 -0.12)">
       <use xlink:href="#STIXGeneral-Regular-31"/>
       <use xlink:href="#STIXGeneral-Regular-38" x="49.999985"/>
       <use xlink:href="#STIXGeneral-Regular-30" x="99.999969"/>
      </g>
     </g>
    </g>
    <g id="xtick_18">
     <g id="line2d_71">
      <path d="M 1093.090909 640.8 
L 1093.090909 86.4 
" clip-path="url(#p89b0b01d40)" style="fill: none; stroke-dasharray: 2.96,1.28; stroke-dashoffset: 0; stroke: #000000; stroke-opacity: 0.8; stroke-width: 0.8"/>
     </g>
     <g id="line2d_72">
      <g>
       <use xlink:href="#m67ab13ed95" x="1093.090909" y="640.8" style="stroke: #000000; stroke-width: 0.8"/>
      </g>
     </g>
     <g id="text_38">
      <!-- 216 -->
      <g transform="translate(1084.090909 655.995625) scale(0.12 -0.12)">
       <use xlink:href="#STIXGeneral-Regular-32"/>
       <use xlink:href="#STIXGeneral-Regular-31" x="49.999985"/>
       <use xlink:href="#STIXGeneral-Regular-36" x="99.999969"/>
      </g>
     </g>
    </g>
    <g id="xtick_19">
     <g id="line2d_73">
      <path d="M 1143.818182 640.8 
L 1143.818182 86.4 
" clip-path="url(#p89b0b01d40)" style="fill: none; stroke-dasharray: 2.96,1.28; stroke-dashoffset: 0; stroke: #000000; stroke-opacity: 0.8; stroke-width: 0.8"/>
     </g>
     <g id="line2d_74">
      <g>
       <use xlink:href="#m67ab13ed95" x="1143.818182" y="640.8" style="stroke: #000000; stroke-width: 0.8"/>
      </g>
     </g>
     <g id="text_39">
      <!-- 252 -->
      <g transform="translate(1134.818182 655.995625) scale(0.12 -0.12)">
       <use xlink:href="#STIXGeneral-Regular-32"/>
       <use xlink:href="#STIXGeneral-Regular-35" x="49.999985"/>
       <use xlink:href="#STIXGeneral-Regular-32" x="99.999969"/>
      </g>
     </g>
    </g>
    <g id="xtick_20">
     <g id="line2d_75">
      <path d="M 1194.545455 640.8 
L 1194.545455 86.4 
" clip-path="url(#p89b0b01d40)" style="fill: none; stroke-dasharray: 2.96,1.28; stroke-dashoffset: 0; stroke: #000000; stroke-opacity: 0.8; stroke-width: 0.8"/>
     </g>
     <g id="line2d_76">
      <g>
       <use xlink:href="#m67ab13ed95" x="1194.545455" y="640.8" style="stroke: #000000; stroke-width: 0.8"/>
      </g>
     </g>
     <g id="text_40">
      <!-- 288 -->
      <g transform="translate(1185.545455 655.995625) scale(0.12 -0.12)">
       <use xlink:href="#STIXGeneral-Regular-32"/>
       <use xlink:href="#STIXGeneral-Regular-38" x="49.999985"/>
       <use xlink:href="#STIXGeneral-Regular-38" x="99.999969"/>
      </g>
     </g>
    </g>
    <g id="xtick_21">
     <g id="line2d_77">
      <path d="M 1245.272727 640.8 
L 1245.272727 86.4 
" clip-path="url(#p89b0b01d40)" style="fill: none; stroke-dasharray: 2.96,1.28; stroke-dashoffset: 0; stroke: #000000; stroke-opacity: 0.8; stroke-width: 0.8"/>
     </g>
     <g id="line2d_78">
      <g>
       <use xlink:href="#m67ab13ed95" x="1245.272727" y="640.8" style="stroke: #000000; stroke-width: 0.8"/>
      </g>
     </g>
     <g id="text_41">
      <!-- 324 -->
      <g transform="translate(1236.272727 655.995625) scale(0.12 -0.12)">
       <use xlink:href="#STIXGeneral-Regular-33"/>
       <use xlink:href="#STIXGeneral-Regular-32" x="49.999985"/>
       <use xlink:href="#STIXGeneral-Regular-34" x="99.999969"/>
      </g>
     </g>
    </g>
    <g id="xtick_22">
     <g id="line2d_79">
      <path d="M 1296 640.8 
L 1296 86.4 
" clip-path="url(#p89b0b01d40)" style="fill: none; stroke-dasharray: 2.96,1.28; stroke-dashoffset: 0; stroke: #000000; stroke-opacity: 0.8; stroke-width: 0.8"/>
     </g>
     <g id="line2d_80">
      <g>
       <use xlink:href="#m67ab13ed95" x="1296" y="640.8" style="stroke: #000000; stroke-width: 0.8"/>
      </g>
     </g>
     <g id="text_42">
      <!-- 360 -->
      <g transform="translate(1287 655.995625) scale(0.12 -0.12)">
       <use xlink:href="#STIXGeneral-Regular-33"/>
       <use xlink:href="#STIXGeneral-Regular-36" x="49.999985"/>
       <use xlink:href="#STIXGeneral-Regular-30" x="99.999969"/>
      </g>
     </g>
    </g>
    <g id="text_43">
     <!-- $\rho_{CO_2}[\mathrm{kg}/\mathrm{m}^{3}]$ -->
     <g transform="translate(1005.388636 675.05) scale(0.15 -0.15)">
      <use xlink:href="#STIXGeneral-Italic-3c1" transform="translate(0 0.409375)"/>
      <use xlink:href="#STIXGeneral-Italic-43" transform="translate(50.399994 -12.81875) scale(0.7)"/>
      <use xlink:href="#STIXGeneral-Italic-4f" transform="translate(97.089992 -12.81875) scale(0.7)"/>
      <use xlink:href="#STIXGeneral-Regular-32" transform="translate(147.629979 -22.078437) scale(0.49)"/>
      <use xlink:href="#STIXGeneral-Regular-5b" transform="translate(179.625909 0.409375)"/>
      <use xlink:href="#STIXGeneral-Regular-6b" transform="translate(212.925897 0.409375)"/>
      <use xlink:href="#STIXGeneral-Regular-67" transform="translate(262.925882 0.409375)"/>
      <use xlink:href="#STIXGeneral-Regular-2f" transform="translate(312.925866 0.409375)"/>
      <use xlink:href="#STIXGeneral-Regular-6d" transform="translate(340.725854 0.409375)"/>
      <use xlink:href="#STIXGeneral-Regular-33" transform="translate(420.069123 35.684375) scale(0.7)"/>
      <use xlink:href="#STIXGeneral-Regular-5d" transform="translate(459.478487 0.409375)"/>
     </g>
    </g>
   </g>
   <g id="matplotlib.axis_4">
    <g id="ytick_12">
     <g id="line2d_81">
      <path d="M 788.727273 640.8 
L 1296 640.8 
" clip-path="url(#p89b0b01d40)" style="fill: none; stroke-dasharray: 2.96,1.28; stroke-dashoffset: 0; stroke: #000000; stroke-opacity: 0.8; stroke-width: 0.8"/>
     </g>
     <g id="line2d_82">
      <g>
       <use xlink:href="#md176bf63ad" x="788.727273" y="640.8" style="stroke: #000000; stroke-width: 0.8"/>
      </g>
     </g>
     <g id="text_44">
      <!-- 0 -->
      <g transform="translate(775.727273 644.897812) scale(0.12 -0.12)">
       <use xlink:href="#STIXGeneral-Regular-30"/>
      </g>
     </g>
    </g>
    <g id="ytick_13">
     <g id="line2d_83">
      <path d="M 788.727273 585.36 
L 1296 585.36 
" clip-path="url(#p89b0b01d40)" style="fill: none; stroke-dasharray: 2.96,1.28; stroke-dashoffset: 0; stroke: #000000; stroke-opacity: 0.8; stroke-width: 0.8"/>
     </g>
     <g id="line2d_84">
      <g>
       <use xlink:href="#md176bf63ad" x="788.727273" y="585.36" style="stroke: #000000; stroke-width: 0.8"/>
      </g>
     </g>
     <g id="text_45">
      <!-- 1 -->
      <g transform="translate(775.727273 589.457813) scale(0.12 -0.12)">
       <use xlink:href="#STIXGeneral-Regular-31"/>
      </g>
     </g>
    </g>
    <g id="ytick_14">
     <g id="line2d_85">
      <path d="M 788.727273 529.92 
L 1296 529.92 
" clip-path="url(#p89b0b01d40)" style="fill: none; stroke-dasharray: 2.96,1.28; stroke-dashoffset: 0; stroke: #000000; stroke-opacity: 0.8; stroke-width: 0.8"/>
     </g>
     <g id="line2d_86">
      <g>
       <use xlink:href="#md176bf63ad" x="788.727273" y="529.92" style="stroke: #000000; stroke-width: 0.8"/>
      </g>
     </g>
     <g id="text_46">
      <!-- 2 -->
      <g transform="translate(775.727273 534.017812) scale(0.12 -0.12)">
       <use xlink:href="#STIXGeneral-Regular-32"/>
      </g>
     </g>
    </g>
    <g id="ytick_15">
     <g id="line2d_87">
      <path d="M 788.727273 474.48 
L 1296 474.48 
" clip-path="url(#p89b0b01d40)" style="fill: none; stroke-dasharray: 2.96,1.28; stroke-dashoffset: 0; stroke: #000000; stroke-opacity: 0.8; stroke-width: 0.8"/>
     </g>
     <g id="line2d_88">
      <g>
       <use xlink:href="#md176bf63ad" x="788.727273" y="474.48" style="stroke: #000000; stroke-width: 0.8"/>
      </g>
     </g>
     <g id="text_47">
      <!-- 3 -->
      <g transform="translate(775.727273 478.577812) scale(0.12 -0.12)">
       <use xlink:href="#STIXGeneral-Regular-33"/>
      </g>
     </g>
    </g>
    <g id="ytick_16">
     <g id="line2d_89">
      <path d="M 788.727273 419.04 
L 1296 419.04 
" clip-path="url(#p89b0b01d40)" style="fill: none; stroke-dasharray: 2.96,1.28; stroke-dashoffset: 0; stroke: #000000; stroke-opacity: 0.8; stroke-width: 0.8"/>
     </g>
     <g id="line2d_90">
      <g>
       <use xlink:href="#md176bf63ad" x="788.727273" y="419.04" style="stroke: #000000; stroke-width: 0.8"/>
      </g>
     </g>
     <g id="text_48">
      <!-- 4 -->
      <g transform="translate(775.727273 423.137812) scale(0.12 -0.12)">
       <use xlink:href="#STIXGeneral-Regular-34"/>
      </g>
     </g>
    </g>
    <g id="ytick_17">
     <g id="line2d_91">
      <path d="M 788.727273 363.6 
L 1296 363.6 
" clip-path="url(#p89b0b01d40)" style="fill: none; stroke-dasharray: 2.96,1.28; stroke-dashoffset: 0; stroke: #000000; stroke-opacity: 0.8; stroke-width: 0.8"/>
     </g>
     <g id="line2d_92">
      <g>
       <use xlink:href="#md176bf63ad" x="788.727273" y="363.6" style="stroke: #000000; stroke-width: 0.8"/>
      </g>
     </g>
     <g id="text_49">
      <!-- 5 -->
      <g transform="translate(775.727273 367.697812) scale(0.12 -0.12)">
       <use xlink:href="#STIXGeneral-Regular-35"/>
      </g>
     </g>
    </g>
    <g id="ytick_18">
     <g id="line2d_93">
      <path d="M 788.727273 308.16 
L 1296 308.16 
" clip-path="url(#p89b0b01d40)" style="fill: none; stroke-dasharray: 2.96,1.28; stroke-dashoffset: 0; stroke: #000000; stroke-opacity: 0.8; stroke-width: 0.8"/>
     </g>
     <g id="line2d_94">
      <g>
       <use xlink:href="#md176bf63ad" x="788.727273" y="308.16" style="stroke: #000000; stroke-width: 0.8"/>
      </g>
     </g>
     <g id="text_50">
      <!-- 6 -->
      <g transform="translate(775.727273 312.257812) scale(0.12 -0.12)">
       <use xlink:href="#STIXGeneral-Regular-36"/>
      </g>
     </g>
    </g>
    <g id="ytick_19">
     <g id="line2d_95">
      <path d="M 788.727273 252.72 
L 1296 252.72 
" clip-path="url(#p89b0b01d40)" style="fill: none; stroke-dasharray: 2.96,1.28; stroke-dashoffset: 0; stroke: #000000; stroke-opacity: 0.8; stroke-width: 0.8"/>
     </g>
     <g id="line2d_96">
      <g>
       <use xlink:href="#md176bf63ad" x="788.727273" y="252.72" style="stroke: #000000; stroke-width: 0.8"/>
      </g>
     </g>
     <g id="text_51">
      <!-- 7 -->
      <g transform="translate(775.727273 256.817812) scale(0.12 -0.12)">
       <use xlink:href="#STIXGeneral-Regular-37"/>
      </g>
     </g>
    </g>
    <g id="ytick_20">
     <g id="line2d_97">
      <path d="M 788.727273 197.28 
L 1296 197.28 
" clip-path="url(#p89b0b01d40)" style="fill: none; stroke-dasharray: 2.96,1.28; stroke-dashoffset: 0; stroke: #000000; stroke-opacity: 0.8; stroke-width: 0.8"/>
     </g>
     <g id="line2d_98">
      <g>
       <use xlink:href="#md176bf63ad" x="788.727273" y="197.28" style="stroke: #000000; stroke-width: 0.8"/>
      </g>
     </g>
     <g id="text_52">
      <!-- 8 -->
      <g transform="translate(775.727273 201.377813) scale(0.12 -0.12)">
       <use xlink:href="#STIXGeneral-Regular-38"/>
      </g>
     </g>
    </g>
    <g id="ytick_21">
     <g id="line2d_99">
      <path d="M 788.727273 141.84 
L 1296 141.84 
" clip-path="url(#p89b0b01d40)" style="fill: none; stroke-dasharray: 2.96,1.28; stroke-dashoffset: 0; stroke: #000000; stroke-opacity: 0.8; stroke-width: 0.8"/>
     </g>
     <g id="line2d_100">
      <g>
       <use xlink:href="#md176bf63ad" x="788.727273" y="141.84" style="stroke: #000000; stroke-width: 0.8"/>
      </g>
     </g>
     <g id="text_53">
      <!-- 9 -->
      <g transform="translate(775.727273 145.937812) scale(0.12 -0.12)">
       <use xlink:href="#STIXGeneral-Regular-39"/>
      </g>
     </g>
    </g>
    <g id="ytick_22">
     <g id="line2d_101">
      <path d="M 788.727273 86.4 
L 1296 86.4 
" clip-path="url(#p89b0b01d40)" style="fill: none; stroke-dasharray: 2.96,1.28; stroke-dashoffset: 0; stroke: #000000; stroke-opacity: 0.8; stroke-width: 0.8"/>
     </g>
     <g id="line2d_102">
      <g>
       <use xlink:href="#md176bf63ad" x="788.727273" y="86.4" style="stroke: #000000; stroke-width: 0.8"/>
      </g>
     </g>
     <g id="text_54">
      <!-- 10 -->
      <g transform="translate(769.727273 90.497812) scale(0.12 -0.12)">
       <use xlink:href="#STIXGeneral-Regular-31"/>
       <use xlink:href="#STIXGeneral-Regular-30" x="49.999985"/>
      </g>
     </g>
    </g>
    <g id="text_55">
     <!-- $P\,[\mathrm{MPa}]$ -->
     <g transform="translate(762.471804 388.275) rotate(-90) scale(0.15 -0.15)">
      <use xlink:href="#STIXGeneral-Italic-50" transform="translate(0 0.796875)"/>
      <use xlink:href="#STIXGeneral-Regular-5b" transform="translate(73.133562 0.796875)"/>
      <use xlink:href="#STIXGeneral-Regular-4d" transform="translate(106.43355 0.796875)"/>
      <use xlink:href="#STIXGeneral-Regular-50" transform="translate(195.333543 0.796875)"/>
      <use xlink:href="#STIXGeneral-Regular-61" transform="translate(251.03354 0.796875)"/>
      <use xlink:href="#STIXGeneral-Regular-5d" transform="translate(295.433534 0.796875)"/>
     </g>
    </g>
   </g>
   <g id="line2d_103">
    <path d="M 790.136364 637.687486 
L 798.590909 619.376671 
L 807.045455 601.683144 
L 815.5 584.596961 
L 822.545455 570.81522 
L 829.590909 557.442518 
L 836.636364 544.473031 
L 843.681818 531.900911 
L 850.727273 519.720277 
L 857.772727 507.925219 
L 864.818182 496.509798 
L 871.863636 485.468042 
L 878.909091 474.793954 
L 885.954545 464.481506 
L 893 454.524648 
L 900.045455 444.917307 
L 907.090909 435.65339 
L 914.136364 426.726791 
L 921.181818 418.131389 
L 928.227273 409.861057 
L 935.272727 401.909664 
L 942.318182 394.271081 
L 949.363636 386.939184 
L 956.409091 379.907856 
L 963.454545 373.170998 
L 970.5 366.722526 
L 977.545455 360.55638 
L 984.590909 354.666525 
L 991.636364 349.046956 
L 998.681818 343.691698 
L 1005.727273 338.594814 
L 1012.772727 333.750402 
L 1019.818182 329.152596 
L 1026.863636 324.795569 
L 1033.909091 320.673534 
L 1040.954545 316.780737 
L 1048 313.111459 
L 1055.045455 309.660016 
L 1062.090909 306.420751 
L 1069.136364 303.388031 
L 1077.590909 300.01351 
L 1086.045455 296.91868 
L 1094.5 294.093918 
L 1102.954545 291.529637 
L 1111.409091 289.216292 
L 1119.863636 287.144406 
L 1128.318182 285.304599 
L 1136.772727 283.687645 
L 1145.227273 282.284551 
L 1153.681818 281.086649 
L 1162.136364 280.085728 
L 1172 279.156829 
L 1181.863636 278.474953 
L 1191.727273 278.03112 
L 1201.590909 277.818485 
L 1211.454545 277.83266 
L 1221.318182 278.072027 
L 1231.181818 278.538096 
L 1241.045455 279.235598 
L 1250.909091 280.17146 
L 1260.772727 281.3526 
L 1270.636364 282.783667 
L 1280.5 284.464917 
L 1290.363636 286.389661 
L 1297.409091 287.904796 
L 1297.409091 287.904796 
" clip-path="url(#p89b0b01d40)" style="fill: none; stroke: #000000; stroke-width: 2; stroke-linecap: square"/>
   </g>
   <g id="line2d_104">
    <path d="M 790.136364 637.634929 
L 798.590909 619.000914 
L 807.045455 600.970743 
L 815.5 583.534511 
L 823.954545 566.682288 
L 832.409091 550.404107 
L 840.863636 534.689955 
L 849.318182 519.529766 
L 856.363636 507.312138 
L 863.409091 495.466288 
L 870.454545 483.986295 
L 877.5 472.866213 
L 884.545455 462.100068 
L 891.590909 451.681861 
L 898.636364 441.60557 
L 905.681818 431.865153 
L 912.727273 422.454549 
L 919.772727 413.367686 
L 926.818182 404.59848 
L 933.863636 396.140842 
L 940.909091 387.988681 
L 947.954545 380.135908 
L 955 372.576442 
L 962.045455 365.304213 
L 969.090909 358.313165 
L 976.136364 351.597267 
L 983.181818 345.150509 
L 990.227273 338.966912 
L 997.272727 333.040527 
L 1004.318182 327.365445 
L 1011.363636 321.935793 
L 1018.409091 316.745741 
L 1025.454545 311.789502 
L 1032.5 307.061336 
L 1040.954545 301.680571 
L 1049.409091 296.610264 
L 1057.863636 291.840741 
L 1066.318182 287.362403 
L 1074.772727 283.165722 
L 1083.227273 279.241222 
L 1091.681818 275.579465 
L 1100.136364 272.17103 
L 1108.590909 269.006497 
L 1117.045455 266.07642 
L 1125.5 263.371316 
L 1133.954545 260.881641 
L 1142.409091 258.597781 
L 1152.272727 256.18047 
L 1162.136364 254.014582 
L 1172 252.08448 
L 1181.863636 250.374459 
L 1191.727273 248.868822 
L 1203 247.378377 
L 1214.272727 246.111664 
L 1226.954545 244.926448 
L 1239.636364 243.966226 
L 1253.727273 243.129104 
L 1269.227273 242.447321 
L 1286.136364 241.942229 
L 1297.409091 241.721226 
L 1297.409091 241.721226 
" clip-path="url(#p89b0b01d40)" style="fill: none; stroke: #0000ff; stroke-width: 2; stroke-linecap: square"/>
   </g>
   <g id="line2d_105">
    <path d="M 790.136364 637.582378 
L 798.590909 618.625451 
L 807.045455 600.25936 
L 815.5 582.474248 
L 823.954545 565.260248 
L 832.409091 548.607461 
L 840.863636 532.505954 
L 849.318182 516.945748 
L 857.772727 501.916814 
L 866.227273 487.40907 
L 874.681818 473.412382 
L 883.136364 459.916562 
L 891.590909 446.911371 
L 900.045455 434.386529 
L 908.5 422.331712 
L 916.954545 410.736567 
L 925.409091 399.590715 
L 932.454545 390.638218 
L 939.5 381.984495 
L 946.545455 373.62353 
L 953.590909 365.549314 
L 962.045455 356.230315 
L 970.5 347.305259 
L 978.954545 338.763849 
L 987.409091 330.595846 
L 995.863636 322.791072 
L 1004.318182 315.339426 
L 1012.772727 308.230892 
L 1021.227273 301.455543 
L 1029.681818 295.003554 
L 1038.136364 288.865202 
L 1046.590909 283.03087 
L 1055.045455 277.491047 
L 1063.5 272.236325 
L 1071.954545 267.257394 
L 1080.409091 262.545035 
L 1088.863636 258.090107 
L 1097.318182 253.883535 
L 1105.772727 249.916292 
L 1114.227273 246.17939 
L 1122.681818 242.663855 
L 1131.136364 239.36072 
L 1141 235.76353 
L 1150.863636 232.428924 
L 1160.727273 229.342566 
L 1170.590909 226.490081 
L 1180.454545 223.857087 
L 1191.727273 221.09832 
L 1203 218.586269 
L 1214.272727 216.300064 
L 1226.954545 213.972788 
L 1239.636364 211.877997 
L 1253.727273 209.791594 
L 1267.818182 207.927588 
L 1283.318182 206.099589 
L 1297.409091 204.612926 
L 1297.409091 204.612926 
" clip-path="url(#p89b0b01d40)" style="fill: none; stroke: #00bfbf; stroke-width: 2; stroke-linecap: square"/>
   </g>
   <g id="line2d_106">
    <path d="M 790.136364 637.529832 
L 798.590909 618.250262 
L 807.045455 599.548922 
L 815.5 581.416016 
L 823.954545 563.84174 
L 832.409091 546.816277 
L 840.863636 530.329784 
L 849.318182 514.372383 
L 857.772727 498.934154 
L 866.227273 484.005133 
L 874.681818 469.575311 
L 883.136364 455.634634 
L 891.590909 442.173002 
L 900.045455 429.180279 
L 908.5 416.646291 
L 916.954545 404.560839 
L 925.409091 392.913702 
L 933.863636 381.694649 
L 942.318182 370.893444 
L 950.772727 360.499861 
L 959.227273 350.503688 
L 967.681818 340.894746 
L 976.136364 331.662891 
L 984.590909 322.798032 
L 993.045455 314.290137 
L 1001.5 306.129247 
L 1009.954545 298.305483 
L 1018.409091 290.809055 
L 1026.863636 283.630271 
L 1035.318182 276.759543 
L 1043.772727 270.187391 
L 1052.227273 263.904447 
L 1060.681818 257.901453 
L 1069.136364 252.169261 
L 1077.590909 246.698831 
L 1086.045455 241.481221 
L 1094.5 236.507577 
L 1102.954545 231.76913 
L 1111.409091 227.257174 
L 1121.272727 222.267953 
L 1131.136364 217.561583 
L 1141 213.12446 
L 1150.863636 208.943016 
L 1160.727273 205.003709 
L 1170.590909 201.293025 
L 1180.454545 197.797499 
L 1191.727273 194.048899 
L 1203 190.544067 
L 1214.272727 187.263591 
L 1226.954545 183.817739 
L 1239.636364 180.606169 
L 1253.727273 177.283079 
L 1267.818182 174.188757 
L 1283.318182 171.016811 
L 1297.409091 168.318425 
L 1297.409091 168.318425 
" clip-path="url(#p89b0b01d40)" style="fill: none; stroke: #bf00bf; stroke-width: 2; stroke-linecap: square"/>
   </g>
   <g id="line2d_107">
    <path d="M 790.136364 637.477292 
L 798.590909 617.875327 
L 807.045455 598.839366 
L 815.5 580.35967 
L 823.954545 562.426509 
L 832.409091 545.030152 
L 840.863636 528.160853 
L 849.318182 511.80884 
L 857.772727 495.964312 
L 866.227273 480.617434 
L 874.681818 465.758333 
L 883.136364 451.377099 
L 891.590909 437.463784 
L 900.045455 424.008411 
L 908.5 411.000973 
L 916.954545 398.43144 
L 925.409091 386.289769 
L 933.863636 374.565908 
L 942.318182 363.249806 
L 950.772727 352.331424 
L 959.227273 341.80074 
L 967.681818 331.647765 
L 976.136364 321.862548 
L 984.590909 312.435188 
L 993.045455 303.355844 
L 1001.5 294.614745 
L 1009.954545 286.202198 
L 1018.409091 278.108595 
L 1026.863636 270.324426 
L 1035.318182 262.840277 
L 1043.772727 255.646841 
L 1052.227273 248.734921 
L 1060.681818 242.095429 
L 1069.136364 235.719386 
L 1077.590909 229.597924 
L 1086.045455 223.722276 
L 1094.5 218.083778 
L 1104.363636 211.793825 
L 1114.227273 205.801516 
L 1124.090909 200.093511 
L 1133.954545 194.656586 
L 1143.818182 189.477614 
L 1153.681818 184.543552 
L 1163.545455 179.841437 
L 1174.818182 174.73509 
L 1186.090909 169.895806 
L 1197.363636 165.304745 
L 1208.636364 160.94338 
L 1221.318182 156.2889 
L 1234 151.877383 
L 1248.090909 147.231944 
L 1262.181818 142.82707 
L 1277.681818 138.226809 
L 1293.181818 133.851946 
L 1297.409091 132.694133 
L 1297.409091 132.694133 
" clip-path="url(#p89b0b01d40)" style="fill: none; stroke: #ff0000; stroke-width: 2; stroke-linecap: square"/>
   </g>
   <g id="line2d_108">
    <path d="M 790.136364 637.424757 
L 798.590909 617.500629 
L 807.045455 598.13063 
L 815.5 579.30508 
L 823.954545 561.014326 
L 832.409091 543.248723 
L 840.863636 525.998626 
L 849.318182 509.254374 
L 857.772727 493.00629 
L 866.227273 477.24467 
L 874.681818 461.959781 
L 883.136364 447.141863 
L 891.590909 432.781127 
L 900.045455 418.867759 
L 908.5 405.391925 
L 916.954545 392.343772 
L 925.409091 379.713441 
L 933.863636 367.491067 
L 942.318182 355.666793 
L 950.772727 344.230775 
L 959.227273 333.17319 
L 967.681818 322.48425 
L 976.136364 312.154205 
L 984.590909 302.173357 
L 993.045455 292.532065 
L 1001.5 283.220757 
L 1009.954545 274.229936 
L 1018.409091 265.550189 
L 1026.863636 257.172191 
L 1035.318182 249.086714 
L 1043.772727 241.284629 
L 1052.227273 233.756911 
L 1060.681818 226.494642 
L 1069.136364 219.489009 
L 1079 211.628521 
L 1088.863636 204.091851 
L 1098.727273 196.865535 
L 1108.590909 189.936289 
L 1118.454545 183.290987 
L 1128.318182 176.916657 
L 1138.181818 170.80046 
L 1148.045455 164.929686 
L 1157.909091 159.291747 
L 1169.181818 153.117498 
L 1180.454545 147.212663 
L 1191.727273 141.559076 
L 1203 136.138874 
L 1215.681818 130.298362 
L 1228.363636 124.706941 
L 1242.454545 118.758203 
L 1256.545455 113.058224 
L 1272.045455 107.042174 
L 1287.545455 101.259215 
L 1297.409091 97.686431 
L 1297.409091 97.686431 
" clip-path="url(#p89b0b01d40)" style="fill: none; stroke: #ffa500; stroke-width: 2; stroke-linecap: square"/>
   </g>
   <g id="line2d_109">
    <path d="M 790.136364 637.372508 
L 798.590909 617.139958 
L 807.045455 597.470114 
L 815.5 578.353147 
L 823.954545 559.779253 
L 832.409091 541.738641 
L 840.863636 524.221514 
L 849.318182 507.218064 
L 857.772727 490.718462 
L 866.227273 474.712854 
L 874.681818 459.191357 
L 883.136364 444.144059 
L 891.590909 429.561021 
L 900.045455 415.432276 
L 908.5 401.747837 
L 916.954545 388.497701 
L 925.409091 375.671853 
L 933.863636 363.260279 
L 942.318182 351.252967 
L 950.772727 339.63992 
L 959.227273 328.411165 
L 967.681818 317.556762 
L 976.136364 307.066809 
L 984.590909 296.931458 
L 993.045455 287.14092 
L 1001.5 277.685474 
L 1009.954545 268.555477 
L 1018.409091 259.741368 
L 1026.863636 251.23368 
L 1035.318182 243.02304 
L 1043.772727 235.10018 
L 1052.227273 227.455935 
L 1060.681818 220.081247 
L 1069.136364 212.967167 
L 1077.590909 206.104856 
L 1087.454545 198.405384 
L 1097.318182 191.023014 
L 1107.181818 183.944228 
L 1117.045455 177.155676 
L 1126.909091 170.644164 
L 1136.772727 164.396635 
L 1146.636364 158.400165 
L 1156.5 152.641952 
L 1167.772727 146.336619 
L 1179.045455 140.307193 
L 1190.318182 134.535197 
L 1201.590909 129.002446 
L 1214.272727 123.041919 
L 1226.954545 117.337022 
L 1239.636364 111.864066 
L 1253.727273 106.02768 
L 1267.818182 100.420946 
L 1283.318182 94.487133 
L 1297.409091 89.2791 
L 1297.409091 89.2791 
" clip-path="url(#p89b0b01d40)" style="fill: none; stroke: #00ff00; stroke-width: 2; stroke-linecap: square"/>
   </g>
   <g id="patch_9">
    <path d="M 788.727273 640.8 
L 788.727273 86.4 
" style="fill: none; stroke: #000000; stroke-width: 0.8; stroke-linejoin: miter; stroke-linecap: square"/>
   </g>
   <g id="patch_10">
    <path d="M 1296 640.8 
L 1296 86.4 
" style="fill: none; stroke: #000000; stroke-width: 0.8; stroke-linejoin: miter; stroke-linecap: square"/>
   </g>
   <g id="patch_11">
    <path d="M 788.727273 640.8 
L 1296 640.8 
" style="fill: none; stroke: #000000; stroke-width: 0.8; stroke-linejoin: miter; stroke-linecap: square"/>
   </g>
   <g id="patch_12">
    <path d="M 788.727273 86.4 
L 1296 86.4 
" style="fill: none; stroke: #000000; stroke-width: 0.8; stroke-linejoin: miter; stroke-linecap: square"/>
   </g>
   <g id="legend_2">
    <g id="patch_13">
     <path d="M 797.127273 215.030625 
L 886.742898 215.030625 
Q 889.142898 215.030625 889.142898 212.630625 
L 889.142898 94.8 
Q 889.142898 92.4 886.742898 92.4 
L 797.127273 92.4 
Q 794.727273 92.4 794.727273 94.8 
L 794.727273 212.630625 
Q 794.727273 215.030625 797.127273 215.030625 
z
" style="fill: #ffffff; opacity: 0.8; stroke: #cccccc; stroke-linejoin: miter"/>
    </g>
    <g id="line2d_110">
     <path d="M 799.527273 101.4 
L 811.527273 101.4 
L 823.527273 101.4 
" style="fill: none; stroke: #000000; stroke-width: 2; stroke-linecap: square"/>
    </g>
    <g id="text_56">
     <!-- T = 298 K -->
     <g transform="translate(833.127273 105.6) scale(0.12 -0.12)">
      <use xlink:href="#STIXGeneral-Regular-54"/>
      <use xlink:href="#STIXGeneral-Regular-20" x="61.099991"/>
      <use xlink:href="#STIXGeneral-Regular-3d" x="86.099976"/>
      <use xlink:href="#STIXGeneral-Regular-20" x="154.59996"/>
      <use xlink:href="#STIXGeneral-Regular-32" x="179.599945"/>
      <use xlink:href="#STIXGeneral-Regular-39" x="229.59993"/>
      <use xlink:href="#STIXGeneral-Regular-38" x="279.599915"/>
      <use xlink:href="#STIXGeneral-Regular-20" x="329.599899"/>
      <use xlink:href="#STIXGeneral-Regular-4b" x="354.599884"/>
     </g>
    </g>
    <g id="line2d_111">
     <path d="M 799.527273 118.404375 
L 811.527273 118.404375 
L 823.527273 118.404375 
" style="fill: none; stroke: #0000ff; stroke-width: 2; stroke-linecap: square"/>
    </g>
    <g id="text_57">
     <!-- T = 303 K -->
     <g transform="translate(833.127273 122.604375) scale(0.12 -0.12)">
      <use xlink:href="#STIXGeneral-Regular-54"/>
      <use xlink:href="#STIXGeneral-Regular-20" x="61.099991"/>
      <use xlink:href="#STIXGeneral-Regular-3d" x="86.099976"/>
      <use xlink:href="#STIXGeneral-Regular-20" x="154.59996"/>
      <use xlink:href="#STIXGeneral-Regular-33" x="179.599945"/>
      <use xlink:href="#STIXGeneral-Regular-30" x="229.59993"/>
      <use xlink:href="#STIXGeneral-Regular-33" x="279.599915"/>
      <use xlink:href="#STIXGeneral-Regular-20" x="329.599899"/>
      <use xlink:href="#STIXGeneral-Regular-4b" x="354.599884"/>
     </g>
    </g>
    <g id="line2d_112">
     <path d="M 799.527273 135.40875 
L 811.527273 135.40875 
L 823.527273 135.40875 
" style="fill: none; stroke: #00bfbf; stroke-width: 2; stroke-linecap: square"/>
    </g>
    <g id="text_58">
     <!-- T = 308 K -->
     <g transform="translate(833.127273 139.60875) scale(0.12 -0.12)">
      <use xlink:href="#STIXGeneral-Regular-54"/>
      <use xlink:href="#STIXGeneral-Regular-20" x="61.099991"/>
      <use xlink:href="#STIXGeneral-Regular-3d" x="86.099976"/>
      <use xlink:href="#STIXGeneral-Regular-20" x="154.59996"/>
      <use xlink:href="#STIXGeneral-Regular-33" x="179.599945"/>
      <use xlink:href="#STIXGeneral-Regular-30" x="229.59993"/>
      <use xlink:href="#STIXGeneral-Regular-38" x="279.599915"/>
      <use xlink:href="#STIXGeneral-Regular-20" x="329.599899"/>
      <use xlink:href="#STIXGeneral-Regular-4b" x="354.599884"/>
     </g>
    </g>
    <g id="line2d_113">
     <path d="M 799.527273 152.413125 
L 811.527273 152.413125 
L 823.527273 152.413125 
" style="fill: none; stroke: #bf00bf; stroke-width: 2; stroke-linecap: square"/>
    </g>
    <g id="text_59">
     <!-- T = 313 K -->
     <g transform="translate(833.127273 156.613125) scale(0.12 -0.12)">
      <use xlink:href="#STIXGeneral-Regular-54"/>
      <use xlink:href="#STIXGeneral-Regular-20" x="61.099991"/>
      <use xlink:href="#STIXGeneral-Regular-3d" x="86.099976"/>
      <use xlink:href="#STIXGeneral-Regular-20" x="154.59996"/>
      <use xlink:href="#STIXGeneral-Regular-33" x="179.599945"/>
      <use xlink:href="#STIXGeneral-Regular-31" x="229.59993"/>
      <use xlink:href="#STIXGeneral-Regular-33" x="279.599915"/>
      <use xlink:href="#STIXGeneral-Regular-20" x="329.599899"/>
      <use xlink:href="#STIXGeneral-Regular-4b" x="354.599884"/>
     </g>
    </g>
    <g id="line2d_114">
     <path d="M 799.527273 169.4175 
L 811.527273 169.4175 
L 823.527273 169.4175 
" style="fill: none; stroke: #ff0000; stroke-width: 2; stroke-linecap: square"/>
    </g>
    <g id="text_60">
     <!-- T = 318 K -->
     <g transform="translate(833.127273 173.6175) scale(0.12 -0.12)">
      <use xlink:href="#STIXGeneral-Regular-54"/>
      <use xlink:href="#STIXGeneral-Regular-20" x="61.099991"/>
      <use xlink:href="#STIXGeneral-Regular-3d" x="86.099976"/>
      <use xlink:href="#STIXGeneral-Regular-20" x="154.59996"/>
      <use xlink:href="#STIXGeneral-Regular-33" x="179.599945"/>
      <use xlink:href="#STIXGeneral-Regular-31" x="229.59993"/>
      <use xlink:href="#STIXGeneral-Regular-38" x="279.599915"/>
      <use xlink:href="#STIXGeneral-Regular-20" x="329.599899"/>
      <use xlink:href="#STIXGeneral-Regular-4b" x="354.599884"/>
     </g>
    </g>
    <g id="line2d_115">
     <path d="M 799.527273 186.421875 
L 811.527273 186.421875 
L 823.527273 186.421875 
" style="fill: none; stroke: #ffa500; stroke-width: 2; stroke-linecap: square"/>
    </g>
    <g id="text_61">
     <!-- T = 323 K -->
     <g transform="translate(833.127273 190.621875) scale(0.12 -0.12)">
      <use xlink:href="#STIXGeneral-Regular-54"/>
      <use xlink:href="#STIXGeneral-Regular-20" x="61.099991"/>
      <use xlink:href="#STIXGeneral-Regular-3d" x="86.099976"/>
      <use xlink:href="#STIXGeneral-Regular-20" x="154.59996"/>
      <use xlink:href="#STIXGeneral-Regular-33" x="179.599945"/>
      <use xlink:href="#STIXGeneral-Regular-32" x="229.59993"/>
      <use xlink:href="#STIXGeneral-Regular-33" x="279.599915"/>
      <use xlink:href="#STIXGeneral-Regular-20" x="329.599899"/>
      <use xlink:href="#STIXGeneral-Regular-4b" x="354.599884"/>
     </g>
    </g>
    <g id="line2d_116">
     <path d="M 799.527273 203.42625 
L 811.527273 203.42625 
L 823.527273 203.42625 
" style="fill: none; stroke: #00ff00; stroke-width: 2; stroke-linecap: square"/>
    </g>
    <g id="text_62">
     <!-- T = 328 K -->
     <g transform="translate(833.127273 207.62625) scale(0.12 -0.12)">
      <use xlink:href="#STIXGeneral-Regular-54"/>
      <use xlink:href="#STIXGeneral-Regular-20" x="61.099991"/>
      <use xlink:href="#STIXGeneral-Regular-3d" x="86.099976"/>
      <use xlink:href="#STIXGeneral-Regular-20" x="154.59996"/>
      <use xlink:href="#STIXGeneral-Regular-33" x="179.599945"/>
      <use xlink:href="#STIXGeneral-Regular-32" x="229.59993"/>
      <use xlink:href="#STIXGeneral-Regular-38" x="279.599915"/>
      <use xlink:href="#STIXGeneral-Regular-20" x="329.599899"/>
      <use xlink:href="#STIXGeneral-Regular-4b" x="354.599884"/>
     </g>
    </g>
   </g>
  </g>
 </g>
 <defs>
  <clipPath id="p2795f83894">
   <rect x="180" y="86.4" width="507.272727" height="554.4"/>
  </clipPath>
  <clipPath id="p89b0b01d40">
   <rect x="788.727273" y="86.4" width="507.272727" height="554.4"/>
  </clipPath>
 </defs>
</svg>
