<?xml version="1.0" encoding="utf-8" standalone="no"?>
<!DOCTYPE svg PUBLIC "-//W3C//DTD SVG 1.1//EN"
  "http://www.w3.org/Graphics/SVG/1.1/DTD/svg11.dtd">
<svg xmlns:xlink="http://www.w3.org/1999/xlink" width="1440pt" height="720pt" viewBox="0 0 1440 720" xmlns="http://www.w3.org/2000/svg" version="1.1">
 <metadata>
  <rdf:RDF xmlns:dc="http://purl.org/dc/elements/1.1/" xmlns:cc="http://creativecommons.org/ns#" xmlns:rdf="http://www.w3.org/1999/02/22-rdf-syntax-ns#">
   <cc:Work>
    <dc:type rdf:resource="http://purl.org/dc/dcmitype/StillImage"/>
    <dc:date>2022-10-15T19:43:11.655541</dc:date>
    <dc:format>image/svg+xml</dc:format>
    <dc:creator>
     <cc:Agent>
      <dc:title>Matplotlib v3.6.0, https://matplotlib.org/</dc:title>
     </cc:Agent>
    </dc:creator>
   </cc:Work>
  </rdf:RDF>
 </metadata>
 <defs>
  <style type="text/css">*{stroke-linejoin: round; stroke-linecap: butt}</style>
 </defs>
 <g id="figure_1">
  <g id="patch_1">
   <path d="M 0 720 
L 1440 720 
L 1440 0 
L 0 0 
z
" style="fill: #ffffff"/>
  </g>
  <g id="axes_1">
   <g id="patch_2">
    <path d="M 180 640.8 
L 1296 640.8 
L 1296 86.4 
L 180 86.4 
z
" style="fill: #ffffff"/>
   </g>
   <g id="matplotlib.axis_1">
    <g id="xtick_1">
     <g id="line2d_1">
      <path d="M 180 640.8 
L 180 86.4 
" clip-path="url(#pbb31f5a641)" style="fill: none; stroke-dasharray: 2.96,1.28; stroke-dashoffset: 0; stroke: #000000; stroke-opacity: 0.8; stroke-width: 0.8"/>
     </g>
     <g id="line2d_2">
      <defs>
       <path id="m189f4a5516" d="M 0 0 
L 0 3.5 
" style="stroke: #000000; stroke-width: 0.8"/>
      </defs>
      <g>
       <use xlink:href="#m189f4a5516" x="180" y="640.8" style="stroke: #000000; stroke-width: 0.8"/>
      </g>
     </g>
     <g id="text_1">
      <!-- 100 -->
      <g transform="translate(171 655.995625) scale(0.12 -0.12)">
       <defs>
        <path id="STIXGeneral-Regular-31" d="M 2522 0 
L 755 0 
L 755 96 
Q 1107 115 1235 227 
Q 1363 339 1363 608 
L 1363 3482 
Q 1363 3795 1171 3795 
Q 1082 3795 883 3718 
L 710 3654 
L 710 3744 
L 1856 4326 
L 1914 4307 
L 1914 486 
Q 1914 275 2042 185 
Q 2170 96 2522 96 
L 2522 0 
z
" transform="scale(0.015625)"/>
        <path id="STIXGeneral-Regular-30" d="M 3046 2112 
Q 3046 1683 2963 1302 
Q 2880 922 2717 602 
Q 2554 282 2266 96 
Q 1978 -90 1600 -90 
Q 1210 -90 915 108 
Q 621 307 461 640 
Q 301 973 227 1350 
Q 154 1728 154 2150 
Q 154 2746 301 3222 
Q 448 3699 790 4012 
Q 1133 4326 1626 4326 
Q 2253 4326 2649 3712 
Q 3046 3098 3046 2112 
z
M 2432 2080 
Q 2432 3091 2217 3625 
Q 2003 4160 1587 4160 
Q 1190 4160 979 3622 
Q 768 3085 768 2106 
Q 768 1120 979 598 
Q 1190 77 1600 77 
Q 2003 77 2217 598 
Q 2432 1120 2432 2080 
z
" transform="scale(0.015625)"/>
       </defs>
       <use xlink:href="#STIXGeneral-Regular-31"/>
       <use xlink:href="#STIXGeneral-Regular-30" x="49.999985"/>
       <use xlink:href="#STIXGeneral-Regular-30" x="99.999969"/>
      </g>
     </g>
    </g>
    <g id="xtick_2">
     <g id="line2d_3">
      <path d="M 269.28 640.8 
L 269.28 86.4 
" clip-path="url(#pbb31f5a641)" style="fill: none; stroke-dasharray: 2.96,1.28; stroke-dashoffset: 0; stroke: #000000; stroke-opacity: 0.8; stroke-width: 0.8"/>
     </g>
     <g id="line2d_4">
      <g>
       <use xlink:href="#m189f4a5516" x="269.28" y="640.8" style="stroke: #000000; stroke-width: 0.8"/>
      </g>
     </g>
     <g id="text_2">
      <!-- 140 -->
      <g transform="translate(260.28 655.995625) scale(0.12 -0.12)">
       <defs>
        <path id="STIXGeneral-Regular-34" d="M 3027 1069 
L 2368 1069 
L 2368 0 
L 1869 0 
L 1869 1069 
L 77 1069 
L 77 1478 
L 2086 4326 
L 2368 4326 
L 2368 1478 
L 3027 1478 
L 3027 1069 
z
M 1869 1478 
L 1869 3674 
L 333 1478 
L 1869 1478 
z
" transform="scale(0.015625)"/>
       </defs>
       <use xlink:href="#STIXGeneral-Regular-31"/>
       <use xlink:href="#STIXGeneral-Regular-34" x="49.999985"/>
       <use xlink:href="#STIXGeneral-Regular-30" x="99.999969"/>
      </g>
     </g>
    </g>
    <g id="xtick_3">
     <g id="line2d_5">
      <path d="M 358.56 640.8 
L 358.56 86.4 
" clip-path="url(#pbb31f5a641)" style="fill: none; stroke-dasharray: 2.96,1.28; stroke-dashoffset: 0; stroke: #000000; stroke-opacity: 0.8; stroke-width: 0.8"/>
     </g>
     <g id="line2d_6">
      <g>
       <use xlink:href="#m189f4a5516" x="358.56" y="640.8" style="stroke: #000000; stroke-width: 0.8"/>
      </g>
     </g>
     <g id="text_3">
      <!-- 180 -->
      <g transform="translate(349.56 655.995625) scale(0.12 -0.12)">
       <defs>
        <path id="STIXGeneral-Regular-38" d="M 2848 992 
Q 2848 499 2505 204 
Q 2163 -90 1587 -90 
Q 1050 -90 704 204 
Q 358 499 358 954 
Q 358 1293 524 1533 
Q 691 1773 1190 2125 
Q 710 2522 553 2765 
Q 397 3008 397 3328 
Q 397 3782 745 4054 
Q 1094 4326 1638 4326 
Q 2106 4326 2410 4060 
Q 2714 3795 2714 3411 
Q 2714 3059 2531 2848 
Q 2349 2637 1856 2374 
Q 2432 1990 2640 1689 
Q 2848 1389 2848 992 
z
M 2272 3411 
Q 2272 3744 2086 3945 
Q 1901 4147 1574 4147 
Q 1248 4147 1059 3977 
Q 870 3808 870 3513 
Q 870 3219 1059 2979 
Q 1248 2739 1670 2490 
Q 1997 2682 2134 2896 
Q 2272 3110 2272 3411 
z
M 1734 1741 
L 1357 1997 
Q 1075 1766 960 1545 
Q 845 1325 845 1011 
Q 845 576 1065 333 
Q 1286 90 1658 90 
Q 1971 90 2166 285 
Q 2362 480 2362 794 
Q 2362 1082 2214 1299 
Q 2067 1517 1734 1741 
z
" transform="scale(0.015625)"/>
       </defs>
       <use xlink:href="#STIXGeneral-Regular-31"/>
       <use xlink:href="#STIXGeneral-Regular-38" x="49.999985"/>
       <use xlink:href="#STIXGeneral-Regular-30" x="99.999969"/>
      </g>
     </g>
    </g>
    <g id="xtick_4">
     <g id="line2d_7">
      <path d="M 447.84 640.8 
L 447.84 86.4 
" clip-path="url(#pbb31f5a641)" style="fill: none; stroke-dasharray: 2.96,1.28; stroke-dashoffset: 0; stroke: #000000; stroke-opacity: 0.8; stroke-width: 0.8"/>
     </g>
     <g id="line2d_8">
      <g>
       <use xlink:href="#m189f4a5516" x="447.84" y="640.8" style="stroke: #000000; stroke-width: 0.8"/>
      </g>
     </g>
     <g id="text_4">
      <!-- 220 -->
      <g transform="translate(438.84 655.995625) scale(0.12 -0.12)">
       <defs>
        <path id="STIXGeneral-Regular-32" d="M 3034 877 
L 2688 0 
L 186 0 
L 186 77 
L 1325 1286 
Q 1773 1754 1965 2144 
Q 2157 2534 2157 2950 
Q 2157 3379 1920 3616 
Q 1683 3853 1267 3853 
Q 922 3853 720 3673 
Q 518 3494 326 3021 
L 192 3053 
Q 301 3648 630 3987 
Q 960 4326 1523 4326 
Q 2054 4326 2380 4006 
Q 2707 3686 2707 3200 
Q 2707 2477 1888 1613 
L 832 486 
L 2330 486 
Q 2541 486 2665 569 
Q 2790 653 2944 915 
L 3034 877 
z
" transform="scale(0.015625)"/>
       </defs>
       <use xlink:href="#STIXGeneral-Regular-32"/>
       <use xlink:href="#STIXGeneral-Regular-32" x="49.999985"/>
       <use xlink:href="#STIXGeneral-Regular-30" x="99.999969"/>
      </g>
     </g>
    </g>
    <g id="xtick_5">
     <g id="line2d_9">
      <path d="M 537.12 640.8 
L 537.12 86.4 
" clip-path="url(#pbb31f5a641)" style="fill: none; stroke-dasharray: 2.96,1.28; stroke-dashoffset: 0; stroke: #000000; stroke-opacity: 0.8; stroke-width: 0.8"/>
     </g>
     <g id="line2d_10">
      <g>
       <use xlink:href="#m189f4a5516" x="537.12" y="640.8" style="stroke: #000000; stroke-width: 0.8"/>
      </g>
     </g>
     <g id="text_5">
      <!-- 260 -->
      <g transform="translate(528.12 655.995625) scale(0.12 -0.12)">
       <defs>
        <path id="STIXGeneral-Regular-36" d="M 2854 4378 
L 2867 4275 
Q 2112 4154 1606 3664 
Q 1101 3174 973 2451 
Q 1344 2739 1786 2739 
Q 2349 2739 2672 2380 
Q 2995 2022 2995 1402 
Q 2995 774 2669 378 
Q 2291 -90 1651 -90 
Q 870 -90 518 557 
Q 218 1107 218 1786 
Q 218 2835 915 3552 
Q 1312 3962 1731 4131 
Q 2150 4301 2854 4378 
z
M 2419 1203 
Q 2419 2445 1555 2445 
Q 1235 2445 1024 2275 
Q 813 2106 813 1702 
Q 813 954 1046 522 
Q 1280 90 1722 90 
Q 2061 90 2240 394 
Q 2419 698 2419 1203 
z
" transform="scale(0.015625)"/>
       </defs>
       <use xlink:href="#STIXGeneral-Regular-32"/>
       <use xlink:href="#STIXGeneral-Regular-36" x="49.999985"/>
       <use xlink:href="#STIXGeneral-Regular-30" x="99.999969"/>
      </g>
     </g>
    </g>
    <g id="xtick_6">
     <g id="line2d_11">
      <path d="M 626.4 640.8 
L 626.4 86.4 
" clip-path="url(#pbb31f5a641)" style="fill: none; stroke-dasharray: 2.96,1.28; stroke-dashoffset: 0; stroke: #000000; stroke-opacity: 0.8; stroke-width: 0.8"/>
     </g>
     <g id="line2d_12">
      <g>
       <use xlink:href="#m189f4a5516" x="626.4" y="640.8" style="stroke: #000000; stroke-width: 0.8"/>
      </g>
     </g>
     <g id="text_6">
      <!-- 300 -->
      <g transform="translate(617.4 655.995625) scale(0.12 -0.12)">
       <defs>
        <path id="STIXGeneral-Regular-33" d="M 390 3264 
L 288 3290 
Q 435 3770 748 4048 
Q 1062 4326 1542 4326 
Q 1990 4326 2265 4083 
Q 2541 3840 2541 3450 
Q 2541 2925 1946 2566 
Q 2298 2413 2477 2227 
Q 2758 1914 2758 1402 
Q 2758 890 2464 506 
Q 2246 211 1840 60 
Q 1434 -90 979 -90 
Q 262 -90 262 275 
Q 262 378 339 442 
Q 416 506 525 506 
Q 685 506 915 339 
Q 1197 141 1466 141 
Q 1818 141 2058 425 
Q 2298 710 2298 1120 
Q 2298 1856 1632 2048 
Q 1434 2112 979 2112 
L 979 2202 
Q 1338 2323 1517 2432 
Q 2035 2726 2035 3290 
Q 2035 3610 1852 3776 
Q 1670 3942 1344 3942 
Q 768 3942 390 3264 
z
" transform="scale(0.015625)"/>
       </defs>
       <use xlink:href="#STIXGeneral-Regular-33"/>
       <use xlink:href="#STIXGeneral-Regular-30" x="49.999985"/>
       <use xlink:href="#STIXGeneral-Regular-30" x="99.999969"/>
      </g>
     </g>
    </g>
    <g id="xtick_7">
     <g id="line2d_13">
      <path d="M 715.68 640.8 
L 715.68 86.4 
" clip-path="url(#pbb31f5a641)" style="fill: none; stroke-dasharray: 2.96,1.28; stroke-dashoffset: 0; stroke: #000000; stroke-opacity: 0.8; stroke-width: 0.8"/>
     </g>
     <g id="line2d_14">
      <g>
       <use xlink:href="#m189f4a5516" x="715.68" y="640.8" style="stroke: #000000; stroke-width: 0.8"/>
      </g>
     </g>
     <g id="text_7">
      <!-- 340 -->
      <g transform="translate(706.68 655.995625) scale(0.12 -0.12)">
       <use xlink:href="#STIXGeneral-Regular-33"/>
       <use xlink:href="#STIXGeneral-Regular-34" x="49.999985"/>
       <use xlink:href="#STIXGeneral-Regular-30" x="99.999969"/>
      </g>
     </g>
    </g>
    <g id="xtick_8">
     <g id="line2d_15">
      <path d="M 804.96 640.8 
L 804.96 86.4 
" clip-path="url(#pbb31f5a641)" style="fill: none; stroke-dasharray: 2.96,1.28; stroke-dashoffset: 0; stroke: #000000; stroke-opacity: 0.8; stroke-width: 0.8"/>
     </g>
     <g id="line2d_16">
      <g>
       <use xlink:href="#m189f4a5516" x="804.96" y="640.8" style="stroke: #000000; stroke-width: 0.8"/>
      </g>
     </g>
     <g id="text_8">
      <!-- 380 -->
      <g transform="translate(795.96 655.995625) scale(0.12 -0.12)">
       <use xlink:href="#STIXGeneral-Regular-33"/>
       <use xlink:href="#STIXGeneral-Regular-38" x="49.999985"/>
       <use xlink:href="#STIXGeneral-Regular-30" x="99.999969"/>
      </g>
     </g>
    </g>
    <g id="xtick_9">
     <g id="line2d_17">
      <path d="M 894.24 640.8 
L 894.24 86.4 
" clip-path="url(#pbb31f5a641)" style="fill: none; stroke-dasharray: 2.96,1.28; stroke-dashoffset: 0; stroke: #000000; stroke-opacity: 0.8; stroke-width: 0.8"/>
     </g>
     <g id="line2d_18">
      <g>
       <use xlink:href="#m189f4a5516" x="894.24" y="640.8" style="stroke: #000000; stroke-width: 0.8"/>
      </g>
     </g>
     <g id="text_9">
      <!-- 420 -->
      <g transform="translate(885.24 655.995625) scale(0.12 -0.12)">
       <use xlink:href="#STIXGeneral-Regular-34"/>
       <use xlink:href="#STIXGeneral-Regular-32" x="49.999985"/>
       <use xlink:href="#STIXGeneral-Regular-30" x="99.999969"/>
      </g>
     </g>
    </g>
    <g id="xtick_10">
     <g id="line2d_19">
      <path d="M 983.52 640.8 
L 983.52 86.4 
" clip-path="url(#pbb31f5a641)" style="fill: none; stroke-dasharray: 2.96,1.28; stroke-dashoffset: 0; stroke: #000000; stroke-opacity: 0.8; stroke-width: 0.8"/>
     </g>
     <g id="line2d_20">
      <g>
       <use xlink:href="#m189f4a5516" x="983.52" y="640.8" style="stroke: #000000; stroke-width: 0.8"/>
      </g>
     </g>
     <g id="text_10">
      <!-- 460 -->
      <g transform="translate(974.52 655.995625) scale(0.12 -0.12)">
       <use xlink:href="#STIXGeneral-Regular-34"/>
       <use xlink:href="#STIXGeneral-Regular-36" x="49.999985"/>
       <use xlink:href="#STIXGeneral-Regular-30" x="99.999969"/>
      </g>
     </g>
    </g>
    <g id="xtick_11">
     <g id="line2d_21">
      <path d="M 1072.8 640.8 
L 1072.8 86.4 
" clip-path="url(#pbb31f5a641)" style="fill: none; stroke-dasharray: 2.96,1.28; stroke-dashoffset: 0; stroke: #000000; stroke-opacity: 0.8; stroke-width: 0.8"/>
     </g>
     <g id="line2d_22">
      <g>
       <use xlink:href="#m189f4a5516" x="1072.8" y="640.8" style="stroke: #000000; stroke-width: 0.8"/>
      </g>
     </g>
     <g id="text_11">
      <!-- 500 -->
      <g transform="translate(1063.8 655.995625) scale(0.12 -0.12)">
       <defs>
        <path id="STIXGeneral-Regular-35" d="M 2803 4358 
L 2573 3814 
Q 2534 3731 2400 3731 
L 1158 3731 
L 902 3187 
Q 1606 3053 1920 2896 
Q 2234 2739 2502 2368 
Q 2726 2061 2726 1555 
Q 2726 1094 2576 780 
Q 2426 467 2099 224 
Q 1664 -90 1011 -90 
Q 646 -90 422 19 
Q 198 128 198 307 
Q 198 550 486 550 
Q 717 550 960 352 
Q 1210 147 1414 147 
Q 1747 147 2012 480 
Q 2278 813 2278 1229 
Q 2278 1843 1850 2189 
Q 1293 2637 486 2637 
Q 410 2637 410 2688 
L 416 2720 
L 1114 4237 
L 2438 4237 
Q 2547 4237 2608 4269 
Q 2669 4301 2746 4403 
L 2803 4358 
z
" transform="scale(0.015625)"/>
       </defs>
       <use xlink:href="#STIXGeneral-Regular-35"/>
       <use xlink:href="#STIXGeneral-Regular-30" x="49.999985"/>
       <use xlink:href="#STIXGeneral-Regular-30" x="99.999969"/>
      </g>
     </g>
    </g>
    <g id="text_12">
     <!-- $\rho\,[\mathrm{kg}/\mathrm{m}^{3}]$ -->
     <g transform="translate(709.8 675.05) scale(0.15 -0.15)">
      <defs>
       <path id="STIXGeneral-Italic-3c1" d="M -58 -864 
L 422 966 
Q 640 1811 1081 2316 
Q 1523 2822 2042 2822 
Q 2189 2822 2278 2816 
Q 2368 2810 2525 2765 
Q 2682 2720 2774 2633 
Q 2867 2547 2940 2371 
Q 3014 2195 3014 1946 
Q 3014 1210 2403 570 
Q 1792 -70 1107 -70 
Q 864 -70 672 38 
L 442 -864 
Q 378 -1126 243 -1312 
L -256 -1312 
Q -128 -1114 -58 -864 
z
M 2445 1997 
Q 2445 2291 2333 2489 
Q 2221 2688 2022 2688 
Q 1747 2688 1472 2361 
Q 1197 2035 1056 1530 
Q 762 467 762 288 
Q 762 186 851 118 
Q 941 51 1075 51 
Q 1472 58 1798 390 
Q 2125 723 2285 1161 
Q 2445 1600 2445 1997 
z
" transform="scale(0.015625)"/>
       <path id="STIXGeneral-Regular-5b" d="M 1914 -998 
L 563 -998 
L 563 4237 
L 1914 4237 
L 1914 4077 
L 1382 4077 
Q 1216 4077 1133 4006 
Q 1050 3936 1050 3770 
L 1050 -493 
Q 1050 -838 1382 -838 
L 1914 -838 
L 1914 -998 
z
" transform="scale(0.015625)"/>
       <path id="STIXGeneral-Regular-6b" d="M 3232 0 
L 1837 0 
L 1837 96 
L 1958 96 
Q 2093 96 2093 192 
Q 2093 250 2022 339 
L 1062 1606 
L 1062 429 
Q 1062 262 1142 185 
Q 1222 109 1414 102 
L 1542 96 
L 1542 0 
L 45 0 
L 45 96 
Q 390 154 457 214 
Q 525 275 525 525 
L 525 3610 
Q 525 3840 467 3920 
Q 410 4000 250 4000 
Q 211 4000 45 3987 
L 45 4090 
L 237 4141 
Q 621 4243 1037 4371 
L 1062 4358 
L 1062 1670 
L 1939 2451 
Q 2086 2586 2086 2675 
Q 2086 2739 2019 2761 
Q 1952 2784 1766 2790 
L 1766 2880 
L 3072 2880 
L 3072 2784 
Q 2752 2784 2505 2646 
Q 2259 2509 1690 1978 
L 1504 1805 
L 2483 563 
Q 2829 122 3232 96 
L 3232 0 
z
" transform="scale(0.015625)"/>
       <path id="STIXGeneral-Regular-67" d="M 3008 2483 
L 2477 2483 
Q 2598 2208 2598 1946 
Q 2598 1453 2265 1203 
Q 1933 954 1600 954 
Q 1530 954 1357 973 
L 1235 986 
Q 1107 947 979 812 
Q 851 678 851 582 
Q 851 435 1350 410 
L 2176 371 
Q 2528 358 2739 172 
Q 2950 -13 2950 -314 
Q 2950 -685 2566 -986 
Q 2035 -1395 1286 -1395 
Q 826 -1395 502 -1212 
Q 179 -1030 179 -774 
Q 179 -595 320 -419 
Q 461 -243 806 6 
Q 602 102 534 172 
Q 467 243 467 346 
Q 467 531 762 787 
Q 909 915 1037 1043 
Q 717 1203 579 1401 
Q 442 1600 442 1901 
Q 442 2336 752 2640 
Q 1062 2944 1510 2944 
Q 1766 2944 2022 2848 
L 2163 2797 
Q 2349 2733 2515 2733 
L 3008 2733 
L 3008 2483 
z
M 973 2163 
L 973 2144 
Q 973 1683 1155 1398 
Q 1338 1114 1632 1114 
Q 1850 1114 1978 1270 
Q 2106 1427 2106 1690 
Q 2106 2112 1914 2464 
Q 1754 2765 1446 2765 
Q 1222 2765 1097 2605 
Q 973 2445 973 2163 
z
M 2771 -410 
Q 2771 -230 2595 -163 
Q 2419 -96 1978 -96 
Q 1344 -96 941 -13 
Q 749 -243 688 -348 
Q 627 -454 627 -563 
Q 627 -774 880 -902 
Q 1133 -1030 1555 -1030 
Q 2099 -1030 2435 -860 
Q 2771 -691 2771 -410 
z
" transform="scale(0.015625)"/>
       <path id="STIXGeneral-Regular-2f" d="M 1837 4326 
L 378 -90 
L -58 -90 
L 1408 4326 
L 1837 4326 
z
" transform="scale(0.015625)"/>
       <path id="STIXGeneral-Regular-6d" d="M 4960 0 
L 3565 0 
L 3565 96 
Q 3834 122 3907 208 
Q 3981 294 3981 576 
L 3981 1894 
Q 3981 2278 3869 2444 
Q 3757 2611 3488 2611 
Q 3264 2611 3107 2521 
Q 2950 2432 2803 2221 
L 2803 608 
Q 2803 301 2896 201 
Q 2989 102 3264 96 
L 3264 0 
L 1830 0 
L 1830 96 
Q 2112 115 2189 188 
Q 2266 262 2266 550 
L 2266 1901 
Q 2266 2611 1850 2611 
Q 1670 2611 1468 2531 
Q 1267 2451 1171 2336 
Q 1088 2240 1088 2227 
L 1088 448 
Q 1088 243 1177 176 
Q 1267 109 1523 96 
L 1523 0 
L 102 0 
L 102 96 
Q 371 102 460 195 
Q 550 288 550 563 
L 550 2150 
Q 550 2387 499 2480 
Q 448 2573 326 2573 
Q 230 2573 122 2547 
L 122 2656 
Q 557 2778 1011 2944 
L 1062 2925 
L 1062 2451 
L 1075 2451 
Q 1363 2752 1584 2848 
Q 1805 2944 2054 2944 
Q 2560 2944 2733 2406 
Q 3232 2944 3776 2944 
Q 4518 2944 4518 1792 
L 4518 493 
Q 4518 282 4582 202 
Q 4646 122 4794 109 
L 4960 96 
L 4960 0 
z
" transform="scale(0.015625)"/>
       <path id="STIXGeneral-Regular-5d" d="M 1568 -998 
L 218 -998 
L 218 -838 
L 781 -838 
Q 947 -838 1014 -768 
Q 1082 -698 1082 -544 
L 1082 3731 
Q 1082 4077 755 4077 
L 218 4077 
L 218 4237 
L 1568 4237 
L 1568 -998 
z
" transform="scale(0.015625)"/>
      </defs>
      <use xlink:href="#STIXGeneral-Italic-3c1" transform="translate(0 0.409375)"/>
      <use xlink:href="#STIXGeneral-Regular-5b" transform="translate(62.433565 0.409375)"/>
      <use xlink:href="#STIXGeneral-Regular-6b" transform="translate(95.733553 0.409375)"/>
      <use xlink:href="#STIXGeneral-Regular-67" transform="translate(145.733537 0.409375)"/>
      <use xlink:href="#STIXGeneral-Regular-2f" transform="translate(195.733522 0.409375)"/>
      <use xlink:href="#STIXGeneral-Regular-6d" transform="translate(223.53351 0.409375)"/>
      <use xlink:href="#STIXGeneral-Regular-33" transform="translate(302.876779 35.684375) scale(0.7)"/>
      <use xlink:href="#STIXGeneral-Regular-5d" transform="translate(342.286143 0.409375)"/>
     </g>
    </g>
   </g>
   <g id="matplotlib.axis_2">
    <g id="ytick_1">
     <g id="line2d_23">
      <path d="M 180 590.893981 
L 1296 590.893981 
" clip-path="url(#pbb31f5a641)" style="fill: none; stroke-dasharray: 2.96,1.28; stroke-dashoffset: 0; stroke: #000000; stroke-opacity: 0.8; stroke-width: 0.8"/>
     </g>
     <g id="line2d_24">
      <defs>
       <path id="m1778518605" d="M 0 0 
L -3.5 0 
" style="stroke: #000000; stroke-width: 0.8"/>
      </defs>
      <g>
       <use xlink:href="#m1778518605" x="180" y="590.893981" style="stroke: #000000; stroke-width: 0.8"/>
      </g>
     </g>
     <g id="text_13">
      <!-- −2 -->
      <g transform="translate(158.78 594.991793) scale(0.12 -0.12)">
       <defs>
        <path id="STIXGeneral-Regular-2212" d="M 3974 1408 
L 410 1408 
L 410 1830 
L 3974 1830 
L 3974 1408 
z
" transform="scale(0.015625)"/>
       </defs>
       <use xlink:href="#STIXGeneral-Regular-2212"/>
       <use xlink:href="#STIXGeneral-Regular-32" x="68.499985"/>
      </g>
     </g>
    </g>
    <g id="ytick_2">
     <g id="line2d_25">
      <path d="M 180 476.710725 
L 1296 476.710725 
" clip-path="url(#pbb31f5a641)" style="fill: none; stroke-dasharray: 2.96,1.28; stroke-dashoffset: 0; stroke: #000000; stroke-opacity: 0.8; stroke-width: 0.8"/>
     </g>
     <g id="line2d_26">
      <g>
       <use xlink:href="#m1778518605" x="180" y="476.710725" style="stroke: #000000; stroke-width: 0.8"/>
      </g>
     </g>
     <g id="text_14">
      <!-- 0 -->
      <g transform="translate(167 480.808537) scale(0.12 -0.12)">
       <use xlink:href="#STIXGeneral-Regular-30"/>
      </g>
     </g>
    </g>
    <g id="ytick_3">
     <g id="line2d_27">
      <path d="M 180 362.527469 
L 1296 362.527469 
" clip-path="url(#pbb31f5a641)" style="fill: none; stroke-dasharray: 2.96,1.28; stroke-dashoffset: 0; stroke: #000000; stroke-opacity: 0.8; stroke-width: 0.8"/>
     </g>
     <g id="line2d_28">
      <g>
       <use xlink:href="#m1778518605" x="180" y="362.527469" style="stroke: #000000; stroke-width: 0.8"/>
      </g>
     </g>
     <g id="text_15">
      <!-- 2 -->
      <g transform="translate(167 366.625281) scale(0.12 -0.12)">
       <use xlink:href="#STIXGeneral-Regular-32"/>
      </g>
     </g>
    </g>
    <g id="ytick_4">
     <g id="line2d_29">
      <path d="M 180 248.344212 
L 1296 248.344212 
" clip-path="url(#pbb31f5a641)" style="fill: none; stroke-dasharray: 2.96,1.28; stroke-dashoffset: 0; stroke: #000000; stroke-opacity: 0.8; stroke-width: 0.8"/>
     </g>
     <g id="line2d_30">
      <g>
       <use xlink:href="#m1778518605" x="180" y="248.344212" style="stroke: #000000; stroke-width: 0.8"/>
      </g>
     </g>
     <g id="text_16">
      <!-- 4 -->
      <g transform="translate(167 252.442025) scale(0.12 -0.12)">
       <use xlink:href="#STIXGeneral-Regular-34"/>
      </g>
     </g>
    </g>
    <g id="ytick_5">
     <g id="line2d_31">
      <path d="M 180 134.160956 
L 1296 134.160956 
" clip-path="url(#pbb31f5a641)" style="fill: none; stroke-dasharray: 2.96,1.28; stroke-dashoffset: 0; stroke: #000000; stroke-opacity: 0.8; stroke-width: 0.8"/>
     </g>
     <g id="line2d_32">
      <g>
       <use xlink:href="#m1778518605" x="180" y="134.160956" style="stroke: #000000; stroke-width: 0.8"/>
      </g>
     </g>
     <g id="text_17">
      <!-- 6 -->
      <g transform="translate(167 138.258769) scale(0.12 -0.12)">
       <use xlink:href="#STIXGeneral-Regular-36"/>
      </g>
     </g>
    </g>
    <g id="text_18">
     <!-- $P\,[\mathrm{MPa}]$ -->
     <g transform="translate(151.524531 388.275) rotate(-90) scale(0.15 -0.15)">
      <defs>
       <path id="STIXGeneral-Italic-50" d="M 934 4179 
L 2477 4179 
Q 3872 4179 3872 3232 
Q 3872 2976 3753 2729 
Q 3635 2483 3437 2317 
Q 2995 1952 2125 1952 
Q 1773 1952 1549 2003 
L 1210 768 
Q 1120 422 1120 365 
Q 1120 250 1216 189 
Q 1312 128 1562 102 
L 1562 0 
L 0 0 
L 0 102 
Q 275 141 361 227 
Q 448 314 538 627 
L 1280 3277 
Q 1389 3667 1389 3808 
Q 1389 3936 1299 3990 
Q 1210 4045 934 4077 
L 934 4179 
z
M 2048 3789 
L 1606 2221 
Q 1792 2189 1939 2189 
Q 2496 2189 2758 2342 
Q 3213 2598 3213 3200 
Q 3213 3987 2381 3987 
Q 2099 3987 2048 3789 
z
" transform="scale(0.015625)"/>
       <path id="STIXGeneral-Regular-4d" d="M 5530 0 
L 3738 0 
L 3738 122 
Q 4115 147 4214 265 
Q 4314 384 4314 787 
L 4314 3661 
L 2682 0 
L 2592 0 
L 979 3514 
L 979 966 
Q 979 448 1088 294 
Q 1197 141 1574 122 
L 1574 0 
L 77 0 
L 77 122 
Q 358 141 480 205 
Q 602 269 650 432 
Q 698 595 698 966 
L 698 3514 
Q 698 3878 589 3984 
Q 480 4090 90 4115 
L 90 4237 
L 1357 4237 
L 2835 1024 
L 4250 4237 
L 5523 4237 
L 5523 4115 
Q 5178 4109 5072 3993 
Q 4966 3878 4966 3520 
L 4966 717 
Q 4966 378 5072 262 
Q 5178 147 5530 122 
L 5530 0 
z
" transform="scale(0.015625)"/>
       <path id="STIXGeneral-Regular-50" d="M 102 4237 
L 1760 4237 
Q 2669 4237 3149 3834 
Q 3469 3565 3469 3072 
Q 3469 2560 3104 2234 
Q 2835 1990 2553 1916 
Q 2272 1843 1734 1843 
Q 1549 1843 1293 1862 
L 1293 717 
Q 1293 352 1398 246 
Q 1504 141 1894 122 
L 1894 0 
L 102 0 
L 102 122 
Q 474 147 557 256 
Q 640 365 640 781 
L 640 3526 
Q 640 3885 547 3987 
Q 454 4090 102 4115 
L 102 4237 
z
M 1293 3770 
L 1293 2118 
Q 1510 2099 1683 2099 
Q 2202 2099 2486 2352 
Q 2771 2605 2771 3040 
Q 2771 3558 2476 3779 
Q 2182 4000 1517 4000 
Q 1382 4000 1337 3952 
Q 1293 3904 1293 3770 
z
" transform="scale(0.015625)"/>
       <path id="STIXGeneral-Regular-61" d="M 2829 422 
L 2829 243 
Q 2586 -64 2253 -64 
Q 1888 -64 1843 403 
L 1837 403 
Q 1427 -64 909 -64 
Q 608 -64 422 112 
Q 237 288 237 602 
Q 237 1050 685 1350 
Q 992 1555 1837 1869 
L 1837 2214 
Q 1837 2502 1699 2646 
Q 1562 2790 1338 2790 
Q 1146 2790 1018 2697 
Q 890 2605 890 2477 
Q 890 2419 909 2348 
Q 928 2278 928 2208 
Q 928 2112 841 2029 
Q 755 1946 634 1946 
Q 525 1946 441 2029 
Q 358 2112 358 2240 
Q 358 2547 685 2752 
Q 986 2944 1421 2944 
Q 1939 2944 2176 2656 
Q 2291 2522 2323 2384 
Q 2355 2246 2355 1946 
L 2355 723 
Q 2355 301 2554 301 
Q 2682 301 2829 422 
z
M 1837 813 
L 1837 1715 
Q 1248 1510 1018 1293 
Q 800 1094 800 800 
Q 800 557 921 432 
Q 1043 307 1242 307 
Q 1453 307 1613 410 
Q 1747 506 1792 589 
Q 1837 672 1837 813 
z
" transform="scale(0.015625)"/>
      </defs>
      <use xlink:href="#STIXGeneral-Italic-50" transform="translate(0 0.796875)"/>
      <use xlink:href="#STIXGeneral-Regular-5b" transform="translate(73.133562 0.796875)"/>
      <use xlink:href="#STIXGeneral-Regular-4d" transform="translate(106.43355 0.796875)"/>
      <use xlink:href="#STIXGeneral-Regular-50" transform="translate(195.333543 0.796875)"/>
      <use xlink:href="#STIXGeneral-Regular-61" transform="translate(251.03354 0.796875)"/>
      <use xlink:href="#STIXGeneral-Regular-5d" transform="translate(295.433534 0.796875)"/>
     </g>
    </g>
    <g id="text_19">
     <!-- 1e17 -->
     <g transform="translate(180 83.4) scale(0.12 -0.12)">
      <defs>
       <path id="STIXGeneral-Regular-65" d="M 2611 1050 
L 2714 1005 
Q 2330 -64 1376 -64 
Q 813 -64 486 329 
Q 160 723 160 1389 
Q 160 2074 525 2509 
Q 890 2944 1485 2944 
Q 2061 2944 2374 2502 
Q 2560 2246 2592 1773 
L 621 1773 
Q 646 1370 700 1158 
Q 755 947 915 730 
Q 1184 378 1626 378 
Q 1939 378 2153 531 
Q 2368 685 2611 1050 
z
M 634 1978 
L 1939 1978 
Q 1882 2381 1750 2547 
Q 1619 2714 1312 2714 
Q 1043 2714 864 2525 
Q 685 2336 634 1978 
z
" transform="scale(0.015625)"/>
       <path id="STIXGeneral-Regular-37" d="M 2874 4134 
L 1517 -51 
L 1101 -51 
L 2368 3763 
L 992 3763 
Q 717 3763 582 3667 
Q 448 3571 243 3238 
L 128 3296 
L 512 4237 
L 2874 4237 
L 2874 4134 
z
" transform="scale(0.015625)"/>
      </defs>
      <use xlink:href="#STIXGeneral-Regular-31"/>
      <use xlink:href="#STIXGeneral-Regular-65" x="49.999985"/>
      <use xlink:href="#STIXGeneral-Regular-31" x="94.399979"/>
      <use xlink:href="#STIXGeneral-Regular-37" x="144.399963"/>
     </g>
    </g>
   </g>
   <g id="line2d_33">
    <path d="M 177.768 476.970654 
L 206.784 477.326086 
L 229.104 477.827821 
L 246.96 478.44845 
L 262.584 479.211226 
L 275.976 480.074439 
L 289.368 481.176521 
L 300.528 482.312972 
L 311.688 483.681576 
L 320.616 484.9669 
L 329.544 486.442039 
L 338.472 488.126934 
L 347.4 490.042263 
L 356.328 492.209183 
L 365.256 494.649012 
L 374.184 497.38282 
L 380.88 499.638373 
L 387.576 502.078864 
L 394.272 504.711821 
L 400.968 507.544003 
L 407.664 510.581194 
L 414.36 513.827974 
L 421.056 517.28747 
L 427.752 520.961085 
L 434.448 524.848199 
L 441.144 528.945861 
L 447.84 533.248447 
L 456.768 539.288582 
L 465.696 545.647253 
L 474.624 552.282162 
L 485.784 560.877246 
L 521.496 588.733619 
L 528.192 593.593139 
L 534.888 598.181469 
L 541.584 602.421713 
L 546.048 605.014519 
L 550.512 607.390056 
L 554.976 609.521426 
L 559.44 611.380811 
L 563.904 612.93958 
L 568.368 614.168408 
L 572.832 615.03742 
L 577.296 615.516344 
L 581.76 615.574694 
L 583.992 615.436615 
L 586.224 615.181961 
L 588.456 614.80695 
L 590.688 614.307828 
L 592.92 613.680873 
L 595.152 612.922408 
L 597.384 612.028804 
L 599.616 610.996493 
L 601.848 609.821974 
L 604.08 608.501825 
L 606.312 607.032707 
L 608.544 605.41138 
L 610.776 603.634708 
L 613.008 601.699673 
L 615.24 599.603381 
L 617.472 597.343073 
L 619.704 594.91614 
L 621.936 592.320128 
L 626.4 586.611899 
L 630.864 580.202308 
L 635.328 573.078475 
L 639.792 565.231071 
L 644.256 556.654649 
L 648.72 547.34798 
L 653.184 537.314371 
L 657.648 526.56196 
L 662.112 515.103992 
L 666.576 502.959065 
L 671.04 490.151344 
L 675.504 476.710724 
L 679.968 462.672962 
L 684.432 448.079748 
L 691.128 425.254278 
L 697.824 401.473179 
L 706.752 368.653046 
L 722.376 309.846518 
L 731.304 276.622967 
L 738 252.446928 
L 744.696 229.261712 
L 749.16 214.513069 
L 753.624 200.439413 
L 758.088 187.130908 
L 762.552 174.674161 
L 767.016 163.151247 
L 771.48 152.638736 
L 773.712 147.783577 
L 775.944 143.206769 
L 778.176 138.915929 
L 780.408 134.918161 
L 782.64 131.220038 
L 784.872 127.827572 
L 787.104 124.746198 
L 789.336 121.980752 
L 791.568 119.535449 
L 793.8 117.413873 
L 796.032 115.618957 
L 798.264 114.152971 
L 800.496 113.017513 
L 802.728 112.213497 
L 804.96 111.741149 
L 807.192 111.6 
L 809.424 111.788886 
L 811.656 112.305946 
L 813.888 113.148626 
L 816.12 114.313682 
L 818.352 115.797188 
L 820.584 117.594546 
L 822.816 119.700497 
L 825.048 122.109135 
L 827.28 124.813923 
L 829.512 127.807713 
L 831.744 131.082765 
L 833.976 134.630775 
L 836.208 138.442891 
L 838.44 142.509748 
L 842.904 151.367823 
L 847.368 161.120904 
L 851.832 171.678664 
L 856.296 182.945685 
L 860.76 194.822665 
L 865.224 207.207674 
L 871.92 226.511764 
L 880.848 253.067588 
L 894.24 293.058905 
L 900.936 312.473651 
L 907.632 331.155674 
L 912.096 343.097026 
L 916.56 354.565233 
L 921.024 365.516237 
L 925.488 375.91449 
L 929.952 385.732853 
L 934.416 394.952373 
L 938.88 403.56193 
L 943.344 411.55778 
L 947.808 418.943004 
L 952.272 425.726883 
L 956.736 431.924213 
L 961.2 437.554587 
L 965.664 442.64165 
L 970.128 447.212353 
L 974.592 451.296216 
L 979.056 454.924626 
L 983.52 458.130163 
L 987.984 460.945987 
L 992.448 463.405275 
L 996.912 465.540729 
L 1001.376 467.384148 
L 1005.84 468.966073 
L 1010.304 470.3155 
L 1014.768 471.459658 
L 1019.232 472.42386 
L 1025.928 473.583141 
L 1032.624 474.459394 
L 1039.32 475.112279 
L 1048.248 475.720232 
L 1059.408 476.185591 
L 1072.8 476.47869 
L 1092.888 476.650212 
L 1135.296 476.708596 
L 1298.232 476.710725 
L 1298.232 476.710725 
" clip-path="url(#pbb31f5a641)" style="fill: none; stroke: #000000; stroke-width: 2; stroke-linecap: square"/>
   </g>
   <g id="line2d_34">
    <path d="M 177.768 476.84588 
L 215.712 477.119445 
L 242.496 477.521982 
L 264.816 478.078084 
L 282.672 478.729211 
L 298.296 479.496427 
L 313.92 480.493723 
L 327.312 481.569128 
L 340.704 482.884106 
L 351.864 484.189017 
L 363.024 485.706995 
L 374.184 487.459553 
L 385.344 489.467419 
L 396.504 491.74961 
L 405.432 493.783865 
L 414.36 496.010506 
L 423.288 498.433677 
L 432.216 501.054679 
L 441.144 503.871324 
L 452.304 507.65705 
L 463.464 511.714495 
L 474.624 516.005454 
L 490.248 522.29613 
L 519.264 534.091897 
L 528.192 537.48584 
L 537.12 540.628729 
L 543.816 542.763771 
L 550.512 544.659795 
L 557.208 546.270049 
L 561.672 547.160599 
L 566.136 547.887256 
L 570.6 548.434617 
L 575.064 548.787036 
L 579.528 548.928703 
L 583.992 548.843748 
L 588.456 548.516343 
L 592.92 547.930819 
L 597.384 547.071796 
L 601.848 545.924315 
L 606.312 544.473985 
L 610.776 542.707135 
L 615.24 540.610973 
L 619.704 538.173758 
L 624.168 535.384967 
L 628.632 532.235473 
L 633.096 528.717725 
L 637.56 524.825927 
L 642.024 520.556216 
L 646.488 515.906835 
L 650.952 510.878304 
L 655.416 505.473579 
L 659.88 499.698204 
L 664.344 493.560442 
L 668.808 487.071397 
L 673.272 480.245116 
L 677.736 473.09866 
L 684.432 461.823533 
L 691.128 449.955019 
L 697.824 437.589608 
L 706.752 420.52419 
L 735.768 364.241977 
L 742.464 351.99615 
L 746.928 344.169862 
L 751.392 336.67057 
L 755.856 329.545889 
L 760.32 322.841842 
L 764.784 316.602347 
L 769.248 310.86871 
L 773.712 305.679133 
L 778.176 301.06824 
L 780.408 298.989529 
L 782.64 297.066623 
L 784.872 295.30265 
L 787.104 293.700434 
L 789.336 292.26249 
L 791.568 290.991011 
L 793.8 289.887859 
L 796.032 288.95456 
L 798.264 288.192295 
L 800.496 287.601893 
L 802.728 287.18383 
L 804.96 286.938224 
L 807.192 286.864831 
L 809.424 286.963046 
L 811.656 287.231901 
L 813.888 287.670067 
L 816.12 288.275859 
L 818.352 289.047235 
L 820.584 289.981803 
L 822.816 291.076831 
L 825.048 292.329245 
L 827.28 293.735648 
L 829.512 295.292323 
L 831.744 296.995246 
L 836.208 300.822276 
L 840.672 305.178882 
L 845.136 310.023166 
L 849.6 315.309711 
L 854.064 320.990148 
L 858.528 327.013772 
L 862.992 333.328186 
L 869.688 343.228027 
L 878.616 356.945588 
L 896.472 384.617354 
L 903.168 394.598923 
L 909.864 404.160465 
L 916.56 413.198977 
L 921.024 418.893149 
L 925.488 424.299908 
L 929.952 429.405143 
L 934.416 434.198998 
L 938.88 438.675692 
L 943.344 442.833278 
L 947.808 446.673359 
L 952.272 450.200758 
L 956.736 453.423172 
L 961.2 456.350786 
L 965.664 458.995896 
L 970.128 461.372515 
L 974.592 463.495993 
L 979.056 465.38265 
L 983.52 467.049427 
L 987.984 468.513565 
L 992.448 469.792316 
L 996.912 470.902684 
L 1003.608 472.288512 
L 1010.304 473.385412 
L 1017 474.241929 
L 1023.696 474.901587 
L 1032.624 475.540105 
L 1043.784 476.054384 
L 1057.176 476.399701 
L 1075.032 476.606063 
L 1106.28 476.69891 
L 1253.592 476.710725 
L 1298.232 476.710725 
L 1298.232 476.710725 
" clip-path="url(#pbb31f5a641)" style="fill: none; stroke: #0000ff; stroke-width: 2; stroke-linecap: square"/>
   </g>
   <g id="line2d_35">
    <path d="M 177.768 476.779899 
L 226.872 476.991449 
L 260.352 477.343231 
L 287.136 477.845353 
L 309.456 478.487629 
L 329.544 479.30048 
L 347.4 480.258593 
L 363.024 481.315126 
L 378.648 482.606916 
L 392.04 483.923171 
L 405.432 485.448967 
L 418.824 487.19604 
L 432.216 489.170258 
L 445.608 491.36927 
L 459 493.779803 
L 474.624 496.822247 
L 494.712 500.979812 
L 521.496 506.522927 
L 534.888 509.037245 
L 543.816 510.517481 
L 552.744 511.780076 
L 559.44 512.549933 
L 566.136 513.139743 
L 572.832 513.523052 
L 579.528 513.672769 
L 586.224 513.561518 
L 592.92 513.162039 
L 599.616 512.447656 
L 604.08 511.78376 
L 608.544 510.961312 
L 613.008 509.973531 
L 617.472 508.814126 
L 621.936 507.47739 
L 626.4 505.958282 
L 630.864 504.252523 
L 635.328 502.356687 
L 639.792 500.268288 
L 644.256 497.98588 
L 648.72 495.509133 
L 653.184 492.838929 
L 657.648 489.977433 
L 662.112 486.92817 
L 668.808 482.013444 
L 675.504 476.710724 
L 682.2 471.050817 
L 688.896 465.072502 
L 695.592 458.822538 
L 704.52 450.162034 
L 717.912 436.781751 
L 731.304 423.462175 
L 740.232 414.938061 
L 746.928 408.874691 
L 753.624 403.187752 
L 758.088 399.646013 
L 762.552 396.330949 
L 767.016 393.264402 
L 771.48 390.46675 
L 775.944 387.956658 
L 780.408 385.750844 
L 784.872 383.863854 
L 789.336 382.307864 
L 793.8 381.092499 
L 798.264 380.224688 
L 802.728 379.708543 
L 807.192 379.545276 
L 811.656 379.733146 
L 816.12 380.267457 
L 820.584 381.14058 
L 825.048 382.34203 
L 829.512 383.858569 
L 833.976 385.674363 
L 838.44 387.771163 
L 842.904 390.128527 
L 847.368 392.724075 
L 851.832 395.533769 
L 858.528 400.093995 
L 865.224 404.988962 
L 874.152 411.876546 
L 903.168 434.684901 
L 909.864 439.578615 
L 916.56 444.204636 
L 923.256 448.521496 
L 929.952 452.499149 
L 936.648 456.118714 
L 943.344 459.371834 
L 950.04 462.259707 
L 956.736 464.79187 
L 963.432 466.984803 
L 970.128 468.860442 
L 976.824 470.444685 
L 983.52 471.765954 
L 990.216 472.853871 
L 996.912 473.738099 
L 1005.84 474.649672 
L 1014.768 475.313279 
L 1025.928 475.878393 
L 1039.32 476.285337 
L 1057.176 476.551539 
L 1083.96 476.680925 
L 1157.616 476.710653 
L 1298.232 476.710725 
L 1298.232 476.710725 
" clip-path="url(#pbb31f5a641)" style="fill: none; stroke: #00bfbf; stroke-width: 2; stroke-linecap: square"/>
   </g>
   <g id="line2d_36">
    <path d="M 177.768 476.745833 
L 244.728 476.933177 
L 284.904 477.260321 
L 316.152 477.736045 
L 340.704 478.314365 
L 363.024 479.047659 
L 383.112 479.914626 
L 403.2 481.009026 
L 421.056 482.191447 
L 438.912 483.57854 
L 459 485.374025 
L 481.32 487.610332 
L 534.888 493.117842 
L 548.28 494.20511 
L 559.44 494.900684 
L 568.368 495.277206 
L 577.296 495.459272 
L 586.224 495.414107 
L 595.152 495.108908 
L 601.848 494.690131 
L 608.544 494.094389 
L 615.24 493.3099 
L 621.936 492.326147 
L 628.632 491.134221 
L 635.328 489.727167 
L 642.024 488.100336 
L 648.72 486.251736 
L 655.416 484.182365 
L 662.112 481.896523 
L 668.808 479.402085 
L 675.504 476.710725 
L 684.432 472.843524 
L 693.36 468.702757 
L 704.52 463.236108 
L 740.232 445.358408 
L 749.16 441.29555 
L 755.856 438.482158 
L 762.552 435.914488 
L 769.248 433.630443 
L 775.944 431.664171 
L 780.408 430.544624 
L 784.872 429.586895 
L 789.336 428.797162 
L 793.8 428.180311 
L 798.264 427.739859 
L 802.728 427.477893 
L 807.192 427.395028 
L 811.656 427.49038 
L 816.12 427.761566 
L 820.584 428.204714 
L 825.048 428.814502 
L 829.512 429.584212 
L 836.208 431.020711 
L 842.904 432.766489 
L 849.6 434.784069 
L 856.296 437.031727 
L 865.224 440.308807 
L 876.384 444.699613 
L 900.936 454.527137 
L 909.864 457.864562 
L 918.792 460.961107 
L 927.72 463.769186 
L 934.416 465.667581 
L 941.112 467.380837 
L 947.808 468.908008 
L 954.504 470.2526 
L 961.2 471.421885 
L 970.128 472.726364 
L 979.056 473.768065 
L 987.984 474.581373 
L 999.144 475.331152 
L 1010.304 475.846918 
L 1023.696 476.240771 
L 1041.552 476.518713 
L 1068.336 476.669293 
L 1130.832 476.710301 
L 1298.232 476.710725 
L 1298.232 476.710725 
" clip-path="url(#pbb31f5a641)" style="fill: none; stroke: #bf00bf; stroke-width: 2; stroke-linecap: square"/>
   </g>
   <g id="line2d_37">
    <path d="M 177.768 476.728477 
L 262.584 476.881503 
L 309.456 477.166742 
L 345.168 477.586979 
L 376.416 478.172557 
L 403.2 478.884133 
L 429.984 479.819795 
L 456.768 480.984638 
L 488.016 482.578487 
L 537.12 485.106322 
L 554.976 485.781368 
L 568.368 486.098745 
L 581.76 486.194791 
L 592.92 486.065448 
L 604.08 485.711731 
L 615.24 485.10399 
L 624.168 484.417556 
L 633.096 483.541817 
L 642.024 482.469807 
L 650.952 481.198619 
L 659.88 479.730118 
L 668.808 478.071594 
L 679.968 475.75198 
L 691.128 473.196376 
L 704.52 469.897373 
L 744.696 459.810568 
L 753.624 457.842076 
L 762.552 456.082373 
L 771.48 454.577408 
L 778.176 453.640174 
L 784.872 452.882867 
L 791.568 452.316536 
L 798.264 451.948926 
L 804.96 451.784204 
L 811.656 451.822778 
L 818.352 452.061222 
L 825.048 452.492312 
L 831.744 453.105189 
L 840.672 454.180105 
L 849.6 455.510784 
L 858.528 457.048107 
L 871.92 459.622754 
L 909.864 467.181285 
L 921.024 469.116416 
L 932.184 470.817168 
L 943.344 472.260939 
L 954.504 473.445216 
L 965.664 474.383891 
L 976.824 475.102633 
L 990.216 475.720917 
L 1005.84 476.181784 
L 1023.696 476.473095 
L 1050.48 476.650944 
L 1104.048 476.708889 
L 1298.232 476.710725 
L 1298.232 476.710725 
" clip-path="url(#pbb31f5a641)" style="fill: none; stroke: #ff0000; stroke-width: 2; stroke-linecap: square"/>
   </g>
   <g id="line2d_38">
    <path d="M 177.768 476.719695 
L 287.136 476.857854 
L 342.936 477.136697 
L 385.344 477.557358 
L 423.288 478.152429 
L 461.232 478.978654 
L 563.904 481.411863 
L 581.76 481.502799 
L 597.384 481.380433 
L 613.008 481.023984 
L 626.4 480.503318 
L 639.792 479.765484 
L 653.184 478.802104 
L 666.576 477.616532 
L 679.968 476.226294 
L 695.592 474.391125 
L 720.144 471.242428 
L 742.464 468.433694 
L 755.856 466.94372 
L 767.016 465.890061 
L 778.176 465.053722 
L 789.336 464.469303 
L 798.264 464.199174 
L 807.192 464.111073 
L 816.12 464.20472 
L 827.28 464.567074 
L 838.44 465.177741 
L 849.6 465.998897 
L 862.992 467.194743 
L 885.312 469.45553 
L 909.864 471.895724 
L 925.488 473.232335 
L 941.112 474.327035 
L 956.736 475.165181 
L 972.36 475.76526 
L 990.216 476.210598 
L 1012.536 476.510602 
L 1043.784 476.667165 
L 1112.976 476.710257 
L 1298.232 476.710725 
L 1298.232 476.710725 
" clip-path="url(#pbb31f5a641)" style="fill: none; stroke: #ffa500; stroke-width: 2; stroke-linecap: square"/>
   </g>
   <g id="line2d_39">
    <path d="M 177.768 476.721752 
L 280.44 476.867788 
L 334.008 477.15814 
L 374.184 477.587719 
L 409.896 478.192566 
L 443.376 478.986645 
L 479.088 480.061187 
L 546.048 482.153893 
L 566.136 482.518 
L 581.76 482.601898 
L 597.384 482.451467 
L 610.776 482.095356 
L 624.168 481.497942 
L 635.328 480.799036 
L 646.488 479.908726 
L 657.648 478.825617 
L 671.04 477.28093 
L 684.432 475.496082 
L 700.056 473.175074 
L 751.392 465.284883 
L 762.552 463.897107 
L 773.712 462.756299 
L 782.64 462.053606 
L 791.568 461.557898 
L 800.496 461.281381 
L 809.424 461.229258 
L 818.352 461.399306 
L 827.28 461.781833 
L 836.208 462.360029 
L 847.368 463.322122 
L 860.76 464.751888 
L 878.616 466.939116 
L 907.632 470.535688 
L 923.256 472.216982 
L 936.648 473.428081 
L 950.04 474.407038 
L 963.432 475.160282 
L 979.056 475.78647 
L 996.912 476.236848 
L 1017 476.509296 
L 1046.016 476.66325 
L 1108.512 476.709911 
L 1298.232 476.710725 
L 1298.232 476.710725 
" clip-path="url(#pbb31f5a641)" style="fill: none; stroke: #00ff00; stroke-width: 2; stroke-linecap: square"/>
   </g>
   <g id="patch_3">
    <path d="M 180 640.8 
L 180 86.4 
" style="fill: none; stroke: #000000; stroke-width: 0.8; stroke-linejoin: miter; stroke-linecap: square"/>
   </g>
   <g id="patch_4">
    <path d="M 1296 640.8 
L 1296 86.4 
" style="fill: none; stroke: #000000; stroke-width: 0.8; stroke-linejoin: miter; stroke-linecap: square"/>
   </g>
   <g id="patch_5">
    <path d="M 180 640.8 
L 1296 640.8 
" style="fill: none; stroke: #000000; stroke-width: 0.8; stroke-linejoin: miter; stroke-linecap: square"/>
   </g>
   <g id="patch_6">
    <path d="M 180 86.4 
L 1296 86.4 
" style="fill: none; stroke: #000000; stroke-width: 0.8; stroke-linejoin: miter; stroke-linecap: square"/>
   </g>
   <g id="legend_1">
    <g id="patch_7">
     <path d="M 188.4 215.030625 
L 278.015625 215.030625 
Q 280.415625 215.030625 280.415625 212.630625 
L 280.415625 94.8 
Q 280.415625 92.4 278.015625 92.4 
L 188.4 92.4 
Q 186 92.4 186 94.8 
L 186 212.630625 
Q 186 215.030625 188.4 215.030625 
z
" style="fill: #ffffff; opacity: 0.8; stroke: #cccccc; stroke-linejoin: miter"/>
    </g>
    <g id="line2d_40">
     <path d="M 190.8 101.4 
L 202.8 101.4 
L 214.8 101.4 
" style="fill: none; stroke: #000000; stroke-width: 2; stroke-linecap: square"/>
    </g>
    <g id="text_20">
     <!-- T = 298 K -->
     <g transform="translate(224.4 105.6) scale(0.12 -0.12)">
      <defs>
       <path id="STIXGeneral-Regular-54" d="M 3795 3149 
L 3642 3149 
Q 3539 3674 3353 3821 
Q 3168 3968 2656 3968 
L 2278 3968 
L 2278 710 
Q 2278 346 2387 243 
Q 2496 141 2893 122 
L 2893 0 
L 1024 0 
L 1024 122 
Q 1427 147 1526 256 
Q 1626 365 1626 787 
L 1626 3968 
L 1242 3968 
Q 723 3968 540 3817 
Q 358 3667 262 3149 
L 109 3149 
L 154 4237 
L 3750 4237 
L 3795 3149 
z
" transform="scale(0.015625)"/>
       <path id="STIXGeneral-Regular-20" transform="scale(0.015625)"/>
       <path id="STIXGeneral-Regular-3d" d="M 4077 2048 
L 307 2048 
L 307 2470 
L 4077 2470 
L 4077 2048 
z
M 4077 768 
L 307 768 
L 307 1190 
L 4077 1190 
L 4077 768 
z
" transform="scale(0.015625)"/>
       <path id="STIXGeneral-Regular-39" d="M 378 -141 
L 358 -13 
Q 1094 115 1603 608 
Q 2112 1101 2304 1882 
Q 1933 1517 1344 1517 
Q 826 1517 509 1875 
Q 192 2234 192 2816 
Q 192 3462 573 3894 
Q 954 4326 1523 4326 
Q 2131 4326 2528 3840 
Q 2938 3328 2938 2522 
Q 2938 1958 2742 1462 
Q 2547 966 2170 621 
Q 1773 262 1395 105 
Q 1018 -51 378 -141 
z
M 2317 2272 
L 2317 2522 
Q 2317 4147 1472 4147 
Q 1171 4147 1005 3930 
Q 909 3802 845 3546 
Q 781 3290 781 3034 
Q 781 2464 995 2128 
Q 1210 1792 1568 1792 
Q 1824 1792 2070 1917 
Q 2317 2042 2317 2272 
z
" transform="scale(0.015625)"/>
       <path id="STIXGeneral-Regular-4b" d="M 4627 0 
L 2688 0 
L 2688 122 
L 2861 128 
Q 3130 134 3130 282 
Q 3130 397 2922 643 
Q 2714 890 2253 1370 
L 1613 2029 
L 1446 1894 
L 1446 710 
Q 1446 352 1548 253 
Q 1651 154 2016 122 
L 2016 0 
L 211 0 
L 211 122 
Q 589 141 691 262 
Q 794 384 794 800 
L 794 3514 
Q 794 3872 691 3981 
Q 589 4090 218 4115 
L 218 4237 
L 2022 4237 
L 2022 4115 
Q 1632 4090 1539 3987 
Q 1446 3885 1446 3507 
L 1446 2227 
L 2586 3277 
Q 2861 3533 2973 3667 
Q 3085 3802 3085 3910 
Q 3085 4013 3030 4057 
Q 2976 4102 2822 4109 
L 2662 4115 
L 2662 4237 
L 4320 4237 
L 4320 4115 
Q 3994 4090 3824 4003 
Q 3654 3917 3322 3597 
L 2131 2458 
L 3629 819 
Q 4026 384 4214 253 
Q 4403 122 4627 122 
L 4627 0 
z
" transform="scale(0.015625)"/>
      </defs>
      <use xlink:href="#STIXGeneral-Regular-54"/>
      <use xlink:href="#STIXGeneral-Regular-20" x="61.099991"/>
      <use xlink:href="#STIXGeneral-Regular-3d" x="86.099976"/>
      <use xlink:href="#STIXGeneral-Regular-20" x="154.59996"/>
      <use xlink:href="#STIXGeneral-Regular-32" x="179.599945"/>
      <use xlink:href="#STIXGeneral-Regular-39" x="229.59993"/>
      <use xlink:href="#STIXGeneral-Regular-38" x="279.599915"/>
      <use xlink:href="#STIXGeneral-Regular-20" x="329.599899"/>
      <use xlink:href="#STIXGeneral-Regular-4b" x="354.599884"/>
     </g>
    </g>
    <g id="line2d_41">
     <path d="M 190.8 118.404375 
L 202.8 118.404375 
L 214.8 118.404375 
" style="fill: none; stroke: #0000ff; stroke-width: 2; stroke-linecap: square"/>
    </g>
    <g id="text_21">
     <!-- T = 303 K -->
     <g transform="translate(224.4 122.604375) scale(0.12 -0.12)">
      <use xlink:href="#STIXGeneral-Regular-54"/>
      <use xlink:href="#STIXGeneral-Regular-20" x="61.099991"/>
      <use xlink:href="#STIXGeneral-Regular-3d" x="86.099976"/>
      <use xlink:href="#STIXGeneral-Regular-20" x="154.59996"/>
      <use xlink:href="#STIXGeneral-Regular-33" x="179.599945"/>
      <use xlink:href="#STIXGeneral-Regular-30" x="229.59993"/>
      <use xlink:href="#STIXGeneral-Regular-33" x="279.599915"/>
      <use xlink:href="#STIXGeneral-Regular-20" x="329.599899"/>
      <use xlink:href="#STIXGeneral-Regular-4b" x="354.599884"/>
     </g>
    </g>
    <g id="line2d_42">
     <path d="M 190.8 135.40875 
L 202.8 135.40875 
L 214.8 135.40875 
" style="fill: none; stroke: #00bfbf; stroke-width: 2; stroke-linecap: square"/>
    </g>
    <g id="text_22">
     <!-- T = 308 K -->
     <g transform="translate(224.4 139.60875) scale(0.12 -0.12)">
      <use xlink:href="#STIXGeneral-Regular-54"/>
      <use xlink:href="#STIXGeneral-Regular-20" x="61.099991"/>
      <use xlink:href="#STIXGeneral-Regular-3d" x="86.099976"/>
      <use xlink:href="#STIXGeneral-Regular-20" x="154.59996"/>
      <use xlink:href="#STIXGeneral-Regular-33" x="179.599945"/>
      <use xlink:href="#STIXGeneral-Regular-30" x="229.59993"/>
      <use xlink:href="#STIXGeneral-Regular-38" x="279.599915"/>
      <use xlink:href="#STIXGeneral-Regular-20" x="329.599899"/>
      <use xlink:href="#STIXGeneral-Regular-4b" x="354.599884"/>
     </g>
    </g>
    <g id="line2d_43">
     <path d="M 190.8 152.413125 
L 202.8 152.413125 
L 214.8 152.413125 
" style="fill: none; stroke: #bf00bf; stroke-width: 2; stroke-linecap: square"/>
    </g>
    <g id="text_23">
     <!-- T = 313 K -->
     <g transform="translate(224.4 156.613125) scale(0.12 -0.12)">
      <use xlink:href="#STIXGeneral-Regular-54"/>
      <use xlink:href="#STIXGeneral-Regular-20" x="61.099991"/>
      <use xlink:href="#STIXGeneral-Regular-3d" x="86.099976"/>
      <use xlink:href="#STIXGeneral-Regular-20" x="154.59996"/>
      <use xlink:href="#STIXGeneral-Regular-33" x="179.599945"/>
      <use xlink:href="#STIXGeneral-Regular-31" x="229.59993"/>
      <use xlink:href="#STIXGeneral-Regular-33" x="279.599915"/>
      <use xlink:href="#STIXGeneral-Regular-20" x="329.599899"/>
      <use xlink:href="#STIXGeneral-Regular-4b" x="354.599884"/>
     </g>
    </g>
    <g id="line2d_44">
     <path d="M 190.8 169.4175 
L 202.8 169.4175 
L 214.8 169.4175 
" style="fill: none; stroke: #ff0000; stroke-width: 2; stroke-linecap: square"/>
    </g>
    <g id="text_24">
     <!-- T = 318 K -->
     <g transform="translate(224.4 173.6175) scale(0.12 -0.12)">
      <use xlink:href="#STIXGeneral-Regular-54"/>
      <use xlink:href="#STIXGeneral-Regular-20" x="61.099991"/>
      <use xlink:href="#STIXGeneral-Regular-3d" x="86.099976"/>
      <use xlink:href="#STIXGeneral-Regular-20" x="154.59996"/>
      <use xlink:href="#STIXGeneral-Regular-33" x="179.599945"/>
      <use xlink:href="#STIXGeneral-Regular-31" x="229.59993"/>
      <use xlink:href="#STIXGeneral-Regular-38" x="279.599915"/>
      <use xlink:href="#STIXGeneral-Regular-20" x="329.599899"/>
      <use xlink:href="#STIXGeneral-Regular-4b" x="354.599884"/>
     </g>
    </g>
    <g id="line2d_45">
     <path d="M 190.8 186.421875 
L 202.8 186.421875 
L 214.8 186.421875 
" style="fill: none; stroke: #ffa500; stroke-width: 2; stroke-linecap: square"/>
    </g>
    <g id="text_25">
     <!-- T = 323 K -->
     <g transform="translate(224.4 190.621875) scale(0.12 -0.12)">
      <use xlink:href="#STIXGeneral-Regular-54"/>
      <use xlink:href="#STIXGeneral-Regular-20" x="61.099991"/>
      <use xlink:href="#STIXGeneral-Regular-3d" x="86.099976"/>
      <use xlink:href="#STIXGeneral-Regular-20" x="154.59996"/>
      <use xlink:href="#STIXGeneral-Regular-33" x="179.599945"/>
      <use xlink:href="#STIXGeneral-Regular-32" x="229.59993"/>
      <use xlink:href="#STIXGeneral-Regular-33" x="279.599915"/>
      <use xlink:href="#STIXGeneral-Regular-20" x="329.599899"/>
      <use xlink:href="#STIXGeneral-Regular-4b" x="354.599884"/>
     </g>
    </g>
    <g id="line2d_46">
     <path d="M 190.8 203.42625 
L 202.8 203.42625 
L 214.8 203.42625 
" style="fill: none; stroke: #00ff00; stroke-width: 2; stroke-linecap: square"/>
    </g>
    <g id="text_26">
     <!-- T = 328 K -->
     <g transform="translate(224.4 207.62625) scale(0.12 -0.12)">
      <use xlink:href="#STIXGeneral-Regular-54"/>
      <use xlink:href="#STIXGeneral-Regular-20" x="61.099991"/>
      <use xlink:href="#STIXGeneral-Regular-3d" x="86.099976"/>
      <use xlink:href="#STIXGeneral-Regular-20" x="154.59996"/>
      <use xlink:href="#STIXGeneral-Regular-33" x="179.599945"/>
      <use xlink:href="#STIXGeneral-Regular-32" x="229.59993"/>
      <use xlink:href="#STIXGeneral-Regular-38" x="279.599915"/>
      <use xlink:href="#STIXGeneral-Regular-20" x="329.599899"/>
      <use xlink:href="#STIXGeneral-Regular-4b" x="354.599884"/>
     </g>
    </g>
   </g>
  </g>
 </g>
 <defs>
  <clipPath id="pbb31f5a641">
   <rect x="180" y="86.4" width="1116" height="554.4"/>
  </clipPath>
 </defs>
</svg>
