<?xml version="1.0" encoding="utf-8" standalone="no"?>
<!DOCTYPE svg PUBLIC "-//W3C//DTD SVG 1.1//EN"
  "http://www.w3.org/Graphics/SVG/1.1/DTD/svg11.dtd">
<svg xmlns:xlink="http://www.w3.org/1999/xlink" width="1440pt" height="720pt" viewBox="0 0 1440 720" xmlns="http://www.w3.org/2000/svg" version="1.1">
 <metadata>
  <rdf:RDF xmlns:dc="http://purl.org/dc/elements/1.1/" xmlns:cc="http://creativecommons.org/ns#" xmlns:rdf="http://www.w3.org/1999/02/22-rdf-syntax-ns#">
   <cc:Work>
    <dc:type rdf:resource="http://purl.org/dc/dcmitype/StillImage"/>
    <dc:date>2022-10-16T16:20:03.555132</dc:date>
    <dc:format>image/svg+xml</dc:format>
    <dc:creator>
     <cc:Agent>
      <dc:title>Matplotlib v3.6.0, https://matplotlib.org/</dc:title>
     </cc:Agent>
    </dc:creator>
   </cc:Work>
  </rdf:RDF>
 </metadata>
 <defs>
  <style type="text/css">*{stroke-linejoin: round; stroke-linecap: butt}</style>
 </defs>
 <g id="figure_1">
  <g id="patch_1">
   <path d="M 0 720 
L 1440 720 
L 1440 0 
L 0 0 
z
" style="fill: #ffffff"/>
  </g>
  <g id="axes_1">
   <g id="patch_2">
    <path d="M 180 640.8 
L 1296 640.8 
L 1296 86.4 
L 180 86.4 
z
" style="fill: #ffffff"/>
   </g>
   <g id="matplotlib.axis_1">
    <g id="xtick_1">
     <g id="line2d_1">
      <path d="M 180 640.8 
L 180 86.4 
" clip-path="url(#pde924c4f48)" style="fill: none; stroke-dasharray: 2.96,1.28; stroke-dashoffset: 0; stroke: #000000; stroke-opacity: 0.8; stroke-width: 0.8"/>
     </g>
     <g id="line2d_2">
      <defs>
       <path id="m2b4f311254" d="M 0 0 
L 0 3.5 
" style="stroke: #000000; stroke-width: 0.8"/>
      </defs>
      <g>
       <use xlink:href="#m2b4f311254" x="180" y="640.8" style="stroke: #000000; stroke-width: 0.8"/>
      </g>
     </g>
     <g id="text_1">
      <!-- 300 -->
      <g transform="translate(171 655.995625) scale(0.12 -0.12)">
       <defs>
        <path id="STIXGeneral-Regular-33" d="M 390 3264 
L 288 3290 
Q 435 3770 748 4048 
Q 1062 4326 1542 4326 
Q 1990 4326 2265 4083 
Q 2541 3840 2541 3450 
Q 2541 2925 1946 2566 
Q 2298 2413 2477 2227 
Q 2758 1914 2758 1402 
Q 2758 890 2464 506 
Q 2246 211 1840 60 
Q 1434 -90 979 -90 
Q 262 -90 262 275 
Q 262 378 339 442 
Q 416 506 525 506 
Q 685 506 915 339 
Q 1197 141 1466 141 
Q 1818 141 2058 425 
Q 2298 710 2298 1120 
Q 2298 1856 1632 2048 
Q 1434 2112 979 2112 
L 979 2202 
Q 1338 2323 1517 2432 
Q 2035 2726 2035 3290 
Q 2035 3610 1852 3776 
Q 1670 3942 1344 3942 
Q 768 3942 390 3264 
z
" transform="scale(0.015625)"/>
        <path id="STIXGeneral-Regular-30" d="M 3046 2112 
Q 3046 1683 2963 1302 
Q 2880 922 2717 602 
Q 2554 282 2266 96 
Q 1978 -90 1600 -90 
Q 1210 -90 915 108 
Q 621 307 461 640 
Q 301 973 227 1350 
Q 154 1728 154 2150 
Q 154 2746 301 3222 
Q 448 3699 790 4012 
Q 1133 4326 1626 4326 
Q 2253 4326 2649 3712 
Q 3046 3098 3046 2112 
z
M 2432 2080 
Q 2432 3091 2217 3625 
Q 2003 4160 1587 4160 
Q 1190 4160 979 3622 
Q 768 3085 768 2106 
Q 768 1120 979 598 
Q 1190 77 1600 77 
Q 2003 77 2217 598 
Q 2432 1120 2432 2080 
z
" transform="scale(0.015625)"/>
       </defs>
       <use xlink:href="#STIXGeneral-Regular-33"/>
       <use xlink:href="#STIXGeneral-Regular-30" x="49.999985"/>
       <use xlink:href="#STIXGeneral-Regular-30" x="99.999969"/>
      </g>
     </g>
    </g>
    <g id="xtick_2">
     <g id="line2d_3">
      <path d="M 291.6 640.8 
L 291.6 86.4 
" clip-path="url(#pde924c4f48)" style="fill: none; stroke-dasharray: 2.96,1.28; stroke-dashoffset: 0; stroke: #000000; stroke-opacity: 0.8; stroke-width: 0.8"/>
     </g>
     <g id="line2d_4">
      <g>
       <use xlink:href="#m2b4f311254" x="291.6" y="640.8" style="stroke: #000000; stroke-width: 0.8"/>
      </g>
     </g>
     <g id="text_2">
      <!-- 305 -->
      <g transform="translate(282.6 655.995625) scale(0.12 -0.12)">
       <defs>
        <path id="STIXGeneral-Regular-35" d="M 2803 4358 
L 2573 3814 
Q 2534 3731 2400 3731 
L 1158 3731 
L 902 3187 
Q 1606 3053 1920 2896 
Q 2234 2739 2502 2368 
Q 2726 2061 2726 1555 
Q 2726 1094 2576 780 
Q 2426 467 2099 224 
Q 1664 -90 1011 -90 
Q 646 -90 422 19 
Q 198 128 198 307 
Q 198 550 486 550 
Q 717 550 960 352 
Q 1210 147 1414 147 
Q 1747 147 2012 480 
Q 2278 813 2278 1229 
Q 2278 1843 1850 2189 
Q 1293 2637 486 2637 
Q 410 2637 410 2688 
L 416 2720 
L 1114 4237 
L 2438 4237 
Q 2547 4237 2608 4269 
Q 2669 4301 2746 4403 
L 2803 4358 
z
" transform="scale(0.015625)"/>
       </defs>
       <use xlink:href="#STIXGeneral-Regular-33"/>
       <use xlink:href="#STIXGeneral-Regular-30" x="49.999985"/>
       <use xlink:href="#STIXGeneral-Regular-35" x="99.999969"/>
      </g>
     </g>
    </g>
    <g id="xtick_3">
     <g id="line2d_5">
      <path d="M 403.2 640.8 
L 403.2 86.4 
" clip-path="url(#pde924c4f48)" style="fill: none; stroke-dasharray: 2.96,1.28; stroke-dashoffset: 0; stroke: #000000; stroke-opacity: 0.8; stroke-width: 0.8"/>
     </g>
     <g id="line2d_6">
      <g>
       <use xlink:href="#m2b4f311254" x="403.2" y="640.8" style="stroke: #000000; stroke-width: 0.8"/>
      </g>
     </g>
     <g id="text_3">
      <!-- 310 -->
      <g transform="translate(394.2 655.995625) scale(0.12 -0.12)">
       <defs>
        <path id="STIXGeneral-Regular-31" d="M 2522 0 
L 755 0 
L 755 96 
Q 1107 115 1235 227 
Q 1363 339 1363 608 
L 1363 3482 
Q 1363 3795 1171 3795 
Q 1082 3795 883 3718 
L 710 3654 
L 710 3744 
L 1856 4326 
L 1914 4307 
L 1914 486 
Q 1914 275 2042 185 
Q 2170 96 2522 96 
L 2522 0 
z
" transform="scale(0.015625)"/>
       </defs>
       <use xlink:href="#STIXGeneral-Regular-33"/>
       <use xlink:href="#STIXGeneral-Regular-31" x="49.999985"/>
       <use xlink:href="#STIXGeneral-Regular-30" x="99.999969"/>
      </g>
     </g>
    </g>
    <g id="xtick_4">
     <g id="line2d_7">
      <path d="M 514.8 640.8 
L 514.8 86.4 
" clip-path="url(#pde924c4f48)" style="fill: none; stroke-dasharray: 2.96,1.28; stroke-dashoffset: 0; stroke: #000000; stroke-opacity: 0.8; stroke-width: 0.8"/>
     </g>
     <g id="line2d_8">
      <g>
       <use xlink:href="#m2b4f311254" x="514.8" y="640.8" style="stroke: #000000; stroke-width: 0.8"/>
      </g>
     </g>
     <g id="text_4">
      <!-- 315 -->
      <g transform="translate(505.8 655.995625) scale(0.12 -0.12)">
       <use xlink:href="#STIXGeneral-Regular-33"/>
       <use xlink:href="#STIXGeneral-Regular-31" x="49.999985"/>
       <use xlink:href="#STIXGeneral-Regular-35" x="99.999969"/>
      </g>
     </g>
    </g>
    <g id="xtick_5">
     <g id="line2d_9">
      <path d="M 626.4 640.8 
L 626.4 86.4 
" clip-path="url(#pde924c4f48)" style="fill: none; stroke-dasharray: 2.96,1.28; stroke-dashoffset: 0; stroke: #000000; stroke-opacity: 0.8; stroke-width: 0.8"/>
     </g>
     <g id="line2d_10">
      <g>
       <use xlink:href="#m2b4f311254" x="626.4" y="640.8" style="stroke: #000000; stroke-width: 0.8"/>
      </g>
     </g>
     <g id="text_5">
      <!-- 320 -->
      <g transform="translate(617.4 655.995625) scale(0.12 -0.12)">
       <defs>
        <path id="STIXGeneral-Regular-32" d="M 3034 877 
L 2688 0 
L 186 0 
L 186 77 
L 1325 1286 
Q 1773 1754 1965 2144 
Q 2157 2534 2157 2950 
Q 2157 3379 1920 3616 
Q 1683 3853 1267 3853 
Q 922 3853 720 3673 
Q 518 3494 326 3021 
L 192 3053 
Q 301 3648 630 3987 
Q 960 4326 1523 4326 
Q 2054 4326 2380 4006 
Q 2707 3686 2707 3200 
Q 2707 2477 1888 1613 
L 832 486 
L 2330 486 
Q 2541 486 2665 569 
Q 2790 653 2944 915 
L 3034 877 
z
" transform="scale(0.015625)"/>
       </defs>
       <use xlink:href="#STIXGeneral-Regular-33"/>
       <use xlink:href="#STIXGeneral-Regular-32" x="49.999985"/>
       <use xlink:href="#STIXGeneral-Regular-30" x="99.999969"/>
      </g>
     </g>
    </g>
    <g id="xtick_6">
     <g id="line2d_11">
      <path d="M 738 640.8 
L 738 86.4 
" clip-path="url(#pde924c4f48)" style="fill: none; stroke-dasharray: 2.96,1.28; stroke-dashoffset: 0; stroke: #000000; stroke-opacity: 0.8; stroke-width: 0.8"/>
     </g>
     <g id="line2d_12">
      <g>
       <use xlink:href="#m2b4f311254" x="738" y="640.8" style="stroke: #000000; stroke-width: 0.8"/>
      </g>
     </g>
     <g id="text_6">
      <!-- 325 -->
      <g transform="translate(729 655.995625) scale(0.12 -0.12)">
       <use xlink:href="#STIXGeneral-Regular-33"/>
       <use xlink:href="#STIXGeneral-Regular-32" x="49.999985"/>
       <use xlink:href="#STIXGeneral-Regular-35" x="99.999969"/>
      </g>
     </g>
    </g>
    <g id="xtick_7">
     <g id="line2d_13">
      <path d="M 849.6 640.8 
L 849.6 86.4 
" clip-path="url(#pde924c4f48)" style="fill: none; stroke-dasharray: 2.96,1.28; stroke-dashoffset: 0; stroke: #000000; stroke-opacity: 0.8; stroke-width: 0.8"/>
     </g>
     <g id="line2d_14">
      <g>
       <use xlink:href="#m2b4f311254" x="849.6" y="640.8" style="stroke: #000000; stroke-width: 0.8"/>
      </g>
     </g>
     <g id="text_7">
      <!-- 330 -->
      <g transform="translate(840.6 655.995625) scale(0.12 -0.12)">
       <use xlink:href="#STIXGeneral-Regular-33"/>
       <use xlink:href="#STIXGeneral-Regular-33" x="49.999985"/>
       <use xlink:href="#STIXGeneral-Regular-30" x="99.999969"/>
      </g>
     </g>
    </g>
    <g id="xtick_8">
     <g id="line2d_15">
      <path d="M 961.2 640.8 
L 961.2 86.4 
" clip-path="url(#pde924c4f48)" style="fill: none; stroke-dasharray: 2.96,1.28; stroke-dashoffset: 0; stroke: #000000; stroke-opacity: 0.8; stroke-width: 0.8"/>
     </g>
     <g id="line2d_16">
      <g>
       <use xlink:href="#m2b4f311254" x="961.2" y="640.8" style="stroke: #000000; stroke-width: 0.8"/>
      </g>
     </g>
     <g id="text_8">
      <!-- 335 -->
      <g transform="translate(952.2 655.995625) scale(0.12 -0.12)">
       <use xlink:href="#STIXGeneral-Regular-33"/>
       <use xlink:href="#STIXGeneral-Regular-33" x="49.999985"/>
       <use xlink:href="#STIXGeneral-Regular-35" x="99.999969"/>
      </g>
     </g>
    </g>
    <g id="xtick_9">
     <g id="line2d_17">
      <path d="M 1072.8 640.8 
L 1072.8 86.4 
" clip-path="url(#pde924c4f48)" style="fill: none; stroke-dasharray: 2.96,1.28; stroke-dashoffset: 0; stroke: #000000; stroke-opacity: 0.8; stroke-width: 0.8"/>
     </g>
     <g id="line2d_18">
      <g>
       <use xlink:href="#m2b4f311254" x="1072.8" y="640.8" style="stroke: #000000; stroke-width: 0.8"/>
      </g>
     </g>
     <g id="text_9">
      <!-- 340 -->
      <g transform="translate(1063.8 655.995625) scale(0.12 -0.12)">
       <defs>
        <path id="STIXGeneral-Regular-34" d="M 3027 1069 
L 2368 1069 
L 2368 0 
L 1869 0 
L 1869 1069 
L 77 1069 
L 77 1478 
L 2086 4326 
L 2368 4326 
L 2368 1478 
L 3027 1478 
L 3027 1069 
z
M 1869 1478 
L 1869 3674 
L 333 1478 
L 1869 1478 
z
" transform="scale(0.015625)"/>
       </defs>
       <use xlink:href="#STIXGeneral-Regular-33"/>
       <use xlink:href="#STIXGeneral-Regular-34" x="49.999985"/>
       <use xlink:href="#STIXGeneral-Regular-30" x="99.999969"/>
      </g>
     </g>
    </g>
    <g id="xtick_10">
     <g id="line2d_19">
      <path d="M 1184.4 640.8 
L 1184.4 86.4 
" clip-path="url(#pde924c4f48)" style="fill: none; stroke-dasharray: 2.96,1.28; stroke-dashoffset: 0; stroke: #000000; stroke-opacity: 0.8; stroke-width: 0.8"/>
     </g>
     <g id="line2d_20">
      <g>
       <use xlink:href="#m2b4f311254" x="1184.4" y="640.8" style="stroke: #000000; stroke-width: 0.8"/>
      </g>
     </g>
     <g id="text_10">
      <!-- 345 -->
      <g transform="translate(1175.4 655.995625) scale(0.12 -0.12)">
       <use xlink:href="#STIXGeneral-Regular-33"/>
       <use xlink:href="#STIXGeneral-Regular-34" x="49.999985"/>
       <use xlink:href="#STIXGeneral-Regular-35" x="99.999969"/>
      </g>
     </g>
    </g>
    <g id="xtick_11">
     <g id="line2d_21">
      <path d="M 1296 640.8 
L 1296 86.4 
" clip-path="url(#pde924c4f48)" style="fill: none; stroke-dasharray: 2.96,1.28; stroke-dashoffset: 0; stroke: #000000; stroke-opacity: 0.8; stroke-width: 0.8"/>
     </g>
     <g id="line2d_22">
      <g>
       <use xlink:href="#m2b4f311254" x="1296" y="640.8" style="stroke: #000000; stroke-width: 0.8"/>
      </g>
     </g>
     <g id="text_11">
      <!-- 350 -->
      <g transform="translate(1287 655.995625) scale(0.12 -0.12)">
       <use xlink:href="#STIXGeneral-Regular-33"/>
       <use xlink:href="#STIXGeneral-Regular-35" x="49.999985"/>
       <use xlink:href="#STIXGeneral-Regular-30" x="99.999969"/>
      </g>
     </g>
    </g>
    <g id="text_12">
     <!-- $T\,[\mathrm{K}]$ -->
     <g transform="translate(722.475 672.844531) scale(0.15 -0.15)">
      <defs>
       <path id="STIXGeneral-Italic-54" d="M 4051 4179 
L 3770 3130 
L 3661 3142 
Q 3680 3302 3680 3437 
Q 3680 3955 3034 3955 
L 2662 3955 
L 1786 819 
Q 1696 506 1696 397 
Q 1696 250 1766 195 
Q 1837 141 2035 122 
L 2259 102 
L 2259 0 
L 416 0 
L 416 102 
Q 749 134 889 230 
Q 1030 326 1101 582 
L 2016 3955 
Q 1254 3955 988 3817 
Q 723 3680 493 3162 
L 378 3187 
L 646 4179 
L 4051 4179 
z
" transform="scale(0.015625)"/>
       <path id="STIXGeneral-Regular-5b" d="M 1914 -998 
L 563 -998 
L 563 4237 
L 1914 4237 
L 1914 4077 
L 1382 4077 
Q 1216 4077 1133 4006 
Q 1050 3936 1050 3770 
L 1050 -493 
Q 1050 -838 1382 -838 
L 1914 -838 
L 1914 -998 
z
" transform="scale(0.015625)"/>
       <path id="STIXGeneral-Regular-4b" d="M 4627 0 
L 2688 0 
L 2688 122 
L 2861 128 
Q 3130 134 3130 282 
Q 3130 397 2922 643 
Q 2714 890 2253 1370 
L 1613 2029 
L 1446 1894 
L 1446 710 
Q 1446 352 1548 253 
Q 1651 154 2016 122 
L 2016 0 
L 211 0 
L 211 122 
Q 589 141 691 262 
Q 794 384 794 800 
L 794 3514 
Q 794 3872 691 3981 
Q 589 4090 218 4115 
L 218 4237 
L 2022 4237 
L 2022 4115 
Q 1632 4090 1539 3987 
Q 1446 3885 1446 3507 
L 1446 2227 
L 2586 3277 
Q 2861 3533 2973 3667 
Q 3085 3802 3085 3910 
Q 3085 4013 3030 4057 
Q 2976 4102 2822 4109 
L 2662 4115 
L 2662 4237 
L 4320 4237 
L 4320 4115 
Q 3994 4090 3824 4003 
Q 3654 3917 3322 3597 
L 2131 2458 
L 3629 819 
Q 4026 384 4214 253 
Q 4403 122 4627 122 
L 4627 0 
z
" transform="scale(0.015625)"/>
       <path id="STIXGeneral-Regular-5d" d="M 1568 -998 
L 218 -998 
L 218 -838 
L 781 -838 
Q 947 -838 1014 -768 
Q 1082 -698 1082 -544 
L 1082 3731 
Q 1082 4077 755 4077 
L 218 4077 
L 218 4237 
L 1568 4237 
L 1568 -998 
z
" transform="scale(0.015625)"/>
      </defs>
      <use xlink:href="#STIXGeneral-Italic-54" transform="translate(0 0.796875)"/>
      <use xlink:href="#STIXGeneral-Regular-5b" transform="translate(67.633562 0.796875)"/>
      <use xlink:href="#STIXGeneral-Regular-4b" transform="translate(100.93355 0.796875)"/>
      <use xlink:href="#STIXGeneral-Regular-5d" transform="translate(173.133531 0.796875)"/>
     </g>
    </g>
   </g>
   <g id="matplotlib.axis_2">
    <g id="ytick_1">
     <g id="line2d_23">
      <path d="M 180 640.8 
L 1296 640.8 
" clip-path="url(#pde924c4f48)" style="fill: none; stroke-dasharray: 2.96,1.28; stroke-dashoffset: 0; stroke: #000000; stroke-opacity: 0.8; stroke-width: 0.8"/>
     </g>
     <g id="line2d_24">
      <defs>
       <path id="m6b01f7c67b" d="M 0 0 
L -3.5 0 
" style="stroke: #000000; stroke-width: 0.8"/>
      </defs>
      <g>
       <use xlink:href="#m6b01f7c67b" x="180" y="640.8" style="stroke: #000000; stroke-width: 0.8"/>
      </g>
     </g>
     <g id="text_13">
      <!-- 0.99207 -->
      <g transform="translate(134 644.897813) scale(0.12 -0.12)">
       <defs>
        <path id="STIXGeneral-Regular-2e" d="M 1158 275 
Q 1158 134 1052 32 
Q 947 -70 800 -70 
Q 653 -70 550 32 
Q 448 134 448 281 
Q 448 429 553 534 
Q 659 640 806 640 
Q 947 640 1052 531 
Q 1158 422 1158 275 
z
" transform="scale(0.015625)"/>
        <path id="STIXGeneral-Regular-39" d="M 378 -141 
L 358 -13 
Q 1094 115 1603 608 
Q 2112 1101 2304 1882 
Q 1933 1517 1344 1517 
Q 826 1517 509 1875 
Q 192 2234 192 2816 
Q 192 3462 573 3894 
Q 954 4326 1523 4326 
Q 2131 4326 2528 3840 
Q 2938 3328 2938 2522 
Q 2938 1958 2742 1462 
Q 2547 966 2170 621 
Q 1773 262 1395 105 
Q 1018 -51 378 -141 
z
M 2317 2272 
L 2317 2522 
Q 2317 4147 1472 4147 
Q 1171 4147 1005 3930 
Q 909 3802 845 3546 
Q 781 3290 781 3034 
Q 781 2464 995 2128 
Q 1210 1792 1568 1792 
Q 1824 1792 2070 1917 
Q 2317 2042 2317 2272 
z
" transform="scale(0.015625)"/>
        <path id="STIXGeneral-Regular-37" d="M 2874 4134 
L 1517 -51 
L 1101 -51 
L 2368 3763 
L 992 3763 
Q 717 3763 582 3667 
Q 448 3571 243 3238 
L 128 3296 
L 512 4237 
L 2874 4237 
L 2874 4134 
z
" transform="scale(0.015625)"/>
       </defs>
       <use xlink:href="#STIXGeneral-Regular-30"/>
       <use xlink:href="#STIXGeneral-Regular-2e" x="49.999985"/>
       <use xlink:href="#STIXGeneral-Regular-39" x="74.999969"/>
       <use xlink:href="#STIXGeneral-Regular-39" x="124.999954"/>
       <use xlink:href="#STIXGeneral-Regular-32" x="174.999939"/>
       <use xlink:href="#STIXGeneral-Regular-30" x="224.999924"/>
       <use xlink:href="#STIXGeneral-Regular-37" x="274.999908"/>
      </g>
     </g>
    </g>
    <g id="ytick_2">
     <g id="line2d_25">
      <path d="M 180 585.36 
L 1296 585.36 
" clip-path="url(#pde924c4f48)" style="fill: none; stroke-dasharray: 2.96,1.28; stroke-dashoffset: 0; stroke: #000000; stroke-opacity: 0.8; stroke-width: 0.8"/>
     </g>
     <g id="line2d_26">
      <g>
       <use xlink:href="#m6b01f7c67b" x="180" y="585.36" style="stroke: #000000; stroke-width: 0.8"/>
      </g>
     </g>
     <g id="text_14">
      <!-- 0.99317 -->
      <g transform="translate(134 589.457813) scale(0.12 -0.12)">
       <use xlink:href="#STIXGeneral-Regular-30"/>
       <use xlink:href="#STIXGeneral-Regular-2e" x="49.999985"/>
       <use xlink:href="#STIXGeneral-Regular-39" x="74.999969"/>
       <use xlink:href="#STIXGeneral-Regular-39" x="124.999954"/>
       <use xlink:href="#STIXGeneral-Regular-33" x="174.999939"/>
       <use xlink:href="#STIXGeneral-Regular-31" x="224.999924"/>
       <use xlink:href="#STIXGeneral-Regular-37" x="274.999908"/>
      </g>
     </g>
    </g>
    <g id="ytick_3">
     <g id="line2d_27">
      <path d="M 180 529.92 
L 1296 529.92 
" clip-path="url(#pde924c4f48)" style="fill: none; stroke-dasharray: 2.96,1.28; stroke-dashoffset: 0; stroke: #000000; stroke-opacity: 0.8; stroke-width: 0.8"/>
     </g>
     <g id="line2d_28">
      <g>
       <use xlink:href="#m6b01f7c67b" x="180" y="529.92" style="stroke: #000000; stroke-width: 0.8"/>
      </g>
     </g>
     <g id="text_15">
      <!-- 0.99427 -->
      <g transform="translate(134 534.017813) scale(0.12 -0.12)">
       <use xlink:href="#STIXGeneral-Regular-30"/>
       <use xlink:href="#STIXGeneral-Regular-2e" x="49.999985"/>
       <use xlink:href="#STIXGeneral-Regular-39" x="74.999969"/>
       <use xlink:href="#STIXGeneral-Regular-39" x="124.999954"/>
       <use xlink:href="#STIXGeneral-Regular-34" x="174.999939"/>
       <use xlink:href="#STIXGeneral-Regular-32" x="224.999924"/>
       <use xlink:href="#STIXGeneral-Regular-37" x="274.999908"/>
      </g>
     </g>
    </g>
    <g id="ytick_4">
     <g id="line2d_29">
      <path d="M 180 474.48 
L 1296 474.48 
" clip-path="url(#pde924c4f48)" style="fill: none; stroke-dasharray: 2.96,1.28; stroke-dashoffset: 0; stroke: #000000; stroke-opacity: 0.8; stroke-width: 0.8"/>
     </g>
     <g id="line2d_30">
      <g>
       <use xlink:href="#m6b01f7c67b" x="180" y="474.48" style="stroke: #000000; stroke-width: 0.8"/>
      </g>
     </g>
     <g id="text_16">
      <!-- 0.99537 -->
      <g transform="translate(134 478.577813) scale(0.12 -0.12)">
       <use xlink:href="#STIXGeneral-Regular-30"/>
       <use xlink:href="#STIXGeneral-Regular-2e" x="49.999985"/>
       <use xlink:href="#STIXGeneral-Regular-39" x="74.999969"/>
       <use xlink:href="#STIXGeneral-Regular-39" x="124.999954"/>
       <use xlink:href="#STIXGeneral-Regular-35" x="174.999939"/>
       <use xlink:href="#STIXGeneral-Regular-33" x="224.999924"/>
       <use xlink:href="#STIXGeneral-Regular-37" x="274.999908"/>
      </g>
     </g>
    </g>
    <g id="ytick_5">
     <g id="line2d_31">
      <path d="M 180 419.04 
L 1296 419.04 
" clip-path="url(#pde924c4f48)" style="fill: none; stroke-dasharray: 2.96,1.28; stroke-dashoffset: 0; stroke: #000000; stroke-opacity: 0.8; stroke-width: 0.8"/>
     </g>
     <g id="line2d_32">
      <g>
       <use xlink:href="#m6b01f7c67b" x="180" y="419.04" style="stroke: #000000; stroke-width: 0.8"/>
      </g>
     </g>
     <g id="text_17">
      <!-- 0.99647 -->
      <g transform="translate(134 423.137813) scale(0.12 -0.12)">
       <defs>
        <path id="STIXGeneral-Regular-36" d="M 2854 4378 
L 2867 4275 
Q 2112 4154 1606 3664 
Q 1101 3174 973 2451 
Q 1344 2739 1786 2739 
Q 2349 2739 2672 2380 
Q 2995 2022 2995 1402 
Q 2995 774 2669 378 
Q 2291 -90 1651 -90 
Q 870 -90 518 557 
Q 218 1107 218 1786 
Q 218 2835 915 3552 
Q 1312 3962 1731 4131 
Q 2150 4301 2854 4378 
z
M 2419 1203 
Q 2419 2445 1555 2445 
Q 1235 2445 1024 2275 
Q 813 2106 813 1702 
Q 813 954 1046 522 
Q 1280 90 1722 90 
Q 2061 90 2240 394 
Q 2419 698 2419 1203 
z
" transform="scale(0.015625)"/>
       </defs>
       <use xlink:href="#STIXGeneral-Regular-30"/>
       <use xlink:href="#STIXGeneral-Regular-2e" x="49.999985"/>
       <use xlink:href="#STIXGeneral-Regular-39" x="74.999969"/>
       <use xlink:href="#STIXGeneral-Regular-39" x="124.999954"/>
       <use xlink:href="#STIXGeneral-Regular-36" x="174.999939"/>
       <use xlink:href="#STIXGeneral-Regular-34" x="224.999924"/>
       <use xlink:href="#STIXGeneral-Regular-37" x="274.999908"/>
      </g>
     </g>
    </g>
    <g id="ytick_6">
     <g id="line2d_33">
      <path d="M 180 363.6 
L 1296 363.6 
" clip-path="url(#pde924c4f48)" style="fill: none; stroke-dasharray: 2.96,1.28; stroke-dashoffset: 0; stroke: #000000; stroke-opacity: 0.8; stroke-width: 0.8"/>
     </g>
     <g id="line2d_34">
      <g>
       <use xlink:href="#m6b01f7c67b" x="180" y="363.6" style="stroke: #000000; stroke-width: 0.8"/>
      </g>
     </g>
     <g id="text_18">
      <!-- 0.99757 -->
      <g transform="translate(134 367.697812) scale(0.12 -0.12)">
       <use xlink:href="#STIXGeneral-Regular-30"/>
       <use xlink:href="#STIXGeneral-Regular-2e" x="49.999985"/>
       <use xlink:href="#STIXGeneral-Regular-39" x="74.999969"/>
       <use xlink:href="#STIXGeneral-Regular-39" x="124.999954"/>
       <use xlink:href="#STIXGeneral-Regular-37" x="174.999939"/>
       <use xlink:href="#STIXGeneral-Regular-35" x="224.999924"/>
       <use xlink:href="#STIXGeneral-Regular-37" x="274.999908"/>
      </g>
     </g>
    </g>
    <g id="ytick_7">
     <g id="line2d_35">
      <path d="M 180 308.16 
L 1296 308.16 
" clip-path="url(#pde924c4f48)" style="fill: none; stroke-dasharray: 2.96,1.28; stroke-dashoffset: 0; stroke: #000000; stroke-opacity: 0.8; stroke-width: 0.8"/>
     </g>
     <g id="line2d_36">
      <g>
       <use xlink:href="#m6b01f7c67b" x="180" y="308.16" style="stroke: #000000; stroke-width: 0.8"/>
      </g>
     </g>
     <g id="text_19">
      <!-- 0.99867 -->
      <g transform="translate(134 312.257813) scale(0.12 -0.12)">
       <defs>
        <path id="STIXGeneral-Regular-38" d="M 2848 992 
Q 2848 499 2505 204 
Q 2163 -90 1587 -90 
Q 1050 -90 704 204 
Q 358 499 358 954 
Q 358 1293 524 1533 
Q 691 1773 1190 2125 
Q 710 2522 553 2765 
Q 397 3008 397 3328 
Q 397 3782 745 4054 
Q 1094 4326 1638 4326 
Q 2106 4326 2410 4060 
Q 2714 3795 2714 3411 
Q 2714 3059 2531 2848 
Q 2349 2637 1856 2374 
Q 2432 1990 2640 1689 
Q 2848 1389 2848 992 
z
M 2272 3411 
Q 2272 3744 2086 3945 
Q 1901 4147 1574 4147 
Q 1248 4147 1059 3977 
Q 870 3808 870 3513 
Q 870 3219 1059 2979 
Q 1248 2739 1670 2490 
Q 1997 2682 2134 2896 
Q 2272 3110 2272 3411 
z
M 1734 1741 
L 1357 1997 
Q 1075 1766 960 1545 
Q 845 1325 845 1011 
Q 845 576 1065 333 
Q 1286 90 1658 90 
Q 1971 90 2166 285 
Q 2362 480 2362 794 
Q 2362 1082 2214 1299 
Q 2067 1517 1734 1741 
z
" transform="scale(0.015625)"/>
       </defs>
       <use xlink:href="#STIXGeneral-Regular-30"/>
       <use xlink:href="#STIXGeneral-Regular-2e" x="49.999985"/>
       <use xlink:href="#STIXGeneral-Regular-39" x="74.999969"/>
       <use xlink:href="#STIXGeneral-Regular-39" x="124.999954"/>
       <use xlink:href="#STIXGeneral-Regular-38" x="174.999939"/>
       <use xlink:href="#STIXGeneral-Regular-36" x="224.999924"/>
       <use xlink:href="#STIXGeneral-Regular-37" x="274.999908"/>
      </g>
     </g>
    </g>
    <g id="ytick_8">
     <g id="line2d_37">
      <path d="M 180 252.72 
L 1296 252.72 
" clip-path="url(#pde924c4f48)" style="fill: none; stroke-dasharray: 2.96,1.28; stroke-dashoffset: 0; stroke: #000000; stroke-opacity: 0.8; stroke-width: 0.8"/>
     </g>
     <g id="line2d_38">
      <g>
       <use xlink:href="#m6b01f7c67b" x="180" y="252.72" style="stroke: #000000; stroke-width: 0.8"/>
      </g>
     </g>
     <g id="text_20">
      <!-- 0.99976 -->
      <g transform="translate(134 256.817813) scale(0.12 -0.12)">
       <use xlink:href="#STIXGeneral-Regular-30"/>
       <use xlink:href="#STIXGeneral-Regular-2e" x="49.999985"/>
       <use xlink:href="#STIXGeneral-Regular-39" x="74.999969"/>
       <use xlink:href="#STIXGeneral-Regular-39" x="124.999954"/>
       <use xlink:href="#STIXGeneral-Regular-39" x="174.999939"/>
       <use xlink:href="#STIXGeneral-Regular-37" x="224.999924"/>
       <use xlink:href="#STIXGeneral-Regular-36" x="274.999908"/>
      </g>
     </g>
    </g>
    <g id="ytick_9">
     <g id="line2d_39">
      <path d="M 180 197.28 
L 1296 197.28 
" clip-path="url(#pde924c4f48)" style="fill: none; stroke-dasharray: 2.96,1.28; stroke-dashoffset: 0; stroke: #000000; stroke-opacity: 0.8; stroke-width: 0.8"/>
     </g>
     <g id="line2d_40">
      <g>
       <use xlink:href="#m6b01f7c67b" x="180" y="197.28" style="stroke: #000000; stroke-width: 0.8"/>
      </g>
     </g>
     <g id="text_21">
      <!-- 1.00086 -->
      <g transform="translate(134 201.377812) scale(0.12 -0.12)">
       <use xlink:href="#STIXGeneral-Regular-31"/>
       <use xlink:href="#STIXGeneral-Regular-2e" x="49.999985"/>
       <use xlink:href="#STIXGeneral-Regular-30" x="74.999969"/>
       <use xlink:href="#STIXGeneral-Regular-30" x="124.999954"/>
       <use xlink:href="#STIXGeneral-Regular-30" x="174.999939"/>
       <use xlink:href="#STIXGeneral-Regular-38" x="224.999924"/>
       <use xlink:href="#STIXGeneral-Regular-36" x="274.999908"/>
      </g>
     </g>
    </g>
    <g id="ytick_10">
     <g id="line2d_41">
      <path d="M 180 141.84 
L 1296 141.84 
" clip-path="url(#pde924c4f48)" style="fill: none; stroke-dasharray: 2.96,1.28; stroke-dashoffset: 0; stroke: #000000; stroke-opacity: 0.8; stroke-width: 0.8"/>
     </g>
     <g id="line2d_42">
      <g>
       <use xlink:href="#m6b01f7c67b" x="180" y="141.84" style="stroke: #000000; stroke-width: 0.8"/>
      </g>
     </g>
     <g id="text_22">
      <!-- 1.00196 -->
      <g transform="translate(134 145.937813) scale(0.12 -0.12)">
       <use xlink:href="#STIXGeneral-Regular-31"/>
       <use xlink:href="#STIXGeneral-Regular-2e" x="49.999985"/>
       <use xlink:href="#STIXGeneral-Regular-30" x="74.999969"/>
       <use xlink:href="#STIXGeneral-Regular-30" x="124.999954"/>
       <use xlink:href="#STIXGeneral-Regular-31" x="174.999939"/>
       <use xlink:href="#STIXGeneral-Regular-39" x="224.999924"/>
       <use xlink:href="#STIXGeneral-Regular-36" x="274.999908"/>
      </g>
     </g>
    </g>
    <g id="ytick_11">
     <g id="line2d_43">
      <path d="M 180 86.4 
L 1296 86.4 
" clip-path="url(#pde924c4f48)" style="fill: none; stroke-dasharray: 2.96,1.28; stroke-dashoffset: 0; stroke: #000000; stroke-opacity: 0.8; stroke-width: 0.8"/>
     </g>
     <g id="line2d_44">
      <g>
       <use xlink:href="#m6b01f7c67b" x="180" y="86.4" style="stroke: #000000; stroke-width: 0.8"/>
      </g>
     </g>
     <g id="text_23">
      <!-- 1.00306 -->
      <g transform="translate(134 90.497813) scale(0.12 -0.12)">
       <use xlink:href="#STIXGeneral-Regular-31"/>
       <use xlink:href="#STIXGeneral-Regular-2e" x="49.999985"/>
       <use xlink:href="#STIXGeneral-Regular-30" x="74.999969"/>
       <use xlink:href="#STIXGeneral-Regular-30" x="124.999954"/>
       <use xlink:href="#STIXGeneral-Regular-33" x="174.999939"/>
       <use xlink:href="#STIXGeneral-Regular-30" x="224.999924"/>
       <use xlink:href="#STIXGeneral-Regular-36" x="274.999908"/>
      </g>
     </g>
    </g>
    <g id="text_24">
     <!-- $\phi_{CO_2}[\mathrm{- -}]$ -->
     <g transform="translate(126.55 395.475) rotate(-90) scale(0.15 -0.15)">
      <defs>
       <path id="STIXGeneral-Italic-3d5" d="M 3078 4371 
L 2650 2822 
Q 3098 2822 3296 2746 
Q 3808 2547 3808 1939 
Q 3808 1709 3728 1446 
Q 3648 1184 3481 915 
Q 3315 646 3088 425 
Q 2861 205 2537 67 
Q 2214 -70 1850 -70 
L 1504 -1312 
L 1005 -1312 
L 1350 -70 
Q 883 -70 666 0 
Q 173 160 173 819 
Q 173 1018 256 1274 
Q 339 1530 502 1802 
Q 666 2074 886 2301 
Q 1107 2528 1417 2675 
Q 1728 2822 2061 2822 
L 2157 2822 
L 2586 4371 
L 3078 4371 
z
M 2611 2688 
L 1888 64 
Q 2125 64 2330 166 
Q 2694 352 2982 998 
Q 3270 1645 3270 2093 
Q 3270 2464 2982 2643 
Q 2906 2688 2611 2688 
z
M 1389 64 
L 2118 2688 
Q 1760 2688 1427 2365 
Q 1094 2042 902 1568 
Q 710 1094 710 646 
Q 710 237 1018 115 
Q 1152 64 1389 64 
z
" transform="scale(0.015625)"/>
       <path id="STIXGeneral-Italic-43" d="M 4410 4250 
L 4173 2970 
L 4058 2989 
Q 3942 4032 3104 4032 
Q 2406 4032 1830 3411 
Q 1491 3053 1315 2541 
Q 1139 2029 1139 1485 
Q 1139 173 2259 173 
Q 2656 173 2985 339 
Q 3315 506 3725 934 
L 3840 838 
Q 3411 333 2998 109 
Q 2586 -115 2093 -115 
Q 1344 -115 883 329 
Q 422 774 422 1555 
Q 422 2214 748 2812 
Q 1075 3411 1619 3795 
Q 2272 4262 3021 4262 
Q 3462 4262 3770 4154 
Q 3898 4109 4032 4109 
Q 4205 4109 4275 4250 
L 4410 4250 
z
" transform="scale(0.015625)"/>
       <path id="STIXGeneral-Italic-4f" d="M 4474 2675 
Q 4474 1990 4106 1363 
Q 3738 736 3149 339 
Q 2477 -115 1779 -115 
Q 1146 -115 765 281 
Q 384 678 384 1382 
Q 384 1965 697 2582 
Q 1011 3200 1517 3642 
Q 2234 4262 3034 4262 
Q 3718 4269 4096 3840 
Q 4474 3411 4474 2675 
z
M 3802 3078 
Q 3802 3533 3581 3792 
Q 3360 4051 2976 4051 
Q 2342 4051 1786 3302 
Q 1446 2842 1251 2259 
Q 1056 1677 1056 1178 
Q 1056 653 1270 374 
Q 1485 96 1888 96 
Q 2477 96 2976 704 
Q 3354 1178 3578 1862 
Q 3802 2547 3802 3078 
z
" transform="scale(0.015625)"/>
       <path id="STIXGeneral-Regular-2212" d="M 3974 1408 
L 410 1408 
L 410 1830 
L 3974 1830 
L 3974 1408 
z
" transform="scale(0.015625)"/>
      </defs>
      <use xlink:href="#STIXGeneral-Italic-3d5" transform="translate(0 0.703125)"/>
      <use xlink:href="#STIXGeneral-Italic-43" transform="translate(62.699997 -12.525) scale(0.7)"/>
      <use xlink:href="#STIXGeneral-Italic-4f" transform="translate(109.389995 -12.525) scale(0.7)"/>
      <use xlink:href="#STIXGeneral-Regular-32" transform="translate(159.929982 -21.784688) scale(0.49)"/>
      <use xlink:href="#STIXGeneral-Regular-5b" transform="translate(191.925912 0.703125)"/>
      <use xlink:href="#STIXGeneral-Regular-2212" transform="translate(225.2259 0.703125)"/>
      <use xlink:href="#STIXGeneral-Regular-2212" transform="translate(308.165881 0.703125)"/>
      <use xlink:href="#STIXGeneral-Regular-5d" transform="translate(391.105862 0.703125)"/>
     </g>
    </g>
   </g>
   <g id="line2d_45">
    <path d="M 180 265.70576 
L 202.32 265.43434 
L 224.64 265.16666 
L 246.96 264.902653 
L 269.28 264.642256 
L 291.6 264.385405 
L 313.92 264.132037 
L 336.24 263.882093 
L 358.56 263.635513 
L 380.88 263.392239 
L 403.2 263.152214 
L 425.52 262.915382 
L 447.84 262.681689 
L 470.16 262.451082 
L 492.48 262.223507 
L 514.8 261.998915 
L 537.12 261.777255 
L 559.44 261.558478 
L 581.76 261.342536 
L 604.08 261.129382 
L 626.4 260.91897 
L 648.72 260.711254 
L 671.04 260.50619 
L 693.36 260.303736 
L 715.68 260.103848 
L 738 259.906485 
L 760.32 259.711606 
L 782.64 259.519172 
L 804.96 259.329142 
L 827.28 259.141479 
L 849.6 258.956144 
L 871.92 258.773101 
L 894.24 258.592315 
L 916.56 258.413748 
L 938.88 258.237367 
L 961.2 258.063137 
L 983.52 257.891024 
L 1005.84 257.720997 
L 1028.16 257.553022 
L 1050.48 257.387068 
L 1072.8 257.223104 
L 1095.12 257.0611 
L 1117.44 256.901026 
L 1139.76 256.742852 
L 1162.08 256.58655 
L 1184.4 256.432091 
L 1206.72 256.279448 
L 1229.04 256.128593 
L 1251.36 255.9795 
L 1273.68 255.832143 
L 1296 255.686496 
" clip-path="url(#pde924c4f48)" style="fill: none; stroke: #000000; stroke-width: 2; stroke-linecap: square"/>
   </g>
   <g id="line2d_46">
    <path d="M 180 290.534834 
L 202.32 289.992034 
L 224.64 289.456713 
L 246.96 288.92874 
L 269.28 288.407985 
L 291.6 287.894322 
L 313.92 287.387625 
L 336.24 286.887775 
L 358.56 286.394652 
L 380.88 285.908141 
L 403.2 285.428127 
L 425.52 284.954499 
L 447.84 284.487149 
L 470.16 284.025969 
L 492.48 283.570856 
L 514.8 283.121706 
L 537.12 282.67842 
L 559.44 282.2409 
L 581.76 281.809049 
L 604.08 281.382773 
L 626.4 280.961981 
L 648.72 280.546581 
L 671.04 280.136486 
L 693.36 279.731608 
L 715.68 279.331863 
L 738 278.937168 
L 760.32 278.54744 
L 782.64 278.1626 
L 804.96 277.78257 
L 827.28 277.407272 
L 849.6 277.036632 
L 871.92 276.670575 
L 894.24 276.309029 
L 916.56 275.951923 
L 938.88 275.599188 
L 961.2 275.250754 
L 983.52 274.906556 
L 1005.84 274.566527 
L 1028.16 274.230603 
L 1050.48 273.898721 
L 1072.8 273.570819 
L 1095.12 273.246836 
L 1117.44 272.926712 
L 1139.76 272.610388 
L 1162.08 272.297807 
L 1184.4 271.988913 
L 1206.72 271.68365 
L 1229.04 271.381964 
L 1251.36 271.083802 
L 1273.68 270.78911 
L 1296 270.497839 
" clip-path="url(#pde924c4f48)" style="fill: none; stroke: #0000ff; stroke-width: 2; stroke-linecap: square"/>
   </g>
   <g id="line2d_47">
    <path d="M 180 364.998629 
L 202.32 363.641932 
L 224.64 362.303931 
L 246.96 360.984294 
L 269.28 359.682699 
L 291.6 358.398829 
L 313.92 357.132374 
L 336.24 355.883032 
L 358.56 354.650504 
L 380.88 353.434501 
L 403.2 352.234739 
L 425.52 351.050939 
L 447.84 349.88283 
L 470.16 348.730143 
L 492.48 347.592619 
L 514.8 346.470002 
L 537.12 345.36204 
L 559.44 344.268489 
L 581.76 343.189109 
L 604.08 342.123665 
L 626.4 341.071925 
L 648.72 340.033664 
L 671.04 339.008662 
L 693.36 337.9967 
L 715.68 336.997567 
L 738 336.011056 
L 760.32 335.036961 
L 782.64 334.075083 
L 804.96 333.125225 
L 827.28 332.187197 
L 849.6 331.26081 
L 871.92 330.345878 
L 894.24 329.442222 
L 916.56 328.549663 
L 938.88 327.668027 
L 961.2 326.797145 
L 983.52 325.936847 
L 1005.84 325.086971 
L 1028.16 324.247355 
L 1050.48 323.417841 
L 1072.8 322.598274 
L 1095.12 321.788502 
L 1117.44 320.988376 
L 1139.76 320.197748 
L 1162.08 319.416476 
L 1184.4 318.644419 
L 1206.72 317.881437 
L 1229.04 317.127395 
L 1251.36 316.38216 
L 1273.68 315.6456 
L 1296 314.917588 
" clip-path="url(#pde924c4f48)" style="fill: none; stroke: #00bfbf; stroke-width: 2; stroke-linecap: square"/>
   </g>
   <g id="line2d_48">
    <path d="M 180 414.621703 
L 202.32 412.722606 
L 224.64 410.849681 
L 246.96 409.002464 
L 269.28 407.180501 
L 291.6 405.383351 
L 313.92 403.610578 
L 336.24 401.86176 
L 358.56 400.136479 
L 380.88 398.434331 
L 403.2 396.754916 
L 425.52 395.097846 
L 447.84 393.462739 
L 470.16 391.849222 
L 492.48 390.256929 
L 514.8 388.685502 
L 537.12 387.134591 
L 559.44 385.603852 
L 581.76 384.092949 
L 604.08 382.601554 
L 626.4 381.129342 
L 648.72 379.675998 
L 671.04 378.241213 
L 693.36 376.824683 
L 715.68 375.426111 
L 738 374.045205 
L 760.32 372.68168 
L 782.64 371.335257 
L 804.96 370.00566 
L 827.28 368.692621 
L 849.6 367.395877 
L 871.92 366.115169 
L 894.24 364.850243 
L 916.56 363.600852 
L 938.88 362.366751 
L 961.2 361.147702 
L 983.52 359.94347 
L 1005.84 358.753825 
L 1028.16 357.578543 
L 1050.48 356.417401 
L 1072.8 355.270183 
L 1095.12 354.136675 
L 1117.44 353.016669 
L 1139.76 351.90996 
L 1162.08 350.816347 
L 1184.4 349.735632 
L 1206.72 348.66762 
L 1229.04 347.612123 
L 1251.36 346.568953 
L 1273.68 345.537927 
L 1296 344.518865 
" clip-path="url(#pde924c4f48)" style="fill: none; stroke: #bf00bf; stroke-width: 2; stroke-linecap: square"/>
   </g>
   <g id="line2d_49">
    <path d="M 180 489.027254 
L 202.32 486.314852 
L 224.64 483.639832 
L 246.96 481.00153 
L 269.28 478.399301 
L 291.6 475.83251 
L 313.92 473.30054 
L 336.24 470.802782 
L 358.56 468.338645 
L 380.88 465.907546 
L 403.2 463.508919 
L 425.52 461.142207 
L 447.84 458.806864 
L 470.16 456.502357 
L 492.48 454.228165 
L 514.8 451.983776 
L 537.12 449.768689 
L 559.44 447.582414 
L 581.76 445.42447 
L 604.08 443.294387 
L 626.4 441.191705 
L 648.72 439.115971 
L 671.04 437.066744 
L 693.36 435.04359 
L 715.68 433.046085 
L 738 431.073811 
L 760.32 429.126363 
L 782.64 427.203339 
L 804.96 425.304349 
L 827.28 423.429008 
L 849.6 421.576939 
L 871.92 419.747774 
L 894.24 417.94115 
L 916.56 416.156713 
L 938.88 414.394115 
L 961.2 412.653015 
L 983.52 410.933077 
L 1005.84 409.233974 
L 1028.16 407.555383 
L 1050.48 405.896988 
L 1072.8 404.25848 
L 1095.12 402.639554 
L 1117.44 401.039912 
L 1139.76 399.459261 
L 1162.08 397.897313 
L 1184.4 396.353787 
L 1206.72 394.828405 
L 1229.04 393.320897 
L 1251.36 391.830994 
L 1273.68 390.358436 
L 1296 388.902966 
" clip-path="url(#pde924c4f48)" style="fill: none; stroke: #ff0000; stroke-width: 2; stroke-linecap: square"/>
   </g>
   <g id="line2d_50">
    <path d="M 180 538.611657 
L 202.32 535.357245 
L 224.64 532.147684 
L 246.96 528.982182 
L 269.28 525.859961 
L 291.6 522.780262 
L 313.92 519.742342 
L 336.24 516.745473 
L 358.56 513.788943 
L 380.88 510.872056 
L 403.2 507.994129 
L 425.52 505.154495 
L 447.84 502.352499 
L 470.16 499.587503 
L 492.48 496.858879 
L 514.8 494.166014 
L 537.12 491.508307 
L 559.44 488.88517 
L 581.76 486.296026 
L 604.08 483.740311 
L 626.4 481.217471 
L 648.72 478.726966 
L 671.04 476.268264 
L 693.36 473.840846 
L 715.68 471.444201 
L 738 469.077831 
L 760.32 466.741246 
L 782.64 464.433967 
L 804.96 462.155524 
L 827.28 459.905455 
L 849.6 457.68331 
L 871.92 455.488645 
L 894.24 453.321026 
L 916.56 451.180027 
L 938.88 449.06523 
L 961.2 446.976227 
L 983.52 444.912616 
L 1005.84 442.874002 
L 1028.16 440.859999 
L 1050.48 438.870228 
L 1072.8 436.904317 
L 1095.12 434.961901 
L 1117.44 433.042622 
L 1139.76 431.146129 
L 1162.08 429.272077 
L 1184.4 427.420127 
L 1206.72 425.589947 
L 1229.04 423.781212 
L 1251.36 421.993601 
L 1273.68 420.2268 
L 1296 418.4805 
" clip-path="url(#pde924c4f48)" style="fill: none; stroke: #ffa500; stroke-width: 2; stroke-linecap: square"/>
   </g>
   <g id="line2d_51">
    <path d="M 180 612.959444 
L 202.32 608.892298 
L 224.64 604.881209 
L 246.96 600.925183 
L 269.28 597.023251 
L 291.6 593.174462 
L 313.92 589.377888 
L 336.24 585.63262 
L 358.56 581.937766 
L 380.88 578.292457 
L 403.2 574.69584 
L 425.52 571.14708 
L 447.84 567.64536 
L 470.16 564.18988 
L 492.48 560.779858 
L 514.8 557.414525 
L 537.12 554.093132 
L 559.44 550.814942 
L 581.76 547.579236 
L 604.08 544.385307 
L 626.4 541.232465 
L 648.72 538.120033 
L 671.04 535.047346 
L 693.36 532.013756 
L 715.68 529.018626 
L 738 526.06133 
L 760.32 523.141259 
L 782.64 520.257812 
L 804.96 517.410402 
L 827.28 514.598453 
L 849.6 511.8214 
L 871.92 509.07869 
L 894.24 506.369781 
L 916.56 503.694139 
L 938.88 501.051244 
L 961.2 498.440583 
L 983.52 495.861654 
L 1005.84 493.313965 
L 1028.16 490.797034 
L 1050.48 488.310385 
L 1072.8 485.853556 
L 1095.12 483.426088 
L 1117.44 481.027535 
L 1139.76 478.657458 
L 1162.08 476.315425 
L 1184.4 474.001014 
L 1206.72 471.71381 
L 1229.04 469.453405 
L 1251.36 467.219399 
L 1273.68 465.0114 
L 1296 462.829022 
" clip-path="url(#pde924c4f48)" style="fill: none; stroke: #00ff00; stroke-width: 2; stroke-linecap: square"/>
   </g>
   <g id="patch_3">
    <path d="M 180 640.8 
L 180 86.4 
" style="fill: none; stroke: #000000; stroke-width: 0.8; stroke-linejoin: miter; stroke-linecap: square"/>
   </g>
   <g id="patch_4">
    <path d="M 1296 640.8 
L 1296 86.4 
" style="fill: none; stroke: #000000; stroke-width: 0.8; stroke-linejoin: miter; stroke-linecap: square"/>
   </g>
   <g id="patch_5">
    <path d="M 180 640.8 
L 1296 640.8 
" style="fill: none; stroke: #000000; stroke-width: 0.8; stroke-linejoin: miter; stroke-linecap: square"/>
   </g>
   <g id="patch_6">
    <path d="M 180 86.4 
L 1296 86.4 
" style="fill: none; stroke: #000000; stroke-width: 0.8; stroke-linejoin: miter; stroke-linecap: square"/>
   </g>
   <g id="legend_1">
    <g id="patch_7">
     <path d="M 188.4 215.030625 
L 283.704375 215.030625 
Q 286.104375 215.030625 286.104375 212.630625 
L 286.104375 94.8 
Q 286.104375 92.4 283.704375 92.4 
L 188.4 92.4 
Q 186 92.4 186 94.8 
L 186 212.630625 
Q 186 215.030625 188.4 215.030625 
z
" style="fill: #ffffff; opacity: 0.8; stroke: #cccccc; stroke-linejoin: miter"/>
    </g>
    <g id="line2d_52">
     <path d="M 190.8 101.4 
L 202.8 101.4 
L 214.8 101.4 
" style="fill: none; stroke: #000000; stroke-width: 2; stroke-linecap: square"/>
    </g>
    <g id="text_25">
     <!-- P = 0.1 atm -->
     <g transform="translate(224.4 105.6) scale(0.12 -0.12)">
      <defs>
       <path id="STIXGeneral-Regular-50" d="M 102 4237 
L 1760 4237 
Q 2669 4237 3149 3834 
Q 3469 3565 3469 3072 
Q 3469 2560 3104 2234 
Q 2835 1990 2553 1916 
Q 2272 1843 1734 1843 
Q 1549 1843 1293 1862 
L 1293 717 
Q 1293 352 1398 246 
Q 1504 141 1894 122 
L 1894 0 
L 102 0 
L 102 122 
Q 474 147 557 256 
Q 640 365 640 781 
L 640 3526 
Q 640 3885 547 3987 
Q 454 4090 102 4115 
L 102 4237 
z
M 1293 3770 
L 1293 2118 
Q 1510 2099 1683 2099 
Q 2202 2099 2486 2352 
Q 2771 2605 2771 3040 
Q 2771 3558 2476 3779 
Q 2182 4000 1517 4000 
Q 1382 4000 1337 3952 
Q 1293 3904 1293 3770 
z
" transform="scale(0.015625)"/>
       <path id="STIXGeneral-Regular-20" transform="scale(0.015625)"/>
       <path id="STIXGeneral-Regular-3d" d="M 4077 2048 
L 307 2048 
L 307 2470 
L 4077 2470 
L 4077 2048 
z
M 4077 768 
L 307 768 
L 307 1190 
L 4077 1190 
L 4077 768 
z
" transform="scale(0.015625)"/>
       <path id="STIXGeneral-Regular-61" d="M 2829 422 
L 2829 243 
Q 2586 -64 2253 -64 
Q 1888 -64 1843 403 
L 1837 403 
Q 1427 -64 909 -64 
Q 608 -64 422 112 
Q 237 288 237 602 
Q 237 1050 685 1350 
Q 992 1555 1837 1869 
L 1837 2214 
Q 1837 2502 1699 2646 
Q 1562 2790 1338 2790 
Q 1146 2790 1018 2697 
Q 890 2605 890 2477 
Q 890 2419 909 2348 
Q 928 2278 928 2208 
Q 928 2112 841 2029 
Q 755 1946 634 1946 
Q 525 1946 441 2029 
Q 358 2112 358 2240 
Q 358 2547 685 2752 
Q 986 2944 1421 2944 
Q 1939 2944 2176 2656 
Q 2291 2522 2323 2384 
Q 2355 2246 2355 1946 
L 2355 723 
Q 2355 301 2554 301 
Q 2682 301 2829 422 
z
M 1837 813 
L 1837 1715 
Q 1248 1510 1018 1293 
Q 800 1094 800 800 
Q 800 557 921 432 
Q 1043 307 1242 307 
Q 1453 307 1613 410 
Q 1747 506 1792 589 
Q 1837 672 1837 813 
z
" transform="scale(0.015625)"/>
       <path id="STIXGeneral-Regular-74" d="M 1702 493 
L 1786 422 
Q 1478 -64 1011 -64 
Q 448 -64 448 749 
L 448 2675 
L 109 2675 
Q 83 2694 83 2720 
Q 83 2771 192 2842 
Q 435 2982 813 3526 
Q 826 3546 874 3606 
Q 922 3667 941 3706 
Q 986 3706 986 3622 
L 986 2880 
L 1632 2880 
L 1632 2675 
L 986 2675 
L 986 845 
Q 986 538 1062 403 
Q 1139 269 1318 269 
Q 1510 269 1702 493 
z
" transform="scale(0.015625)"/>
       <path id="STIXGeneral-Regular-6d" d="M 4960 0 
L 3565 0 
L 3565 96 
Q 3834 122 3907 208 
Q 3981 294 3981 576 
L 3981 1894 
Q 3981 2278 3869 2444 
Q 3757 2611 3488 2611 
Q 3264 2611 3107 2521 
Q 2950 2432 2803 2221 
L 2803 608 
Q 2803 301 2896 201 
Q 2989 102 3264 96 
L 3264 0 
L 1830 0 
L 1830 96 
Q 2112 115 2189 188 
Q 2266 262 2266 550 
L 2266 1901 
Q 2266 2611 1850 2611 
Q 1670 2611 1468 2531 
Q 1267 2451 1171 2336 
Q 1088 2240 1088 2227 
L 1088 448 
Q 1088 243 1177 176 
Q 1267 109 1523 96 
L 1523 0 
L 102 0 
L 102 96 
Q 371 102 460 195 
Q 550 288 550 563 
L 550 2150 
Q 550 2387 499 2480 
Q 448 2573 326 2573 
Q 230 2573 122 2547 
L 122 2656 
Q 557 2778 1011 2944 
L 1062 2925 
L 1062 2451 
L 1075 2451 
Q 1363 2752 1584 2848 
Q 1805 2944 2054 2944 
Q 2560 2944 2733 2406 
Q 3232 2944 3776 2944 
Q 4518 2944 4518 1792 
L 4518 493 
Q 4518 282 4582 202 
Q 4646 122 4794 109 
L 4960 96 
L 4960 0 
z
" transform="scale(0.015625)"/>
      </defs>
      <use xlink:href="#STIXGeneral-Regular-50"/>
      <use xlink:href="#STIXGeneral-Regular-20" x="55.699997"/>
      <use xlink:href="#STIXGeneral-Regular-3d" x="80.699982"/>
      <use xlink:href="#STIXGeneral-Regular-20" x="149.199966"/>
      <use xlink:href="#STIXGeneral-Regular-30" x="174.199951"/>
      <use xlink:href="#STIXGeneral-Regular-2e" x="224.199936"/>
      <use xlink:href="#STIXGeneral-Regular-31" x="249.199921"/>
      <use xlink:href="#STIXGeneral-Regular-20" x="299.199905"/>
      <use xlink:href="#STIXGeneral-Regular-61" x="324.19989"/>
      <use xlink:href="#STIXGeneral-Regular-74" x="368.599884"/>
      <use xlink:href="#STIXGeneral-Regular-6d" x="396.399872"/>
     </g>
    </g>
    <g id="line2d_53">
     <path d="M 190.8 118.404375 
L 202.8 118.404375 
L 214.8 118.404375 
" style="fill: none; stroke: #0000ff; stroke-width: 2; stroke-linecap: square"/>
    </g>
    <g id="text_26">
     <!-- P = 0.2 atm -->
     <g transform="translate(224.4 122.604375) scale(0.12 -0.12)">
      <use xlink:href="#STIXGeneral-Regular-50"/>
      <use xlink:href="#STIXGeneral-Regular-20" x="55.699997"/>
      <use xlink:href="#STIXGeneral-Regular-3d" x="80.699982"/>
      <use xlink:href="#STIXGeneral-Regular-20" x="149.199966"/>
      <use xlink:href="#STIXGeneral-Regular-30" x="174.199951"/>
      <use xlink:href="#STIXGeneral-Regular-2e" x="224.199936"/>
      <use xlink:href="#STIXGeneral-Regular-32" x="249.199921"/>
      <use xlink:href="#STIXGeneral-Regular-20" x="299.199905"/>
      <use xlink:href="#STIXGeneral-Regular-61" x="324.19989"/>
      <use xlink:href="#STIXGeneral-Regular-74" x="368.599884"/>
      <use xlink:href="#STIXGeneral-Regular-6d" x="396.399872"/>
     </g>
    </g>
    <g id="line2d_54">
     <path d="M 190.8 135.40875 
L 202.8 135.40875 
L 214.8 135.40875 
" style="fill: none; stroke: #00bfbf; stroke-width: 2; stroke-linecap: square"/>
    </g>
    <g id="text_27">
     <!-- P = 0.5 atm -->
     <g transform="translate(224.4 139.60875) scale(0.12 -0.12)">
      <use xlink:href="#STIXGeneral-Regular-50"/>
      <use xlink:href="#STIXGeneral-Regular-20" x="55.699997"/>
      <use xlink:href="#STIXGeneral-Regular-3d" x="80.699982"/>
      <use xlink:href="#STIXGeneral-Regular-20" x="149.199966"/>
      <use xlink:href="#STIXGeneral-Regular-30" x="174.199951"/>
      <use xlink:href="#STIXGeneral-Regular-2e" x="224.199936"/>
      <use xlink:href="#STIXGeneral-Regular-35" x="249.199921"/>
      <use xlink:href="#STIXGeneral-Regular-20" x="299.199905"/>
      <use xlink:href="#STIXGeneral-Regular-61" x="324.19989"/>
      <use xlink:href="#STIXGeneral-Regular-74" x="368.599884"/>
      <use xlink:href="#STIXGeneral-Regular-6d" x="396.399872"/>
     </g>
    </g>
    <g id="line2d_55">
     <path d="M 190.8 152.413125 
L 202.8 152.413125 
L 214.8 152.413125 
" style="fill: none; stroke: #bf00bf; stroke-width: 2; stroke-linecap: square"/>
    </g>
    <g id="text_28">
     <!-- P = 0.7 atm -->
     <g transform="translate(224.4 156.613125) scale(0.12 -0.12)">
      <use xlink:href="#STIXGeneral-Regular-50"/>
      <use xlink:href="#STIXGeneral-Regular-20" x="55.699997"/>
      <use xlink:href="#STIXGeneral-Regular-3d" x="80.699982"/>
      <use xlink:href="#STIXGeneral-Regular-20" x="149.199966"/>
      <use xlink:href="#STIXGeneral-Regular-30" x="174.199951"/>
      <use xlink:href="#STIXGeneral-Regular-2e" x="224.199936"/>
      <use xlink:href="#STIXGeneral-Regular-37" x="249.199921"/>
      <use xlink:href="#STIXGeneral-Regular-20" x="299.199905"/>
      <use xlink:href="#STIXGeneral-Regular-61" x="324.19989"/>
      <use xlink:href="#STIXGeneral-Regular-74" x="368.599884"/>
      <use xlink:href="#STIXGeneral-Regular-6d" x="396.399872"/>
     </g>
    </g>
    <g id="line2d_56">
     <path d="M 190.8 169.4175 
L 202.8 169.4175 
L 214.8 169.4175 
" style="fill: none; stroke: #ff0000; stroke-width: 2; stroke-linecap: square"/>
    </g>
    <g id="text_29">
     <!-- P = 1.0 atm -->
     <g transform="translate(224.4 173.6175) scale(0.12 -0.12)">
      <use xlink:href="#STIXGeneral-Regular-50"/>
      <use xlink:href="#STIXGeneral-Regular-20" x="55.699997"/>
      <use xlink:href="#STIXGeneral-Regular-3d" x="80.699982"/>
      <use xlink:href="#STIXGeneral-Regular-20" x="149.199966"/>
      <use xlink:href="#STIXGeneral-Regular-31" x="174.199951"/>
      <use xlink:href="#STIXGeneral-Regular-2e" x="224.199936"/>
      <use xlink:href="#STIXGeneral-Regular-30" x="249.199921"/>
      <use xlink:href="#STIXGeneral-Regular-20" x="299.199905"/>
      <use xlink:href="#STIXGeneral-Regular-61" x="324.19989"/>
      <use xlink:href="#STIXGeneral-Regular-74" x="368.599884"/>
      <use xlink:href="#STIXGeneral-Regular-6d" x="396.399872"/>
     </g>
    </g>
    <g id="line2d_57">
     <path d="M 190.8 186.421875 
L 202.8 186.421875 
L 214.8 186.421875 
" style="fill: none; stroke: #ffa500; stroke-width: 2; stroke-linecap: square"/>
    </g>
    <g id="text_30">
     <!-- P = 1.2 atm -->
     <g transform="translate(224.4 190.621875) scale(0.12 -0.12)">
      <use xlink:href="#STIXGeneral-Regular-50"/>
      <use xlink:href="#STIXGeneral-Regular-20" x="55.699997"/>
      <use xlink:href="#STIXGeneral-Regular-3d" x="80.699982"/>
      <use xlink:href="#STIXGeneral-Regular-20" x="149.199966"/>
      <use xlink:href="#STIXGeneral-Regular-31" x="174.199951"/>
      <use xlink:href="#STIXGeneral-Regular-2e" x="224.199936"/>
      <use xlink:href="#STIXGeneral-Regular-32" x="249.199921"/>
      <use xlink:href="#STIXGeneral-Regular-20" x="299.199905"/>
      <use xlink:href="#STIXGeneral-Regular-61" x="324.19989"/>
      <use xlink:href="#STIXGeneral-Regular-74" x="368.599884"/>
      <use xlink:href="#STIXGeneral-Regular-6d" x="396.399872"/>
     </g>
    </g>
    <g id="line2d_58">
     <path d="M 190.8 203.42625 
L 202.8 203.42625 
L 214.8 203.42625 
" style="fill: none; stroke: #00ff00; stroke-width: 2; stroke-linecap: square"/>
    </g>
    <g id="text_31">
     <!-- P = 1.5 atm -->
     <g transform="translate(224.4 207.62625) scale(0.12 -0.12)">
      <use xlink:href="#STIXGeneral-Regular-50"/>
      <use xlink:href="#STIXGeneral-Regular-20" x="55.699997"/>
      <use xlink:href="#STIXGeneral-Regular-3d" x="80.699982"/>
      <use xlink:href="#STIXGeneral-Regular-20" x="149.199966"/>
      <use xlink:href="#STIXGeneral-Regular-31" x="174.199951"/>
      <use xlink:href="#STIXGeneral-Regular-2e" x="224.199936"/>
      <use xlink:href="#STIXGeneral-Regular-35" x="249.199921"/>
      <use xlink:href="#STIXGeneral-Regular-20" x="299.199905"/>
      <use xlink:href="#STIXGeneral-Regular-61" x="324.19989"/>
      <use xlink:href="#STIXGeneral-Regular-74" x="368.599884"/>
      <use xlink:href="#STIXGeneral-Regular-6d" x="396.399872"/>
     </g>
    </g>
   </g>
  </g>
 </g>
 <defs>
  <clipPath id="pde924c4f48">
   <rect x="180" y="86.4" width="1116" height="554.4"/>
  </clipPath>
 </defs>
</svg>
