<?xml version="1.0" encoding="utf-8" standalone="no"?>
<!DOCTYPE svg PUBLIC "-//W3C//DTD SVG 1.1//EN"
  "http://www.w3.org/Graphics/SVG/1.1/DTD/svg11.dtd">
<svg xmlns:xlink="http://www.w3.org/1999/xlink" width="241.94375pt" height="190.129247pt" viewBox="0 0 241.94375 190.129247" xmlns="http://www.w3.org/2000/svg" version="1.1">
 <metadata>
  <rdf:RDF xmlns:dc="http://purl.org/dc/elements/1.1/" xmlns:cc="http://creativecommons.org/ns#" xmlns:rdf="http://www.w3.org/1999/02/22-rdf-syntax-ns#">
   <cc:Work>
    <dc:type rdf:resource="http://purl.org/dc/dcmitype/StillImage"/>
    <dc:date>2022-11-17T15:23:48.209335</dc:date>
    <dc:format>image/svg+xml</dc:format>
    <dc:creator>
     <cc:Agent>
      <dc:title>Matplotlib v3.6.2, https://matplotlib.org/</dc:title>
     </cc:Agent>
    </dc:creator>
   </cc:Work>
  </rdf:RDF>
 </metadata>
 <defs>
  <style type="text/css">*{stroke-linejoin: round; stroke-linecap: butt}</style>
 </defs>
 <g id="figure_1">
  <g id="patch_1">
   <path d="M 0 190.129247 
L 241.94375 190.129247 
L 241.94375 0 
L 0 0 
z
" style="fill: #ffffff"/>
  </g>
  <g id="axes_1">
   <g id="patch_2">
    <path d="M 43.04375 159.672997 
L 238.34375 159.672997 
L 238.34375 14.198437 
L 43.04375 14.198437 
z
" style="fill: #ffffff"/>
   </g>
   <g id="matplotlib.axis_1">
    <g id="xtick_1">
     <g id="line2d_1">
      <path d="M 43.04375 159.672997 
L 43.04375 14.198437 
" clip-path="url(#pd3400a81f5)" style="fill: none; stroke-dasharray: 1.85,0.8; stroke-dashoffset: 0; stroke: #000000; stroke-opacity: 0.2; stroke-width: 0.5"/>
     </g>
     <g id="line2d_2">
      <defs>
       <path id="m396f07234f" d="M 0 0 
L 0 -3 
" style="stroke: #000000; stroke-width: 0.5"/>
      </defs>
      <g>
       <use xlink:href="#m396f07234f" x="43.04375" y="159.672997" style="stroke: #000000; stroke-width: 0.5"/>
      </g>
     </g>
     <g id="line2d_3">
      <defs>
       <path id="md68e735f34" d="M 0 0 
L 0 3 
" style="stroke: #000000; stroke-width: 0.5"/>
      </defs>
      <g>
       <use xlink:href="#md68e735f34" x="43.04375" y="14.198437" style="stroke: #000000; stroke-width: 0.5"/>
      </g>
     </g>
     <g id="text_1">
      <!-- 20 -->
      <g transform="translate(36.68125 170.771435) scale(0.1 -0.1)">
       <defs>
        <path id="DejaVuSerif-32" d="M 819 3553 
L 469 3553 
L 469 4384 
Q 803 4563 1142 4656 
Q 1481 4750 1806 4750 
Q 2534 4750 2956 4397 
Q 3378 4044 3378 3438 
Q 3378 2753 2422 1800 
Q 2347 1728 2309 1691 
L 1131 513 
L 3078 513 
L 3078 1088 
L 3444 1088 
L 3444 0 
L 434 0 
L 434 341 
L 1850 1753 
Q 2319 2222 2519 2614 
Q 2719 3006 2719 3438 
Q 2719 3909 2473 4175 
Q 2228 4441 1797 4441 
Q 1350 4441 1106 4219 
Q 863 3997 819 3553 
z
" transform="scale(0.015625)"/>
        <path id="DejaVuSerif-30" d="M 2034 219 
Q 2513 219 2750 744 
Q 2988 1269 2988 2328 
Q 2988 3391 2750 3916 
Q 2513 4441 2034 4441 
Q 1556 4441 1318 3916 
Q 1081 3391 1081 2328 
Q 1081 1269 1318 744 
Q 1556 219 2034 219 
z
M 2034 -91 
Q 1275 -91 848 546 
Q 422 1184 422 2328 
Q 422 3475 848 4112 
Q 1275 4750 2034 4750 
Q 2797 4750 3222 4112 
Q 3647 3475 3647 2328 
Q 3647 1184 3222 546 
Q 2797 -91 2034 -91 
z
" transform="scale(0.015625)"/>
       </defs>
       <use xlink:href="#DejaVuSerif-32"/>
       <use xlink:href="#DejaVuSerif-30" x="63.623047"/>
      </g>
     </g>
    </g>
    <g id="xtick_2">
     <g id="line2d_4">
      <path d="M 98.84375 159.672997 
L 98.84375 14.198437 
" clip-path="url(#pd3400a81f5)" style="fill: none; stroke-dasharray: 1.85,0.8; stroke-dashoffset: 0; stroke: #000000; stroke-opacity: 0.2; stroke-width: 0.5"/>
     </g>
     <g id="line2d_5">
      <g>
       <use xlink:href="#m396f07234f" x="98.84375" y="159.672997" style="stroke: #000000; stroke-width: 0.5"/>
      </g>
     </g>
     <g id="line2d_6">
      <g>
       <use xlink:href="#md68e735f34" x="98.84375" y="14.198437" style="stroke: #000000; stroke-width: 0.5"/>
      </g>
     </g>
     <g id="text_2">
      <!-- 30 -->
      <g transform="translate(92.48125 170.771435) scale(0.1 -0.1)">
       <defs>
        <path id="DejaVuSerif-33" d="M 622 4469 
Q 988 4606 1323 4678 
Q 1659 4750 1953 4750 
Q 2638 4750 3022 4454 
Q 3406 4159 3406 3634 
Q 3406 3213 3140 2930 
Q 2875 2647 2388 2547 
Q 2963 2466 3280 2130 
Q 3597 1794 3597 1259 
Q 3597 606 3158 257 
Q 2719 -91 1894 -91 
Q 1528 -91 1179 -12 
Q 831 66 488 225 
L 488 1131 
L 838 1131 
Q 869 681 1141 450 
Q 1413 219 1906 219 
Q 2384 219 2661 495 
Q 2938 772 2938 1253 
Q 2938 1803 2653 2086 
Q 2369 2369 1819 2369 
L 1522 2369 
L 1522 2688 
L 1678 2688 
Q 2225 2688 2498 2914 
Q 2772 3141 2772 3597 
Q 2772 4006 2547 4223 
Q 2322 4441 1900 4441 
Q 1478 4441 1245 4241 
Q 1013 4041 972 3647 
L 622 3647 
L 622 4469 
z
" transform="scale(0.015625)"/>
       </defs>
       <use xlink:href="#DejaVuSerif-33"/>
       <use xlink:href="#DejaVuSerif-30" x="63.623047"/>
      </g>
     </g>
    </g>
    <g id="xtick_3">
     <g id="line2d_7">
      <path d="M 154.64375 159.672997 
L 154.64375 14.198437 
" clip-path="url(#pd3400a81f5)" style="fill: none; stroke-dasharray: 1.85,0.8; stroke-dashoffset: 0; stroke: #000000; stroke-opacity: 0.2; stroke-width: 0.5"/>
     </g>
     <g id="line2d_8">
      <g>
       <use xlink:href="#m396f07234f" x="154.64375" y="159.672997" style="stroke: #000000; stroke-width: 0.5"/>
      </g>
     </g>
     <g id="line2d_9">
      <g>
       <use xlink:href="#md68e735f34" x="154.64375" y="14.198437" style="stroke: #000000; stroke-width: 0.5"/>
      </g>
     </g>
     <g id="text_3">
      <!-- 40 -->
      <g transform="translate(148.28125 170.771435) scale(0.1 -0.1)">
       <defs>
        <path id="DejaVuSerif-34" d="M 2234 1581 
L 2234 4063 
L 641 1581 
L 2234 1581 
z
M 3609 0 
L 1484 0 
L 1484 331 
L 2234 331 
L 2234 1247 
L 197 1247 
L 197 1588 
L 2241 4750 
L 2859 4750 
L 2859 1581 
L 3750 1581 
L 3750 1247 
L 2859 1247 
L 2859 331 
L 3609 331 
L 3609 0 
z
" transform="scale(0.015625)"/>
       </defs>
       <use xlink:href="#DejaVuSerif-34"/>
       <use xlink:href="#DejaVuSerif-30" x="63.623047"/>
      </g>
     </g>
    </g>
    <g id="xtick_4">
     <g id="line2d_10">
      <path d="M 210.44375 159.672997 
L 210.44375 14.198437 
" clip-path="url(#pd3400a81f5)" style="fill: none; stroke-dasharray: 1.85,0.8; stroke-dashoffset: 0; stroke: #000000; stroke-opacity: 0.2; stroke-width: 0.5"/>
     </g>
     <g id="line2d_11">
      <g>
       <use xlink:href="#m396f07234f" x="210.44375" y="159.672997" style="stroke: #000000; stroke-width: 0.5"/>
      </g>
     </g>
     <g id="line2d_12">
      <g>
       <use xlink:href="#md68e735f34" x="210.44375" y="14.198437" style="stroke: #000000; stroke-width: 0.5"/>
      </g>
     </g>
     <g id="text_4">
      <!-- 50 -->
      <g transform="translate(204.08125 170.771435) scale(0.1 -0.1)">
       <defs>
        <path id="DejaVuSerif-35" d="M 3219 4666 
L 3219 4153 
L 1081 4153 
L 1081 2816 
Q 1244 2928 1461 2984 
Q 1678 3041 1947 3041 
Q 2703 3041 3140 2622 
Q 3578 2203 3578 1478 
Q 3578 738 3136 323 
Q 2694 -91 1894 -91 
Q 1572 -91 1234 -12 
Q 897 66 544 225 
L 544 1131 
L 897 1131 
Q 925 688 1179 453 
Q 1434 219 1894 219 
Q 2388 219 2653 544 
Q 2919 869 2919 1478 
Q 2919 2084 2655 2407 
Q 2391 2731 1894 2731 
Q 1613 2731 1398 2631 
Q 1184 2531 1019 2322 
L 750 2322 
L 750 4666 
L 3219 4666 
z
" transform="scale(0.015625)"/>
       </defs>
       <use xlink:href="#DejaVuSerif-35"/>
       <use xlink:href="#DejaVuSerif-30" x="63.623047"/>
      </g>
     </g>
    </g>
    <g id="xtick_5">
     <g id="line2d_13">
      <defs>
       <path id="m9fd7711caa" d="M 0 0 
L 0 -1.5 
" style="stroke: #000000; stroke-width: 0.5"/>
      </defs>
      <g>
       <use xlink:href="#m9fd7711caa" x="54.20375" y="159.672997" style="stroke: #000000; stroke-width: 0.5"/>
      </g>
     </g>
     <g id="line2d_14">
      <defs>
       <path id="mb683daf377" d="M 0 0 
L 0 1.5 
" style="stroke: #000000; stroke-width: 0.5"/>
      </defs>
      <g>
       <use xlink:href="#mb683daf377" x="54.20375" y="14.198437" style="stroke: #000000; stroke-width: 0.5"/>
      </g>
     </g>
    </g>
    <g id="xtick_6">
     <g id="line2d_15">
      <g>
       <use xlink:href="#m9fd7711caa" x="65.36375" y="159.672997" style="stroke: #000000; stroke-width: 0.5"/>
      </g>
     </g>
     <g id="line2d_16">
      <g>
       <use xlink:href="#mb683daf377" x="65.36375" y="14.198437" style="stroke: #000000; stroke-width: 0.5"/>
      </g>
     </g>
    </g>
    <g id="xtick_7">
     <g id="line2d_17">
      <g>
       <use xlink:href="#m9fd7711caa" x="76.52375" y="159.672997" style="stroke: #000000; stroke-width: 0.5"/>
      </g>
     </g>
     <g id="line2d_18">
      <g>
       <use xlink:href="#mb683daf377" x="76.52375" y="14.198437" style="stroke: #000000; stroke-width: 0.5"/>
      </g>
     </g>
    </g>
    <g id="xtick_8">
     <g id="line2d_19">
      <g>
       <use xlink:href="#m9fd7711caa" x="87.68375" y="159.672997" style="stroke: #000000; stroke-width: 0.5"/>
      </g>
     </g>
     <g id="line2d_20">
      <g>
       <use xlink:href="#mb683daf377" x="87.68375" y="14.198437" style="stroke: #000000; stroke-width: 0.5"/>
      </g>
     </g>
    </g>
    <g id="xtick_9">
     <g id="line2d_21">
      <g>
       <use xlink:href="#m9fd7711caa" x="110.00375" y="159.672997" style="stroke: #000000; stroke-width: 0.5"/>
      </g>
     </g>
     <g id="line2d_22">
      <g>
       <use xlink:href="#mb683daf377" x="110.00375" y="14.198437" style="stroke: #000000; stroke-width: 0.5"/>
      </g>
     </g>
    </g>
    <g id="xtick_10">
     <g id="line2d_23">
      <g>
       <use xlink:href="#m9fd7711caa" x="121.16375" y="159.672997" style="stroke: #000000; stroke-width: 0.5"/>
      </g>
     </g>
     <g id="line2d_24">
      <g>
       <use xlink:href="#mb683daf377" x="121.16375" y="14.198437" style="stroke: #000000; stroke-width: 0.5"/>
      </g>
     </g>
    </g>
    <g id="xtick_11">
     <g id="line2d_25">
      <g>
       <use xlink:href="#m9fd7711caa" x="132.32375" y="159.672997" style="stroke: #000000; stroke-width: 0.5"/>
      </g>
     </g>
     <g id="line2d_26">
      <g>
       <use xlink:href="#mb683daf377" x="132.32375" y="14.198437" style="stroke: #000000; stroke-width: 0.5"/>
      </g>
     </g>
    </g>
    <g id="xtick_12">
     <g id="line2d_27">
      <g>
       <use xlink:href="#m9fd7711caa" x="143.48375" y="159.672997" style="stroke: #000000; stroke-width: 0.5"/>
      </g>
     </g>
     <g id="line2d_28">
      <g>
       <use xlink:href="#mb683daf377" x="143.48375" y="14.198437" style="stroke: #000000; stroke-width: 0.5"/>
      </g>
     </g>
    </g>
    <g id="xtick_13">
     <g id="line2d_29">
      <g>
       <use xlink:href="#m9fd7711caa" x="165.80375" y="159.672997" style="stroke: #000000; stroke-width: 0.5"/>
      </g>
     </g>
     <g id="line2d_30">
      <g>
       <use xlink:href="#mb683daf377" x="165.80375" y="14.198437" style="stroke: #000000; stroke-width: 0.5"/>
      </g>
     </g>
    </g>
    <g id="xtick_14">
     <g id="line2d_31">
      <g>
       <use xlink:href="#m9fd7711caa" x="176.96375" y="159.672997" style="stroke: #000000; stroke-width: 0.5"/>
      </g>
     </g>
     <g id="line2d_32">
      <g>
       <use xlink:href="#mb683daf377" x="176.96375" y="14.198437" style="stroke: #000000; stroke-width: 0.5"/>
      </g>
     </g>
    </g>
    <g id="xtick_15">
     <g id="line2d_33">
      <g>
       <use xlink:href="#m9fd7711caa" x="188.12375" y="159.672997" style="stroke: #000000; stroke-width: 0.5"/>
      </g>
     </g>
     <g id="line2d_34">
      <g>
       <use xlink:href="#mb683daf377" x="188.12375" y="14.198437" style="stroke: #000000; stroke-width: 0.5"/>
      </g>
     </g>
    </g>
    <g id="xtick_16">
     <g id="line2d_35">
      <g>
       <use xlink:href="#m9fd7711caa" x="199.28375" y="159.672997" style="stroke: #000000; stroke-width: 0.5"/>
      </g>
     </g>
     <g id="line2d_36">
      <g>
       <use xlink:href="#mb683daf377" x="199.28375" y="14.198437" style="stroke: #000000; stroke-width: 0.5"/>
      </g>
     </g>
    </g>
    <g id="xtick_17">
     <g id="line2d_37">
      <g>
       <use xlink:href="#m9fd7711caa" x="221.60375" y="159.672997" style="stroke: #000000; stroke-width: 0.5"/>
      </g>
     </g>
     <g id="line2d_38">
      <g>
       <use xlink:href="#mb683daf377" x="221.60375" y="14.198437" style="stroke: #000000; stroke-width: 0.5"/>
      </g>
     </g>
    </g>
    <g id="xtick_18">
     <g id="line2d_39">
      <g>
       <use xlink:href="#m9fd7711caa" x="232.76375" y="159.672997" style="stroke: #000000; stroke-width: 0.5"/>
      </g>
     </g>
     <g id="line2d_40">
      <g>
       <use xlink:href="#mb683daf377" x="232.76375" y="14.198437" style="stroke: #000000; stroke-width: 0.5"/>
      </g>
     </g>
    </g>
    <g id="text_5">
     <!-- $\mathrm{T\,[°C]}$ -->
     <g transform="translate(126.29375 184.44956) scale(0.1 -0.1)">
      <defs>
       <path id="DejaVuSerif-54" d="M 1222 0 
L 1222 331 
L 1819 331 
L 1819 4294 
L 447 4294 
L 447 3566 
L 63 3566 
L 63 4666 
L 4206 4666 
L 4206 3566 
L 3822 3566 
L 3822 4294 
L 2450 4294 
L 2450 331 
L 3047 331 
L 3047 0 
L 1222 0 
z
" transform="scale(0.015625)"/>
       <path id="DejaVuSerif-5b" d="M 550 4863 
L 2003 4863 
L 2003 4531 
L 1147 4531 
L 1147 -513 
L 2003 -513 
L 2003 -844 
L 550 -844 
L 550 4863 
z
" transform="scale(0.015625)"/>
       <path id="DejaVuSerif-b0" d="M 1600 4319 
Q 1363 4319 1200 4155 
Q 1038 3991 1038 3750 
Q 1038 3513 1198 3353 
Q 1359 3194 1600 3194 
Q 1838 3194 2000 3355 
Q 2163 3516 2163 3750 
Q 2163 3984 1997 4151 
Q 1831 4319 1600 4319 
z
M 1600 4750 
Q 1800 4750 1984 4673 
Q 2169 4597 2303 4453 
Q 2447 4313 2519 4134 
Q 2591 3956 2591 3750 
Q 2591 3338 2302 3052 
Q 2013 2766 1594 2766 
Q 1172 2766 890 3047 
Q 609 3328 609 3750 
Q 609 4169 896 4459 
Q 1184 4750 1600 4750 
z
" transform="scale(0.015625)"/>
       <path id="DejaVuSerif-43" d="M 4513 1234 
Q 4306 581 3820 245 
Q 3334 -91 2591 -91 
Q 2134 -91 1743 65 
Q 1353 222 1050 525 
Q 700 875 529 1320 
Q 359 1766 359 2328 
Q 359 3416 987 4083 
Q 1616 4750 2644 4750 
Q 3025 4750 3456 4650 
Q 3888 4550 4384 4347 
L 4384 3272 
L 4031 3272 
Q 3916 3859 3567 4137 
Q 3219 4416 2591 4416 
Q 1844 4416 1459 3886 
Q 1075 3356 1075 2328 
Q 1075 1303 1459 773 
Q 1844 244 2591 244 
Q 3113 244 3450 492 
Q 3788 741 3938 1234 
L 4513 1234 
z
" transform="scale(0.015625)"/>
       <path id="DejaVuSerif-5d" d="M 1947 4863 
L 1947 -844 
L 494 -844 
L 494 -513 
L 1350 -513 
L 1350 4531 
L 494 4531 
L 494 4863 
L 1947 4863 
z
" transform="scale(0.015625)"/>
      </defs>
      <use xlink:href="#DejaVuSerif-54" transform="translate(0 0.015625)"/>
      <use xlink:href="#DejaVuSerif-5b" transform="translate(82.503571 0.015625)"/>
      <use xlink:href="#DejaVuSerif-b0" transform="translate(121.517243 0.015625)"/>
      <use xlink:href="#DejaVuSerif-43" transform="translate(171.517243 0.015625)"/>
      <use xlink:href="#DejaVuSerif-5d" transform="translate(248.030915 0.015625)"/>
     </g>
    </g>
   </g>
   <g id="matplotlib.axis_2">
    <g id="ytick_1">
     <g id="line2d_41">
      <path d="M 43.04375 142.558343 
L 238.34375 142.558343 
" clip-path="url(#pd3400a81f5)" style="fill: none; stroke-dasharray: 1.85,0.8; stroke-dashoffset: 0; stroke: #000000; stroke-opacity: 0.2; stroke-width: 0.5"/>
     </g>
     <g id="line2d_42">
      <defs>
       <path id="m41e8694f15" d="M 0 0 
L 3 0 
" style="stroke: #000000; stroke-width: 0.5"/>
      </defs>
      <g>
       <use xlink:href="#m41e8694f15" x="43.04375" y="142.558343" style="stroke: #000000; stroke-width: 0.5"/>
      </g>
     </g>
     <g id="line2d_43">
      <defs>
       <path id="m4f349091fb" d="M 0 0 
L -3 0 
" style="stroke: #000000; stroke-width: 0.5"/>
      </defs>
      <g>
       <use xlink:href="#m4f349091fb" x="238.34375" y="142.558343" style="stroke: #000000; stroke-width: 0.5"/>
      </g>
     </g>
     <g id="text_6">
      <!-- 0.50 -->
      <g transform="translate(17.278125 146.357562) scale(0.1 -0.1)">
       <defs>
        <path id="DejaVuSerif-2e" d="M 603 325 
Q 603 500 722 622 
Q 841 744 1019 744 
Q 1191 744 1312 622 
Q 1434 500 1434 325 
Q 1434 153 1312 31 
Q 1191 -91 1019 -91 
Q 841 -91 722 29 
Q 603 150 603 325 
z
" transform="scale(0.015625)"/>
       </defs>
       <use xlink:href="#DejaVuSerif-30"/>
       <use xlink:href="#DejaVuSerif-2e" x="63.623047"/>
       <use xlink:href="#DejaVuSerif-35" x="95.410156"/>
       <use xlink:href="#DejaVuSerif-30" x="159.033203"/>
      </g>
     </g>
    </g>
    <g id="ytick_2">
     <g id="line2d_44">
      <path d="M 43.04375 121.165026 
L 238.34375 121.165026 
" clip-path="url(#pd3400a81f5)" style="fill: none; stroke-dasharray: 1.85,0.8; stroke-dashoffset: 0; stroke: #000000; stroke-opacity: 0.2; stroke-width: 0.5"/>
     </g>
     <g id="line2d_45">
      <g>
       <use xlink:href="#m41e8694f15" x="43.04375" y="121.165026" style="stroke: #000000; stroke-width: 0.5"/>
      </g>
     </g>
     <g id="line2d_46">
      <g>
       <use xlink:href="#m4f349091fb" x="238.34375" y="121.165026" style="stroke: #000000; stroke-width: 0.5"/>
      </g>
     </g>
     <g id="text_7">
      <!-- 0.75 -->
      <g transform="translate(17.278125 124.964244) scale(0.1 -0.1)">
       <defs>
        <path id="DejaVuSerif-37" d="M 3609 4347 
L 1784 0 
L 1319 0 
L 3059 4153 
L 903 4153 
L 903 3578 
L 538 3578 
L 538 4666 
L 3609 4666 
L 3609 4347 
z
" transform="scale(0.015625)"/>
       </defs>
       <use xlink:href="#DejaVuSerif-30"/>
       <use xlink:href="#DejaVuSerif-2e" x="63.623047"/>
       <use xlink:href="#DejaVuSerif-37" x="95.410156"/>
       <use xlink:href="#DejaVuSerif-35" x="159.033203"/>
      </g>
     </g>
    </g>
    <g id="ytick_3">
     <g id="line2d_47">
      <path d="M 43.04375 99.771708 
L 238.34375 99.771708 
" clip-path="url(#pd3400a81f5)" style="fill: none; stroke-dasharray: 1.85,0.8; stroke-dashoffset: 0; stroke: #000000; stroke-opacity: 0.2; stroke-width: 0.5"/>
     </g>
     <g id="line2d_48">
      <g>
       <use xlink:href="#m41e8694f15" x="43.04375" y="99.771708" style="stroke: #000000; stroke-width: 0.5"/>
      </g>
     </g>
     <g id="line2d_49">
      <g>
       <use xlink:href="#m4f349091fb" x="238.34375" y="99.771708" style="stroke: #000000; stroke-width: 0.5"/>
      </g>
     </g>
     <g id="text_8">
      <!-- 1.00 -->
      <g transform="translate(17.278125 103.570927) scale(0.1 -0.1)">
       <defs>
        <path id="DejaVuSerif-31" d="M 909 0 
L 909 331 
L 1722 331 
L 1722 4213 
L 781 3603 
L 781 4013 
L 1919 4750 
L 2350 4750 
L 2350 331 
L 3163 331 
L 3163 0 
L 909 0 
z
" transform="scale(0.015625)"/>
       </defs>
       <use xlink:href="#DejaVuSerif-31"/>
       <use xlink:href="#DejaVuSerif-2e" x="63.623047"/>
       <use xlink:href="#DejaVuSerif-30" x="95.410156"/>
       <use xlink:href="#DejaVuSerif-30" x="159.033203"/>
      </g>
     </g>
    </g>
    <g id="ytick_4">
     <g id="line2d_50">
      <path d="M 43.04375 78.37839 
L 238.34375 78.37839 
" clip-path="url(#pd3400a81f5)" style="fill: none; stroke-dasharray: 1.85,0.8; stroke-dashoffset: 0; stroke: #000000; stroke-opacity: 0.2; stroke-width: 0.5"/>
     </g>
     <g id="line2d_51">
      <g>
       <use xlink:href="#m41e8694f15" x="43.04375" y="78.37839" style="stroke: #000000; stroke-width: 0.5"/>
      </g>
     </g>
     <g id="line2d_52">
      <g>
       <use xlink:href="#m4f349091fb" x="238.34375" y="78.37839" style="stroke: #000000; stroke-width: 0.5"/>
      </g>
     </g>
     <g id="text_9">
      <!-- 1.25 -->
      <g transform="translate(17.278125 82.177609) scale(0.1 -0.1)">
       <use xlink:href="#DejaVuSerif-31"/>
       <use xlink:href="#DejaVuSerif-2e" x="63.623047"/>
       <use xlink:href="#DejaVuSerif-32" x="95.410156"/>
       <use xlink:href="#DejaVuSerif-35" x="159.033203"/>
      </g>
     </g>
    </g>
    <g id="ytick_5">
     <g id="line2d_53">
      <path d="M 43.04375 56.985073 
L 238.34375 56.985073 
" clip-path="url(#pd3400a81f5)" style="fill: none; stroke-dasharray: 1.85,0.8; stroke-dashoffset: 0; stroke: #000000; stroke-opacity: 0.2; stroke-width: 0.5"/>
     </g>
     <g id="line2d_54">
      <g>
       <use xlink:href="#m41e8694f15" x="43.04375" y="56.985073" style="stroke: #000000; stroke-width: 0.5"/>
      </g>
     </g>
     <g id="line2d_55">
      <g>
       <use xlink:href="#m4f349091fb" x="238.34375" y="56.985073" style="stroke: #000000; stroke-width: 0.5"/>
      </g>
     </g>
     <g id="text_10">
      <!-- 1.50 -->
      <g transform="translate(17.278125 60.784292) scale(0.1 -0.1)">
       <use xlink:href="#DejaVuSerif-31"/>
       <use xlink:href="#DejaVuSerif-2e" x="63.623047"/>
       <use xlink:href="#DejaVuSerif-35" x="95.410156"/>
       <use xlink:href="#DejaVuSerif-30" x="159.033203"/>
      </g>
     </g>
    </g>
    <g id="ytick_6">
     <g id="line2d_56">
      <path d="M 43.04375 35.591755 
L 238.34375 35.591755 
" clip-path="url(#pd3400a81f5)" style="fill: none; stroke-dasharray: 1.85,0.8; stroke-dashoffset: 0; stroke: #000000; stroke-opacity: 0.2; stroke-width: 0.5"/>
     </g>
     <g id="line2d_57">
      <g>
       <use xlink:href="#m41e8694f15" x="43.04375" y="35.591755" style="stroke: #000000; stroke-width: 0.5"/>
      </g>
     </g>
     <g id="line2d_58">
      <g>
       <use xlink:href="#m4f349091fb" x="238.34375" y="35.591755" style="stroke: #000000; stroke-width: 0.5"/>
      </g>
     </g>
     <g id="text_11">
      <!-- 1.75 -->
      <g transform="translate(17.278125 39.390974) scale(0.1 -0.1)">
       <use xlink:href="#DejaVuSerif-31"/>
       <use xlink:href="#DejaVuSerif-2e" x="63.623047"/>
       <use xlink:href="#DejaVuSerif-37" x="95.410156"/>
       <use xlink:href="#DejaVuSerif-35" x="159.033203"/>
      </g>
     </g>
    </g>
    <g id="ytick_7">
     <g id="line2d_59">
      <path d="M 43.04375 14.198437 
L 238.34375 14.198437 
" clip-path="url(#pd3400a81f5)" style="fill: none; stroke-dasharray: 1.85,0.8; stroke-dashoffset: 0; stroke: #000000; stroke-opacity: 0.2; stroke-width: 0.5"/>
     </g>
     <g id="line2d_60">
      <g>
       <use xlink:href="#m41e8694f15" x="43.04375" y="14.198437" style="stroke: #000000; stroke-width: 0.5"/>
      </g>
     </g>
     <g id="line2d_61">
      <g>
       <use xlink:href="#m4f349091fb" x="238.34375" y="14.198437" style="stroke: #000000; stroke-width: 0.5"/>
      </g>
     </g>
     <g id="text_12">
      <!-- 2.00 -->
      <g transform="translate(17.278125 17.997656) scale(0.1 -0.1)">
       <use xlink:href="#DejaVuSerif-32"/>
       <use xlink:href="#DejaVuSerif-2e" x="63.623047"/>
       <use xlink:href="#DejaVuSerif-30" x="95.410156"/>
       <use xlink:href="#DejaVuSerif-30" x="159.033203"/>
      </g>
     </g>
    </g>
    <g id="ytick_8">
     <g id="line2d_62">
      <defs>
       <path id="m0a08a99673" d="M 0 0 
L 1.5 0 
" style="stroke: #000000; stroke-width: 0.5"/>
      </defs>
      <g>
       <use xlink:href="#m0a08a99673" x="43.04375" y="155.394334" style="stroke: #000000; stroke-width: 0.5"/>
      </g>
     </g>
     <g id="line2d_63">
      <defs>
       <path id="me7e607d755" d="M 0 0 
L -1.5 0 
" style="stroke: #000000; stroke-width: 0.5"/>
      </defs>
      <g>
       <use xlink:href="#me7e607d755" x="238.34375" y="155.394334" style="stroke: #000000; stroke-width: 0.5"/>
      </g>
     </g>
    </g>
    <g id="ytick_9">
     <g id="line2d_64">
      <g>
       <use xlink:href="#m0a08a99673" x="43.04375" y="151.11567" style="stroke: #000000; stroke-width: 0.5"/>
      </g>
     </g>
     <g id="line2d_65">
      <g>
       <use xlink:href="#me7e607d755" x="238.34375" y="151.11567" style="stroke: #000000; stroke-width: 0.5"/>
      </g>
     </g>
    </g>
    <g id="ytick_10">
     <g id="line2d_66">
      <g>
       <use xlink:href="#m0a08a99673" x="43.04375" y="146.837007" style="stroke: #000000; stroke-width: 0.5"/>
      </g>
     </g>
     <g id="line2d_67">
      <g>
       <use xlink:href="#me7e607d755" x="238.34375" y="146.837007" style="stroke: #000000; stroke-width: 0.5"/>
      </g>
     </g>
    </g>
    <g id="ytick_11">
     <g id="line2d_68">
      <g>
       <use xlink:href="#m0a08a99673" x="43.04375" y="138.27968" style="stroke: #000000; stroke-width: 0.5"/>
      </g>
     </g>
     <g id="line2d_69">
      <g>
       <use xlink:href="#me7e607d755" x="238.34375" y="138.27968" style="stroke: #000000; stroke-width: 0.5"/>
      </g>
     </g>
    </g>
    <g id="ytick_12">
     <g id="line2d_70">
      <g>
       <use xlink:href="#m0a08a99673" x="43.04375" y="134.001016" style="stroke: #000000; stroke-width: 0.5"/>
      </g>
     </g>
     <g id="line2d_71">
      <g>
       <use xlink:href="#me7e607d755" x="238.34375" y="134.001016" style="stroke: #000000; stroke-width: 0.5"/>
      </g>
     </g>
    </g>
    <g id="ytick_13">
     <g id="line2d_72">
      <g>
       <use xlink:href="#m0a08a99673" x="43.04375" y="129.722353" style="stroke: #000000; stroke-width: 0.5"/>
      </g>
     </g>
     <g id="line2d_73">
      <g>
       <use xlink:href="#me7e607d755" x="238.34375" y="129.722353" style="stroke: #000000; stroke-width: 0.5"/>
      </g>
     </g>
    </g>
    <g id="ytick_14">
     <g id="line2d_74">
      <g>
       <use xlink:href="#m0a08a99673" x="43.04375" y="125.443689" style="stroke: #000000; stroke-width: 0.5"/>
      </g>
     </g>
     <g id="line2d_75">
      <g>
       <use xlink:href="#me7e607d755" x="238.34375" y="125.443689" style="stroke: #000000; stroke-width: 0.5"/>
      </g>
     </g>
    </g>
    <g id="ytick_15">
     <g id="line2d_76">
      <g>
       <use xlink:href="#m0a08a99673" x="43.04375" y="116.886362" style="stroke: #000000; stroke-width: 0.5"/>
      </g>
     </g>
     <g id="line2d_77">
      <g>
       <use xlink:href="#me7e607d755" x="238.34375" y="116.886362" style="stroke: #000000; stroke-width: 0.5"/>
      </g>
     </g>
    </g>
    <g id="ytick_16">
     <g id="line2d_78">
      <g>
       <use xlink:href="#m0a08a99673" x="43.04375" y="112.607699" style="stroke: #000000; stroke-width: 0.5"/>
      </g>
     </g>
     <g id="line2d_79">
      <g>
       <use xlink:href="#me7e607d755" x="238.34375" y="112.607699" style="stroke: #000000; stroke-width: 0.5"/>
      </g>
     </g>
    </g>
    <g id="ytick_17">
     <g id="line2d_80">
      <g>
       <use xlink:href="#m0a08a99673" x="43.04375" y="108.329035" style="stroke: #000000; stroke-width: 0.5"/>
      </g>
     </g>
     <g id="line2d_81">
      <g>
       <use xlink:href="#me7e607d755" x="238.34375" y="108.329035" style="stroke: #000000; stroke-width: 0.5"/>
      </g>
     </g>
    </g>
    <g id="ytick_18">
     <g id="line2d_82">
      <g>
       <use xlink:href="#m0a08a99673" x="43.04375" y="104.050372" style="stroke: #000000; stroke-width: 0.5"/>
      </g>
     </g>
     <g id="line2d_83">
      <g>
       <use xlink:href="#me7e607d755" x="238.34375" y="104.050372" style="stroke: #000000; stroke-width: 0.5"/>
      </g>
     </g>
    </g>
    <g id="ytick_19">
     <g id="line2d_84">
      <g>
       <use xlink:href="#m0a08a99673" x="43.04375" y="95.493045" style="stroke: #000000; stroke-width: 0.5"/>
      </g>
     </g>
     <g id="line2d_85">
      <g>
       <use xlink:href="#me7e607d755" x="238.34375" y="95.493045" style="stroke: #000000; stroke-width: 0.5"/>
      </g>
     </g>
    </g>
    <g id="ytick_20">
     <g id="line2d_86">
      <g>
       <use xlink:href="#m0a08a99673" x="43.04375" y="91.214381" style="stroke: #000000; stroke-width: 0.5"/>
      </g>
     </g>
     <g id="line2d_87">
      <g>
       <use xlink:href="#me7e607d755" x="238.34375" y="91.214381" style="stroke: #000000; stroke-width: 0.5"/>
      </g>
     </g>
    </g>
    <g id="ytick_21">
     <g id="line2d_88">
      <g>
       <use xlink:href="#m0a08a99673" x="43.04375" y="86.935717" style="stroke: #000000; stroke-width: 0.5"/>
      </g>
     </g>
     <g id="line2d_89">
      <g>
       <use xlink:href="#me7e607d755" x="238.34375" y="86.935717" style="stroke: #000000; stroke-width: 0.5"/>
      </g>
     </g>
    </g>
    <g id="ytick_22">
     <g id="line2d_90">
      <g>
       <use xlink:href="#m0a08a99673" x="43.04375" y="82.657054" style="stroke: #000000; stroke-width: 0.5"/>
      </g>
     </g>
     <g id="line2d_91">
      <g>
       <use xlink:href="#me7e607d755" x="238.34375" y="82.657054" style="stroke: #000000; stroke-width: 0.5"/>
      </g>
     </g>
    </g>
    <g id="ytick_23">
     <g id="line2d_92">
      <g>
       <use xlink:href="#m0a08a99673" x="43.04375" y="74.099727" style="stroke: #000000; stroke-width: 0.5"/>
      </g>
     </g>
     <g id="line2d_93">
      <g>
       <use xlink:href="#me7e607d755" x="238.34375" y="74.099727" style="stroke: #000000; stroke-width: 0.5"/>
      </g>
     </g>
    </g>
    <g id="ytick_24">
     <g id="line2d_94">
      <g>
       <use xlink:href="#m0a08a99673" x="43.04375" y="69.821063" style="stroke: #000000; stroke-width: 0.5"/>
      </g>
     </g>
     <g id="line2d_95">
      <g>
       <use xlink:href="#me7e607d755" x="238.34375" y="69.821063" style="stroke: #000000; stroke-width: 0.5"/>
      </g>
     </g>
    </g>
    <g id="ytick_25">
     <g id="line2d_96">
      <g>
       <use xlink:href="#m0a08a99673" x="43.04375" y="65.5424" style="stroke: #000000; stroke-width: 0.5"/>
      </g>
     </g>
     <g id="line2d_97">
      <g>
       <use xlink:href="#me7e607d755" x="238.34375" y="65.5424" style="stroke: #000000; stroke-width: 0.5"/>
      </g>
     </g>
    </g>
    <g id="ytick_26">
     <g id="line2d_98">
      <g>
       <use xlink:href="#m0a08a99673" x="43.04375" y="61.263736" style="stroke: #000000; stroke-width: 0.5"/>
      </g>
     </g>
     <g id="line2d_99">
      <g>
       <use xlink:href="#me7e607d755" x="238.34375" y="61.263736" style="stroke: #000000; stroke-width: 0.5"/>
      </g>
     </g>
    </g>
    <g id="ytick_27">
     <g id="line2d_100">
      <g>
       <use xlink:href="#m0a08a99673" x="43.04375" y="52.706409" style="stroke: #000000; stroke-width: 0.5"/>
      </g>
     </g>
     <g id="line2d_101">
      <g>
       <use xlink:href="#me7e607d755" x="238.34375" y="52.706409" style="stroke: #000000; stroke-width: 0.5"/>
      </g>
     </g>
    </g>
    <g id="ytick_28">
     <g id="line2d_102">
      <g>
       <use xlink:href="#m0a08a99673" x="43.04375" y="48.427746" style="stroke: #000000; stroke-width: 0.5"/>
      </g>
     </g>
     <g id="line2d_103">
      <g>
       <use xlink:href="#me7e607d755" x="238.34375" y="48.427746" style="stroke: #000000; stroke-width: 0.5"/>
      </g>
     </g>
    </g>
    <g id="ytick_29">
     <g id="line2d_104">
      <g>
       <use xlink:href="#m0a08a99673" x="43.04375" y="44.149082" style="stroke: #000000; stroke-width: 0.5"/>
      </g>
     </g>
     <g id="line2d_105">
      <g>
       <use xlink:href="#me7e607d755" x="238.34375" y="44.149082" style="stroke: #000000; stroke-width: 0.5"/>
      </g>
     </g>
    </g>
    <g id="ytick_30">
     <g id="line2d_106">
      <g>
       <use xlink:href="#m0a08a99673" x="43.04375" y="39.870419" style="stroke: #000000; stroke-width: 0.5"/>
      </g>
     </g>
     <g id="line2d_107">
      <g>
       <use xlink:href="#me7e607d755" x="238.34375" y="39.870419" style="stroke: #000000; stroke-width: 0.5"/>
      </g>
     </g>
    </g>
    <g id="ytick_31">
     <g id="line2d_108">
      <g>
       <use xlink:href="#m0a08a99673" x="43.04375" y="31.313092" style="stroke: #000000; stroke-width: 0.5"/>
      </g>
     </g>
     <g id="line2d_109">
      <g>
       <use xlink:href="#me7e607d755" x="238.34375" y="31.313092" style="stroke: #000000; stroke-width: 0.5"/>
      </g>
     </g>
    </g>
    <g id="ytick_32">
     <g id="line2d_110">
      <g>
       <use xlink:href="#m0a08a99673" x="43.04375" y="27.034428" style="stroke: #000000; stroke-width: 0.5"/>
      </g>
     </g>
     <g id="line2d_111">
      <g>
       <use xlink:href="#me7e607d755" x="238.34375" y="27.034428" style="stroke: #000000; stroke-width: 0.5"/>
      </g>
     </g>
    </g>
    <g id="ytick_33">
     <g id="line2d_112">
      <g>
       <use xlink:href="#m0a08a99673" x="43.04375" y="22.755765" style="stroke: #000000; stroke-width: 0.5"/>
      </g>
     </g>
     <g id="line2d_113">
      <g>
       <use xlink:href="#me7e607d755" x="238.34375" y="22.755765" style="stroke: #000000; stroke-width: 0.5"/>
      </g>
     </g>
    </g>
    <g id="ytick_34">
     <g id="line2d_114">
      <g>
       <use xlink:href="#m0a08a99673" x="43.04375" y="18.477101" style="stroke: #000000; stroke-width: 0.5"/>
      </g>
     </g>
     <g id="line2d_115">
      <g>
       <use xlink:href="#me7e607d755" x="238.34375" y="18.477101" style="stroke: #000000; stroke-width: 0.5"/>
      </g>
     </g>
    </g>
    <g id="text_13">
     <!-- $\mathrm{\alpha\,[- -]}$ -->
     <g transform="translate(11.198438 105.285717) rotate(-90) scale(0.1 -0.1)">
      <defs>
       <path id="DejaVuSerif-3b1" d="M 2763 819 
L 2638 472 
Q 2541 203 2244 31 
Q 2050 -81 1706 -78 
Q 1091 -72 706 406 
Q 319 894 319 1675 
Q 319 2441 706 2941 
Q 1072 3413 1844 3409 
Q 2375 3409 2644 3200 
Q 2881 3016 2972 2613 
L 2997 2497 
L 3119 2844 
Q 3231 3172 3553 3334 
L 3869 3334 
L 3869 3150 
Q 3569 3056 3463 2763 
L 3138 1875 
L 3356 919 
Q 3469 428 3588 375 
Q 3759 297 4150 531 
L 4150 153 
Q 3516 -213 3069 169 
Q 2866 344 2809 597 
L 2763 819 
z
M 2628 1431 
L 2431 2350 
Q 2275 3081 1850 3084 
Q 1491 3088 1219 2703 
Q 991 2388 991 1663 
Q 991 975 1219 622 
Q 1463 238 1884 269 
Q 2244 297 2503 1063 
L 2628 1431 
z
" transform="scale(0.015625)"/>
       <path id="DejaVuSerif-2212" d="M 678 2259 
L 4684 2259 
L 4684 1753 
L 678 1753 
L 678 2259 
z
" transform="scale(0.015625)"/>
      </defs>
      <use xlink:href="#DejaVuSerif-3b1" transform="translate(0 0.015625)"/>
      <use xlink:href="#DejaVuSerif-5b" transform="translate(83.333649 0.015625)"/>
      <use xlink:href="#DejaVuSerif-2212" transform="translate(122.347321 0.015625)"/>
      <use xlink:href="#DejaVuSerif-2212" transform="translate(225.101228 0.015625)"/>
      <use xlink:href="#DejaVuSerif-5d" transform="translate(327.855134 0.015625)"/>
     </g>
    </g>
    <g id="text_14">
     <!-- 1e−2 -->
     <g transform="translate(43.04375 11.198437) scale(0.1 -0.1)">
      <defs>
       <path id="DejaVuSerif-65" d="M 3469 1600 
L 991 1600 
L 991 1575 
Q 991 903 1244 561 
Q 1497 219 1991 219 
Q 2369 219 2611 417 
Q 2853 616 2950 1006 
L 3413 1006 
Q 3275 459 2904 184 
Q 2534 -91 1931 -91 
Q 1203 -91 761 389 
Q 319 869 319 1663 
Q 319 2450 753 2931 
Q 1188 3413 1894 3413 
Q 2647 3413 3050 2948 
Q 3453 2484 3469 1600 
z
M 2791 1931 
Q 2772 2513 2545 2808 
Q 2319 3103 1894 3103 
Q 1497 3103 1269 2806 
Q 1041 2509 991 1931 
L 2791 1931 
z
" transform="scale(0.015625)"/>
      </defs>
      <use xlink:href="#DejaVuSerif-31"/>
      <use xlink:href="#DejaVuSerif-65" x="63.623047"/>
      <use xlink:href="#DejaVuSerif-2212" x="122.802734"/>
      <use xlink:href="#DejaVuSerif-32" x="206.591797"/>
     </g>
    </g>
   </g>
   <g id="line2d_116">
    <path d="M 43.04375 109.787732 
L 70.94375 104.553705 
L 98.84375 98.013216 
L 126.74375 89.292352 
L 154.64375 76.880275 
L 182.54375 57.640478 
L 210.44375 24.394749 
L 220.467428 -1 
" clip-path="url(#pd3400a81f5)" style="fill: none; stroke: #0c5da5; stroke-width: 0.75; stroke-linecap: square"/>
    <defs>
     <path id="m6901291abc" d="M 0 1 
C 0.265203 1 0.51958 0.894634 0.707107 0.707107 
C 0.894634 0.51958 1 0.265203 1 0 
C 1 -0.265203 0.894634 -0.51958 0.707107 -0.707107 
C 0.51958 -0.894634 0.265203 -1 0 -1 
C -0.265203 -1 -0.51958 -0.894634 -0.707107 -0.707107 
C -0.894634 -0.51958 -1 -0.265203 -1 0 
C -1 0.265203 -0.894634 0.51958 -0.707107 0.707107 
C -0.51958 0.894634 -0.265203 1 0 1 
z
" style="stroke: #0c5da5"/>
    </defs>
    <g clip-path="url(#pd3400a81f5)">
     <use xlink:href="#m6901291abc" x="43.04375" y="109.787732" style="fill: #0c5da5; stroke: #0c5da5"/>
     <use xlink:href="#m6901291abc" x="70.94375" y="104.553705" style="fill: #0c5da5; stroke: #0c5da5"/>
     <use xlink:href="#m6901291abc" x="98.84375" y="98.013216" style="fill: #0c5da5; stroke: #0c5da5"/>
     <use xlink:href="#m6901291abc" x="126.74375" y="89.292352" style="fill: #0c5da5; stroke: #0c5da5"/>
     <use xlink:href="#m6901291abc" x="154.64375" y="76.880275" style="fill: #0c5da5; stroke: #0c5da5"/>
     <use xlink:href="#m6901291abc" x="182.54375" y="57.640478" style="fill: #0c5da5; stroke: #0c5da5"/>
     <use xlink:href="#m6901291abc" x="210.44375" y="24.394749" style="fill: #0c5da5; stroke: #0c5da5"/>
     <use xlink:href="#m6901291abc" x="220.467428" y="-1" style="fill: #0c5da5; stroke: #0c5da5"/>
    </g>
   </g>
   <g id="line2d_117">
    <path d="M 43.04375 121.633152 
L 70.94375 117.281663 
L 98.84375 112.653969 
L 126.74375 107.415524 
L 154.64375 101.014022 
L 182.54375 92.805262 
L 210.44375 81.534528 
L 238.34375 64.924644 
" clip-path="url(#pd3400a81f5)" style="fill: none; stroke: #00b945; stroke-width: 0.75; stroke-linecap: square"/>
    <defs>
     <path id="m418b3d0421" d="M 0 -1 
L -1 1 
L 1 1 
z
" style="stroke: #00b945; stroke-linejoin: miter"/>
    </defs>
    <g clip-path="url(#pd3400a81f5)">
     <use xlink:href="#m418b3d0421" x="43.04375" y="121.633152" style="fill: #00b945; stroke: #00b945; stroke-linejoin: miter"/>
     <use xlink:href="#m418b3d0421" x="70.94375" y="117.281663" style="fill: #00b945; stroke: #00b945; stroke-linejoin: miter"/>
     <use xlink:href="#m418b3d0421" x="98.84375" y="112.653969" style="fill: #00b945; stroke: #00b945; stroke-linejoin: miter"/>
     <use xlink:href="#m418b3d0421" x="126.74375" y="107.415524" style="fill: #00b945; stroke: #00b945; stroke-linejoin: miter"/>
     <use xlink:href="#m418b3d0421" x="154.64375" y="101.014022" style="fill: #00b945; stroke: #00b945; stroke-linejoin: miter"/>
     <use xlink:href="#m418b3d0421" x="182.54375" y="92.805262" style="fill: #00b945; stroke: #00b945; stroke-linejoin: miter"/>
     <use xlink:href="#m418b3d0421" x="210.44375" y="81.534528" style="fill: #00b945; stroke: #00b945; stroke-linejoin: miter"/>
     <use xlink:href="#m418b3d0421" x="238.34375" y="64.924644" style="fill: #00b945; stroke: #00b945; stroke-linejoin: miter"/>
    </g>
   </g>
   <g id="line2d_118">
    <path d="M 43.04375 142.876859 
L 70.94375 137.107259 
L 98.84375 132.022621 
L 126.74375 127.336663 
L 154.64375 122.762283 
L 182.54375 117.972418 
L 210.44375 112.6514 
L 238.34375 106.378965 
" clip-path="url(#pd3400a81f5)" style="fill: none; stroke: #ff9500; stroke-width: 0.75; stroke-linecap: square"/>
    <defs>
     <path id="m8f14ef85af" d="M -1 1 
L 1 1 
L 1 -1 
L -1 -1 
z
" style="stroke: #ff9500; stroke-linejoin: miter"/>
    </defs>
    <g clip-path="url(#pd3400a81f5)">
     <use xlink:href="#m8f14ef85af" x="43.04375" y="142.876859" style="fill: #ff9500; stroke: #ff9500; stroke-linejoin: miter"/>
     <use xlink:href="#m8f14ef85af" x="70.94375" y="137.107259" style="fill: #ff9500; stroke: #ff9500; stroke-linejoin: miter"/>
     <use xlink:href="#m8f14ef85af" x="98.84375" y="132.022621" style="fill: #ff9500; stroke: #ff9500; stroke-linejoin: miter"/>
     <use xlink:href="#m8f14ef85af" x="126.74375" y="127.336663" style="fill: #ff9500; stroke: #ff9500; stroke-linejoin: miter"/>
     <use xlink:href="#m8f14ef85af" x="154.64375" y="122.762283" style="fill: #ff9500; stroke: #ff9500; stroke-linejoin: miter"/>
     <use xlink:href="#m8f14ef85af" x="182.54375" y="117.972418" style="fill: #ff9500; stroke: #ff9500; stroke-linejoin: miter"/>
     <use xlink:href="#m8f14ef85af" x="210.44375" y="112.6514" style="fill: #ff9500; stroke: #ff9500; stroke-linejoin: miter"/>
     <use xlink:href="#m8f14ef85af" x="238.34375" y="106.378965" style="fill: #ff9500; stroke: #ff9500; stroke-linejoin: miter"/>
    </g>
   </g>
   <g id="line2d_119">
    <path d="M 43.04375 175.620726 
L 70.94375 165.026351 
L 98.84375 156.548971 
L 126.74375 149.724384 
L 154.64375 144.052431 
L 182.54375 139.092235 
L 210.44375 134.477007 
L 238.34375 129.905816 
" clip-path="url(#pd3400a81f5)" style="fill: none; stroke: #ff2c00; stroke-width: 0.75; stroke-linecap: square"/>
    <defs>
     <path id="m01e2996b3b" d="M -0 1.414214 
L 1.414214 0 
L 0 -1.414214 
L -1.414214 -0 
z
" style="stroke: #ff2c00; stroke-linejoin: miter"/>
    </defs>
    <g clip-path="url(#pd3400a81f5)">
     <use xlink:href="#m01e2996b3b" x="43.04375" y="175.620726" style="fill: #ff2c00; stroke: #ff2c00; stroke-linejoin: miter"/>
     <use xlink:href="#m01e2996b3b" x="70.94375" y="165.026351" style="fill: #ff2c00; stroke: #ff2c00; stroke-linejoin: miter"/>
     <use xlink:href="#m01e2996b3b" x="98.84375" y="156.548971" style="fill: #ff2c00; stroke: #ff2c00; stroke-linejoin: miter"/>
     <use xlink:href="#m01e2996b3b" x="126.74375" y="149.724384" style="fill: #ff2c00; stroke: #ff2c00; stroke-linejoin: miter"/>
     <use xlink:href="#m01e2996b3b" x="154.64375" y="144.052431" style="fill: #ff2c00; stroke: #ff2c00; stroke-linejoin: miter"/>
     <use xlink:href="#m01e2996b3b" x="182.54375" y="139.092235" style="fill: #ff2c00; stroke: #ff2c00; stroke-linejoin: miter"/>
     <use xlink:href="#m01e2996b3b" x="210.44375" y="134.477007" style="fill: #ff2c00; stroke: #ff2c00; stroke-linejoin: miter"/>
     <use xlink:href="#m01e2996b3b" x="238.34375" y="129.905816" style="fill: #ff2c00; stroke: #ff2c00; stroke-linejoin: miter"/>
    </g>
   </g>
   <g id="patch_3">
    <path d="M 43.04375 159.672997 
L 43.04375 14.198437 
" style="fill: none; stroke: #000000; stroke-width: 0.5; stroke-linejoin: miter; stroke-linecap: square"/>
   </g>
   <g id="patch_4">
    <path d="M 238.34375 159.672997 
L 238.34375 14.198437 
" style="fill: none; stroke: #000000; stroke-width: 0.5; stroke-linejoin: miter; stroke-linecap: square"/>
   </g>
   <g id="patch_5">
    <path d="M 43.04375 159.672997 
L 238.34375 159.672997 
" style="fill: none; stroke: #000000; stroke-width: 0.5; stroke-linejoin: miter; stroke-linecap: square"/>
   </g>
   <g id="patch_6">
    <path d="M 43.04375 14.198437 
L 238.34375 14.198437 
" style="fill: none; stroke: #000000; stroke-width: 0.5; stroke-linejoin: miter; stroke-linecap: square"/>
   </g>
  </g>
 </g>
 <defs>
  <clipPath id="pd3400a81f5">
   <rect x="43.04375" y="14.198437" width="195.3" height="145.47456"/>
  </clipPath>
 </defs>
</svg>
