<?xml version="1.0" encoding="utf-8" standalone="no"?>
<!DOCTYPE svg PUBLIC "-//W3C//DTD SVG 1.1//EN"
  "http://www.w3.org/Graphics/SVG/1.1/DTD/svg11.dtd">
<svg xmlns:xlink="http://www.w3.org/1999/xlink" width="226.6625pt" height="190.184687pt" viewBox="0 0 226.6625 190.184687" xmlns="http://www.w3.org/2000/svg" version="1.1">
 <metadata>
  <rdf:RDF xmlns:dc="http://purl.org/dc/elements/1.1/" xmlns:cc="http://creativecommons.org/ns#" xmlns:rdf="http://www.w3.org/1999/02/22-rdf-syntax-ns#">
   <cc:Work>
    <dc:type rdf:resource="http://purl.org/dc/dcmitype/StillImage"/>
    <dc:date>2022-11-17T18:04:54.233252</dc:date>
    <dc:format>image/svg+xml</dc:format>
    <dc:creator>
     <cc:Agent>
      <dc:title>Matplotlib v3.5.2, https://matplotlib.org/</dc:title>
     </cc:Agent>
    </dc:creator>
   </cc:Work>
  </rdf:RDF>
 </metadata>
 <defs>
  <style type="text/css">*{stroke-linejoin: round; stroke-linecap: butt}</style>
 </defs>
 <g id="figure_1">
  <g id="patch_1">
   <path d="M 0 190.184687 
L 226.6625 190.184687 
L 226.6625 0 
L 0 0 
z
" style="fill: #ffffff"/>
  </g>
  <g id="axes_1">
   <g id="patch_2">
    <path d="M 27.7625 159.728437 
L 223.0625 159.728437 
L 223.0625 14.198437 
L 27.7625 14.198437 
z
" style="fill: #ffffff"/>
   </g>
   <g id="matplotlib.axis_1">
    <g id="xtick_1">
     <g id="line2d_1">
      <path d="M 27.7625 159.728437 
L 27.7625 14.198437 
" clip-path="url(#pad5db010bb)" style="fill: none; stroke-dasharray: 1.85,0.8; stroke-dashoffset: 0; stroke: #000000; stroke-opacity: 0.2; stroke-width: 0.5"/>
     </g>
     <g id="line2d_2">
      <defs>
       <path id="m5447083029" d="M 0 0 
L 0 -3 
" style="stroke: #000000; stroke-width: 0.5"/>
      </defs>
      <g>
       <use xlink:href="#m5447083029" x="27.7625" y="159.728437" style="stroke: #000000; stroke-width: 0.5"/>
      </g>
     </g>
     <g id="line2d_3">
      <defs>
       <path id="mfcd9ecb08e" d="M 0 0 
L 0 3 
" style="stroke: #000000; stroke-width: 0.5"/>
      </defs>
      <g>
       <use xlink:href="#mfcd9ecb08e" x="27.7625" y="14.198437" style="stroke: #000000; stroke-width: 0.5"/>
      </g>
     </g>
     <g id="text_1">
      <!-- 20 -->
      <g transform="translate(21.4 170.826875)scale(0.1 -0.1)">
       <defs>
        <path id="DejaVuSerif-32" d="M 819 3553 
L 469 3553 
L 469 4384 
Q 803 4563 1142 4656 
Q 1481 4750 1806 4750 
Q 2534 4750 2956 4397 
Q 3378 4044 3378 3438 
Q 3378 2753 2422 1800 
Q 2347 1728 2309 1691 
L 1131 513 
L 3078 513 
L 3078 1088 
L 3444 1088 
L 3444 0 
L 434 0 
L 434 341 
L 1850 1753 
Q 2319 2222 2519 2614 
Q 2719 3006 2719 3438 
Q 2719 3909 2473 4175 
Q 2228 4441 1797 4441 
Q 1350 4441 1106 4219 
Q 863 3997 819 3553 
z
" transform="scale(0.015625)"/>
        <path id="DejaVuSerif-30" d="M 2034 219 
Q 2513 219 2750 744 
Q 2988 1269 2988 2328 
Q 2988 3391 2750 3916 
Q 2513 4441 2034 4441 
Q 1556 4441 1318 3916 
Q 1081 3391 1081 2328 
Q 1081 1269 1318 744 
Q 1556 219 2034 219 
z
M 2034 -91 
Q 1275 -91 848 546 
Q 422 1184 422 2328 
Q 422 3475 848 4112 
Q 1275 4750 2034 4750 
Q 2797 4750 3222 4112 
Q 3647 3475 3647 2328 
Q 3647 1184 3222 546 
Q 2797 -91 2034 -91 
z
" transform="scale(0.015625)"/>
       </defs>
       <use xlink:href="#DejaVuSerif-32"/>
       <use xlink:href="#DejaVuSerif-30" x="63.623047"/>
      </g>
     </g>
    </g>
    <g id="xtick_2">
     <g id="line2d_4">
      <path d="M 83.5625 159.728437 
L 83.5625 14.198437 
" clip-path="url(#pad5db010bb)" style="fill: none; stroke-dasharray: 1.85,0.8; stroke-dashoffset: 0; stroke: #000000; stroke-opacity: 0.2; stroke-width: 0.5"/>
     </g>
     <g id="line2d_5">
      <g>
       <use xlink:href="#m5447083029" x="83.5625" y="159.728437" style="stroke: #000000; stroke-width: 0.5"/>
      </g>
     </g>
     <g id="line2d_6">
      <g>
       <use xlink:href="#mfcd9ecb08e" x="83.5625" y="14.198437" style="stroke: #000000; stroke-width: 0.5"/>
      </g>
     </g>
     <g id="text_2">
      <!-- 30 -->
      <g transform="translate(77.2 170.826875)scale(0.1 -0.1)">
       <defs>
        <path id="DejaVuSerif-33" d="M 622 4469 
Q 988 4606 1323 4678 
Q 1659 4750 1953 4750 
Q 2638 4750 3022 4454 
Q 3406 4159 3406 3634 
Q 3406 3213 3140 2930 
Q 2875 2647 2388 2547 
Q 2963 2466 3280 2130 
Q 3597 1794 3597 1259 
Q 3597 606 3158 257 
Q 2719 -91 1894 -91 
Q 1528 -91 1179 -12 
Q 831 66 488 225 
L 488 1131 
L 838 1131 
Q 869 681 1141 450 
Q 1413 219 1906 219 
Q 2384 219 2661 495 
Q 2938 772 2938 1253 
Q 2938 1803 2653 2086 
Q 2369 2369 1819 2369 
L 1522 2369 
L 1522 2688 
L 1678 2688 
Q 2225 2688 2498 2914 
Q 2772 3141 2772 3597 
Q 2772 4006 2547 4223 
Q 2322 4441 1900 4441 
Q 1478 4441 1245 4241 
Q 1013 4041 972 3647 
L 622 3647 
L 622 4469 
z
" transform="scale(0.015625)"/>
       </defs>
       <use xlink:href="#DejaVuSerif-33"/>
       <use xlink:href="#DejaVuSerif-30" x="63.623047"/>
      </g>
     </g>
    </g>
    <g id="xtick_3">
     <g id="line2d_7">
      <path d="M 139.3625 159.728437 
L 139.3625 14.198437 
" clip-path="url(#pad5db010bb)" style="fill: none; stroke-dasharray: 1.85,0.8; stroke-dashoffset: 0; stroke: #000000; stroke-opacity: 0.2; stroke-width: 0.5"/>
     </g>
     <g id="line2d_8">
      <g>
       <use xlink:href="#m5447083029" x="139.3625" y="159.728437" style="stroke: #000000; stroke-width: 0.5"/>
      </g>
     </g>
     <g id="line2d_9">
      <g>
       <use xlink:href="#mfcd9ecb08e" x="139.3625" y="14.198437" style="stroke: #000000; stroke-width: 0.5"/>
      </g>
     </g>
     <g id="text_3">
      <!-- 40 -->
      <g transform="translate(133 170.826875)scale(0.1 -0.1)">
       <defs>
        <path id="DejaVuSerif-34" d="M 2234 1581 
L 2234 4063 
L 641 1581 
L 2234 1581 
z
M 3609 0 
L 1484 0 
L 1484 331 
L 2234 331 
L 2234 1247 
L 197 1247 
L 197 1588 
L 2241 4750 
L 2859 4750 
L 2859 1581 
L 3750 1581 
L 3750 1247 
L 2859 1247 
L 2859 331 
L 3609 331 
L 3609 0 
z
" transform="scale(0.015625)"/>
       </defs>
       <use xlink:href="#DejaVuSerif-34"/>
       <use xlink:href="#DejaVuSerif-30" x="63.623047"/>
      </g>
     </g>
    </g>
    <g id="xtick_4">
     <g id="line2d_10">
      <path d="M 195.1625 159.728437 
L 195.1625 14.198437 
" clip-path="url(#pad5db010bb)" style="fill: none; stroke-dasharray: 1.85,0.8; stroke-dashoffset: 0; stroke: #000000; stroke-opacity: 0.2; stroke-width: 0.5"/>
     </g>
     <g id="line2d_11">
      <g>
       <use xlink:href="#m5447083029" x="195.1625" y="159.728437" style="stroke: #000000; stroke-width: 0.5"/>
      </g>
     </g>
     <g id="line2d_12">
      <g>
       <use xlink:href="#mfcd9ecb08e" x="195.1625" y="14.198437" style="stroke: #000000; stroke-width: 0.5"/>
      </g>
     </g>
     <g id="text_4">
      <!-- 50 -->
      <g transform="translate(188.8 170.826875)scale(0.1 -0.1)">
       <defs>
        <path id="DejaVuSerif-35" d="M 3219 4666 
L 3219 4153 
L 1081 4153 
L 1081 2816 
Q 1244 2928 1461 2984 
Q 1678 3041 1947 3041 
Q 2703 3041 3140 2622 
Q 3578 2203 3578 1478 
Q 3578 738 3136 323 
Q 2694 -91 1894 -91 
Q 1572 -91 1234 -12 
Q 897 66 544 225 
L 544 1131 
L 897 1131 
Q 925 688 1179 453 
Q 1434 219 1894 219 
Q 2388 219 2653 544 
Q 2919 869 2919 1478 
Q 2919 2084 2655 2407 
Q 2391 2731 1894 2731 
Q 1613 2731 1398 2631 
Q 1184 2531 1019 2322 
L 750 2322 
L 750 4666 
L 3219 4666 
z
" transform="scale(0.015625)"/>
       </defs>
       <use xlink:href="#DejaVuSerif-35"/>
       <use xlink:href="#DejaVuSerif-30" x="63.623047"/>
      </g>
     </g>
    </g>
    <g id="xtick_5">
     <g id="line2d_13">
      <defs>
       <path id="mb3059121e2" d="M 0 0 
L 0 -1.5 
" style="stroke: #000000; stroke-width: 0.5"/>
      </defs>
      <g>
       <use xlink:href="#mb3059121e2" x="38.9225" y="159.728437" style="stroke: #000000; stroke-width: 0.5"/>
      </g>
     </g>
     <g id="line2d_14">
      <defs>
       <path id="m8effa513dd" d="M 0 0 
L 0 1.5 
" style="stroke: #000000; stroke-width: 0.5"/>
      </defs>
      <g>
       <use xlink:href="#m8effa513dd" x="38.9225" y="14.198437" style="stroke: #000000; stroke-width: 0.5"/>
      </g>
     </g>
    </g>
    <g id="xtick_6">
     <g id="line2d_15">
      <g>
       <use xlink:href="#mb3059121e2" x="50.0825" y="159.728437" style="stroke: #000000; stroke-width: 0.5"/>
      </g>
     </g>
     <g id="line2d_16">
      <g>
       <use xlink:href="#m8effa513dd" x="50.0825" y="14.198437" style="stroke: #000000; stroke-width: 0.5"/>
      </g>
     </g>
    </g>
    <g id="xtick_7">
     <g id="line2d_17">
      <g>
       <use xlink:href="#mb3059121e2" x="61.2425" y="159.728437" style="stroke: #000000; stroke-width: 0.5"/>
      </g>
     </g>
     <g id="line2d_18">
      <g>
       <use xlink:href="#m8effa513dd" x="61.2425" y="14.198437" style="stroke: #000000; stroke-width: 0.5"/>
      </g>
     </g>
    </g>
    <g id="xtick_8">
     <g id="line2d_19">
      <g>
       <use xlink:href="#mb3059121e2" x="72.4025" y="159.728437" style="stroke: #000000; stroke-width: 0.5"/>
      </g>
     </g>
     <g id="line2d_20">
      <g>
       <use xlink:href="#m8effa513dd" x="72.4025" y="14.198437" style="stroke: #000000; stroke-width: 0.5"/>
      </g>
     </g>
    </g>
    <g id="xtick_9">
     <g id="line2d_21">
      <g>
       <use xlink:href="#mb3059121e2" x="94.7225" y="159.728437" style="stroke: #000000; stroke-width: 0.5"/>
      </g>
     </g>
     <g id="line2d_22">
      <g>
       <use xlink:href="#m8effa513dd" x="94.7225" y="14.198437" style="stroke: #000000; stroke-width: 0.5"/>
      </g>
     </g>
    </g>
    <g id="xtick_10">
     <g id="line2d_23">
      <g>
       <use xlink:href="#mb3059121e2" x="105.8825" y="159.728437" style="stroke: #000000; stroke-width: 0.5"/>
      </g>
     </g>
     <g id="line2d_24">
      <g>
       <use xlink:href="#m8effa513dd" x="105.8825" y="14.198437" style="stroke: #000000; stroke-width: 0.5"/>
      </g>
     </g>
    </g>
    <g id="xtick_11">
     <g id="line2d_25">
      <g>
       <use xlink:href="#mb3059121e2" x="117.0425" y="159.728437" style="stroke: #000000; stroke-width: 0.5"/>
      </g>
     </g>
     <g id="line2d_26">
      <g>
       <use xlink:href="#m8effa513dd" x="117.0425" y="14.198437" style="stroke: #000000; stroke-width: 0.5"/>
      </g>
     </g>
    </g>
    <g id="xtick_12">
     <g id="line2d_27">
      <g>
       <use xlink:href="#mb3059121e2" x="128.2025" y="159.728437" style="stroke: #000000; stroke-width: 0.5"/>
      </g>
     </g>
     <g id="line2d_28">
      <g>
       <use xlink:href="#m8effa513dd" x="128.2025" y="14.198437" style="stroke: #000000; stroke-width: 0.5"/>
      </g>
     </g>
    </g>
    <g id="xtick_13">
     <g id="line2d_29">
      <g>
       <use xlink:href="#mb3059121e2" x="150.5225" y="159.728437" style="stroke: #000000; stroke-width: 0.5"/>
      </g>
     </g>
     <g id="line2d_30">
      <g>
       <use xlink:href="#m8effa513dd" x="150.5225" y="14.198437" style="stroke: #000000; stroke-width: 0.5"/>
      </g>
     </g>
    </g>
    <g id="xtick_14">
     <g id="line2d_31">
      <g>
       <use xlink:href="#mb3059121e2" x="161.6825" y="159.728437" style="stroke: #000000; stroke-width: 0.5"/>
      </g>
     </g>
     <g id="line2d_32">
      <g>
       <use xlink:href="#m8effa513dd" x="161.6825" y="14.198437" style="stroke: #000000; stroke-width: 0.5"/>
      </g>
     </g>
    </g>
    <g id="xtick_15">
     <g id="line2d_33">
      <g>
       <use xlink:href="#mb3059121e2" x="172.8425" y="159.728437" style="stroke: #000000; stroke-width: 0.5"/>
      </g>
     </g>
     <g id="line2d_34">
      <g>
       <use xlink:href="#m8effa513dd" x="172.8425" y="14.198437" style="stroke: #000000; stroke-width: 0.5"/>
      </g>
     </g>
    </g>
    <g id="xtick_16">
     <g id="line2d_35">
      <g>
       <use xlink:href="#mb3059121e2" x="184.0025" y="159.728437" style="stroke: #000000; stroke-width: 0.5"/>
      </g>
     </g>
     <g id="line2d_36">
      <g>
       <use xlink:href="#m8effa513dd" x="184.0025" y="14.198437" style="stroke: #000000; stroke-width: 0.5"/>
      </g>
     </g>
    </g>
    <g id="xtick_17">
     <g id="line2d_37">
      <g>
       <use xlink:href="#mb3059121e2" x="206.3225" y="159.728437" style="stroke: #000000; stroke-width: 0.5"/>
      </g>
     </g>
     <g id="line2d_38">
      <g>
       <use xlink:href="#m8effa513dd" x="206.3225" y="14.198437" style="stroke: #000000; stroke-width: 0.5"/>
      </g>
     </g>
    </g>
    <g id="xtick_18">
     <g id="line2d_39">
      <g>
       <use xlink:href="#mb3059121e2" x="217.4825" y="159.728437" style="stroke: #000000; stroke-width: 0.5"/>
      </g>
     </g>
     <g id="line2d_40">
      <g>
       <use xlink:href="#m8effa513dd" x="217.4825" y="14.198437" style="stroke: #000000; stroke-width: 0.5"/>
      </g>
     </g>
    </g>
    <g id="text_5">
     <!-- $\mathrm{T\,[°C]}$ -->
     <g transform="translate(111.0125 184.505)scale(0.1 -0.1)">
      <defs>
       <path id="DejaVuSerif-54" d="M 1222 0 
L 1222 331 
L 1819 331 
L 1819 4294 
L 447 4294 
L 447 3566 
L 63 3566 
L 63 4666 
L 4206 4666 
L 4206 3566 
L 3822 3566 
L 3822 4294 
L 2450 4294 
L 2450 331 
L 3047 331 
L 3047 0 
L 1222 0 
z
" transform="scale(0.015625)"/>
       <path id="DejaVuSerif-5b" d="M 550 4863 
L 2003 4863 
L 2003 4531 
L 1147 4531 
L 1147 -513 
L 2003 -513 
L 2003 -844 
L 550 -844 
L 550 4863 
z
" transform="scale(0.015625)"/>
       <path id="DejaVuSerif-b0" d="M 1600 4319 
Q 1363 4319 1200 4155 
Q 1038 3991 1038 3750 
Q 1038 3513 1198 3353 
Q 1359 3194 1600 3194 
Q 1838 3194 2000 3355 
Q 2163 3516 2163 3750 
Q 2163 3984 1997 4151 
Q 1831 4319 1600 4319 
z
M 1600 4750 
Q 1800 4750 1984 4673 
Q 2169 4597 2303 4453 
Q 2447 4313 2519 4134 
Q 2591 3956 2591 3750 
Q 2591 3338 2302 3052 
Q 2013 2766 1594 2766 
Q 1172 2766 890 3047 
Q 609 3328 609 3750 
Q 609 4169 896 4459 
Q 1184 4750 1600 4750 
z
" transform="scale(0.015625)"/>
       <path id="DejaVuSerif-43" d="M 4513 1234 
Q 4306 581 3820 245 
Q 3334 -91 2591 -91 
Q 2134 -91 1743 65 
Q 1353 222 1050 525 
Q 700 875 529 1320 
Q 359 1766 359 2328 
Q 359 3416 987 4083 
Q 1616 4750 2644 4750 
Q 3025 4750 3456 4650 
Q 3888 4550 4384 4347 
L 4384 3272 
L 4031 3272 
Q 3916 3859 3567 4137 
Q 3219 4416 2591 4416 
Q 1844 4416 1459 3886 
Q 1075 3356 1075 2328 
Q 1075 1303 1459 773 
Q 1844 244 2591 244 
Q 3113 244 3450 492 
Q 3788 741 3938 1234 
L 4513 1234 
z
" transform="scale(0.015625)"/>
       <path id="DejaVuSerif-5d" d="M 1947 4863 
L 1947 -844 
L 494 -844 
L 494 -513 
L 1350 -513 
L 1350 4531 
L 494 4531 
L 494 4863 
L 1947 4863 
z
" transform="scale(0.015625)"/>
      </defs>
      <use xlink:href="#DejaVuSerif-54" transform="translate(0 0.015625)"/>
      <use xlink:href="#DejaVuSerif-5b" transform="translate(82.503571 0.015625)"/>
      <use xlink:href="#DejaVuSerif-b0" transform="translate(121.517243 0.015625)"/>
      <use xlink:href="#DejaVuSerif-43" transform="translate(171.517243 0.015625)"/>
      <use xlink:href="#DejaVuSerif-5d" transform="translate(248.030915 0.015625)"/>
     </g>
    </g>
   </g>
   <g id="matplotlib.axis_2">
    <g id="ytick_1">
     <g id="line2d_41">
      <path d="M 27.7625 134.873198 
L 223.0625 134.873198 
" clip-path="url(#pad5db010bb)" style="fill: none; stroke-dasharray: 1.85,0.8; stroke-dashoffset: 0; stroke: #000000; stroke-opacity: 0.2; stroke-width: 0.5"/>
     </g>
     <g id="line2d_42">
      <defs>
       <path id="m8ea9e7d0e6" d="M 0 0 
L 3 0 
" style="stroke: #000000; stroke-width: 0.5"/>
      </defs>
      <g>
       <use xlink:href="#m8ea9e7d0e6" x="27.7625" y="134.873198" style="stroke: #000000; stroke-width: 0.5"/>
      </g>
     </g>
     <g id="line2d_43">
      <defs>
       <path id="m5a99cb7077" d="M 0 0 
L -3 0 
" style="stroke: #000000; stroke-width: 0.5"/>
      </defs>
      <g>
       <use xlink:href="#m5a99cb7077" x="223.0625" y="134.873198" style="stroke: #000000; stroke-width: 0.5"/>
      </g>
     </g>
     <g id="text_6">
      <!-- 1 -->
      <g transform="translate(17.9 138.672416)scale(0.1 -0.1)">
       <defs>
        <path id="DejaVuSerif-31" d="M 909 0 
L 909 331 
L 1722 331 
L 1722 4213 
L 781 3603 
L 781 4013 
L 1919 4750 
L 2350 4750 
L 2350 331 
L 3163 331 
L 3163 0 
L 909 0 
z
" transform="scale(0.015625)"/>
       </defs>
       <use xlink:href="#DejaVuSerif-31"/>
      </g>
     </g>
    </g>
    <g id="ytick_2">
     <g id="line2d_44">
      <path d="M 27.7625 103.787213 
L 223.0625 103.787213 
" clip-path="url(#pad5db010bb)" style="fill: none; stroke-dasharray: 1.85,0.8; stroke-dashoffset: 0; stroke: #000000; stroke-opacity: 0.2; stroke-width: 0.5"/>
     </g>
     <g id="line2d_45">
      <g>
       <use xlink:href="#m8ea9e7d0e6" x="27.7625" y="103.787213" style="stroke: #000000; stroke-width: 0.5"/>
      </g>
     </g>
     <g id="line2d_46">
      <g>
       <use xlink:href="#m5a99cb7077" x="223.0625" y="103.787213" style="stroke: #000000; stroke-width: 0.5"/>
      </g>
     </g>
     <g id="text_7">
      <!-- 2 -->
      <g transform="translate(17.9 107.586431)scale(0.1 -0.1)">
       <use xlink:href="#DejaVuSerif-32"/>
      </g>
     </g>
    </g>
    <g id="ytick_3">
     <g id="line2d_47">
      <path d="M 27.7625 72.701227 
L 223.0625 72.701227 
" clip-path="url(#pad5db010bb)" style="fill: none; stroke-dasharray: 1.85,0.8; stroke-dashoffset: 0; stroke: #000000; stroke-opacity: 0.2; stroke-width: 0.5"/>
     </g>
     <g id="line2d_48">
      <g>
       <use xlink:href="#m8ea9e7d0e6" x="27.7625" y="72.701227" style="stroke: #000000; stroke-width: 0.5"/>
      </g>
     </g>
     <g id="line2d_49">
      <g>
       <use xlink:href="#m5a99cb7077" x="223.0625" y="72.701227" style="stroke: #000000; stroke-width: 0.5"/>
      </g>
     </g>
     <g id="text_8">
      <!-- 3 -->
      <g transform="translate(17.9 76.500446)scale(0.1 -0.1)">
       <use xlink:href="#DejaVuSerif-33"/>
      </g>
     </g>
    </g>
    <g id="ytick_4">
     <g id="line2d_50">
      <path d="M 27.7625 41.615242 
L 223.0625 41.615242 
" clip-path="url(#pad5db010bb)" style="fill: none; stroke-dasharray: 1.85,0.8; stroke-dashoffset: 0; stroke: #000000; stroke-opacity: 0.2; stroke-width: 0.5"/>
     </g>
     <g id="line2d_51">
      <g>
       <use xlink:href="#m8ea9e7d0e6" x="27.7625" y="41.615242" style="stroke: #000000; stroke-width: 0.5"/>
      </g>
     </g>
     <g id="line2d_52">
      <g>
       <use xlink:href="#m5a99cb7077" x="223.0625" y="41.615242" style="stroke: #000000; stroke-width: 0.5"/>
      </g>
     </g>
     <g id="text_9">
      <!-- 4 -->
      <g transform="translate(17.9 45.414461)scale(0.1 -0.1)">
       <use xlink:href="#DejaVuSerif-34"/>
      </g>
     </g>
    </g>
    <g id="ytick_5">
     <g id="line2d_53">
      <defs>
       <path id="ma0e7d1196b" d="M 0 0 
L 1.5 0 
" style="stroke: #000000; stroke-width: 0.5"/>
      </defs>
      <g>
       <use xlink:href="#ma0e7d1196b" x="27.7625" y="153.524789" style="stroke: #000000; stroke-width: 0.5"/>
      </g>
     </g>
     <g id="line2d_54">
      <defs>
       <path id="m238b38f60f" d="M 0 0 
L -1.5 0 
" style="stroke: #000000; stroke-width: 0.5"/>
      </defs>
      <g>
       <use xlink:href="#m238b38f60f" x="223.0625" y="153.524789" style="stroke: #000000; stroke-width: 0.5"/>
      </g>
     </g>
    </g>
    <g id="ytick_6">
     <g id="line2d_55">
      <g>
       <use xlink:href="#ma0e7d1196b" x="27.7625" y="147.307592" style="stroke: #000000; stroke-width: 0.5"/>
      </g>
     </g>
     <g id="line2d_56">
      <g>
       <use xlink:href="#m238b38f60f" x="223.0625" y="147.307592" style="stroke: #000000; stroke-width: 0.5"/>
      </g>
     </g>
    </g>
    <g id="ytick_7">
     <g id="line2d_57">
      <g>
       <use xlink:href="#ma0e7d1196b" x="27.7625" y="141.090395" style="stroke: #000000; stroke-width: 0.5"/>
      </g>
     </g>
     <g id="line2d_58">
      <g>
       <use xlink:href="#m238b38f60f" x="223.0625" y="141.090395" style="stroke: #000000; stroke-width: 0.5"/>
      </g>
     </g>
    </g>
    <g id="ytick_8">
     <g id="line2d_59">
      <g>
       <use xlink:href="#ma0e7d1196b" x="27.7625" y="128.656001" style="stroke: #000000; stroke-width: 0.5"/>
      </g>
     </g>
     <g id="line2d_60">
      <g>
       <use xlink:href="#m238b38f60f" x="223.0625" y="128.656001" style="stroke: #000000; stroke-width: 0.5"/>
      </g>
     </g>
    </g>
    <g id="ytick_9">
     <g id="line2d_61">
      <g>
       <use xlink:href="#ma0e7d1196b" x="27.7625" y="122.438804" style="stroke: #000000; stroke-width: 0.5"/>
      </g>
     </g>
     <g id="line2d_62">
      <g>
       <use xlink:href="#m238b38f60f" x="223.0625" y="122.438804" style="stroke: #000000; stroke-width: 0.5"/>
      </g>
     </g>
    </g>
    <g id="ytick_10">
     <g id="line2d_63">
      <g>
       <use xlink:href="#ma0e7d1196b" x="27.7625" y="116.221607" style="stroke: #000000; stroke-width: 0.5"/>
      </g>
     </g>
     <g id="line2d_64">
      <g>
       <use xlink:href="#m238b38f60f" x="223.0625" y="116.221607" style="stroke: #000000; stroke-width: 0.5"/>
      </g>
     </g>
    </g>
    <g id="ytick_11">
     <g id="line2d_65">
      <g>
       <use xlink:href="#ma0e7d1196b" x="27.7625" y="110.00441" style="stroke: #000000; stroke-width: 0.5"/>
      </g>
     </g>
     <g id="line2d_66">
      <g>
       <use xlink:href="#m238b38f60f" x="223.0625" y="110.00441" style="stroke: #000000; stroke-width: 0.5"/>
      </g>
     </g>
    </g>
    <g id="ytick_12">
     <g id="line2d_67">
      <g>
       <use xlink:href="#ma0e7d1196b" x="27.7625" y="97.570016" style="stroke: #000000; stroke-width: 0.5"/>
      </g>
     </g>
     <g id="line2d_68">
      <g>
       <use xlink:href="#m238b38f60f" x="223.0625" y="97.570016" style="stroke: #000000; stroke-width: 0.5"/>
      </g>
     </g>
    </g>
    <g id="ytick_13">
     <g id="line2d_69">
      <g>
       <use xlink:href="#ma0e7d1196b" x="27.7625" y="91.352818" style="stroke: #000000; stroke-width: 0.5"/>
      </g>
     </g>
     <g id="line2d_70">
      <g>
       <use xlink:href="#m238b38f60f" x="223.0625" y="91.352818" style="stroke: #000000; stroke-width: 0.5"/>
      </g>
     </g>
    </g>
    <g id="ytick_14">
     <g id="line2d_71">
      <g>
       <use xlink:href="#ma0e7d1196b" x="27.7625" y="85.135621" style="stroke: #000000; stroke-width: 0.5"/>
      </g>
     </g>
     <g id="line2d_72">
      <g>
       <use xlink:href="#m238b38f60f" x="223.0625" y="85.135621" style="stroke: #000000; stroke-width: 0.5"/>
      </g>
     </g>
    </g>
    <g id="ytick_15">
     <g id="line2d_73">
      <g>
       <use xlink:href="#ma0e7d1196b" x="27.7625" y="78.918424" style="stroke: #000000; stroke-width: 0.5"/>
      </g>
     </g>
     <g id="line2d_74">
      <g>
       <use xlink:href="#m238b38f60f" x="223.0625" y="78.918424" style="stroke: #000000; stroke-width: 0.5"/>
      </g>
     </g>
    </g>
    <g id="ytick_16">
     <g id="line2d_75">
      <g>
       <use xlink:href="#ma0e7d1196b" x="27.7625" y="66.48403" style="stroke: #000000; stroke-width: 0.5"/>
      </g>
     </g>
     <g id="line2d_76">
      <g>
       <use xlink:href="#m238b38f60f" x="223.0625" y="66.48403" style="stroke: #000000; stroke-width: 0.5"/>
      </g>
     </g>
    </g>
    <g id="ytick_17">
     <g id="line2d_77">
      <g>
       <use xlink:href="#ma0e7d1196b" x="27.7625" y="60.266833" style="stroke: #000000; stroke-width: 0.5"/>
      </g>
     </g>
     <g id="line2d_78">
      <g>
       <use xlink:href="#m238b38f60f" x="223.0625" y="60.266833" style="stroke: #000000; stroke-width: 0.5"/>
      </g>
     </g>
    </g>
    <g id="ytick_18">
     <g id="line2d_79">
      <g>
       <use xlink:href="#ma0e7d1196b" x="27.7625" y="54.049636" style="stroke: #000000; stroke-width: 0.5"/>
      </g>
     </g>
     <g id="line2d_80">
      <g>
       <use xlink:href="#m238b38f60f" x="223.0625" y="54.049636" style="stroke: #000000; stroke-width: 0.5"/>
      </g>
     </g>
    </g>
    <g id="ytick_19">
     <g id="line2d_81">
      <g>
       <use xlink:href="#ma0e7d1196b" x="27.7625" y="47.832439" style="stroke: #000000; stroke-width: 0.5"/>
      </g>
     </g>
     <g id="line2d_82">
      <g>
       <use xlink:href="#m238b38f60f" x="223.0625" y="47.832439" style="stroke: #000000; stroke-width: 0.5"/>
      </g>
     </g>
    </g>
    <g id="ytick_20">
     <g id="line2d_83">
      <g>
       <use xlink:href="#ma0e7d1196b" x="27.7625" y="35.398045" style="stroke: #000000; stroke-width: 0.5"/>
      </g>
     </g>
     <g id="line2d_84">
      <g>
       <use xlink:href="#m238b38f60f" x="223.0625" y="35.398045" style="stroke: #000000; stroke-width: 0.5"/>
      </g>
     </g>
    </g>
    <g id="ytick_21">
     <g id="line2d_85">
      <g>
       <use xlink:href="#ma0e7d1196b" x="27.7625" y="29.180848" style="stroke: #000000; stroke-width: 0.5"/>
      </g>
     </g>
     <g id="line2d_86">
      <g>
       <use xlink:href="#m238b38f60f" x="223.0625" y="29.180848" style="stroke: #000000; stroke-width: 0.5"/>
      </g>
     </g>
    </g>
    <g id="ytick_22">
     <g id="line2d_87">
      <g>
       <use xlink:href="#ma0e7d1196b" x="27.7625" y="22.963651" style="stroke: #000000; stroke-width: 0.5"/>
      </g>
     </g>
     <g id="line2d_88">
      <g>
       <use xlink:href="#m238b38f60f" x="223.0625" y="22.963651" style="stroke: #000000; stroke-width: 0.5"/>
      </g>
     </g>
    </g>
    <g id="ytick_23">
     <g id="line2d_89">
      <g>
       <use xlink:href="#ma0e7d1196b" x="27.7625" y="16.746454" style="stroke: #000000; stroke-width: 0.5"/>
      </g>
     </g>
     <g id="line2d_90">
      <g>
       <use xlink:href="#m238b38f60f" x="223.0625" y="16.746454" style="stroke: #000000; stroke-width: 0.5"/>
      </g>
     </g>
    </g>
    <g id="text_10">
     <!-- $\mathrm{x_{CH_4}\,[mol/mol]}$ -->
     <g transform="translate(11.2 122.463437)rotate(-90)scale(0.1 -0.1)">
      <defs>
       <path id="DejaVuSerif-78" d="M 1863 2028 
L 2559 2988 
L 2113 2988 
L 2113 3322 
L 3391 3322 
L 3391 2988 
L 2950 2988 
L 2059 1759 
L 3097 331 
L 3531 331 
L 3531 0 
L 1997 0 
L 1997 331 
L 2419 331 
L 1697 1325 
L 972 331 
L 1403 331 
L 1403 0 
L 141 0 
L 141 331 
L 581 331 
L 1497 1594 
L 488 2988 
L 78 2988 
L 78 3322 
L 1563 3322 
L 1563 2988 
L 1166 2988 
L 1863 2028 
z
" transform="scale(0.015625)"/>
       <path id="DejaVuSerif-48" d="M 353 0 
L 353 331 
L 947 331 
L 947 4331 
L 353 4331 
L 353 4666 
L 2175 4666 
L 2175 4331 
L 1581 4331 
L 1581 2719 
L 4000 2719 
L 4000 4331 
L 3406 4331 
L 3406 4666 
L 5228 4666 
L 5228 4331 
L 4634 4331 
L 4634 331 
L 5228 331 
L 5228 0 
L 3406 0 
L 3406 331 
L 4000 331 
L 4000 2338 
L 1581 2338 
L 1581 331 
L 2175 331 
L 2175 0 
L 353 0 
z
" transform="scale(0.015625)"/>
       <path id="DejaVuSerif-6d" d="M 3316 2675 
Q 3481 3041 3739 3227 
Q 3997 3413 4341 3413 
Q 4863 3413 5119 3089 
Q 5375 2766 5375 2113 
L 5375 331 
L 5894 331 
L 5894 0 
L 4300 0 
L 4300 331 
L 4800 331 
L 4800 2047 
Q 4800 2556 4650 2772 
Q 4500 2988 4153 2988 
Q 3769 2988 3567 2697 
Q 3366 2406 3366 1850 
L 3366 331 
L 3866 331 
L 3866 0 
L 2291 0 
L 2291 331 
L 2791 331 
L 2791 2069 
Q 2791 2566 2641 2777 
Q 2491 2988 2144 2988 
Q 1759 2988 1557 2697 
Q 1356 2406 1356 1850 
L 1356 331 
L 1856 331 
L 1856 0 
L 263 0 
L 263 331 
L 781 331 
L 781 2994 
L 231 2994 
L 231 3322 
L 1356 3322 
L 1356 2731 
Q 1516 3063 1762 3238 
Q 2009 3413 2322 3413 
Q 2709 3413 2968 3220 
Q 3228 3028 3316 2675 
z
" transform="scale(0.015625)"/>
       <path id="DejaVuSerif-6f" d="M 1925 219 
Q 2388 219 2623 584 
Q 2859 950 2859 1663 
Q 2859 2375 2623 2739 
Q 2388 3103 1925 3103 
Q 1463 3103 1227 2739 
Q 991 2375 991 1663 
Q 991 950 1228 584 
Q 1466 219 1925 219 
z
M 1925 -91 
Q 1200 -91 759 389 
Q 319 869 319 1663 
Q 319 2456 758 2934 
Q 1197 3413 1925 3413 
Q 2653 3413 3092 2934 
Q 3531 2456 3531 1663 
Q 3531 869 3092 389 
Q 2653 -91 1925 -91 
z
" transform="scale(0.015625)"/>
       <path id="DejaVuSerif-6c" d="M 1313 331 
L 1856 331 
L 1856 0 
L 184 0 
L 184 331 
L 738 331 
L 738 4531 
L 184 4531 
L 184 4863 
L 1313 4863 
L 1313 331 
z
" transform="scale(0.015625)"/>
       <path id="DejaVuSerif-2f" d="M 1656 4666 
L 2156 4666 
L 500 -594 
L 0 -594 
L 1656 4666 
z
" transform="scale(0.015625)"/>
      </defs>
      <use xlink:href="#DejaVuSerif-78" transform="translate(0 0.015625)"/>
      <use xlink:href="#DejaVuSerif-43" transform="translate(57.304844 -15.55625)scale(0.7)"/>
      <use xlink:href="#DejaVuSerif-48" transform="translate(110.864414 -15.55625)scale(0.7)"/>
      <use xlink:href="#DejaVuSerif-34" transform="translate(172.545187 -26.456562)scale(0.49)"/>
      <use xlink:href="#DejaVuSerif-5b" transform="translate(223.936864 0.015625)"/>
      <use xlink:href="#DejaVuSerif-6d" transform="translate(262.950536 0.015625)"/>
      <use xlink:href="#DejaVuSerif-6f" transform="translate(357.774755 0.015625)"/>
      <use xlink:href="#DejaVuSerif-6c" transform="translate(417.979833 0.015625)"/>
      <use xlink:href="#DejaVuSerif-2f" transform="translate(449.962255 0.015625)"/>
      <use xlink:href="#DejaVuSerif-6d" transform="translate(483.653661 0.015625)"/>
      <use xlink:href="#DejaVuSerif-6f" transform="translate(578.47788 0.015625)"/>
      <use xlink:href="#DejaVuSerif-6c" transform="translate(638.682958 0.015625)"/>
      <use xlink:href="#DejaVuSerif-5d" transform="translate(670.66538 0.015625)"/>
     </g>
    </g>
    <g id="text_11">
     <!-- 1e−3 -->
     <g transform="translate(27.7625 11.198437)scale(0.1 -0.1)">
      <defs>
       <path id="DejaVuSerif-65" d="M 3469 1600 
L 991 1600 
L 991 1575 
Q 991 903 1244 561 
Q 1497 219 1991 219 
Q 2369 219 2611 417 
Q 2853 616 2950 1006 
L 3413 1006 
Q 3275 459 2904 184 
Q 2534 -91 1931 -91 
Q 1203 -91 761 389 
Q 319 869 319 1663 
Q 319 2450 753 2931 
Q 1188 3413 1894 3413 
Q 2647 3413 3050 2948 
Q 3453 2484 3469 1600 
z
M 2791 1931 
Q 2772 2513 2545 2808 
Q 2319 3103 1894 3103 
Q 1497 3103 1269 2806 
Q 1041 2509 991 1931 
L 2791 1931 
z
" transform="scale(0.015625)"/>
       <path id="DejaVuSerif-2212" d="M 678 2259 
L 4684 2259 
L 4684 1753 
L 678 1753 
L 678 2259 
z
" transform="scale(0.015625)"/>
      </defs>
      <use xlink:href="#DejaVuSerif-31"/>
      <use xlink:href="#DejaVuSerif-65" x="63.623047"/>
      <use xlink:href="#DejaVuSerif-2212" x="122.802734"/>
      <use xlink:href="#DejaVuSerif-33" x="206.591797"/>
     </g>
    </g>
   </g>
   <g id="line2d_91">
    <path d="M 27.7625 135.961859 
L 55.6625 139.691963 
L 83.5625 143.210465 
L 111.4625 146.590464 
L 139.3625 149.886949 
L 167.2625 153.155901 
L 195.1625 156.42104 
L 223.0625 159.728437 
" clip-path="url(#pad5db010bb)" style="fill: none; stroke: #0c5da5; stroke-width: 0.75; stroke-linecap: square"/>
    <defs>
     <path id="m1de79aed2e" d="M 0 1 
C 0.265203 1 0.51958 0.894634 0.707107 0.707107 
C 0.894634 0.51958 1 0.265203 1 0 
C 1 -0.265203 0.894634 -0.51958 0.707107 -0.707107 
C 0.51958 -0.894634 0.265203 -1 0 -1 
C -0.265203 -1 -0.51958 -0.894634 -0.707107 -0.707107 
C -0.894634 -0.51958 -1 -0.265203 -1 0 
C -1 0.265203 -0.894634 0.51958 -0.707107 0.707107 
C -0.51958 0.894634 -0.265203 1 0 1 
z
" style="stroke: #0c5da5"/>
    </defs>
    <g clip-path="url(#pad5db010bb)">
     <use xlink:href="#m1de79aed2e" x="27.7625" y="135.961859" style="fill: #0c5da5; stroke: #0c5da5"/>
     <use xlink:href="#m1de79aed2e" x="55.6625" y="139.691963" style="fill: #0c5da5; stroke: #0c5da5"/>
     <use xlink:href="#m1de79aed2e" x="83.5625" y="143.210465" style="fill: #0c5da5; stroke: #0c5da5"/>
     <use xlink:href="#m1de79aed2e" x="111.4625" y="146.590464" style="fill: #0c5da5; stroke: #0c5da5"/>
     <use xlink:href="#m1de79aed2e" x="139.3625" y="149.886949" style="fill: #0c5da5; stroke: #0c5da5"/>
     <use xlink:href="#m1de79aed2e" x="167.2625" y="153.155901" style="fill: #0c5da5; stroke: #0c5da5"/>
     <use xlink:href="#m1de79aed2e" x="195.1625" y="156.42104" style="fill: #0c5da5; stroke: #0c5da5"/>
     <use xlink:href="#m1de79aed2e" x="223.0625" y="159.728437" style="fill: #0c5da5; stroke: #0c5da5"/>
    </g>
   </g>
   <g id="line2d_92">
    <path d="M 27.7625 113.932692 
L 55.6625 119.66144 
L 83.5625 124.869092 
L 111.4625 129.694528 
L 139.3625 134.276043 
L 167.2625 138.67087 
L 195.1625 142.963114 
L 223.0625 147.2079 
" clip-path="url(#pad5db010bb)" style="fill: none; stroke: #00b945; stroke-width: 0.75; stroke-linecap: square"/>
    <defs>
     <path id="m6dfdb83312" d="M 0 -1 
L -1 1 
L 1 1 
z
" style="stroke: #00b945; stroke-linejoin: miter"/>
    </defs>
    <g clip-path="url(#pad5db010bb)">
     <use xlink:href="#m6dfdb83312" x="27.7625" y="113.932692" style="fill: #00b945; stroke: #00b945; stroke-linejoin: miter"/>
     <use xlink:href="#m6dfdb83312" x="55.6625" y="119.66144" style="fill: #00b945; stroke: #00b945; stroke-linejoin: miter"/>
     <use xlink:href="#m6dfdb83312" x="83.5625" y="124.869092" style="fill: #00b945; stroke: #00b945; stroke-linejoin: miter"/>
     <use xlink:href="#m6dfdb83312" x="111.4625" y="129.694528" style="fill: #00b945; stroke: #00b945; stroke-linejoin: miter"/>
     <use xlink:href="#m6dfdb83312" x="139.3625" y="134.276043" style="fill: #00b945; stroke: #00b945; stroke-linejoin: miter"/>
     <use xlink:href="#m6dfdb83312" x="167.2625" y="138.67087" style="fill: #00b945; stroke: #00b945; stroke-linejoin: miter"/>
     <use xlink:href="#m6dfdb83312" x="195.1625" y="142.963114" style="fill: #00b945; stroke: #00b945; stroke-linejoin: miter"/>
     <use xlink:href="#m6dfdb83312" x="223.0625" y="147.2079" style="fill: #00b945; stroke: #00b945; stroke-linejoin: miter"/>
    </g>
   </g>
   <g id="line2d_93">
    <path d="M 27.7625 61.714022 
L 55.6625 72.82595 
L 83.5625 82.262321 
L 111.4625 90.526791 
L 139.3625 97.972576 
L 167.2625 104.867451 
L 195.1625 111.370926 
L 223.0625 117.610432 
" clip-path="url(#pad5db010bb)" style="fill: none; stroke: #ff9500; stroke-width: 0.75; stroke-linecap: square"/>
    <defs>
     <path id="mf6743ff5d0" d="M -1 1 
L 1 1 
L 1 -1 
L -1 -1 
z
" style="stroke: #ff9500; stroke-linejoin: miter"/>
    </defs>
    <g clip-path="url(#pad5db010bb)">
     <use xlink:href="#mf6743ff5d0" x="27.7625" y="61.714022" style="fill: #ff9500; stroke: #ff9500; stroke-linejoin: miter"/>
     <use xlink:href="#mf6743ff5d0" x="55.6625" y="72.82595" style="fill: #ff9500; stroke: #ff9500; stroke-linejoin: miter"/>
     <use xlink:href="#mf6743ff5d0" x="83.5625" y="82.262321" style="fill: #ff9500; stroke: #ff9500; stroke-linejoin: miter"/>
     <use xlink:href="#mf6743ff5d0" x="111.4625" y="90.526791" style="fill: #ff9500; stroke: #ff9500; stroke-linejoin: miter"/>
     <use xlink:href="#mf6743ff5d0" x="139.3625" y="97.972576" style="fill: #ff9500; stroke: #ff9500; stroke-linejoin: miter"/>
     <use xlink:href="#mf6743ff5d0" x="167.2625" y="104.867451" style="fill: #ff9500; stroke: #ff9500; stroke-linejoin: miter"/>
     <use xlink:href="#mf6743ff5d0" x="195.1625" y="111.370926" style="fill: #ff9500; stroke: #ff9500; stroke-linejoin: miter"/>
     <use xlink:href="#mf6743ff5d0" x="223.0625" y="117.610432" style="fill: #ff9500; stroke: #ff9500; stroke-linejoin: miter"/>
    </g>
   </g>
   <g id="line2d_94">
    <path d="M 27.7625 14.198437 
L 55.6625 31.309606 
L 83.5625 44.997937 
L 111.4625 56.378148 
L 139.3625 66.224381 
L 167.2625 75.068704 
L 195.1625 83.247286 
L 223.0625 90.97538 
" clip-path="url(#pad5db010bb)" style="fill: none; stroke: #ff2c00; stroke-width: 0.75; stroke-linecap: square"/>
    <defs>
     <path id="mc21a748939" d="M 0 1.414214 
L 1.414214 0 
L 0 -1.414214 
L -1.414214 0 
z
" style="stroke: #ff2c00; stroke-linejoin: miter"/>
    </defs>
    <g clip-path="url(#pad5db010bb)">
     <use xlink:href="#mc21a748939" x="27.7625" y="14.198437" style="fill: #ff2c00; stroke: #ff2c00; stroke-linejoin: miter"/>
     <use xlink:href="#mc21a748939" x="55.6625" y="31.309606" style="fill: #ff2c00; stroke: #ff2c00; stroke-linejoin: miter"/>
     <use xlink:href="#mc21a748939" x="83.5625" y="44.997937" style="fill: #ff2c00; stroke: #ff2c00; stroke-linejoin: miter"/>
     <use xlink:href="#mc21a748939" x="111.4625" y="56.378148" style="fill: #ff2c00; stroke: #ff2c00; stroke-linejoin: miter"/>
     <use xlink:href="#mc21a748939" x="139.3625" y="66.224381" style="fill: #ff2c00; stroke: #ff2c00; stroke-linejoin: miter"/>
     <use xlink:href="#mc21a748939" x="167.2625" y="75.068704" style="fill: #ff2c00; stroke: #ff2c00; stroke-linejoin: miter"/>
     <use xlink:href="#mc21a748939" x="195.1625" y="83.247286" style="fill: #ff2c00; stroke: #ff2c00; stroke-linejoin: miter"/>
     <use xlink:href="#mc21a748939" x="223.0625" y="90.97538" style="fill: #ff2c00; stroke: #ff2c00; stroke-linejoin: miter"/>
    </g>
   </g>
   <g id="patch_3">
    <path d="M 27.7625 159.728437 
L 27.7625 14.198437 
" style="fill: none; stroke: #000000; stroke-width: 0.5; stroke-linejoin: miter; stroke-linecap: square"/>
   </g>
   <g id="patch_4">
    <path d="M 223.0625 159.728437 
L 223.0625 14.198437 
" style="fill: none; stroke: #000000; stroke-width: 0.5; stroke-linejoin: miter; stroke-linecap: square"/>
   </g>
   <g id="patch_5">
    <path d="M 27.7625 159.728437 
L 223.0625 159.728437 
" style="fill: none; stroke: #000000; stroke-width: 0.5; stroke-linejoin: miter; stroke-linecap: square"/>
   </g>
   <g id="patch_6">
    <path d="M 27.7625 14.198437 
L 223.0625 14.198437 
" style="fill: none; stroke: #000000; stroke-width: 0.5; stroke-linejoin: miter; stroke-linecap: square"/>
   </g>
  </g>
 </g>
 <defs>
  <clipPath id="pad5db010bb">
   <rect x="27.7625" y="14.198437" width="195.3" height="145.53"/>
  </clipPath>
 </defs>
</svg>
