<?xml version="1.0" encoding="utf-8" standalone="no"?>
<!DOCTYPE svg PUBLIC "-//W3C//DTD SVG 1.1//EN"
  "http://www.w3.org/Graphics/SVG/1.1/DTD/svg11.dtd">
<svg xmlns:xlink="http://www.w3.org/1999/xlink" width="1440pt" height="720pt" viewBox="0 0 1440 720" xmlns="http://www.w3.org/2000/svg" version="1.1">
 <metadata>
  <rdf:RDF xmlns:dc="http://purl.org/dc/elements/1.1/" xmlns:cc="http://creativecommons.org/ns#" xmlns:rdf="http://www.w3.org/1999/02/22-rdf-syntax-ns#">
   <cc:Work>
    <dc:type rdf:resource="http://purl.org/dc/dcmitype/StillImage"/>
    <dc:date>2022-10-16T16:28:45.145715</dc:date>
    <dc:format>image/svg+xml</dc:format>
    <dc:creator>
     <cc:Agent>
      <dc:title>Matplotlib v3.6.0, https://matplotlib.org/</dc:title>
     </cc:Agent>
    </dc:creator>
   </cc:Work>
  </rdf:RDF>
 </metadata>
 <defs>
  <style type="text/css">*{stroke-linejoin: round; stroke-linecap: butt}</style>
 </defs>
 <g id="figure_1">
  <g id="patch_1">
   <path d="M 0 720 
L 1440 720 
L 1440 0 
L 0 0 
z
" style="fill: #ffffff"/>
  </g>
  <g id="axes_1">
   <g id="patch_2">
    <path d="M 180 640.8 
L 687.272727 640.8 
L 687.272727 86.4 
L 180 86.4 
z
" style="fill: #ffffff"/>
   </g>
   <g id="matplotlib.axis_1">
    <g id="xtick_1">
     <g id="line2d_1">
      <path d="M 180 640.8 
L 180 86.4 
" clip-path="url(#p0ae47b9e69)" style="fill: none; stroke-dasharray: 2.96,1.28; stroke-dashoffset: 0; stroke: #000000; stroke-opacity: 0.8; stroke-width: 0.8"/>
     </g>
     <g id="line2d_2">
      <defs>
       <path id="m485cd35116" d="M 0 0 
L 0 3.5 
" style="stroke: #000000; stroke-width: 0.8"/>
      </defs>
      <g>
       <use xlink:href="#m485cd35116" x="180" y="640.8" style="stroke: #000000; stroke-width: 0.8"/>
      </g>
     </g>
     <g id="text_1">
      <!-- 0 -->
      <g transform="translate(177 655.995625) scale(0.12 -0.12)">
       <defs>
        <path id="STIXGeneral-Regular-30" d="M 3046 2112 
Q 3046 1683 2963 1302 
Q 2880 922 2717 602 
Q 2554 282 2266 96 
Q 1978 -90 1600 -90 
Q 1210 -90 915 108 
Q 621 307 461 640 
Q 301 973 227 1350 
Q 154 1728 154 2150 
Q 154 2746 301 3222 
Q 448 3699 790 4012 
Q 1133 4326 1626 4326 
Q 2253 4326 2649 3712 
Q 3046 3098 3046 2112 
z
M 2432 2080 
Q 2432 3091 2217 3625 
Q 2003 4160 1587 4160 
Q 1190 4160 979 3622 
Q 768 3085 768 2106 
Q 768 1120 979 598 
Q 1190 77 1600 77 
Q 2003 77 2217 598 
Q 2432 1120 2432 2080 
z
" transform="scale(0.015625)"/>
       </defs>
       <use xlink:href="#STIXGeneral-Regular-30"/>
      </g>
     </g>
    </g>
    <g id="xtick_2">
     <g id="line2d_3">
      <path d="M 230.727273 640.8 
L 230.727273 86.4 
" clip-path="url(#p0ae47b9e69)" style="fill: none; stroke-dasharray: 2.96,1.28; stroke-dashoffset: 0; stroke: #000000; stroke-opacity: 0.8; stroke-width: 0.8"/>
     </g>
     <g id="line2d_4">
      <g>
       <use xlink:href="#m485cd35116" x="230.727273" y="640.8" style="stroke: #000000; stroke-width: 0.8"/>
      </g>
     </g>
     <g id="text_2">
      <!-- 25 -->
      <g transform="translate(224.727273 655.995625) scale(0.12 -0.12)">
       <defs>
        <path id="STIXGeneral-Regular-32" d="M 3034 877 
L 2688 0 
L 186 0 
L 186 77 
L 1325 1286 
Q 1773 1754 1965 2144 
Q 2157 2534 2157 2950 
Q 2157 3379 1920 3616 
Q 1683 3853 1267 3853 
Q 922 3853 720 3673 
Q 518 3494 326 3021 
L 192 3053 
Q 301 3648 630 3987 
Q 960 4326 1523 4326 
Q 2054 4326 2380 4006 
Q 2707 3686 2707 3200 
Q 2707 2477 1888 1613 
L 832 486 
L 2330 486 
Q 2541 486 2665 569 
Q 2790 653 2944 915 
L 3034 877 
z
" transform="scale(0.015625)"/>
        <path id="STIXGeneral-Regular-35" d="M 2803 4358 
L 2573 3814 
Q 2534 3731 2400 3731 
L 1158 3731 
L 902 3187 
Q 1606 3053 1920 2896 
Q 2234 2739 2502 2368 
Q 2726 2061 2726 1555 
Q 2726 1094 2576 780 
Q 2426 467 2099 224 
Q 1664 -90 1011 -90 
Q 646 -90 422 19 
Q 198 128 198 307 
Q 198 550 486 550 
Q 717 550 960 352 
Q 1210 147 1414 147 
Q 1747 147 2012 480 
Q 2278 813 2278 1229 
Q 2278 1843 1850 2189 
Q 1293 2637 486 2637 
Q 410 2637 410 2688 
L 416 2720 
L 1114 4237 
L 2438 4237 
Q 2547 4237 2608 4269 
Q 2669 4301 2746 4403 
L 2803 4358 
z
" transform="scale(0.015625)"/>
       </defs>
       <use xlink:href="#STIXGeneral-Regular-32"/>
       <use xlink:href="#STIXGeneral-Regular-35" x="49.999985"/>
      </g>
     </g>
    </g>
    <g id="xtick_3">
     <g id="line2d_5">
      <path d="M 281.454545 640.8 
L 281.454545 86.4 
" clip-path="url(#p0ae47b9e69)" style="fill: none; stroke-dasharray: 2.96,1.28; stroke-dashoffset: 0; stroke: #000000; stroke-opacity: 0.8; stroke-width: 0.8"/>
     </g>
     <g id="line2d_6">
      <g>
       <use xlink:href="#m485cd35116" x="281.454545" y="640.8" style="stroke: #000000; stroke-width: 0.8"/>
      </g>
     </g>
     <g id="text_3">
      <!-- 50 -->
      <g transform="translate(275.454545 655.995625) scale(0.12 -0.12)">
       <use xlink:href="#STIXGeneral-Regular-35"/>
       <use xlink:href="#STIXGeneral-Regular-30" x="49.999985"/>
      </g>
     </g>
    </g>
    <g id="xtick_4">
     <g id="line2d_7">
      <path d="M 332.181818 640.8 
L 332.181818 86.4 
" clip-path="url(#p0ae47b9e69)" style="fill: none; stroke-dasharray: 2.96,1.28; stroke-dashoffset: 0; stroke: #000000; stroke-opacity: 0.8; stroke-width: 0.8"/>
     </g>
     <g id="line2d_8">
      <g>
       <use xlink:href="#m485cd35116" x="332.181818" y="640.8" style="stroke: #000000; stroke-width: 0.8"/>
      </g>
     </g>
     <g id="text_4">
      <!-- 75 -->
      <g transform="translate(326.181818 655.995625) scale(0.12 -0.12)">
       <defs>
        <path id="STIXGeneral-Regular-37" d="M 2874 4134 
L 1517 -51 
L 1101 -51 
L 2368 3763 
L 992 3763 
Q 717 3763 582 3667 
Q 448 3571 243 3238 
L 128 3296 
L 512 4237 
L 2874 4237 
L 2874 4134 
z
" transform="scale(0.015625)"/>
       </defs>
       <use xlink:href="#STIXGeneral-Regular-37"/>
       <use xlink:href="#STIXGeneral-Regular-35" x="49.999985"/>
      </g>
     </g>
    </g>
    <g id="xtick_5">
     <g id="line2d_9">
      <path d="M 382.909091 640.8 
L 382.909091 86.4 
" clip-path="url(#p0ae47b9e69)" style="fill: none; stroke-dasharray: 2.96,1.28; stroke-dashoffset: 0; stroke: #000000; stroke-opacity: 0.8; stroke-width: 0.8"/>
     </g>
     <g id="line2d_10">
      <g>
       <use xlink:href="#m485cd35116" x="382.909091" y="640.8" style="stroke: #000000; stroke-width: 0.8"/>
      </g>
     </g>
     <g id="text_5">
      <!-- 100 -->
      <g transform="translate(373.909091 655.995625) scale(0.12 -0.12)">
       <defs>
        <path id="STIXGeneral-Regular-31" d="M 2522 0 
L 755 0 
L 755 96 
Q 1107 115 1235 227 
Q 1363 339 1363 608 
L 1363 3482 
Q 1363 3795 1171 3795 
Q 1082 3795 883 3718 
L 710 3654 
L 710 3744 
L 1856 4326 
L 1914 4307 
L 1914 486 
Q 1914 275 2042 185 
Q 2170 96 2522 96 
L 2522 0 
z
" transform="scale(0.015625)"/>
       </defs>
       <use xlink:href="#STIXGeneral-Regular-31"/>
       <use xlink:href="#STIXGeneral-Regular-30" x="49.999985"/>
       <use xlink:href="#STIXGeneral-Regular-30" x="99.999969"/>
      </g>
     </g>
    </g>
    <g id="xtick_6">
     <g id="line2d_11">
      <path d="M 433.636364 640.8 
L 433.636364 86.4 
" clip-path="url(#p0ae47b9e69)" style="fill: none; stroke-dasharray: 2.96,1.28; stroke-dashoffset: 0; stroke: #000000; stroke-opacity: 0.8; stroke-width: 0.8"/>
     </g>
     <g id="line2d_12">
      <g>
       <use xlink:href="#m485cd35116" x="433.636364" y="640.8" style="stroke: #000000; stroke-width: 0.8"/>
      </g>
     </g>
     <g id="text_6">
      <!-- 125 -->
      <g transform="translate(424.636364 655.995625) scale(0.12 -0.12)">
       <use xlink:href="#STIXGeneral-Regular-31"/>
       <use xlink:href="#STIXGeneral-Regular-32" x="49.999985"/>
       <use xlink:href="#STIXGeneral-Regular-35" x="99.999969"/>
      </g>
     </g>
    </g>
    <g id="xtick_7">
     <g id="line2d_13">
      <path d="M 484.363636 640.8 
L 484.363636 86.4 
" clip-path="url(#p0ae47b9e69)" style="fill: none; stroke-dasharray: 2.96,1.28; stroke-dashoffset: 0; stroke: #000000; stroke-opacity: 0.8; stroke-width: 0.8"/>
     </g>
     <g id="line2d_14">
      <g>
       <use xlink:href="#m485cd35116" x="484.363636" y="640.8" style="stroke: #000000; stroke-width: 0.8"/>
      </g>
     </g>
     <g id="text_7">
      <!-- 150 -->
      <g transform="translate(475.363636 655.995625) scale(0.12 -0.12)">
       <use xlink:href="#STIXGeneral-Regular-31"/>
       <use xlink:href="#STIXGeneral-Regular-35" x="49.999985"/>
       <use xlink:href="#STIXGeneral-Regular-30" x="99.999969"/>
      </g>
     </g>
    </g>
    <g id="xtick_8">
     <g id="line2d_15">
      <path d="M 535.090909 640.8 
L 535.090909 86.4 
" clip-path="url(#p0ae47b9e69)" style="fill: none; stroke-dasharray: 2.96,1.28; stroke-dashoffset: 0; stroke: #000000; stroke-opacity: 0.8; stroke-width: 0.8"/>
     </g>
     <g id="line2d_16">
      <g>
       <use xlink:href="#m485cd35116" x="535.090909" y="640.8" style="stroke: #000000; stroke-width: 0.8"/>
      </g>
     </g>
     <g id="text_8">
      <!-- 175 -->
      <g transform="translate(526.090909 655.995625) scale(0.12 -0.12)">
       <use xlink:href="#STIXGeneral-Regular-31"/>
       <use xlink:href="#STIXGeneral-Regular-37" x="49.999985"/>
       <use xlink:href="#STIXGeneral-Regular-35" x="99.999969"/>
      </g>
     </g>
    </g>
    <g id="xtick_9">
     <g id="line2d_17">
      <path d="M 585.818182 640.8 
L 585.818182 86.4 
" clip-path="url(#p0ae47b9e69)" style="fill: none; stroke-dasharray: 2.96,1.28; stroke-dashoffset: 0; stroke: #000000; stroke-opacity: 0.8; stroke-width: 0.8"/>
     </g>
     <g id="line2d_18">
      <g>
       <use xlink:href="#m485cd35116" x="585.818182" y="640.8" style="stroke: #000000; stroke-width: 0.8"/>
      </g>
     </g>
     <g id="text_9">
      <!-- 200 -->
      <g transform="translate(576.818182 655.995625) scale(0.12 -0.12)">
       <use xlink:href="#STIXGeneral-Regular-32"/>
       <use xlink:href="#STIXGeneral-Regular-30" x="49.999985"/>
       <use xlink:href="#STIXGeneral-Regular-30" x="99.999969"/>
      </g>
     </g>
    </g>
    <g id="xtick_10">
     <g id="line2d_19">
      <path d="M 636.545455 640.8 
L 636.545455 86.4 
" clip-path="url(#p0ae47b9e69)" style="fill: none; stroke-dasharray: 2.96,1.28; stroke-dashoffset: 0; stroke: #000000; stroke-opacity: 0.8; stroke-width: 0.8"/>
     </g>
     <g id="line2d_20">
      <g>
       <use xlink:href="#m485cd35116" x="636.545455" y="640.8" style="stroke: #000000; stroke-width: 0.8"/>
      </g>
     </g>
     <g id="text_10">
      <!-- 225 -->
      <g transform="translate(627.545455 655.995625) scale(0.12 -0.12)">
       <use xlink:href="#STIXGeneral-Regular-32"/>
       <use xlink:href="#STIXGeneral-Regular-32" x="49.999985"/>
       <use xlink:href="#STIXGeneral-Regular-35" x="99.999969"/>
      </g>
     </g>
    </g>
    <g id="xtick_11">
     <g id="line2d_21">
      <path d="M 687.272727 640.8 
L 687.272727 86.4 
" clip-path="url(#p0ae47b9e69)" style="fill: none; stroke-dasharray: 2.96,1.28; stroke-dashoffset: 0; stroke: #000000; stroke-opacity: 0.8; stroke-width: 0.8"/>
     </g>
     <g id="line2d_22">
      <g>
       <use xlink:href="#m485cd35116" x="687.272727" y="640.8" style="stroke: #000000; stroke-width: 0.8"/>
      </g>
     </g>
     <g id="text_11">
      <!-- 250 -->
      <g transform="translate(678.272727 655.995625) scale(0.12 -0.12)">
       <use xlink:href="#STIXGeneral-Regular-32"/>
       <use xlink:href="#STIXGeneral-Regular-35" x="49.999985"/>
       <use xlink:href="#STIXGeneral-Regular-30" x="99.999969"/>
      </g>
     </g>
    </g>
    <g id="text_12">
     <!-- $\rho_{CH_4}\,[\mathrm{kg}/\mathrm{m}^{3}]$ -->
     <g transform="translate(395.761364 675.05) scale(0.15 -0.15)">
      <defs>
       <path id="STIXGeneral-Italic-3c1" d="M -58 -864 
L 422 966 
Q 640 1811 1081 2316 
Q 1523 2822 2042 2822 
Q 2189 2822 2278 2816 
Q 2368 2810 2525 2765 
Q 2682 2720 2774 2633 
Q 2867 2547 2940 2371 
Q 3014 2195 3014 1946 
Q 3014 1210 2403 570 
Q 1792 -70 1107 -70 
Q 864 -70 672 38 
L 442 -864 
Q 378 -1126 243 -1312 
L -256 -1312 
Q -128 -1114 -58 -864 
z
M 2445 1997 
Q 2445 2291 2333 2489 
Q 2221 2688 2022 2688 
Q 1747 2688 1472 2361 
Q 1197 2035 1056 1530 
Q 762 467 762 288 
Q 762 186 851 118 
Q 941 51 1075 51 
Q 1472 58 1798 390 
Q 2125 723 2285 1161 
Q 2445 1600 2445 1997 
z
" transform="scale(0.015625)"/>
       <path id="STIXGeneral-Italic-43" d="M 4410 4250 
L 4173 2970 
L 4058 2989 
Q 3942 4032 3104 4032 
Q 2406 4032 1830 3411 
Q 1491 3053 1315 2541 
Q 1139 2029 1139 1485 
Q 1139 173 2259 173 
Q 2656 173 2985 339 
Q 3315 506 3725 934 
L 3840 838 
Q 3411 333 2998 109 
Q 2586 -115 2093 -115 
Q 1344 -115 883 329 
Q 422 774 422 1555 
Q 422 2214 748 2812 
Q 1075 3411 1619 3795 
Q 2272 4262 3021 4262 
Q 3462 4262 3770 4154 
Q 3898 4109 4032 4109 
Q 4205 4109 4275 4250 
L 4410 4250 
z
" transform="scale(0.015625)"/>
       <path id="STIXGeneral-Italic-48" d="M 4922 4179 
L 4922 4077 
Q 4640 4026 4550 3949 
Q 4461 3872 4384 3603 
L 3539 525 
Q 3520 448 3520 371 
Q 3520 237 3616 185 
Q 3712 134 4026 102 
L 4026 0 
L 2272 0 
L 2272 102 
Q 2598 128 2729 237 
Q 2861 346 2925 595 
L 3334 2086 
L 1510 2086 
L 1088 525 
Q 1069 461 1069 384 
Q 1069 243 1149 192 
Q 1229 141 1517 102 
L 1517 0 
L -51 0 
L -51 102 
Q 211 128 310 230 
Q 410 333 499 653 
L 1254 3405 
Q 1331 3699 1331 3814 
Q 1331 3949 1238 3997 
Q 1146 4045 838 4077 
L 838 4179 
L 2573 4179 
L 2573 4077 
Q 2285 4058 2141 3955 
Q 1997 3853 1933 3622 
L 1587 2355 
L 3411 2355 
L 3706 3405 
Q 3795 3738 3795 3808 
Q 3795 3930 3692 3994 
Q 3590 4058 3334 4077 
L 3334 4179 
L 4922 4179 
z
" transform="scale(0.015625)"/>
       <path id="STIXGeneral-Regular-34" d="M 3027 1069 
L 2368 1069 
L 2368 0 
L 1869 0 
L 1869 1069 
L 77 1069 
L 77 1478 
L 2086 4326 
L 2368 4326 
L 2368 1478 
L 3027 1478 
L 3027 1069 
z
M 1869 1478 
L 1869 3674 
L 333 1478 
L 1869 1478 
z
" transform="scale(0.015625)"/>
       <path id="STIXGeneral-Regular-5b" d="M 1914 -998 
L 563 -998 
L 563 4237 
L 1914 4237 
L 1914 4077 
L 1382 4077 
Q 1216 4077 1133 4006 
Q 1050 3936 1050 3770 
L 1050 -493 
Q 1050 -838 1382 -838 
L 1914 -838 
L 1914 -998 
z
" transform="scale(0.015625)"/>
       <path id="STIXGeneral-Regular-6b" d="M 3232 0 
L 1837 0 
L 1837 96 
L 1958 96 
Q 2093 96 2093 192 
Q 2093 250 2022 339 
L 1062 1606 
L 1062 429 
Q 1062 262 1142 185 
Q 1222 109 1414 102 
L 1542 96 
L 1542 0 
L 45 0 
L 45 96 
Q 390 154 457 214 
Q 525 275 525 525 
L 525 3610 
Q 525 3840 467 3920 
Q 410 4000 250 4000 
Q 211 4000 45 3987 
L 45 4090 
L 237 4141 
Q 621 4243 1037 4371 
L 1062 4358 
L 1062 1670 
L 1939 2451 
Q 2086 2586 2086 2675 
Q 2086 2739 2019 2761 
Q 1952 2784 1766 2790 
L 1766 2880 
L 3072 2880 
L 3072 2784 
Q 2752 2784 2505 2646 
Q 2259 2509 1690 1978 
L 1504 1805 
L 2483 563 
Q 2829 122 3232 96 
L 3232 0 
z
" transform="scale(0.015625)"/>
       <path id="STIXGeneral-Regular-67" d="M 3008 2483 
L 2477 2483 
Q 2598 2208 2598 1946 
Q 2598 1453 2265 1203 
Q 1933 954 1600 954 
Q 1530 954 1357 973 
L 1235 986 
Q 1107 947 979 812 
Q 851 678 851 582 
Q 851 435 1350 410 
L 2176 371 
Q 2528 358 2739 172 
Q 2950 -13 2950 -314 
Q 2950 -685 2566 -986 
Q 2035 -1395 1286 -1395 
Q 826 -1395 502 -1212 
Q 179 -1030 179 -774 
Q 179 -595 320 -419 
Q 461 -243 806 6 
Q 602 102 534 172 
Q 467 243 467 346 
Q 467 531 762 787 
Q 909 915 1037 1043 
Q 717 1203 579 1401 
Q 442 1600 442 1901 
Q 442 2336 752 2640 
Q 1062 2944 1510 2944 
Q 1766 2944 2022 2848 
L 2163 2797 
Q 2349 2733 2515 2733 
L 3008 2733 
L 3008 2483 
z
M 973 2163 
L 973 2144 
Q 973 1683 1155 1398 
Q 1338 1114 1632 1114 
Q 1850 1114 1978 1270 
Q 2106 1427 2106 1690 
Q 2106 2112 1914 2464 
Q 1754 2765 1446 2765 
Q 1222 2765 1097 2605 
Q 973 2445 973 2163 
z
M 2771 -410 
Q 2771 -230 2595 -163 
Q 2419 -96 1978 -96 
Q 1344 -96 941 -13 
Q 749 -243 688 -348 
Q 627 -454 627 -563 
Q 627 -774 880 -902 
Q 1133 -1030 1555 -1030 
Q 2099 -1030 2435 -860 
Q 2771 -691 2771 -410 
z
" transform="scale(0.015625)"/>
       <path id="STIXGeneral-Regular-2f" d="M 1837 4326 
L 378 -90 
L -58 -90 
L 1408 4326 
L 1837 4326 
z
" transform="scale(0.015625)"/>
       <path id="STIXGeneral-Regular-6d" d="M 4960 0 
L 3565 0 
L 3565 96 
Q 3834 122 3907 208 
Q 3981 294 3981 576 
L 3981 1894 
Q 3981 2278 3869 2444 
Q 3757 2611 3488 2611 
Q 3264 2611 3107 2521 
Q 2950 2432 2803 2221 
L 2803 608 
Q 2803 301 2896 201 
Q 2989 102 3264 96 
L 3264 0 
L 1830 0 
L 1830 96 
Q 2112 115 2189 188 
Q 2266 262 2266 550 
L 2266 1901 
Q 2266 2611 1850 2611 
Q 1670 2611 1468 2531 
Q 1267 2451 1171 2336 
Q 1088 2240 1088 2227 
L 1088 448 
Q 1088 243 1177 176 
Q 1267 109 1523 96 
L 1523 0 
L 102 0 
L 102 96 
Q 371 102 460 195 
Q 550 288 550 563 
L 550 2150 
Q 550 2387 499 2480 
Q 448 2573 326 2573 
Q 230 2573 122 2547 
L 122 2656 
Q 557 2778 1011 2944 
L 1062 2925 
L 1062 2451 
L 1075 2451 
Q 1363 2752 1584 2848 
Q 1805 2944 2054 2944 
Q 2560 2944 2733 2406 
Q 3232 2944 3776 2944 
Q 4518 2944 4518 1792 
L 4518 493 
Q 4518 282 4582 202 
Q 4646 122 4794 109 
L 4960 96 
L 4960 0 
z
" transform="scale(0.015625)"/>
       <path id="STIXGeneral-Regular-33" d="M 390 3264 
L 288 3290 
Q 435 3770 748 4048 
Q 1062 4326 1542 4326 
Q 1990 4326 2265 4083 
Q 2541 3840 2541 3450 
Q 2541 2925 1946 2566 
Q 2298 2413 2477 2227 
Q 2758 1914 2758 1402 
Q 2758 890 2464 506 
Q 2246 211 1840 60 
Q 1434 -90 979 -90 
Q 262 -90 262 275 
Q 262 378 339 442 
Q 416 506 525 506 
Q 685 506 915 339 
Q 1197 141 1466 141 
Q 1818 141 2058 425 
Q 2298 710 2298 1120 
Q 2298 1856 1632 2048 
Q 1434 2112 979 2112 
L 979 2202 
Q 1338 2323 1517 2432 
Q 2035 2726 2035 3290 
Q 2035 3610 1852 3776 
Q 1670 3942 1344 3942 
Q 768 3942 390 3264 
z
" transform="scale(0.015625)"/>
       <path id="STIXGeneral-Regular-5d" d="M 1568 -998 
L 218 -998 
L 218 -838 
L 781 -838 
Q 947 -838 1014 -768 
Q 1082 -698 1082 -544 
L 1082 3731 
Q 1082 4077 755 4077 
L 218 4077 
L 218 4237 
L 1568 4237 
L 1568 -998 
z
" transform="scale(0.015625)"/>
      </defs>
      <use xlink:href="#STIXGeneral-Italic-3c1" transform="translate(0 0.409375)"/>
      <use xlink:href="#STIXGeneral-Italic-43" transform="translate(50.399994 -12.81875) scale(0.7)"/>
      <use xlink:href="#STIXGeneral-Italic-48" transform="translate(97.089992 -12.81875) scale(0.7)"/>
      <use xlink:href="#STIXGeneral-Regular-34" transform="translate(147.629979 -22.078437) scale(0.49)"/>
      <use xlink:href="#STIXGeneral-Regular-5b" transform="translate(191.65948 0.409375)"/>
      <use xlink:href="#STIXGeneral-Regular-6b" transform="translate(224.959468 0.409375)"/>
      <use xlink:href="#STIXGeneral-Regular-67" transform="translate(274.959452 0.409375)"/>
      <use xlink:href="#STIXGeneral-Regular-2f" transform="translate(324.959437 0.409375)"/>
      <use xlink:href="#STIXGeneral-Regular-6d" transform="translate(352.759425 0.409375)"/>
      <use xlink:href="#STIXGeneral-Regular-33" transform="translate(432.102694 35.684375) scale(0.7)"/>
      <use xlink:href="#STIXGeneral-Regular-5d" transform="translate(471.512058 0.409375)"/>
     </g>
    </g>
   </g>
   <g id="matplotlib.axis_2">
    <g id="ytick_1">
     <g id="line2d_23">
      <path d="M 180 640.8 
L 687.272727 640.8 
" clip-path="url(#p0ae47b9e69)" style="fill: none; stroke-dasharray: 2.96,1.28; stroke-dashoffset: 0; stroke: #000000; stroke-opacity: 0.8; stroke-width: 0.8"/>
     </g>
     <g id="line2d_24">
      <defs>
       <path id="m8dfb53fa3c" d="M 0 0 
L -3.5 0 
" style="stroke: #000000; stroke-width: 0.8"/>
      </defs>
      <g>
       <use xlink:href="#m8dfb53fa3c" x="180" y="640.8" style="stroke: #000000; stroke-width: 0.8"/>
      </g>
     </g>
     <g id="text_13">
      <!-- 0 -->
      <g transform="translate(167 644.897812) scale(0.12 -0.12)">
       <use xlink:href="#STIXGeneral-Regular-30"/>
      </g>
     </g>
    </g>
    <g id="ytick_2">
     <g id="line2d_25">
      <path d="M 180 585.36 
L 687.272727 585.36 
" clip-path="url(#p0ae47b9e69)" style="fill: none; stroke-dasharray: 2.96,1.28; stroke-dashoffset: 0; stroke: #000000; stroke-opacity: 0.8; stroke-width: 0.8"/>
     </g>
     <g id="line2d_26">
      <g>
       <use xlink:href="#m8dfb53fa3c" x="180" y="585.36" style="stroke: #000000; stroke-width: 0.8"/>
      </g>
     </g>
     <g id="text_14">
      <!-- 5 -->
      <g transform="translate(167 589.457813) scale(0.12 -0.12)">
       <use xlink:href="#STIXGeneral-Regular-35"/>
      </g>
     </g>
    </g>
    <g id="ytick_3">
     <g id="line2d_27">
      <path d="M 180 529.92 
L 687.272727 529.92 
" clip-path="url(#p0ae47b9e69)" style="fill: none; stroke-dasharray: 2.96,1.28; stroke-dashoffset: 0; stroke: #000000; stroke-opacity: 0.8; stroke-width: 0.8"/>
     </g>
     <g id="line2d_28">
      <g>
       <use xlink:href="#m8dfb53fa3c" x="180" y="529.92" style="stroke: #000000; stroke-width: 0.8"/>
      </g>
     </g>
     <g id="text_15">
      <!-- 10 -->
      <g transform="translate(161 534.017812) scale(0.12 -0.12)">
       <use xlink:href="#STIXGeneral-Regular-31"/>
       <use xlink:href="#STIXGeneral-Regular-30" x="49.999985"/>
      </g>
     </g>
    </g>
    <g id="ytick_4">
     <g id="line2d_29">
      <path d="M 180 474.48 
L 687.272727 474.48 
" clip-path="url(#p0ae47b9e69)" style="fill: none; stroke-dasharray: 2.96,1.28; stroke-dashoffset: 0; stroke: #000000; stroke-opacity: 0.8; stroke-width: 0.8"/>
     </g>
     <g id="line2d_30">
      <g>
       <use xlink:href="#m8dfb53fa3c" x="180" y="474.48" style="stroke: #000000; stroke-width: 0.8"/>
      </g>
     </g>
     <g id="text_16">
      <!-- 15 -->
      <g transform="translate(161 478.577812) scale(0.12 -0.12)">
       <use xlink:href="#STIXGeneral-Regular-31"/>
       <use xlink:href="#STIXGeneral-Regular-35" x="49.999985"/>
      </g>
     </g>
    </g>
    <g id="ytick_5">
     <g id="line2d_31">
      <path d="M 180 419.04 
L 687.272727 419.04 
" clip-path="url(#p0ae47b9e69)" style="fill: none; stroke-dasharray: 2.96,1.28; stroke-dashoffset: 0; stroke: #000000; stroke-opacity: 0.8; stroke-width: 0.8"/>
     </g>
     <g id="line2d_32">
      <g>
       <use xlink:href="#m8dfb53fa3c" x="180" y="419.04" style="stroke: #000000; stroke-width: 0.8"/>
      </g>
     </g>
     <g id="text_17">
      <!-- 20 -->
      <g transform="translate(161 423.137812) scale(0.12 -0.12)">
       <use xlink:href="#STIXGeneral-Regular-32"/>
       <use xlink:href="#STIXGeneral-Regular-30" x="49.999985"/>
      </g>
     </g>
    </g>
    <g id="ytick_6">
     <g id="line2d_33">
      <path d="M 180 363.6 
L 687.272727 363.6 
" clip-path="url(#p0ae47b9e69)" style="fill: none; stroke-dasharray: 2.96,1.28; stroke-dashoffset: 0; stroke: #000000; stroke-opacity: 0.8; stroke-width: 0.8"/>
     </g>
     <g id="line2d_34">
      <g>
       <use xlink:href="#m8dfb53fa3c" x="180" y="363.6" style="stroke: #000000; stroke-width: 0.8"/>
      </g>
     </g>
     <g id="text_18">
      <!-- 25 -->
      <g transform="translate(161 367.697812) scale(0.12 -0.12)">
       <use xlink:href="#STIXGeneral-Regular-32"/>
       <use xlink:href="#STIXGeneral-Regular-35" x="49.999985"/>
      </g>
     </g>
    </g>
    <g id="ytick_7">
     <g id="line2d_35">
      <path d="M 180 308.16 
L 687.272727 308.16 
" clip-path="url(#p0ae47b9e69)" style="fill: none; stroke-dasharray: 2.96,1.28; stroke-dashoffset: 0; stroke: #000000; stroke-opacity: 0.8; stroke-width: 0.8"/>
     </g>
     <g id="line2d_36">
      <g>
       <use xlink:href="#m8dfb53fa3c" x="180" y="308.16" style="stroke: #000000; stroke-width: 0.8"/>
      </g>
     </g>
     <g id="text_19">
      <!-- 30 -->
      <g transform="translate(161 312.257812) scale(0.12 -0.12)">
       <use xlink:href="#STIXGeneral-Regular-33"/>
       <use xlink:href="#STIXGeneral-Regular-30" x="49.999985"/>
      </g>
     </g>
    </g>
    <g id="ytick_8">
     <g id="line2d_37">
      <path d="M 180 252.72 
L 687.272727 252.72 
" clip-path="url(#p0ae47b9e69)" style="fill: none; stroke-dasharray: 2.96,1.28; stroke-dashoffset: 0; stroke: #000000; stroke-opacity: 0.8; stroke-width: 0.8"/>
     </g>
     <g id="line2d_38">
      <g>
       <use xlink:href="#m8dfb53fa3c" x="180" y="252.72" style="stroke: #000000; stroke-width: 0.8"/>
      </g>
     </g>
     <g id="text_20">
      <!-- 35 -->
      <g transform="translate(161 256.817812) scale(0.12 -0.12)">
       <use xlink:href="#STIXGeneral-Regular-33"/>
       <use xlink:href="#STIXGeneral-Regular-35" x="49.999985"/>
      </g>
     </g>
    </g>
    <g id="ytick_9">
     <g id="line2d_39">
      <path d="M 180 197.28 
L 687.272727 197.28 
" clip-path="url(#p0ae47b9e69)" style="fill: none; stroke-dasharray: 2.96,1.28; stroke-dashoffset: 0; stroke: #000000; stroke-opacity: 0.8; stroke-width: 0.8"/>
     </g>
     <g id="line2d_40">
      <g>
       <use xlink:href="#m8dfb53fa3c" x="180" y="197.28" style="stroke: #000000; stroke-width: 0.8"/>
      </g>
     </g>
     <g id="text_21">
      <!-- 40 -->
      <g transform="translate(161 201.377813) scale(0.12 -0.12)">
       <use xlink:href="#STIXGeneral-Regular-34"/>
       <use xlink:href="#STIXGeneral-Regular-30" x="49.999985"/>
      </g>
     </g>
    </g>
    <g id="ytick_10">
     <g id="line2d_41">
      <path d="M 180 141.84 
L 687.272727 141.84 
" clip-path="url(#p0ae47b9e69)" style="fill: none; stroke-dasharray: 2.96,1.28; stroke-dashoffset: 0; stroke: #000000; stroke-opacity: 0.8; stroke-width: 0.8"/>
     </g>
     <g id="line2d_42">
      <g>
       <use xlink:href="#m8dfb53fa3c" x="180" y="141.84" style="stroke: #000000; stroke-width: 0.8"/>
      </g>
     </g>
     <g id="text_22">
      <!-- 45 -->
      <g transform="translate(161 145.937812) scale(0.12 -0.12)">
       <use xlink:href="#STIXGeneral-Regular-34"/>
       <use xlink:href="#STIXGeneral-Regular-35" x="49.999985"/>
      </g>
     </g>
    </g>
    <g id="ytick_11">
     <g id="line2d_43">
      <path d="M 180 86.4 
L 687.272727 86.4 
" clip-path="url(#p0ae47b9e69)" style="fill: none; stroke-dasharray: 2.96,1.28; stroke-dashoffset: 0; stroke: #000000; stroke-opacity: 0.8; stroke-width: 0.8"/>
     </g>
     <g id="line2d_44">
      <g>
       <use xlink:href="#m8dfb53fa3c" x="180" y="86.4" style="stroke: #000000; stroke-width: 0.8"/>
      </g>
     </g>
     <g id="text_23">
      <!-- 50 -->
      <g transform="translate(161 90.497812) scale(0.12 -0.12)">
       <use xlink:href="#STIXGeneral-Regular-35"/>
       <use xlink:href="#STIXGeneral-Regular-30" x="49.999985"/>
      </g>
     </g>
    </g>
    <g id="text_24">
     <!-- $P\,[\mathrm{MPa}]$ -->
     <g transform="translate(153.744531 388.275) rotate(-90) scale(0.15 -0.15)">
      <defs>
       <path id="STIXGeneral-Italic-50" d="M 934 4179 
L 2477 4179 
Q 3872 4179 3872 3232 
Q 3872 2976 3753 2729 
Q 3635 2483 3437 2317 
Q 2995 1952 2125 1952 
Q 1773 1952 1549 2003 
L 1210 768 
Q 1120 422 1120 365 
Q 1120 250 1216 189 
Q 1312 128 1562 102 
L 1562 0 
L 0 0 
L 0 102 
Q 275 141 361 227 
Q 448 314 538 627 
L 1280 3277 
Q 1389 3667 1389 3808 
Q 1389 3936 1299 3990 
Q 1210 4045 934 4077 
L 934 4179 
z
M 2048 3789 
L 1606 2221 
Q 1792 2189 1939 2189 
Q 2496 2189 2758 2342 
Q 3213 2598 3213 3200 
Q 3213 3987 2381 3987 
Q 2099 3987 2048 3789 
z
" transform="scale(0.015625)"/>
       <path id="STIXGeneral-Regular-4d" d="M 5530 0 
L 3738 0 
L 3738 122 
Q 4115 147 4214 265 
Q 4314 384 4314 787 
L 4314 3661 
L 2682 0 
L 2592 0 
L 979 3514 
L 979 966 
Q 979 448 1088 294 
Q 1197 141 1574 122 
L 1574 0 
L 77 0 
L 77 122 
Q 358 141 480 205 
Q 602 269 650 432 
Q 698 595 698 966 
L 698 3514 
Q 698 3878 589 3984 
Q 480 4090 90 4115 
L 90 4237 
L 1357 4237 
L 2835 1024 
L 4250 4237 
L 5523 4237 
L 5523 4115 
Q 5178 4109 5072 3993 
Q 4966 3878 4966 3520 
L 4966 717 
Q 4966 378 5072 262 
Q 5178 147 5530 122 
L 5530 0 
z
" transform="scale(0.015625)"/>
       <path id="STIXGeneral-Regular-50" d="M 102 4237 
L 1760 4237 
Q 2669 4237 3149 3834 
Q 3469 3565 3469 3072 
Q 3469 2560 3104 2234 
Q 2835 1990 2553 1916 
Q 2272 1843 1734 1843 
Q 1549 1843 1293 1862 
L 1293 717 
Q 1293 352 1398 246 
Q 1504 141 1894 122 
L 1894 0 
L 102 0 
L 102 122 
Q 474 147 557 256 
Q 640 365 640 781 
L 640 3526 
Q 640 3885 547 3987 
Q 454 4090 102 4115 
L 102 4237 
z
M 1293 3770 
L 1293 2118 
Q 1510 2099 1683 2099 
Q 2202 2099 2486 2352 
Q 2771 2605 2771 3040 
Q 2771 3558 2476 3779 
Q 2182 4000 1517 4000 
Q 1382 4000 1337 3952 
Q 1293 3904 1293 3770 
z
" transform="scale(0.015625)"/>
       <path id="STIXGeneral-Regular-61" d="M 2829 422 
L 2829 243 
Q 2586 -64 2253 -64 
Q 1888 -64 1843 403 
L 1837 403 
Q 1427 -64 909 -64 
Q 608 -64 422 112 
Q 237 288 237 602 
Q 237 1050 685 1350 
Q 992 1555 1837 1869 
L 1837 2214 
Q 1837 2502 1699 2646 
Q 1562 2790 1338 2790 
Q 1146 2790 1018 2697 
Q 890 2605 890 2477 
Q 890 2419 909 2348 
Q 928 2278 928 2208 
Q 928 2112 841 2029 
Q 755 1946 634 1946 
Q 525 1946 441 2029 
Q 358 2112 358 2240 
Q 358 2547 685 2752 
Q 986 2944 1421 2944 
Q 1939 2944 2176 2656 
Q 2291 2522 2323 2384 
Q 2355 2246 2355 1946 
L 2355 723 
Q 2355 301 2554 301 
Q 2682 301 2829 422 
z
M 1837 813 
L 1837 1715 
Q 1248 1510 1018 1293 
Q 800 1094 800 800 
Q 800 557 921 432 
Q 1043 307 1242 307 
Q 1453 307 1613 410 
Q 1747 506 1792 589 
Q 1837 672 1837 813 
z
" transform="scale(0.015625)"/>
      </defs>
      <use xlink:href="#STIXGeneral-Italic-50" transform="translate(0 0.796875)"/>
      <use xlink:href="#STIXGeneral-Regular-5b" transform="translate(73.133562 0.796875)"/>
      <use xlink:href="#STIXGeneral-Regular-4d" transform="translate(106.43355 0.796875)"/>
      <use xlink:href="#STIXGeneral-Regular-50" transform="translate(195.333543 0.796875)"/>
      <use xlink:href="#STIXGeneral-Regular-61" transform="translate(251.03354 0.796875)"/>
      <use xlink:href="#STIXGeneral-Regular-5d" transform="translate(295.433534 0.796875)"/>
     </g>
    </g>
   </g>
   <g id="line2d_45">
    <path d="M 182.029091 639.093378 
L 192.174545 630.730901 
L 202.32 622.638053 
L 212.465455 614.794946 
L 224.64 605.685054 
L 236.814545 596.872149 
L 248.989091 588.321769 
L 263.192727 578.631561 
L 279.425455 567.864129 
L 297.687273 556.039483 
L 326.094545 537.963973 
L 354.501818 519.831461 
L 370.734545 509.234202 
L 384.938182 499.709257 
L 397.112727 491.291258 
L 409.287273 482.578678 
L 419.432727 475.04845 
L 429.578182 467.23167 
L 439.723636 459.08654 
L 447.84 452.303902 
L 455.956364 445.257746 
L 464.072727 437.921876 
L 472.189091 430.268419 
L 480.305455 422.267696 
L 488.421818 413.888085 
L 496.538182 405.095871 
L 502.625455 398.209404 
L 508.712727 391.054635 
L 514.8 383.614739 
L 520.887273 375.872065 
L 526.974545 367.808111 
L 533.061818 359.403484 
L 539.149091 350.637876 
L 545.236364 341.490031 
L 551.323636 331.937712 
L 557.410909 321.957675 
L 563.498182 311.525633 
L 569.585455 300.61623 
L 575.672727 289.203002 
L 581.76 277.258351 
L 587.847273 264.753508 
L 593.934545 251.658498 
L 600.021818 237.942113 
L 606.109091 223.571873 
L 612.196364 208.513996 
L 618.283636 192.733374 
L 624.370909 176.193534 
L 630.458182 158.856623 
L 636.545455 140.683373 
L 642.632727 121.633084 
L 648.72 101.663604 
L 654.807273 80.731301 
L 660.894545 58.791053 
L 666.981818 35.796228 
L 673.069091 11.698662 
L 676.162037 -1 
L 676.162037 -1 
" clip-path="url(#p0ae47b9e69)" style="fill: none; stroke: #000000; stroke-width: 2; stroke-linecap: square"/>
   </g>
   <g id="line2d_46">
    <path d="M 182.029091 639.064484 
L 192.174545 630.552694 
L 202.32 622.302509 
L 214.494545 612.719657 
L 226.669091 603.450809 
L 238.843636 594.461734 
L 253.047273 584.281932 
L 267.250909 574.380084 
L 283.483636 563.330983 
L 303.774545 549.792607 
L 358.56 513.396429 
L 374.792727 502.241047 
L 386.967273 493.63582 
L 399.141818 484.765371 
L 409.287273 477.128061 
L 419.432727 469.228437 
L 429.578182 461.026793 
L 437.694545 454.219454 
L 445.810909 447.168241 
L 453.927273 439.848385 
L 462.043636 432.233573 
L 470.16 424.295831 
L 478.276364 416.005398 
L 486.392727 407.330588 
L 494.509091 398.237657 
L 500.596364 391.122029 
L 506.683636 383.73501 
L 512.770909 376.059798 
L 518.858182 368.078784 
L 524.945455 359.773512 
L 531.032727 351.124658 
L 537.12 342.111987 
L 543.207273 332.714333 
L 549.294545 322.909559 
L 555.381818 312.674533 
L 561.469091 301.985097 
L 567.556364 290.816029 
L 573.643636 279.14102 
L 579.730909 266.932637 
L 585.818182 254.162289 
L 591.905455 240.800199 
L 597.992727 226.815367 
L 604.08 212.175542 
L 610.167273 196.847186 
L 616.254545 180.79545 
L 622.341818 163.984142 
L 628.429091 146.375702 
L 634.516364 127.931178 
L 640.603636 108.610198 
L 646.690909 88.370956 
L 652.778182 67.170183 
L 658.865455 44.963137 
L 664.952727 21.703577 
L 670.632408 -1 
L 670.632408 -1 
" clip-path="url(#p0ae47b9e69)" style="fill: none; stroke: #0000ff; stroke-width: 2; stroke-linecap: square"/>
   </g>
   <g id="line2d_47">
    <path d="M 182.029091 639.035591 
L 192.174545 630.37455 
L 202.32 621.967166 
L 214.494545 612.185225 
L 226.669091 602.705896 
L 238.843636 593.494921 
L 253.047273 583.041704 
L 269.28 571.412806 
L 287.541818 558.632809 
L 313.92 540.490191 
L 346.385455 518.13572 
L 362.618182 506.713117 
L 376.821818 496.465639 
L 388.996364 487.428534 
L 401.170909 478.097675 
L 411.316364 470.05343 
L 421.461818 461.724358 
L 431.607273 453.069366 
L 439.723636 445.88114 
L 447.84 438.431972 
L 455.956364 430.696231 
L 464.072727 422.646696 
L 472.189091 414.254436 
L 480.305455 405.488685 
L 488.421818 396.316711 
L 494.509091 389.150274 
L 500.596364 381.72027 
L 506.683636 374.010439 
L 512.770909 366.003745 
L 518.858182 357.682343 
L 524.945455 349.027547 
L 531.032727 340.0198 
L 537.12 330.63864 
L 543.207273 320.862672 
L 549.294545 310.669537 
L 555.381818 300.035878 
L 561.469091 288.937314 
L 567.556364 277.348408 
L 573.643636 265.242632 
L 579.730909 252.592339 
L 585.818182 239.36873 
L 591.905455 225.54182 
L 597.992727 211.080408 
L 604.08 195.952047 
L 610.167273 180.123011 
L 616.254545 163.558268 
L 622.341818 146.221452 
L 628.429091 128.074836 
L 634.516364 109.07931 
L 640.603636 89.194355 
L 646.690909 68.378025 
L 652.778182 46.586922 
L 658.865455 23.776182 
L 665.175189 -1 
L 665.175189 -1 
" clip-path="url(#p0ae47b9e69)" style="fill: none; stroke: #00bfbf; stroke-width: 2; stroke-linecap: square"/>
   </g>
   <g id="line2d_48">
    <path d="M 182.029091 639.0067 
L 192.174545 630.196463 
L 204.349091 619.946873 
L 216.523636 610.017014 
L 228.698182 600.372763 
L 242.901818 589.43625 
L 257.105455 578.786318 
L 273.338182 566.893252 
L 293.629091 552.316866 
L 352.472727 510.260318 
L 368.705455 498.254901 
L 380.88 489.002481 
L 393.054545 479.47639 
L 403.2 471.286234 
L 413.345455 462.827923 
L 423.490909 454.061861 
L 433.636364 444.94555 
L 441.752727 437.369745 
L 449.869091 429.515645 
L 457.985455 421.356753 
L 466.101818 412.864935 
L 474.218182 404.010302 
L 482.334545 394.761085 
L 490.450909 385.083506 
L 496.538182 377.522684 
L 502.625455 369.684758 
L 508.712727 361.552984 
L 514.8 353.109831 
L 520.887273 344.336948 
L 526.974545 335.215136 
L 533.061818 325.724314 
L 539.149091 315.843488 
L 545.236364 305.550722 
L 551.323636 294.823108 
L 557.410909 283.636731 
L 563.498182 271.966647 
L 569.585455 259.786841 
L 575.672727 247.070206 
L 581.76 233.788506 
L 587.847273 219.912342 
L 593.934545 205.41113 
L 600.021818 190.253059 
L 606.109091 174.405069 
L 612.196364 157.832819 
L 618.283636 140.500658 
L 624.370909 122.371601 
L 630.458182 103.407301 
L 636.545455 83.56803 
L 642.632727 62.812651 
L 648.72 41.098602 
L 654.807273 18.381875 
L 659.788518 -1 
L 659.788518 -1 
" clip-path="url(#p0ae47b9e69)" style="fill: none; stroke: #bf00bf; stroke-width: 2; stroke-linecap: square"/>
   </g>
   <g id="line2d_49">
    <path d="M 182.029091 638.97781 
L 192.174545 630.018432 
L 204.349091 619.57958 
L 216.523636 609.449249 
L 228.698182 599.59329 
L 242.901818 588.395497 
L 257.105455 577.468717 
L 275.367273 563.726548 
L 299.716364 545.737836 
L 340.298182 515.806262 
L 356.530909 503.555655 
L 370.734545 492.572531 
L 382.909091 482.89636 
L 395.083636 472.918518 
L 405.229091 464.329119 
L 415.374545 455.449554 
L 425.52 446.238908 
L 433.636364 438.60261 
L 441.752727 430.702397 
L 449.869091 422.512847 
L 457.985455 414.006994 
L 466.101818 405.156221 
L 474.218182 395.93014 
L 482.334545 386.296473 
L 490.450909 376.220921 
L 496.538182 368.352428 
L 502.625455 360.198706 
L 508.712727 351.742786 
L 514.8 342.966912 
L 520.887273 333.852512 
L 526.974545 324.380163 
L 533.061818 314.529562 
L 539.149091 304.279495 
L 545.236364 293.607809 
L 551.323636 282.491377 
L 557.410909 270.90607 
L 563.498182 258.826729 
L 569.585455 246.227131 
L 575.672727 233.079959 
L 581.76 219.35677 
L 587.847273 205.027966 
L 593.934545 190.062765 
L 600.021818 174.429163 
L 606.109091 158.093915 
L 612.196364 141.022498 
L 618.283636 123.179088 
L 624.370909 104.526534 
L 630.458182 85.026333 
L 636.545455 64.638603 
L 642.632727 43.322069 
L 648.72 21.034035 
L 654.48049 -1 
L 654.48049 -1 
" clip-path="url(#p0ae47b9e69)" style="fill: none; stroke: #ff0000; stroke-width: 2; stroke-linecap: square"/>
   </g>
   <g id="line2d_50">
    <path d="M 182.029091 638.948922 
L 194.203636 628.047026 
L 206.378182 617.470999 
L 218.552727 607.186681 
L 232.756364 595.511328 
L 246.96 584.131437 
L 263.192727 571.415558 
L 283.483636 555.828617 
L 346.385455 507.804013 
L 360.589091 496.599993 
L 374.792727 485.10028 
L 386.967273 474.942269 
L 397.112727 466.21991 
L 407.258182 457.224409 
L 417.403636 447.916345 
L 427.549091 438.253469 
L 435.665455 430.237343 
L 443.781818 421.940421 
L 451.898182 413.336461 
L 460.014545 404.397634 
L 468.130909 395.094415 
L 476.247273 385.395465 
L 484.363636 375.267512 
L 492.48 364.675226 
L 498.567273 356.403805 
L 504.654545 347.833458 
L 510.741818 338.946736 
L 516.829091 329.725398 
L 522.916364 320.150371 
L 529.003636 310.201726 
L 535.090909 299.858641 
L 541.178182 289.099377 
L 547.265455 277.901245 
L 553.352727 266.240576 
L 559.44 254.092689 
L 565.527273 241.431865 
L 571.614545 228.231312 
L 577.701818 214.463139 
L 583.789091 200.09832 
L 589.876364 185.10667 
L 595.963636 169.45681 
L 602.050909 153.116138 
L 608.138182 136.050806 
L 614.225455 118.225686 
L 620.312727 99.604344 
L 626.4 80.149022 
L 632.487273 59.820607 
L 638.574545 38.578609 
L 644.661818 16.381145 
L 649.245183 -1 
L 649.245183 -1 
" clip-path="url(#p0ae47b9e69)" style="fill: none; stroke: #ffa500; stroke-width: 2; stroke-linecap: square"/>
   </g>
   <g id="line2d_51">
    <path d="M 182.029091 638.920268 
L 194.203636 627.849612 
L 206.378182 617.109869 
L 218.552727 606.666351 
L 232.756364 594.810265 
L 246.96 583.254215 
L 263.192727 570.341495 
L 283.483636 554.51327 
L 346.385455 505.745251 
L 360.589091 494.367795 
L 374.792727 482.690067 
L 386.967273 472.374812 
L 397.112727 463.517431 
L 407.258182 454.382681 
L 417.403636 444.93053 
L 427.549091 435.118073 
L 435.665455 426.977859 
L 443.781818 418.552502 
L 451.898182 409.815354 
L 460.014545 400.738155 
L 468.130909 391.290923 
L 476.247273 381.441834 
L 484.363636 371.157102 
L 490.450909 363.136162 
L 496.538182 354.834084 
L 502.625455 346.234183 
L 508.712727 337.319004 
L 514.8 328.070296 
L 520.887273 318.468975 
L 526.974545 308.495097 
L 533.061818 298.127824 
L 539.149091 287.345394 
L 545.236364 276.125091 
L 551.323636 264.443215 
L 557.410909 252.275049 
L 563.498182 239.594832 
L 569.585455 226.375722 
L 575.672727 212.589772 
L 581.76 198.207895 
L 587.847273 183.199835 
L 593.934545 167.534132 
L 600.021818 151.178101 
L 606.109091 134.097791 
L 612.196364 116.257968 
L 618.283636 97.622079 
L 624.370909 78.152233 
L 630.458182 57.809171 
L 636.545455 36.552247 
L 642.632727 14.339402 
L 646.685232 -1 
L 646.685232 -1 
" clip-path="url(#p0ae47b9e69)" style="fill: none; stroke: #00ff00; stroke-width: 2; stroke-linecap: square"/>
   </g>
   <g id="patch_3">
    <path d="M 180 640.8 
L 180 86.4 
" style="fill: none; stroke: #000000; stroke-width: 0.8; stroke-linejoin: miter; stroke-linecap: square"/>
   </g>
   <g id="patch_4">
    <path d="M 687.272727 640.8 
L 687.272727 86.4 
" style="fill: none; stroke: #000000; stroke-width: 0.8; stroke-linejoin: miter; stroke-linecap: square"/>
   </g>
   <g id="patch_5">
    <path d="M 180 640.8 
L 687.272727 640.8 
" style="fill: none; stroke: #000000; stroke-width: 0.8; stroke-linejoin: miter; stroke-linecap: square"/>
   </g>
   <g id="patch_6">
    <path d="M 180 86.4 
L 687.272727 86.4 
" style="fill: none; stroke: #000000; stroke-width: 0.8; stroke-linejoin: miter; stroke-linecap: square"/>
   </g>
   <g id="legend_1">
    <g id="patch_7">
     <path d="M 188.4 215.030625 
L 278.015625 215.030625 
Q 280.415625 215.030625 280.415625 212.630625 
L 280.415625 94.8 
Q 280.415625 92.4 278.015625 92.4 
L 188.4 92.4 
Q 186 92.4 186 94.8 
L 186 212.630625 
Q 186 215.030625 188.4 215.030625 
z
" style="fill: #ffffff; opacity: 0.8; stroke: #cccccc; stroke-linejoin: miter"/>
    </g>
    <g id="line2d_52">
     <path d="M 190.8 101.4 
L 202.8 101.4 
L 214.8 101.4 
" style="fill: none; stroke: #000000; stroke-width: 2; stroke-linecap: square"/>
    </g>
    <g id="text_25">
     <!-- T = 298 K -->
     <g transform="translate(224.4 105.6) scale(0.12 -0.12)">
      <defs>
       <path id="STIXGeneral-Regular-54" d="M 3795 3149 
L 3642 3149 
Q 3539 3674 3353 3821 
Q 3168 3968 2656 3968 
L 2278 3968 
L 2278 710 
Q 2278 346 2387 243 
Q 2496 141 2893 122 
L 2893 0 
L 1024 0 
L 1024 122 
Q 1427 147 1526 256 
Q 1626 365 1626 787 
L 1626 3968 
L 1242 3968 
Q 723 3968 540 3817 
Q 358 3667 262 3149 
L 109 3149 
L 154 4237 
L 3750 4237 
L 3795 3149 
z
" transform="scale(0.015625)"/>
       <path id="STIXGeneral-Regular-20" transform="scale(0.015625)"/>
       <path id="STIXGeneral-Regular-3d" d="M 4077 2048 
L 307 2048 
L 307 2470 
L 4077 2470 
L 4077 2048 
z
M 4077 768 
L 307 768 
L 307 1190 
L 4077 1190 
L 4077 768 
z
" transform="scale(0.015625)"/>
       <path id="STIXGeneral-Regular-39" d="M 378 -141 
L 358 -13 
Q 1094 115 1603 608 
Q 2112 1101 2304 1882 
Q 1933 1517 1344 1517 
Q 826 1517 509 1875 
Q 192 2234 192 2816 
Q 192 3462 573 3894 
Q 954 4326 1523 4326 
Q 2131 4326 2528 3840 
Q 2938 3328 2938 2522 
Q 2938 1958 2742 1462 
Q 2547 966 2170 621 
Q 1773 262 1395 105 
Q 1018 -51 378 -141 
z
M 2317 2272 
L 2317 2522 
Q 2317 4147 1472 4147 
Q 1171 4147 1005 3930 
Q 909 3802 845 3546 
Q 781 3290 781 3034 
Q 781 2464 995 2128 
Q 1210 1792 1568 1792 
Q 1824 1792 2070 1917 
Q 2317 2042 2317 2272 
z
" transform="scale(0.015625)"/>
       <path id="STIXGeneral-Regular-38" d="M 2848 992 
Q 2848 499 2505 204 
Q 2163 -90 1587 -90 
Q 1050 -90 704 204 
Q 358 499 358 954 
Q 358 1293 524 1533 
Q 691 1773 1190 2125 
Q 710 2522 553 2765 
Q 397 3008 397 3328 
Q 397 3782 745 4054 
Q 1094 4326 1638 4326 
Q 2106 4326 2410 4060 
Q 2714 3795 2714 3411 
Q 2714 3059 2531 2848 
Q 2349 2637 1856 2374 
Q 2432 1990 2640 1689 
Q 2848 1389 2848 992 
z
M 2272 3411 
Q 2272 3744 2086 3945 
Q 1901 4147 1574 4147 
Q 1248 4147 1059 3977 
Q 870 3808 870 3513 
Q 870 3219 1059 2979 
Q 1248 2739 1670 2490 
Q 1997 2682 2134 2896 
Q 2272 3110 2272 3411 
z
M 1734 1741 
L 1357 1997 
Q 1075 1766 960 1545 
Q 845 1325 845 1011 
Q 845 576 1065 333 
Q 1286 90 1658 90 
Q 1971 90 2166 285 
Q 2362 480 2362 794 
Q 2362 1082 2214 1299 
Q 2067 1517 1734 1741 
z
" transform="scale(0.015625)"/>
       <path id="STIXGeneral-Regular-4b" d="M 4627 0 
L 2688 0 
L 2688 122 
L 2861 128 
Q 3130 134 3130 282 
Q 3130 397 2922 643 
Q 2714 890 2253 1370 
L 1613 2029 
L 1446 1894 
L 1446 710 
Q 1446 352 1548 253 
Q 1651 154 2016 122 
L 2016 0 
L 211 0 
L 211 122 
Q 589 141 691 262 
Q 794 384 794 800 
L 794 3514 
Q 794 3872 691 3981 
Q 589 4090 218 4115 
L 218 4237 
L 2022 4237 
L 2022 4115 
Q 1632 4090 1539 3987 
Q 1446 3885 1446 3507 
L 1446 2227 
L 2586 3277 
Q 2861 3533 2973 3667 
Q 3085 3802 3085 3910 
Q 3085 4013 3030 4057 
Q 2976 4102 2822 4109 
L 2662 4115 
L 2662 4237 
L 4320 4237 
L 4320 4115 
Q 3994 4090 3824 4003 
Q 3654 3917 3322 3597 
L 2131 2458 
L 3629 819 
Q 4026 384 4214 253 
Q 4403 122 4627 122 
L 4627 0 
z
" transform="scale(0.015625)"/>
      </defs>
      <use xlink:href="#STIXGeneral-Regular-54"/>
      <use xlink:href="#STIXGeneral-Regular-20" x="61.099991"/>
      <use xlink:href="#STIXGeneral-Regular-3d" x="86.099976"/>
      <use xlink:href="#STIXGeneral-Regular-20" x="154.59996"/>
      <use xlink:href="#STIXGeneral-Regular-32" x="179.599945"/>
      <use xlink:href="#STIXGeneral-Regular-39" x="229.59993"/>
      <use xlink:href="#STIXGeneral-Regular-38" x="279.599915"/>
      <use xlink:href="#STIXGeneral-Regular-20" x="329.599899"/>
      <use xlink:href="#STIXGeneral-Regular-4b" x="354.599884"/>
     </g>
    </g>
    <g id="line2d_53">
     <path d="M 190.8 118.404375 
L 202.8 118.404375 
L 214.8 118.404375 
" style="fill: none; stroke: #0000ff; stroke-width: 2; stroke-linecap: square"/>
    </g>
    <g id="text_26">
     <!-- T = 303 K -->
     <g transform="translate(224.4 122.604375) scale(0.12 -0.12)">
      <use xlink:href="#STIXGeneral-Regular-54"/>
      <use xlink:href="#STIXGeneral-Regular-20" x="61.099991"/>
      <use xlink:href="#STIXGeneral-Regular-3d" x="86.099976"/>
      <use xlink:href="#STIXGeneral-Regular-20" x="154.59996"/>
      <use xlink:href="#STIXGeneral-Regular-33" x="179.599945"/>
      <use xlink:href="#STIXGeneral-Regular-30" x="229.59993"/>
      <use xlink:href="#STIXGeneral-Regular-33" x="279.599915"/>
      <use xlink:href="#STIXGeneral-Regular-20" x="329.599899"/>
      <use xlink:href="#STIXGeneral-Regular-4b" x="354.599884"/>
     </g>
    </g>
    <g id="line2d_54">
     <path d="M 190.8 135.40875 
L 202.8 135.40875 
L 214.8 135.40875 
" style="fill: none; stroke: #00bfbf; stroke-width: 2; stroke-linecap: square"/>
    </g>
    <g id="text_27">
     <!-- T = 308 K -->
     <g transform="translate(224.4 139.60875) scale(0.12 -0.12)">
      <use xlink:href="#STIXGeneral-Regular-54"/>
      <use xlink:href="#STIXGeneral-Regular-20" x="61.099991"/>
      <use xlink:href="#STIXGeneral-Regular-3d" x="86.099976"/>
      <use xlink:href="#STIXGeneral-Regular-20" x="154.59996"/>
      <use xlink:href="#STIXGeneral-Regular-33" x="179.599945"/>
      <use xlink:href="#STIXGeneral-Regular-30" x="229.59993"/>
      <use xlink:href="#STIXGeneral-Regular-38" x="279.599915"/>
      <use xlink:href="#STIXGeneral-Regular-20" x="329.599899"/>
      <use xlink:href="#STIXGeneral-Regular-4b" x="354.599884"/>
     </g>
    </g>
    <g id="line2d_55">
     <path d="M 190.8 152.413125 
L 202.8 152.413125 
L 214.8 152.413125 
" style="fill: none; stroke: #bf00bf; stroke-width: 2; stroke-linecap: square"/>
    </g>
    <g id="text_28">
     <!-- T = 313 K -->
     <g transform="translate(224.4 156.613125) scale(0.12 -0.12)">
      <use xlink:href="#STIXGeneral-Regular-54"/>
      <use xlink:href="#STIXGeneral-Regular-20" x="61.099991"/>
      <use xlink:href="#STIXGeneral-Regular-3d" x="86.099976"/>
      <use xlink:href="#STIXGeneral-Regular-20" x="154.59996"/>
      <use xlink:href="#STIXGeneral-Regular-33" x="179.599945"/>
      <use xlink:href="#STIXGeneral-Regular-31" x="229.59993"/>
      <use xlink:href="#STIXGeneral-Regular-33" x="279.599915"/>
      <use xlink:href="#STIXGeneral-Regular-20" x="329.599899"/>
      <use xlink:href="#STIXGeneral-Regular-4b" x="354.599884"/>
     </g>
    </g>
    <g id="line2d_56">
     <path d="M 190.8 169.4175 
L 202.8 169.4175 
L 214.8 169.4175 
" style="fill: none; stroke: #ff0000; stroke-width: 2; stroke-linecap: square"/>
    </g>
    <g id="text_29">
     <!-- T = 318 K -->
     <g transform="translate(224.4 173.6175) scale(0.12 -0.12)">
      <use xlink:href="#STIXGeneral-Regular-54"/>
      <use xlink:href="#STIXGeneral-Regular-20" x="61.099991"/>
      <use xlink:href="#STIXGeneral-Regular-3d" x="86.099976"/>
      <use xlink:href="#STIXGeneral-Regular-20" x="154.59996"/>
      <use xlink:href="#STIXGeneral-Regular-33" x="179.599945"/>
      <use xlink:href="#STIXGeneral-Regular-31" x="229.59993"/>
      <use xlink:href="#STIXGeneral-Regular-38" x="279.599915"/>
      <use xlink:href="#STIXGeneral-Regular-20" x="329.599899"/>
      <use xlink:href="#STIXGeneral-Regular-4b" x="354.599884"/>
     </g>
    </g>
    <g id="line2d_57">
     <path d="M 190.8 186.421875 
L 202.8 186.421875 
L 214.8 186.421875 
" style="fill: none; stroke: #ffa500; stroke-width: 2; stroke-linecap: square"/>
    </g>
    <g id="text_30">
     <!-- T = 323 K -->
     <g transform="translate(224.4 190.621875) scale(0.12 -0.12)">
      <use xlink:href="#STIXGeneral-Regular-54"/>
      <use xlink:href="#STIXGeneral-Regular-20" x="61.099991"/>
      <use xlink:href="#STIXGeneral-Regular-3d" x="86.099976"/>
      <use xlink:href="#STIXGeneral-Regular-20" x="154.59996"/>
      <use xlink:href="#STIXGeneral-Regular-33" x="179.599945"/>
      <use xlink:href="#STIXGeneral-Regular-32" x="229.59993"/>
      <use xlink:href="#STIXGeneral-Regular-33" x="279.599915"/>
      <use xlink:href="#STIXGeneral-Regular-20" x="329.599899"/>
      <use xlink:href="#STIXGeneral-Regular-4b" x="354.599884"/>
     </g>
    </g>
    <g id="line2d_58">
     <path d="M 190.8 203.42625 
L 202.8 203.42625 
L 214.8 203.42625 
" style="fill: none; stroke: #00ff00; stroke-width: 2; stroke-linecap: square"/>
    </g>
    <g id="text_31">
     <!-- T = 328 K -->
     <g transform="translate(224.4 207.62625) scale(0.12 -0.12)">
      <use xlink:href="#STIXGeneral-Regular-54"/>
      <use xlink:href="#STIXGeneral-Regular-20" x="61.099991"/>
      <use xlink:href="#STIXGeneral-Regular-3d" x="86.099976"/>
      <use xlink:href="#STIXGeneral-Regular-20" x="154.59996"/>
      <use xlink:href="#STIXGeneral-Regular-33" x="179.599945"/>
      <use xlink:href="#STIXGeneral-Regular-32" x="229.59993"/>
      <use xlink:href="#STIXGeneral-Regular-38" x="279.599915"/>
      <use xlink:href="#STIXGeneral-Regular-20" x="329.599899"/>
      <use xlink:href="#STIXGeneral-Regular-4b" x="354.599884"/>
     </g>
    </g>
   </g>
  </g>
  <g id="axes_2">
   <g id="patch_8">
    <path d="M 788.727273 640.8 
L 1296 640.8 
L 1296 86.4 
L 788.727273 86.4 
z
" style="fill: #ffffff"/>
   </g>
   <g id="matplotlib.axis_3">
    <g id="xtick_12">
     <g id="line2d_59">
      <path d="M 788.727273 640.8 
L 788.727273 86.4 
" clip-path="url(#pa977bbb601)" style="fill: none; stroke-dasharray: 2.96,1.28; stroke-dashoffset: 0; stroke: #000000; stroke-opacity: 0.8; stroke-width: 0.8"/>
     </g>
     <g id="line2d_60">
      <g>
       <use xlink:href="#m485cd35116" x="788.727273" y="640.8" style="stroke: #000000; stroke-width: 0.8"/>
      </g>
     </g>
     <g id="text_32">
      <!-- 0.0 -->
      <g transform="translate(781.227273 655.995625) scale(0.12 -0.12)">
       <defs>
        <path id="STIXGeneral-Regular-2e" d="M 1158 275 
Q 1158 134 1052 32 
Q 947 -70 800 -70 
Q 653 -70 550 32 
Q 448 134 448 281 
Q 448 429 553 534 
Q 659 640 806 640 
Q 947 640 1052 531 
Q 1158 422 1158 275 
z
" transform="scale(0.015625)"/>
       </defs>
       <use xlink:href="#STIXGeneral-Regular-30"/>
       <use xlink:href="#STIXGeneral-Regular-2e" x="49.999985"/>
       <use xlink:href="#STIXGeneral-Regular-30" x="74.999969"/>
      </g>
     </g>
    </g>
    <g id="xtick_13">
     <g id="line2d_61">
      <path d="M 839.454545 640.8 
L 839.454545 86.4 
" clip-path="url(#pa977bbb601)" style="fill: none; stroke-dasharray: 2.96,1.28; stroke-dashoffset: 0; stroke: #000000; stroke-opacity: 0.8; stroke-width: 0.8"/>
     </g>
     <g id="line2d_62">
      <g>
       <use xlink:href="#m485cd35116" x="839.454545" y="640.8" style="stroke: #000000; stroke-width: 0.8"/>
      </g>
     </g>
     <g id="text_33">
      <!-- 2.5 -->
      <g transform="translate(831.954545 655.995625) scale(0.12 -0.12)">
       <use xlink:href="#STIXGeneral-Regular-32"/>
       <use xlink:href="#STIXGeneral-Regular-2e" x="49.999985"/>
       <use xlink:href="#STIXGeneral-Regular-35" x="74.999969"/>
      </g>
     </g>
    </g>
    <g id="xtick_14">
     <g id="line2d_63">
      <path d="M 890.181818 640.8 
L 890.181818 86.4 
" clip-path="url(#pa977bbb601)" style="fill: none; stroke-dasharray: 2.96,1.28; stroke-dashoffset: 0; stroke: #000000; stroke-opacity: 0.8; stroke-width: 0.8"/>
     </g>
     <g id="line2d_64">
      <g>
       <use xlink:href="#m485cd35116" x="890.181818" y="640.8" style="stroke: #000000; stroke-width: 0.8"/>
      </g>
     </g>
     <g id="text_34">
      <!-- 5.0 -->
      <g transform="translate(882.681818 655.995625) scale(0.12 -0.12)">
       <use xlink:href="#STIXGeneral-Regular-35"/>
       <use xlink:href="#STIXGeneral-Regular-2e" x="49.999985"/>
       <use xlink:href="#STIXGeneral-Regular-30" x="74.999969"/>
      </g>
     </g>
    </g>
    <g id="xtick_15">
     <g id="line2d_65">
      <path d="M 940.909091 640.8 
L 940.909091 86.4 
" clip-path="url(#pa977bbb601)" style="fill: none; stroke-dasharray: 2.96,1.28; stroke-dashoffset: 0; stroke: #000000; stroke-opacity: 0.8; stroke-width: 0.8"/>
     </g>
     <g id="line2d_66">
      <g>
       <use xlink:href="#m485cd35116" x="940.909091" y="640.8" style="stroke: #000000; stroke-width: 0.8"/>
      </g>
     </g>
     <g id="text_35">
      <!-- 7.5 -->
      <g transform="translate(933.409091 655.995625) scale(0.12 -0.12)">
       <use xlink:href="#STIXGeneral-Regular-37"/>
       <use xlink:href="#STIXGeneral-Regular-2e" x="49.999985"/>
       <use xlink:href="#STIXGeneral-Regular-35" x="74.999969"/>
      </g>
     </g>
    </g>
    <g id="xtick_16">
     <g id="line2d_67">
      <path d="M 991.636364 640.8 
L 991.636364 86.4 
" clip-path="url(#pa977bbb601)" style="fill: none; stroke-dasharray: 2.96,1.28; stroke-dashoffset: 0; stroke: #000000; stroke-opacity: 0.8; stroke-width: 0.8"/>
     </g>
     <g id="line2d_68">
      <g>
       <use xlink:href="#m485cd35116" x="991.636364" y="640.8" style="stroke: #000000; stroke-width: 0.8"/>
      </g>
     </g>
     <g id="text_36">
      <!-- 10.0 -->
      <g transform="translate(981.136364 655.995625) scale(0.12 -0.12)">
       <use xlink:href="#STIXGeneral-Regular-31"/>
       <use xlink:href="#STIXGeneral-Regular-30" x="49.999985"/>
       <use xlink:href="#STIXGeneral-Regular-2e" x="99.999969"/>
       <use xlink:href="#STIXGeneral-Regular-30" x="124.999954"/>
      </g>
     </g>
    </g>
    <g id="xtick_17">
     <g id="line2d_69">
      <path d="M 1042.363636 640.8 
L 1042.363636 86.4 
" clip-path="url(#pa977bbb601)" style="fill: none; stroke-dasharray: 2.96,1.28; stroke-dashoffset: 0; stroke: #000000; stroke-opacity: 0.8; stroke-width: 0.8"/>
     </g>
     <g id="line2d_70">
      <g>
       <use xlink:href="#m485cd35116" x="1042.363636" y="640.8" style="stroke: #000000; stroke-width: 0.8"/>
      </g>
     </g>
     <g id="text_37">
      <!-- 12.5 -->
      <g transform="translate(1031.863636 655.995625) scale(0.12 -0.12)">
       <use xlink:href="#STIXGeneral-Regular-31"/>
       <use xlink:href="#STIXGeneral-Regular-32" x="49.999985"/>
       <use xlink:href="#STIXGeneral-Regular-2e" x="99.999969"/>
       <use xlink:href="#STIXGeneral-Regular-35" x="124.999954"/>
      </g>
     </g>
    </g>
    <g id="xtick_18">
     <g id="line2d_71">
      <path d="M 1093.090909 640.8 
L 1093.090909 86.4 
" clip-path="url(#pa977bbb601)" style="fill: none; stroke-dasharray: 2.96,1.28; stroke-dashoffset: 0; stroke: #000000; stroke-opacity: 0.8; stroke-width: 0.8"/>
     </g>
     <g id="line2d_72">
      <g>
       <use xlink:href="#m485cd35116" x="1093.090909" y="640.8" style="stroke: #000000; stroke-width: 0.8"/>
      </g>
     </g>
     <g id="text_38">
      <!-- 15.0 -->
      <g transform="translate(1082.590909 655.995625) scale(0.12 -0.12)">
       <use xlink:href="#STIXGeneral-Regular-31"/>
       <use xlink:href="#STIXGeneral-Regular-35" x="49.999985"/>
       <use xlink:href="#STIXGeneral-Regular-2e" x="99.999969"/>
       <use xlink:href="#STIXGeneral-Regular-30" x="124.999954"/>
      </g>
     </g>
    </g>
    <g id="xtick_19">
     <g id="line2d_73">
      <path d="M 1143.818182 640.8 
L 1143.818182 86.4 
" clip-path="url(#pa977bbb601)" style="fill: none; stroke-dasharray: 2.96,1.28; stroke-dashoffset: 0; stroke: #000000; stroke-opacity: 0.8; stroke-width: 0.8"/>
     </g>
     <g id="line2d_74">
      <g>
       <use xlink:href="#m485cd35116" x="1143.818182" y="640.8" style="stroke: #000000; stroke-width: 0.8"/>
      </g>
     </g>
     <g id="text_39">
      <!-- 17.5 -->
      <g transform="translate(1133.318182 655.995625) scale(0.12 -0.12)">
       <use xlink:href="#STIXGeneral-Regular-31"/>
       <use xlink:href="#STIXGeneral-Regular-37" x="49.999985"/>
       <use xlink:href="#STIXGeneral-Regular-2e" x="99.999969"/>
       <use xlink:href="#STIXGeneral-Regular-35" x="124.999954"/>
      </g>
     </g>
    </g>
    <g id="xtick_20">
     <g id="line2d_75">
      <path d="M 1194.545455 640.8 
L 1194.545455 86.4 
" clip-path="url(#pa977bbb601)" style="fill: none; stroke-dasharray: 2.96,1.28; stroke-dashoffset: 0; stroke: #000000; stroke-opacity: 0.8; stroke-width: 0.8"/>
     </g>
     <g id="line2d_76">
      <g>
       <use xlink:href="#m485cd35116" x="1194.545455" y="640.8" style="stroke: #000000; stroke-width: 0.8"/>
      </g>
     </g>
     <g id="text_40">
      <!-- 20.0 -->
      <g transform="translate(1184.045455 655.995625) scale(0.12 -0.12)">
       <use xlink:href="#STIXGeneral-Regular-32"/>
       <use xlink:href="#STIXGeneral-Regular-30" x="49.999985"/>
       <use xlink:href="#STIXGeneral-Regular-2e" x="99.999969"/>
       <use xlink:href="#STIXGeneral-Regular-30" x="124.999954"/>
      </g>
     </g>
    </g>
    <g id="xtick_21">
     <g id="line2d_77">
      <path d="M 1245.272727 640.8 
L 1245.272727 86.4 
" clip-path="url(#pa977bbb601)" style="fill: none; stroke-dasharray: 2.96,1.28; stroke-dashoffset: 0; stroke: #000000; stroke-opacity: 0.8; stroke-width: 0.8"/>
     </g>
     <g id="line2d_78">
      <g>
       <use xlink:href="#m485cd35116" x="1245.272727" y="640.8" style="stroke: #000000; stroke-width: 0.8"/>
      </g>
     </g>
     <g id="text_41">
      <!-- 22.5 -->
      <g transform="translate(1234.772727 655.995625) scale(0.12 -0.12)">
       <use xlink:href="#STIXGeneral-Regular-32"/>
       <use xlink:href="#STIXGeneral-Regular-32" x="49.999985"/>
       <use xlink:href="#STIXGeneral-Regular-2e" x="99.999969"/>
       <use xlink:href="#STIXGeneral-Regular-35" x="124.999954"/>
      </g>
     </g>
    </g>
    <g id="xtick_22">
     <g id="line2d_79">
      <path d="M 1296 640.8 
L 1296 86.4 
" clip-path="url(#pa977bbb601)" style="fill: none; stroke-dasharray: 2.96,1.28; stroke-dashoffset: 0; stroke: #000000; stroke-opacity: 0.8; stroke-width: 0.8"/>
     </g>
     <g id="line2d_80">
      <g>
       <use xlink:href="#m485cd35116" x="1296" y="640.8" style="stroke: #000000; stroke-width: 0.8"/>
      </g>
     </g>
     <g id="text_42">
      <!-- 25.0 -->
      <g transform="translate(1285.5 655.995625) scale(0.12 -0.12)">
       <use xlink:href="#STIXGeneral-Regular-32"/>
       <use xlink:href="#STIXGeneral-Regular-35" x="49.999985"/>
       <use xlink:href="#STIXGeneral-Regular-2e" x="99.999969"/>
       <use xlink:href="#STIXGeneral-Regular-30" x="124.999954"/>
      </g>
     </g>
    </g>
    <g id="text_43">
     <!-- $\rho_{CH_4}[\mathrm{kg}/\mathrm{m}^{3}]$ -->
     <g transform="translate(1005.388636 675.05) scale(0.15 -0.15)">
      <use xlink:href="#STIXGeneral-Italic-3c1" transform="translate(0 0.409375)"/>
      <use xlink:href="#STIXGeneral-Italic-43" transform="translate(50.399994 -12.81875) scale(0.7)"/>
      <use xlink:href="#STIXGeneral-Italic-48" transform="translate(97.089992 -12.81875) scale(0.7)"/>
      <use xlink:href="#STIXGeneral-Regular-34" transform="translate(147.629979 -22.078437) scale(0.49)"/>
      <use xlink:href="#STIXGeneral-Regular-5b" transform="translate(179.625909 0.409375)"/>
      <use xlink:href="#STIXGeneral-Regular-6b" transform="translate(212.925897 0.409375)"/>
      <use xlink:href="#STIXGeneral-Regular-67" transform="translate(262.925882 0.409375)"/>
      <use xlink:href="#STIXGeneral-Regular-2f" transform="translate(312.925866 0.409375)"/>
      <use xlink:href="#STIXGeneral-Regular-6d" transform="translate(340.725854 0.409375)"/>
      <use xlink:href="#STIXGeneral-Regular-33" transform="translate(420.069123 35.684375) scale(0.7)"/>
      <use xlink:href="#STIXGeneral-Regular-5d" transform="translate(459.478487 0.409375)"/>
     </g>
    </g>
   </g>
   <g id="matplotlib.axis_4">
    <g id="ytick_12">
     <g id="line2d_81">
      <path d="M 788.727273 640.8 
L 1296 640.8 
" clip-path="url(#pa977bbb601)" style="fill: none; stroke-dasharray: 2.96,1.28; stroke-dashoffset: 0; stroke: #000000; stroke-opacity: 0.8; stroke-width: 0.8"/>
     </g>
     <g id="line2d_82">
      <g>
       <use xlink:href="#m8dfb53fa3c" x="788.727273" y="640.8" style="stroke: #000000; stroke-width: 0.8"/>
      </g>
     </g>
     <g id="text_44">
      <!-- 0.0 -->
      <g transform="translate(766.727273 644.897812) scale(0.12 -0.12)">
       <use xlink:href="#STIXGeneral-Regular-30"/>
       <use xlink:href="#STIXGeneral-Regular-2e" x="49.999985"/>
       <use xlink:href="#STIXGeneral-Regular-30" x="74.999969"/>
      </g>
     </g>
    </g>
    <g id="ytick_13">
     <g id="line2d_83">
      <path d="M 788.727273 585.36 
L 1296 585.36 
" clip-path="url(#pa977bbb601)" style="fill: none; stroke-dasharray: 2.96,1.28; stroke-dashoffset: 0; stroke: #000000; stroke-opacity: 0.8; stroke-width: 0.8"/>
     </g>
     <g id="line2d_84">
      <g>
       <use xlink:href="#m8dfb53fa3c" x="788.727273" y="585.36" style="stroke: #000000; stroke-width: 0.8"/>
      </g>
     </g>
     <g id="text_45">
      <!-- 0.5 -->
      <g transform="translate(766.727273 589.457813) scale(0.12 -0.12)">
       <use xlink:href="#STIXGeneral-Regular-30"/>
       <use xlink:href="#STIXGeneral-Regular-2e" x="49.999985"/>
       <use xlink:href="#STIXGeneral-Regular-35" x="74.999969"/>
      </g>
     </g>
    </g>
    <g id="ytick_14">
     <g id="line2d_85">
      <path d="M 788.727273 529.92 
L 1296 529.92 
" clip-path="url(#pa977bbb601)" style="fill: none; stroke-dasharray: 2.96,1.28; stroke-dashoffset: 0; stroke: #000000; stroke-opacity: 0.8; stroke-width: 0.8"/>
     </g>
     <g id="line2d_86">
      <g>
       <use xlink:href="#m8dfb53fa3c" x="788.727273" y="529.92" style="stroke: #000000; stroke-width: 0.8"/>
      </g>
     </g>
     <g id="text_46">
      <!-- 1.0 -->
      <g transform="translate(766.727273 534.017812) scale(0.12 -0.12)">
       <use xlink:href="#STIXGeneral-Regular-31"/>
       <use xlink:href="#STIXGeneral-Regular-2e" x="49.999985"/>
       <use xlink:href="#STIXGeneral-Regular-30" x="74.999969"/>
      </g>
     </g>
    </g>
    <g id="ytick_15">
     <g id="line2d_87">
      <path d="M 788.727273 474.48 
L 1296 474.48 
" clip-path="url(#pa977bbb601)" style="fill: none; stroke-dasharray: 2.96,1.28; stroke-dashoffset: 0; stroke: #000000; stroke-opacity: 0.8; stroke-width: 0.8"/>
     </g>
     <g id="line2d_88">
      <g>
       <use xlink:href="#m8dfb53fa3c" x="788.727273" y="474.48" style="stroke: #000000; stroke-width: 0.8"/>
      </g>
     </g>
     <g id="text_47">
      <!-- 1.5 -->
      <g transform="translate(766.727273 478.577812) scale(0.12 -0.12)">
       <use xlink:href="#STIXGeneral-Regular-31"/>
       <use xlink:href="#STIXGeneral-Regular-2e" x="49.999985"/>
       <use xlink:href="#STIXGeneral-Regular-35" x="74.999969"/>
      </g>
     </g>
    </g>
    <g id="ytick_16">
     <g id="line2d_89">
      <path d="M 788.727273 419.04 
L 1296 419.04 
" clip-path="url(#pa977bbb601)" style="fill: none; stroke-dasharray: 2.96,1.28; stroke-dashoffset: 0; stroke: #000000; stroke-opacity: 0.8; stroke-width: 0.8"/>
     </g>
     <g id="line2d_90">
      <g>
       <use xlink:href="#m8dfb53fa3c" x="788.727273" y="419.04" style="stroke: #000000; stroke-width: 0.8"/>
      </g>
     </g>
     <g id="text_48">
      <!-- 2.0 -->
      <g transform="translate(766.727273 423.137812) scale(0.12 -0.12)">
       <use xlink:href="#STIXGeneral-Regular-32"/>
       <use xlink:href="#STIXGeneral-Regular-2e" x="49.999985"/>
       <use xlink:href="#STIXGeneral-Regular-30" x="74.999969"/>
      </g>
     </g>
    </g>
    <g id="ytick_17">
     <g id="line2d_91">
      <path d="M 788.727273 363.6 
L 1296 363.6 
" clip-path="url(#pa977bbb601)" style="fill: none; stroke-dasharray: 2.96,1.28; stroke-dashoffset: 0; stroke: #000000; stroke-opacity: 0.8; stroke-width: 0.8"/>
     </g>
     <g id="line2d_92">
      <g>
       <use xlink:href="#m8dfb53fa3c" x="788.727273" y="363.6" style="stroke: #000000; stroke-width: 0.8"/>
      </g>
     </g>
     <g id="text_49">
      <!-- 2.5 -->
      <g transform="translate(766.727273 367.697812) scale(0.12 -0.12)">
       <use xlink:href="#STIXGeneral-Regular-32"/>
       <use xlink:href="#STIXGeneral-Regular-2e" x="49.999985"/>
       <use xlink:href="#STIXGeneral-Regular-35" x="74.999969"/>
      </g>
     </g>
    </g>
    <g id="ytick_18">
     <g id="line2d_93">
      <path d="M 788.727273 308.16 
L 1296 308.16 
" clip-path="url(#pa977bbb601)" style="fill: none; stroke-dasharray: 2.96,1.28; stroke-dashoffset: 0; stroke: #000000; stroke-opacity: 0.8; stroke-width: 0.8"/>
     </g>
     <g id="line2d_94">
      <g>
       <use xlink:href="#m8dfb53fa3c" x="788.727273" y="308.16" style="stroke: #000000; stroke-width: 0.8"/>
      </g>
     </g>
     <g id="text_50">
      <!-- 3.0 -->
      <g transform="translate(766.727273 312.257812) scale(0.12 -0.12)">
       <use xlink:href="#STIXGeneral-Regular-33"/>
       <use xlink:href="#STIXGeneral-Regular-2e" x="49.999985"/>
       <use xlink:href="#STIXGeneral-Regular-30" x="74.999969"/>
      </g>
     </g>
    </g>
    <g id="ytick_19">
     <g id="line2d_95">
      <path d="M 788.727273 252.72 
L 1296 252.72 
" clip-path="url(#pa977bbb601)" style="fill: none; stroke-dasharray: 2.96,1.28; stroke-dashoffset: 0; stroke: #000000; stroke-opacity: 0.8; stroke-width: 0.8"/>
     </g>
     <g id="line2d_96">
      <g>
       <use xlink:href="#m8dfb53fa3c" x="788.727273" y="252.72" style="stroke: #000000; stroke-width: 0.8"/>
      </g>
     </g>
     <g id="text_51">
      <!-- 3.5 -->
      <g transform="translate(766.727273 256.817812) scale(0.12 -0.12)">
       <use xlink:href="#STIXGeneral-Regular-33"/>
       <use xlink:href="#STIXGeneral-Regular-2e" x="49.999985"/>
       <use xlink:href="#STIXGeneral-Regular-35" x="74.999969"/>
      </g>
     </g>
    </g>
    <g id="ytick_20">
     <g id="line2d_97">
      <path d="M 788.727273 197.28 
L 1296 197.28 
" clip-path="url(#pa977bbb601)" style="fill: none; stroke-dasharray: 2.96,1.28; stroke-dashoffset: 0; stroke: #000000; stroke-opacity: 0.8; stroke-width: 0.8"/>
     </g>
     <g id="line2d_98">
      <g>
       <use xlink:href="#m8dfb53fa3c" x="788.727273" y="197.28" style="stroke: #000000; stroke-width: 0.8"/>
      </g>
     </g>
     <g id="text_52">
      <!-- 4.0 -->
      <g transform="translate(766.727273 201.377813) scale(0.12 -0.12)">
       <use xlink:href="#STIXGeneral-Regular-34"/>
       <use xlink:href="#STIXGeneral-Regular-2e" x="49.999985"/>
       <use xlink:href="#STIXGeneral-Regular-30" x="74.999969"/>
      </g>
     </g>
    </g>
    <g id="ytick_21">
     <g id="line2d_99">
      <path d="M 788.727273 141.84 
L 1296 141.84 
" clip-path="url(#pa977bbb601)" style="fill: none; stroke-dasharray: 2.96,1.28; stroke-dashoffset: 0; stroke: #000000; stroke-opacity: 0.8; stroke-width: 0.8"/>
     </g>
     <g id="line2d_100">
      <g>
       <use xlink:href="#m8dfb53fa3c" x="788.727273" y="141.84" style="stroke: #000000; stroke-width: 0.8"/>
      </g>
     </g>
     <g id="text_53">
      <!-- 4.5 -->
      <g transform="translate(766.727273 145.937812) scale(0.12 -0.12)">
       <use xlink:href="#STIXGeneral-Regular-34"/>
       <use xlink:href="#STIXGeneral-Regular-2e" x="49.999985"/>
       <use xlink:href="#STIXGeneral-Regular-35" x="74.999969"/>
      </g>
     </g>
    </g>
    <g id="ytick_22">
     <g id="line2d_101">
      <path d="M 788.727273 86.4 
L 1296 86.4 
" clip-path="url(#pa977bbb601)" style="fill: none; stroke-dasharray: 2.96,1.28; stroke-dashoffset: 0; stroke: #000000; stroke-opacity: 0.8; stroke-width: 0.8"/>
     </g>
     <g id="line2d_102">
      <g>
       <use xlink:href="#m8dfb53fa3c" x="788.727273" y="86.4" style="stroke: #000000; stroke-width: 0.8"/>
      </g>
     </g>
     <g id="text_54">
      <!-- 5.0 -->
      <g transform="translate(766.727273 90.497812) scale(0.12 -0.12)">
       <use xlink:href="#STIXGeneral-Regular-35"/>
       <use xlink:href="#STIXGeneral-Regular-2e" x="49.999985"/>
       <use xlink:href="#STIXGeneral-Regular-30" x="74.999969"/>
      </g>
     </g>
    </g>
    <g id="text_55">
     <!-- $P\,[\mathrm{MPa}]$ -->
     <g transform="translate(759.471804 388.275) rotate(-90) scale(0.15 -0.15)">
      <use xlink:href="#STIXGeneral-Italic-50" transform="translate(0 0.796875)"/>
      <use xlink:href="#STIXGeneral-Regular-5b" transform="translate(73.133562 0.796875)"/>
      <use xlink:href="#STIXGeneral-Regular-4d" transform="translate(106.43355 0.796875)"/>
      <use xlink:href="#STIXGeneral-Regular-50" transform="translate(195.333543 0.796875)"/>
      <use xlink:href="#STIXGeneral-Regular-61" transform="translate(251.03354 0.796875)"/>
      <use xlink:href="#STIXGeneral-Regular-5d" transform="translate(295.433534 0.796875)"/>
     </g>
    </g>
   </g>
   <g id="line2d_103">
    <path d="M 809.018182 623.733784 
L 829.309091 606.783488 
L 849.6 589.94748 
L 869.890909 573.22414 
L 890.181818 556.611852 
L 910.472727 540.109008 
L 930.763636 523.714007 
L 951.054545 507.425249 
L 971.345455 491.241143 
L 991.636364 475.160098 
L 1011.927273 459.18053 
L 1032.218182 443.300854 
L 1052.509091 427.519488 
L 1072.8 411.834853 
L 1093.090909 396.245368 
L 1113.381818 380.749455 
L 1133.672727 365.345536 
L 1153.963636 350.032031 
L 1174.254545 334.807361 
L 1194.545455 319.669945 
L 1214.836364 304.618201 
L 1235.127273 289.650545 
L 1255.418182 274.765391 
L 1275.709091 259.961151 
L 1296 245.236235 
L 1316.290909 230.58905 
" clip-path="url(#pa977bbb601)" style="fill: none; stroke: #000000; stroke-width: 2; stroke-linecap: square"/>
   </g>
   <g id="line2d_104">
    <path d="M 809.018182 623.444839 
L 829.309091 606.202364 
L 849.6 589.07095 
L 869.890909 572.048982 
L 890.181818 555.134848 
L 910.472727 538.326945 
L 930.763636 521.623674 
L 951.054545 505.02344 
L 971.345455 488.524655 
L 991.636364 472.125732 
L 1011.927273 455.825086 
L 1032.218182 439.621137 
L 1052.509091 423.512304 
L 1072.8 407.497009 
L 1093.090909 391.573674 
L 1113.381818 375.740721 
L 1133.672727 359.996573 
L 1153.963636 344.33965 
L 1174.254545 328.768374 
L 1194.545455 313.281163 
L 1214.836364 297.876435 
L 1235.127273 282.552606 
L 1255.418182 267.308089 
L 1275.709091 252.141295 
L 1296 237.050632 
L 1316.290909 222.034504 
" clip-path="url(#pa977bbb601)" style="fill: none; stroke: #0000ff; stroke-width: 2; stroke-linecap: square"/>
   </g>
   <g id="line2d_105">
    <path d="M 809.018182 623.15591 
L 829.309091 605.621309 
L 849.6 588.194576 
L 869.890909 570.8741 
L 890.181818 553.658273 
L 910.472727 536.545496 
L 930.763636 519.534173 
L 951.054545 502.622714 
L 971.345455 485.80953 
L 991.636364 469.093038 
L 1011.927273 452.471655 
L 1032.218182 435.943802 
L 1052.509091 419.507901 
L 1072.8 403.162372 
L 1093.090909 386.90564 
L 1113.381818 370.736127 
L 1133.672727 354.652254 
L 1153.963636 338.652444 
L 1174.254545 322.735116 
L 1194.545455 306.898688 
L 1214.836364 291.141578 
L 1235.127273 275.462199 
L 1255.418182 259.858962 
L 1275.709091 244.330278 
L 1296 228.87455 
L 1316.290909 213.490183 
" clip-path="url(#pa977bbb601)" style="fill: none; stroke: #00bfbf; stroke-width: 2; stroke-linecap: square"/>
   </g>
   <g id="line2d_106">
    <path d="M 809.018182 622.866999 
L 829.309091 605.040321 
L 849.6 587.31835 
L 869.890909 569.69948 
L 890.181818 552.182106 
L 910.472727 534.764631 
L 930.763636 517.445464 
L 951.054545 500.223015 
L 971.345455 483.095698 
L 991.636364 466.061932 
L 1011.927273 449.120135 
L 1032.218182 432.268729 
L 1052.509091 415.506135 
L 1072.8 398.830776 
L 1093.090909 382.241076 
L 1113.381818 365.735455 
L 1133.672727 349.312337 
L 1153.963636 332.97014 
L 1174.254545 316.707285 
L 1194.545455 300.522187 
L 1214.836364 284.413262 
L 1235.127273 268.378921 
L 1255.418182 252.417573 
L 1275.709091 236.527626 
L 1296 220.70748 
L 1316.290909 204.955535 
" clip-path="url(#pa977bbb601)" style="fill: none; stroke: #bf00bf; stroke-width: 2; stroke-linecap: square"/>
   </g>
   <g id="line2d_107">
    <path d="M 809.018182 622.578103 
L 829.309091 604.459395 
L 849.6 586.442266 
L 869.890909 568.525109 
L 890.181818 550.706326 
L 910.472727 532.984322 
L 930.763636 515.357506 
L 951.054545 497.824292 
L 971.345455 480.383095 
L 991.636364 463.032334 
L 1011.927273 445.77043 
L 1032.218182 428.595802 
L 1052.509091 411.506874 
L 1072.8 394.502067 
L 1093.090909 377.579805 
L 1113.381818 360.738508 
L 1133.672727 343.976596 
L 1153.963636 327.292488 
L 1174.254545 310.684602 
L 1194.545455 294.151352 
L 1214.836364 277.691149 
L 1235.127273 261.302404 
L 1255.418182 244.983521 
L 1275.709091 228.732904 
L 1296 212.548951 
L 1316.290909 196.430057 
" clip-path="url(#pa977bbb601)" style="fill: none; stroke: #ff0000; stroke-width: 2; stroke-linecap: square"/>
   </g>
   <g id="line2d_108">
    <path d="M 809.018182 622.289222 
L 829.309091 603.87853 
L 849.6 585.566315 
L 869.890909 567.350976 
L 890.181818 549.230916 
L 910.472727 531.204542 
L 930.763636 513.270265 
L 951.054545 495.426499 
L 971.345455 477.671662 
L 991.636364 460.004172 
L 1011.927273 442.42245 
L 1032.218182 424.924917 
L 1052.509091 407.509994 
L 1072.8 390.176103 
L 1093.090909 372.921665 
L 1113.381818 355.745099 
L 1133.672727 338.644823 
L 1153.963636 321.619256 
L 1174.254545 304.66681 
L 1194.545455 287.785898 
L 1214.836364 270.974928 
L 1235.127273 254.232307 
L 1255.418182 237.556435 
L 1275.709091 220.945712 
L 1296 204.398532 
L 1316.290909 187.913284 
" clip-path="url(#pa977bbb601)" style="fill: none; stroke: #ffa500; stroke-width: 2; stroke-linecap: square"/>
   </g>
   <g id="line2d_109">
    <path d="M 809.018182 622.002677 
L 829.309091 603.30699 
L 849.6 584.711305 
L 869.890909 566.213994 
L 890.181818 547.813438 
L 910.472727 529.508017 
L 930.763636 511.29612 
L 951.054545 493.176135 
L 971.345455 475.146456 
L 991.636364 457.205475 
L 1011.927273 439.35159 
L 1032.218182 421.583197 
L 1052.509091 403.898694 
L 1072.8 386.296476 
L 1093.090909 368.774941 
L 1113.381818 351.332484 
L 1133.672727 333.967499 
L 1153.963636 316.678377 
L 1174.254545 299.46351 
L 1194.545455 282.321283 
L 1214.836364 265.250082 
L 1235.127273 248.248287 
L 1255.418182 231.314275 
L 1275.709091 214.44642 
L 1296 197.643091 
L 1316.290909 180.902654 
" clip-path="url(#pa977bbb601)" style="fill: none; stroke: #00ff00; stroke-width: 2; stroke-linecap: square"/>
   </g>
   <g id="patch_9">
    <path d="M 788.727273 640.8 
L 788.727273 86.4 
" style="fill: none; stroke: #000000; stroke-width: 0.8; stroke-linejoin: miter; stroke-linecap: square"/>
   </g>
   <g id="patch_10">
    <path d="M 1296 640.8 
L 1296 86.4 
" style="fill: none; stroke: #000000; stroke-width: 0.8; stroke-linejoin: miter; stroke-linecap: square"/>
   </g>
   <g id="patch_11">
    <path d="M 788.727273 640.8 
L 1296 640.8 
" style="fill: none; stroke: #000000; stroke-width: 0.8; stroke-linejoin: miter; stroke-linecap: square"/>
   </g>
   <g id="patch_12">
    <path d="M 788.727273 86.4 
L 1296 86.4 
" style="fill: none; stroke: #000000; stroke-width: 0.8; stroke-linejoin: miter; stroke-linecap: square"/>
   </g>
   <g id="legend_2">
    <g id="patch_13">
     <path d="M 797.127273 215.030625 
L 886.742898 215.030625 
Q 889.142898 215.030625 889.142898 212.630625 
L 889.142898 94.8 
Q 889.142898 92.4 886.742898 92.4 
L 797.127273 92.4 
Q 794.727273 92.4 794.727273 94.8 
L 794.727273 212.630625 
Q 794.727273 215.030625 797.127273 215.030625 
z
" style="fill: #ffffff; opacity: 0.8; stroke: #cccccc; stroke-linejoin: miter"/>
    </g>
    <g id="line2d_110">
     <path d="M 799.527273 101.4 
L 811.527273 101.4 
L 823.527273 101.4 
" style="fill: none; stroke: #000000; stroke-width: 2; stroke-linecap: square"/>
    </g>
    <g id="text_56">
     <!-- T = 298 K -->
     <g transform="translate(833.127273 105.6) scale(0.12 -0.12)">
      <use xlink:href="#STIXGeneral-Regular-54"/>
      <use xlink:href="#STIXGeneral-Regular-20" x="61.099991"/>
      <use xlink:href="#STIXGeneral-Regular-3d" x="86.099976"/>
      <use xlink:href="#STIXGeneral-Regular-20" x="154.59996"/>
      <use xlink:href="#STIXGeneral-Regular-32" x="179.599945"/>
      <use xlink:href="#STIXGeneral-Regular-39" x="229.59993"/>
      <use xlink:href="#STIXGeneral-Regular-38" x="279.599915"/>
      <use xlink:href="#STIXGeneral-Regular-20" x="329.599899"/>
      <use xlink:href="#STIXGeneral-Regular-4b" x="354.599884"/>
     </g>
    </g>
    <g id="line2d_111">
     <path d="M 799.527273 118.404375 
L 811.527273 118.404375 
L 823.527273 118.404375 
" style="fill: none; stroke: #0000ff; stroke-width: 2; stroke-linecap: square"/>
    </g>
    <g id="text_57">
     <!-- T = 303 K -->
     <g transform="translate(833.127273 122.604375) scale(0.12 -0.12)">
      <use xlink:href="#STIXGeneral-Regular-54"/>
      <use xlink:href="#STIXGeneral-Regular-20" x="61.099991"/>
      <use xlink:href="#STIXGeneral-Regular-3d" x="86.099976"/>
      <use xlink:href="#STIXGeneral-Regular-20" x="154.59996"/>
      <use xlink:href="#STIXGeneral-Regular-33" x="179.599945"/>
      <use xlink:href="#STIXGeneral-Regular-30" x="229.59993"/>
      <use xlink:href="#STIXGeneral-Regular-33" x="279.599915"/>
      <use xlink:href="#STIXGeneral-Regular-20" x="329.599899"/>
      <use xlink:href="#STIXGeneral-Regular-4b" x="354.599884"/>
     </g>
    </g>
    <g id="line2d_112">
     <path d="M 799.527273 135.40875 
L 811.527273 135.40875 
L 823.527273 135.40875 
" style="fill: none; stroke: #00bfbf; stroke-width: 2; stroke-linecap: square"/>
    </g>
    <g id="text_58">
     <!-- T = 308 K -->
     <g transform="translate(833.127273 139.60875) scale(0.12 -0.12)">
      <use xlink:href="#STIXGeneral-Regular-54"/>
      <use xlink:href="#STIXGeneral-Regular-20" x="61.099991"/>
      <use xlink:href="#STIXGeneral-Regular-3d" x="86.099976"/>
      <use xlink:href="#STIXGeneral-Regular-20" x="154.59996"/>
      <use xlink:href="#STIXGeneral-Regular-33" x="179.599945"/>
      <use xlink:href="#STIXGeneral-Regular-30" x="229.59993"/>
      <use xlink:href="#STIXGeneral-Regular-38" x="279.599915"/>
      <use xlink:href="#STIXGeneral-Regular-20" x="329.599899"/>
      <use xlink:href="#STIXGeneral-Regular-4b" x="354.599884"/>
     </g>
    </g>
    <g id="line2d_113">
     <path d="M 799.527273 152.413125 
L 811.527273 152.413125 
L 823.527273 152.413125 
" style="fill: none; stroke: #bf00bf; stroke-width: 2; stroke-linecap: square"/>
    </g>
    <g id="text_59">
     <!-- T = 313 K -->
     <g transform="translate(833.127273 156.613125) scale(0.12 -0.12)">
      <use xlink:href="#STIXGeneral-Regular-54"/>
      <use xlink:href="#STIXGeneral-Regular-20" x="61.099991"/>
      <use xlink:href="#STIXGeneral-Regular-3d" x="86.099976"/>
      <use xlink:href="#STIXGeneral-Regular-20" x="154.59996"/>
      <use xlink:href="#STIXGeneral-Regular-33" x="179.599945"/>
      <use xlink:href="#STIXGeneral-Regular-31" x="229.59993"/>
      <use xlink:href="#STIXGeneral-Regular-33" x="279.599915"/>
      <use xlink:href="#STIXGeneral-Regular-20" x="329.599899"/>
      <use xlink:href="#STIXGeneral-Regular-4b" x="354.599884"/>
     </g>
    </g>
    <g id="line2d_114">
     <path d="M 799.527273 169.4175 
L 811.527273 169.4175 
L 823.527273 169.4175 
" style="fill: none; stroke: #ff0000; stroke-width: 2; stroke-linecap: square"/>
    </g>
    <g id="text_60">
     <!-- T = 318 K -->
     <g transform="translate(833.127273 173.6175) scale(0.12 -0.12)">
      <use xlink:href="#STIXGeneral-Regular-54"/>
      <use xlink:href="#STIXGeneral-Regular-20" x="61.099991"/>
      <use xlink:href="#STIXGeneral-Regular-3d" x="86.099976"/>
      <use xlink:href="#STIXGeneral-Regular-20" x="154.59996"/>
      <use xlink:href="#STIXGeneral-Regular-33" x="179.599945"/>
      <use xlink:href="#STIXGeneral-Regular-31" x="229.59993"/>
      <use xlink:href="#STIXGeneral-Regular-38" x="279.599915"/>
      <use xlink:href="#STIXGeneral-Regular-20" x="329.599899"/>
      <use xlink:href="#STIXGeneral-Regular-4b" x="354.599884"/>
     </g>
    </g>
    <g id="line2d_115">
     <path d="M 799.527273 186.421875 
L 811.527273 186.421875 
L 823.527273 186.421875 
" style="fill: none; stroke: #ffa500; stroke-width: 2; stroke-linecap: square"/>
    </g>
    <g id="text_61">
     <!-- T = 323 K -->
     <g transform="translate(833.127273 190.621875) scale(0.12 -0.12)">
      <use xlink:href="#STIXGeneral-Regular-54"/>
      <use xlink:href="#STIXGeneral-Regular-20" x="61.099991"/>
      <use xlink:href="#STIXGeneral-Regular-3d" x="86.099976"/>
      <use xlink:href="#STIXGeneral-Regular-20" x="154.59996"/>
      <use xlink:href="#STIXGeneral-Regular-33" x="179.599945"/>
      <use xlink:href="#STIXGeneral-Regular-32" x="229.59993"/>
      <use xlink:href="#STIXGeneral-Regular-33" x="279.599915"/>
      <use xlink:href="#STIXGeneral-Regular-20" x="329.599899"/>
      <use xlink:href="#STIXGeneral-Regular-4b" x="354.599884"/>
     </g>
    </g>
    <g id="line2d_116">
     <path d="M 799.527273 203.42625 
L 811.527273 203.42625 
L 823.527273 203.42625 
" style="fill: none; stroke: #00ff00; stroke-width: 2; stroke-linecap: square"/>
    </g>
    <g id="text_62">
     <!-- T = 328 K -->
     <g transform="translate(833.127273 207.62625) scale(0.12 -0.12)">
      <use xlink:href="#STIXGeneral-Regular-54"/>
      <use xlink:href="#STIXGeneral-Regular-20" x="61.099991"/>
      <use xlink:href="#STIXGeneral-Regular-3d" x="86.099976"/>
      <use xlink:href="#STIXGeneral-Regular-20" x="154.59996"/>
      <use xlink:href="#STIXGeneral-Regular-33" x="179.599945"/>
      <use xlink:href="#STIXGeneral-Regular-32" x="229.59993"/>
      <use xlink:href="#STIXGeneral-Regular-38" x="279.599915"/>
      <use xlink:href="#STIXGeneral-Regular-20" x="329.599899"/>
      <use xlink:href="#STIXGeneral-Regular-4b" x="354.599884"/>
     </g>
    </g>
   </g>
  </g>
 </g>
 <defs>
  <clipPath id="p0ae47b9e69">
   <rect x="180" y="86.4" width="507.272727" height="554.4"/>
  </clipPath>
  <clipPath id="pa977bbb601">
   <rect x="788.727273" y="86.4" width="507.272727" height="554.4"/>
  </clipPath>
 </defs>
</svg>
